<?xml version="1.0" encoding="UTF-8"?>
<svg width="400px" height="400px" viewBox="0 0 400 400" version="1.1" xmlns="http://www.w3.org/2000/svg" xmlns:xlink="http://www.w3.org/1999/xlink">
    <!-- Generator: Sketch 49.1 (51147) - http://www.bohemiancoding.com/sketch -->
    <title>Artboard 5</title>
    <desc>Created with Sketch.</desc>
    <defs>
        <rect id="path-1" x="45" y="112" width="217" height="279"></rect>
        <rect id="path-2" x="0" y="0" width="78" height="68"></rect>
        <path d="M35.9233233,73.2362683 L44.4479135,73.2362683 C44.8480077,75.2945747 45.4055808,78.1630392 46.1206326,81.841662 C46.8356844,85.5202849 48.5356357,87.957117 51.2204864,89.1521586 L36.4156174,92.0299336 L36.7214657,83.1403524 L35.9233233,73.2362683 Z" id="path-4"></path>
    </defs>
    <g id="Artboard-5" stroke="none" stroke-width="1" fill="none" fill-rule="evenodd">
        <path d="M133.019531,71.2011719 C133.019531,72.4576886 132.563807,73.4374965 131.652344,74.140625 C130.740881,74.8437535 129.503914,75.1953125 127.941406,75.1953125 C126.248689,75.1953125 124.946619,74.9772157 124.035156,74.5410156 L124.035156,72.9394531 C124.621097,73.1868502 125.259111,73.3821607 125.949219,73.5253906 C126.639326,73.6686205 127.322913,73.7402344 128,73.7402344 C129.106776,73.7402344 129.940101,73.5302755 130.5,73.1103516 C131.059899,72.6904276 131.339844,72.1061235 131.339844,71.3574219 C131.339844,70.8626277 131.240561,70.4573583 131.041992,70.1416016 C130.843423,69.8258448 130.511396,69.5345065 130.045898,69.2675781 C129.580401,69.0006497 128.872401,68.6979184 127.921875,68.359375 C126.593743,67.8841122 125.64486,67.3209668 125.075195,66.6699219 C124.505531,66.018877 124.220703,65.1692761 124.220703,64.1210938 C124.220703,63.0208278 124.63411,62.1451855 125.460938,61.4941406 C126.287765,60.8430957 127.381504,60.5175781 128.742188,60.5175781 C130.161465,60.5175781 131.466791,60.7779922 132.658203,61.2988281 L132.140625,62.7441406 C130.962234,62.2493465 129.816412,62.0019531 128.703125,62.0019531 C127.824214,62.0019531 127.137372,62.1907533 126.642578,62.5683594 C126.147784,62.9459654 125.900391,63.4700487 125.900391,64.140625 C125.900391,64.6354191 125.991536,65.0406885 126.173828,65.3564453 C126.356121,65.6722021 126.663735,65.9619127 127.09668,66.2255859 C127.529625,66.4892591 128.192053,66.7805974 129.083984,67.0996094 C130.581388,67.6334662 131.611651,68.2063771 132.174805,68.8183594 C132.737959,69.4303416 133.019531,70.2246045 133.019531,71.2011719 Z M136.834053,75 L135.212959,75 L135.212959,64.296875 L136.834053,64.296875 L136.834053,75 Z M135.076241,61.3964844 C135.076241,61.0253888 135.167386,60.7535816 135.349678,60.5810547 C135.531971,60.4085278 135.759833,60.3222656 136.033272,60.3222656 C136.29369,60.3222656 136.518297,60.4101554 136.7071,60.5859375 C136.895903,60.7617196 136.990303,61.0318992 136.990303,61.3964844 C136.990303,61.7610695 136.895903,62.0328767 136.7071,62.2119141 C136.518297,62.3909514 136.29369,62.4804688 136.033272,62.4804688 C135.759833,62.4804688 135.531971,62.3909514 135.349678,62.2119141 C135.167386,62.0328767 135.076241,61.7610695 135.076241,61.3964844 Z M148.548966,64.296875 L148.548966,65.3222656 L146.566544,65.5566406 C146.748837,65.7845063 146.911595,66.0823549 147.054825,66.4501953 C147.198055,66.8180357 147.269669,67.2330706 147.269669,67.6953125 C147.269669,68.7434948 146.9116,69.580075 146.19545,70.2050781 C145.479301,70.8300813 144.496238,71.1425781 143.246231,71.1425781 C142.927219,71.1425781 142.627743,71.1165367 142.347794,71.0644531 C141.657686,71.4290383 141.312638,71.8880181 141.312638,72.4414062 C141.312638,72.7343765 141.433079,72.9508457 141.673966,73.0908203 C141.914852,73.230795 142.32826,73.3007812 142.9142,73.3007812 L144.808731,73.3007812 C145.967591,73.3007812 146.857882,73.5449194 147.47963,74.0332031 C148.101378,74.5214868 148.412247,75.2311151 148.412247,76.1621094 C148.412247,77.3470111 147.936991,78.2503224 146.986466,78.8720703 C146.03594,79.4938182 144.649235,79.8046875 142.82631,79.8046875 C141.426563,79.8046875 140.347472,79.5442734 139.589005,79.0234375 C138.830538,78.5026016 138.45131,77.7669318 138.45131,76.8164062 C138.45131,76.1653613 138.659641,75.6022159 139.07631,75.1269531 C139.492978,74.6516903 140.07891,74.3294279 140.834122,74.1601562 C140.560683,74.0364577 140.331193,73.8444023 140.145645,73.5839844 C139.960098,73.3235664 139.867325,73.0208351 139.867325,72.6757812 C139.867325,72.2851543 139.971491,71.9433608 140.179825,71.6503906 C140.38816,71.3574204 140.716932,71.0742201 141.166153,70.8007812 C140.612765,70.5729155 140.161923,70.1855496 139.813614,69.6386719 C139.465305,69.0917941 139.291153,68.4668004 139.291153,67.7636719 C139.291153,66.591791 139.642712,65.6884797 140.345841,65.0537109 C141.048969,64.4189421 142.045053,64.1015625 143.334122,64.1015625 C143.894021,64.1015625 144.398573,64.166666 144.847794,64.296875 L148.548966,64.296875 Z M140.01381,76.796875 C140.01381,77.376305 140.257948,77.8157537 140.746231,78.1152344 C141.234515,78.414715 141.934378,78.5644531 142.845841,78.5644531 C144.206525,78.5644531 145.214002,78.3610046 145.868302,77.9541016 C146.522602,77.5471985 146.849747,76.9954462 146.849747,76.2988281 C146.849747,75.7193981 146.670712,75.3173839 146.312638,75.0927734 C145.954563,74.8681629 145.280742,74.7558594 144.291153,74.7558594 L142.347794,74.7558594 C141.612113,74.7558594 141.039202,74.9316389 140.629044,75.2832031 C140.218886,75.6347674 140.01381,76.1393196 140.01381,76.796875 Z M140.892716,67.7246094 C140.892716,68.473311 141.104302,69.0397116 141.527481,69.4238281 C141.950661,69.8079446 142.539847,70 143.29506,70 C144.877099,70 145.668106,69.2317785 145.668106,67.6953125 C145.668106,66.0872315 144.867333,65.2832031 143.265763,65.2832031 C142.50404,65.2832031 141.918108,65.4882792 141.50795,65.8984375 C141.097792,66.3085958 140.892716,66.9173137 140.892716,67.7246094 Z M157.588097,75 L157.588097,68.0761719 C157.588097,67.2037717 157.389531,66.5527365 156.992394,66.1230469 C156.595257,65.6933572 155.973518,65.4785156 155.12716,65.4785156 C154.007362,65.4785156 153.187058,65.781247 152.666222,66.3867188 C152.145386,66.9921905 151.884972,67.9915295 151.884972,69.3847656 L151.884972,75 L150.263878,75 L150.263878,64.296875 L151.582238,64.296875 L151.84591,65.7617188 L151.924035,65.7617188 C152.256068,65.2343724 152.721558,64.8258478 153.320519,64.5361328 C153.91948,64.2464178 154.586791,64.1015625 155.322472,64.1015625 C156.611541,64.1015625 157.581583,64.4124318 158.232628,65.0341797 C158.883673,65.6559276 159.209191,66.6503838 159.209191,68.0175781 L159.209191,75 L157.588097,75 Z M170.226907,73.8574219 C170.513366,73.8574219 170.790056,73.8362632 171.056985,73.7939453 C171.323913,73.7516274 171.5355,73.7076825 171.69175,73.6621094 L171.69175,74.9023438 C171.515968,74.9869796 171.257182,75.0569659 170.915383,75.1123047 C170.573585,75.1676435 170.265971,75.1953125 169.992532,75.1953125 C167.922209,75.1953125 166.887063,74.1048286 166.887063,71.9238281 L166.887063,65.5566406 L165.35386,65.5566406 L165.35386,64.7753906 L166.887063,64.1015625 L167.570657,61.8164062 L168.508157,61.8164062 L168.508157,64.296875 L171.613625,64.296875 L171.613625,65.5566406 L168.508157,65.5566406 L168.508157,71.8554688 C168.508157,72.5000032 168.66115,72.9947899 168.967141,73.3398438 C169.273132,73.6848976 169.69305,73.8574219 170.226907,73.8574219 Z M180.672288,75 L180.672288,68.0761719 C180.672288,67.2037717 180.473722,66.5527365 180.076585,66.1230469 C179.679448,65.6933572 179.057709,65.4785156 178.211351,65.4785156 C177.085043,65.4785156 176.263111,65.7845021 175.74553,66.3964844 C175.22795,67.0084666 174.969163,68.0110607 174.969163,69.4042969 L174.969163,75 L173.348069,75 L173.348069,59.8046875 L174.969163,59.8046875 L174.969163,64.4042969 C174.969163,64.9576851 174.943122,65.4166648 174.891038,65.78125 L174.988694,65.78125 C175.307706,65.2669245 175.761803,64.8616551 176.350999,64.5654297 C176.940195,64.2692042 177.612388,64.1210938 178.367601,64.1210938 C179.676201,64.1210938 180.657636,64.431963 181.311936,65.0537109 C181.966237,65.6754588 182.293382,66.6634047 182.293382,68.0175781 L182.293382,75 L180.672288,75 Z M189.662591,75.1953125 C188.080552,75.1953125 186.832192,74.7135465 185.917474,73.75 C185.002756,72.7864535 184.545404,71.4485763 184.545404,69.7363281 C184.545404,68.0110591 184.970204,66.6406301 185.819818,65.625 C186.669431,64.6093699 187.810371,64.1015625 189.242669,64.1015625 C190.583822,64.1015625 191.645009,64.5426388 192.426263,65.4248047 C193.207517,66.3069706 193.598138,67.4706959 193.598138,68.9160156 L193.598138,69.9414062 L186.225091,69.9414062 C186.257644,71.1979229 186.575023,72.1516895 187.17724,72.8027344 C187.779456,73.4537793 188.62743,73.7792969 189.721185,73.7792969 C190.873535,73.7792969 192.012846,73.5384139 193.139154,73.0566406 L193.139154,74.5019531 C192.566234,74.7493502 192.024247,74.9267573 191.513177,75.0341797 C191.002107,75.1416021 190.385251,75.1953125 189.662591,75.1953125 Z M189.223138,65.4589844 C188.363759,65.4589844 187.678544,65.7389295 187.167474,66.2988281 C186.656404,66.8587268 186.3553,67.6334586 186.264154,68.6230469 L191.859857,68.6230469 C191.859857,67.6009063 191.631995,66.8180366 191.176263,66.2744141 C190.720532,65.7307916 190.069497,65.4589844 189.223138,65.4589844 Z M204.86976,75.1953125 C203.320273,75.1953125 202.120741,74.7184292 201.271127,73.7646484 C200.421514,72.8108676 199.996713,71.4615973 199.996713,69.7167969 C199.996713,67.9264233 200.428024,66.5429736 201.290659,65.5664062 C202.153293,64.5898389 203.382122,64.1015625 204.977182,64.1015625 C205.491508,64.1015625 206.005825,64.1569005 206.520151,64.2675781 C207.034476,64.3782558 207.438118,64.5084628 207.731088,64.6582031 L207.233041,66.0351562 C206.874967,65.8919264 206.484346,65.7731125 206.061166,65.6787109 C205.637987,65.5843094 205.263642,65.5371094 204.93812,65.5371094 C202.76363,65.5371094 201.676401,66.9238143 201.676401,69.6972656 C201.676401,71.0123764 201.941698,72.0214809 202.472299,72.7246094 C203.002901,73.4277379 203.789026,73.7792969 204.830698,73.7792969 C205.722629,73.7792969 206.637334,73.5872415 207.574838,73.203125 L207.574838,74.6386719 C206.858689,75.0097675 205.957005,75.1953125 204.86976,75.1953125 Z M218.869829,69.6386719 C218.869829,71.3834723 218.43038,72.7457633 217.55147,73.7255859 C216.672559,74.7054085 215.458378,75.1953125 213.908892,75.1953125 C212.951856,75.1953125 212.102255,74.9707054 211.360063,74.5214844 C210.617872,74.0722634 210.044961,73.4277386 209.641313,72.5878906 C209.237666,71.7480427 209.035845,70.7649796 209.035845,69.6386719 C209.035845,67.8938715 209.472038,66.5348356 210.344438,65.5615234 C211.216839,64.5882113 212.427764,64.1015625 213.977251,64.1015625 C215.474654,64.1015625 216.664421,64.5996044 217.546587,65.5957031 C218.428753,66.5918019 218.869829,67.9394446 218.869829,69.6386719 Z M210.715532,69.6386719 C210.715532,71.0058662 210.988967,72.0475225 211.535845,72.7636719 C212.082722,73.4798213 212.886751,73.8378906 213.947954,73.8378906 C215.009157,73.8378906 215.814813,73.4814489 216.364946,72.7685547 C216.915079,72.0556605 217.190142,71.0123767 217.190142,69.6386719 C217.190142,68.277988 216.915079,67.2444697 216.364946,66.5380859 C215.814813,65.8317022 215.002647,65.4785156 213.928423,65.4785156 C212.86722,65.4785156 212.066446,65.8268194 211.526079,66.5234375 C210.985712,67.2200556 210.715532,68.2584566 210.715532,69.6386719 Z M228.553492,75 L228.553492,68.0761719 C228.553492,67.2037717 228.354926,66.5527365 227.957789,66.1230469 C227.560651,65.6933572 226.938913,65.4785156 226.092554,65.4785156 C224.972757,65.4785156 224.152453,65.781247 223.631617,66.3867188 C223.110781,66.9921905 222.850367,67.9915295 222.850367,69.3847656 L222.850367,75 L221.229273,75 L221.229273,64.296875 L222.547632,64.296875 L222.811304,65.7617188 L222.889429,65.7617188 C223.221462,65.2343724 223.686952,64.8258478 224.285914,64.5361328 C224.884875,64.2464178 225.552186,64.1015625 226.287867,64.1015625 C227.576936,64.1015625 228.546978,64.4124318 229.198023,65.0341797 C229.849068,65.6559276 230.174585,66.6503838 230.174585,68.0175781 L230.174585,75 L228.553492,75 Z M236.479342,73.8574219 C236.765802,73.8574219 237.042491,73.8362632 237.30942,73.7939453 C237.576348,73.7516274 237.787935,73.7076825 237.944185,73.6621094 L237.944185,74.9023438 C237.768403,74.9869796 237.509617,75.0569659 237.167818,75.1123047 C236.82602,75.1676435 236.518406,75.1953125 236.244967,75.1953125 C234.174644,75.1953125 233.139498,74.1048286 233.139498,71.9238281 L233.139498,65.5566406 L231.606295,65.5566406 L231.606295,64.7753906 L233.139498,64.1015625 L233.823092,61.8164062 L234.760592,61.8164062 L234.760592,64.296875 L237.86606,64.296875 L237.86606,65.5566406 L234.760592,65.5566406 L234.760592,71.8554688 C234.760592,72.5000032 234.913585,72.9947899 235.219576,73.3398438 C235.525567,73.6848976 235.945485,73.8574219 236.479342,73.8574219 Z M244.483317,64.1015625 C244.95858,64.1015625 245.385008,64.1406246 245.762614,64.21875 L245.538004,65.7226562 C245.095294,65.6249995 244.704673,65.5761719 244.366129,65.5761719 C243.50024,65.5761719 242.759687,65.9277309 242.14445,66.6308594 C241.529212,67.3339879 241.221598,68.2096302 241.221598,69.2578125 L241.221598,75 L239.600504,75 L239.600504,64.296875 L240.938395,64.296875 L241.123942,66.2792969 L241.202067,66.2792969 C241.599204,65.5826788 242.077715,65.0455748 242.637614,64.6679688 C243.197512,64.2903627 243.812741,64.1015625 244.483317,64.1015625 Z M253.463854,75 L253.141589,73.4765625 L253.063464,73.4765625 C252.529607,74.1471388 251.997386,74.6012358 251.466784,74.8388672 C250.936183,75.0764986 250.273754,75.1953125 249.479479,75.1953125 C248.418276,75.1953125 247.586579,74.9218777 246.984362,74.375 C246.382146,73.8281223 246.081042,73.0501353 246.081042,72.0410156 C246.081042,69.8795465 247.80954,68.7467453 251.266589,68.6425781 L253.082995,68.5839844 L253.082995,67.9199219 C253.082995,67.0800739 252.902333,66.4599629 252.541003,66.0595703 C252.179673,65.6591777 251.601879,65.4589844 250.807604,65.4589844 C249.915673,65.4589844 248.906568,65.7324191 247.780261,66.2792969 L247.282214,65.0390625 C247.80956,64.7526027 248.387354,64.5279956 249.015612,64.3652344 C249.643871,64.2024731 250.273747,64.1210938 250.905261,64.1210938 C252.181309,64.1210938 253.126937,64.404294 253.742175,64.9707031 C254.357412,65.5371122 254.665026,66.4453063 254.665026,67.6953125 L254.665026,75 L253.463854,75 Z M249.801745,73.8574219 C250.810865,73.8574219 251.6035,73.5807319 252.179675,73.0273438 C252.75585,72.4739556 253.043933,71.6992237 253.043933,70.703125 L253.043933,69.7363281 L251.422839,69.8046875 C250.13377,69.8502606 249.204417,70.050454 248.634753,70.4052734 C248.065089,70.7600929 247.780261,71.3118452 247.780261,72.0605469 C247.780261,72.6464873 247.957668,73.0924464 248.312487,73.3984375 C248.667307,73.7044286 249.163721,73.8574219 249.801745,73.8574219 Z M261.799861,75.1953125 C260.250374,75.1953125 259.050842,74.7184292 258.201228,73.7646484 C257.351614,72.8108676 256.926814,71.4615973 256.926814,69.7167969 C256.926814,67.9264233 257.358125,66.5429736 258.220759,65.5664062 C259.083394,64.5898389 260.312223,64.1015625 261.907283,64.1015625 C262.421608,64.1015625 262.935926,64.1569005 263.450251,64.2675781 C263.964577,64.3782558 264.368219,64.5084628 264.661189,64.6582031 L264.163142,66.0351562 C263.805067,65.8919264 263.414446,65.7731125 262.991267,65.6787109 C262.568088,65.5843094 262.193743,65.5371094 261.86822,65.5371094 C259.69373,65.5371094 258.606501,66.9238143 258.606501,69.6972656 C258.606501,71.0123764 258.871798,72.0214809 259.4024,72.7246094 C259.933001,73.4277379 260.719126,73.7792969 261.760798,73.7792969 C262.65273,73.7792969 263.567434,73.5872415 264.504939,73.203125 L264.504939,74.6386719 C263.788789,75.0097675 262.887106,75.1953125 261.799861,75.1953125 Z M270.01868,73.8574219 C270.305139,73.8574219 270.581829,73.8362632 270.848758,73.7939453 C271.115686,73.7516274 271.327273,73.7076825 271.483523,73.6621094 L271.483523,74.9023438 C271.307741,74.9869796 271.048955,75.0569659 270.707156,75.1123047 C270.365358,75.1676435 270.057743,75.1953125 269.784305,75.1953125 C267.713982,75.1953125 266.678836,74.1048286 266.678836,71.9238281 L266.678836,65.5566406 L265.145633,65.5566406 L265.145633,64.7753906 L266.678836,64.1015625 L267.36243,61.8164062 L268.29993,61.8164062 L268.29993,64.296875 L271.405398,64.296875 L271.405398,65.5566406 L268.29993,65.5566406 L268.29993,71.8554688 C268.29993,72.5000032 268.452923,72.9947899 268.758914,73.3398438 C269.064905,73.6848976 269.484823,73.8574219 270.01868,73.8574219 Z" id="Sign-the-contract" fill="#4A4A4A"></path>
        <g id="Group" transform="translate(28.000000, 5.000000)">
            <polygon id="Triangle" fill="#A2EFFC" opacity="0.2" points="283 0 429 221.703704 137 221.703704"></polygon>
            <g id="Rectangle-3">
                <use fill="#FFFFFF" fill-rule="evenodd" xlink:href="#path-1"></use>
                <rect stroke="#4A4A4A" stroke-width="1" x="45.5" y="112.5" width="216" height="278"></rect>
            </g>
            <g id="Content" transform="translate(68.000000, 221.000000)" fill="#EBEBEB">
                <rect id="Rectangle-11" x="0" y="0" width="170" height="3"></rect>
                <rect id="Rectangle-11" x="0" y="11" width="170" height="3"></rect>
                <rect id="Rectangle-11" x="0" y="22" width="170" height="3"></rect>
                <rect id="Rectangle-11" x="0" y="33" width="170" height="3"></rect>
                <rect id="Rectangle-11" x="0" y="44" width="170" height="3"></rect>
                <rect id="Rectangle-11" x="0" y="55" width="170" height="3"></rect>
                <rect id="Rectangle-11" x="0" y="66" width="170" height="3"></rect>
                <rect id="Rectangle-11" x="0" y="77" width="170" height="3"></rect>
                <rect id="Rectangle-11" x="0" y="88" width="170" height="3"></rect>
                <rect id="Rectangle-11" x="0" y="99" width="170" height="3"></rect>
            </g>
            <g id="iconRoomie" transform="translate(120.000000, 131.000000)">
                <ellipse id="Oval" fill="#E4E4E4" cx="21.6979534" cy="39.8533539" rx="5.15685737" ry="5.48955784"></ellipse>
                <ellipse id="Oval" fill="#9B9B9B" cx="47.2434079" cy="40.6275475" rx="5.15685737" ry="5.48955784"></ellipse>
                <path d="M52.4468496,61.0689948 C53.0297605,60.4976108 53.3670787,59.8195248 53.3670787,59.0347368 C53.3670787,54.7639222 51.1307872,51.0914242 47.9263921,49.4699674 C48.8381061,48.4798115 49.4002653,47.1235646 49.4002653,45.6275475 C49.4002653,42.5957484 47.0914616,40.1379896 44.2434079,40.1379896 C41.3953543,40.1379896 39.0865506,42.5957484 39.0865506,45.6275475 C39.0865506,47.1235646 39.6487098,48.4798115 40.5604238,49.4699674 C37.3560287,51.0914242 35.1197372,54.7639222 35.1197372,59.0347368 C35.1197372,59.8195248 35.4570554,60.4976108 36.0399662,61.0689948 L30.113965,61.0689948 C30.5655094,60.547193 30.8216241,59.9443758 30.8216241,59.2605433 C30.8216241,54.9897286 28.5853326,51.3172307 25.3809376,49.6957739 C26.2926516,48.705618 26.8548108,47.3493711 26.8548108,45.8533539 C26.8548108,42.8215549 24.5460071,40.3637961 21.6979534,40.3637961 C18.8498997,40.3637961 16.541096,42.8215549 16.541096,45.8533539 C16.541096,47.3493711 17.1032552,48.705618 18.0149692,49.6957739 C14.8105741,51.3172307 12.5742827,54.9897286 12.5742827,59.2605433 C12.5742827,59.9443758 12.8303974,60.547193 13.2819417,61.0689948 L5.92350497,61.0689948 C4.81893547,61.0689948 3.92350497,60.1735643 3.92350497,59.0689948 L3.92350497,36.8594088 L2,36.8594088 C0.8954305,36.8594088 -7.10542736e-15,35.9639783 -7.10542736e-15,34.8594088 C-7.10542736e-15,34.3418526 0.200633628,33.8444482 0.559732389,33.4717384 L32.2191452,0.612331745 C32.9855344,-0.183106093 34.2516454,-0.206654655 35.0470832,0.559734559 C35.0649402,0.576939379 35.0824756,0.594474806 35.0996804,0.612331745 L66.7590932,33.4717384 C67.5254824,34.2671762 67.5019338,35.5332872 66.706496,36.2996764 C66.3337862,36.6587752 65.8363818,36.8594088 65.3188256,36.8594088 L63.923505,36.8594088 L63.923505,59.0689948 C63.923505,60.1735643 63.0280745,61.0689948 61.923505,61.0689948 L52.4468496,61.0689948 Z" id="Combined-Shape" stroke="#4A4A4A" fill="#49C89F"></path>
                <g id="Roomie" transform="translate(11.727273, 38.290323)"></g>
            </g>
            <g id="RightHandWithPen" transform="translate(170.000000, 260.000000)">
                <polygon id="Path-15" stroke="#4A4A4A" fill="#4A4A4A" points="0 33 27 43 129 98 129 110 120 110 27 56"></polygon>
                <g id="rightHand" transform="translate(7.000000, 0.000000)" fill="#FFFFFF" stroke="#4A4A4A">
                    <path d="M23,29 L20,37 C19.0441569,41.4888067 20.0441569,44.1554734 23,45 C25.9558431,45.8445266 28.6225098,44.1778599 31,40 L44,19 L31,15 L23,29 Z" id="Path-16"></path>
                    <path d="M34.3503487,35 L31.3503487,43 C30.3945056,47.4888067 31.3945056,50.1554734 34.3503487,51 C37.3061918,51.8445266 39.9728584,50.1778599 42.3503487,46 L55,25 L42.3503487,21 L34.3503487,35 Z" id="Path-16"></path>
                    <path d="M45.3503487,41 L42.3503487,49 C41.3945056,53.4888067 42.3945056,56.1554734 45.3503487,57 C48.3061918,57.8445266 50.9728584,56.1778599 53.3503487,52 L66,30.1065069 L53.3503487,27 L45.3503487,41 Z" id="Path-16"></path>
                    <path d="M4,47 C9.72085731,47.299872 14.387524,48.6332054 18,51 C21.612476,53.3667946 24.612476,58.700128 27,67 C34.9784027,73.4750315 40.6450693,77.4750315 44,79 C47.3549307,80.5249685 52.688264,80.5249685 60,79 C62.5031341,67.1351858 62.5031341,57.1351858 60,49 C57.4968659,40.8648142 50.1635326,31.8648142 38,22 C21.3333333,33.3333333 11.6666667,39 9,39 C5,39 2.27373675e-13,37 4.54747351e-13,32 C6.82023495e-13,27 11.3003332,24.3176753 19,18 C26.6996668,11.6823247 31,5 38,1 C44,-2 51,7 60,15 C65.3333333,21 70.6666667,26.6666667 76,32 C66.6666667,24 61.3333333,18.3333333 60,15 C64.6666667,11.2213542 75,15.8880208 91,29 C93.0956927,30.7813388 80,22 78,19 C90,16.3333333 99.3333333,23 106,39 L120,94 L163,136 C171.025516,141.545549 169.358849,146.545549 158,151 C146.641151,155.454451 134.974484,157.787784 123,158 L86,128 L71,115 C51.6666667,106.333333 40.3333333,101 37,99 C32,96 24,95 18,86 C14,80 9.33333333,67 4,47 Z" id="Path-14-Copy"></path>
                </g>
                <g id="Pen_lowerHalf" transform="translate(62.000000, 56.000000)">
                    <mask id="mask-3" fill="white">
                        <use xlink:href="#path-2"></use>
                    </mask>
                    <g id="Mask"></g>
                    <path d="M-62,-23 L-35,-13 L67,42 C66.8100361,46.4755074 66.1433695,49.4755074 65,51 C63.8566305,52.5244926 61.5232972,53.5244926 58,54 L-35,0 L-62,-23 Z" id="Path-15-Copy" stroke="#4A4A4A" fill="#4A4A4A" mask="url(#mask-3)"></path>
                </g>
            </g>
            <g id="Head-2" transform="translate(0.000000, 88.000000)">
                <g id="Rectangle-3" transform="translate(43.571905, 82.633101) rotate(11.000000) translate(-43.571905, -82.633101) ">
                    <use fill="#FFFFFF" fill-rule="evenodd" xlink:href="#path-4"></use>
                    <path stroke="#4A4A4A" stroke-width="1" d="M35.3814088,72.7362683 L44.8600817,72.7362683 L44.9387271,73.1408638 C45.6176078,76.6334024 45.6176078,76.6334024 46.6114462,81.7462575 C47.2972977,85.2746576 48.8999173,87.5719677 51.4238077,88.6953649 L52.872832,89.3403335 L35.8943106,92.6406237 L35.9159131,92.0127411 L36.2230814,83.1805158 L35.3814088,72.7362683 Z"></path>
                </g>
                <path d="M35.9233233,74.5477437 L44.4479135,74.5477437 C44.8480077,76.6060501 45.4055808,79.4745146 46.1206326,83.1531375 C46.8356844,86.8317603 48.5356357,89.2685924 51.2204864,90.463634 L36.4156174,93.341409 L36.7214657,84.4518278 L35.9233233,74.5477437 Z" id="Rectangle-3-Copy" fill="#FFFFFF" transform="translate(43.571905, 83.944576) rotate(11.000000) translate(-43.571905, -83.944576) "></path>
                <path d="M47.5409836,77.3770492 C65.5737705,77.3770492 71.4754098,61.2299418 71.4754098,41.3114754 C71.4754098,21.393009 64.2622951,5.24590164 47.5409836,5.24590164 C30.8196721,5.24590164 23.6065574,21.393009 23.6065574,41.3114754 C23.6065574,61.2299418 29.5081967,77.3770492 47.5409836,77.3770492 Z" id="Head" stroke="#4A4A4A" fill="#FFFFFF" transform="translate(47.540984, 41.311475) rotate(-15.000000) translate(-47.540984, -41.311475) "></path>
                <path d="M32.1311475,39.3442623 C42.7550896,36.3916778 49.9682043,33.8751371 53.7704918,31.7946402 C57.5727793,29.7141433 61.944364,25.4547277 66.8852459,19.0163934 C64.2622951,13.3333333 59.8907104,8.96174863 53.7704918,5.90163934 C44.5901639,1.31147541 29.5129255,3.34787037 20.3278689,10.4918033 C14.4262295,15.0819672 15.1800141,20.7166924 10.4918033,25.5737705 C7.12712721,29.0596407 1.02164881,29.7013657 0.655737705,31.7946402 C-0.145879371,36.3804659 12.232591,33.7034775 14.4262295,39.3442623 C15.2604948,41.489516 11.6839335,48.5245902 14.4262295,48.5245902 C18.3606557,48.5245902 24.2622951,54.6448087 32.1311475,66.8852459 L32.1311475,39.3442623 Z" id="Hair" stroke="#4A4A4A" fill="#4A4A4A"></path>
                <path d="M60.1153955,46.0562096 C64.4869802,52.2048309 66.6727726,56.1392571 66.6727726,57.8594883 C66.6727726,59.5797195 64.4869802,59.7982987 60.1153955,58.515226" id="Nose" stroke="#4A4A4A" fill="#FFFFFF" transform="translate(63.394084, 52.696834) rotate(-1.000000) translate(-63.394084, -52.696834) "></path>
            </g>
            <text id="Contract" font-family="OpenSans-Bold, Open Sans" font-size="14" font-weight="bold" letter-spacing="-0.33764711" fill="#4A4A4A">
                <tspan x="124" y="210">Contract</tspan>
            </text>
        </g>
        <text id="4" font-family="OpenSans-Bold, Open Sans" font-size="36" font-weight="bold" letter-spacing="-0.868235409" fill="#4A4A4A">
            <tspan x="190" y="43">4</tspan>
        </text>
    </g>
</svg>