<?xml version="1.0" encoding="UTF-8"?>
<svg width="450px" height="212px" viewBox="0 0 450 212" version="1.1" xmlns="http://www.w3.org/2000/svg" xmlns:xlink="http://www.w3.org/1999/xlink">
    <!-- Generator: Sketch 49.1 (51147) - http://www.bohemiancoding.com/sketch -->
    <title>Illustration</title>
    <desc>Created with Sketch.</desc>
    <defs>
        <rect id="path-1" x="0" y="0" width="114" height="46"></rect>
        <rect id="path-2" x="3" y="4" width="38" height="35"></rect>
        <rect id="path-3" x="44" y="5" width="64" height="5"></rect>
        <rect id="path-4" x="44" y="14.6666667" width="64" height="5"></rect>
        <rect id="path-5" x="44" y="24.3333333" width="64" height="5"></rect>
        <rect id="path-6" x="44" y="34" width="64" height="5"></rect>
        <rect id="path-7" x="0" y="0" width="114" height="46"></rect>
        <rect id="path-8" x="3" y="4" width="38" height="35"></rect>
        <rect id="path-9" x="44" y="5" width="64" height="5"></rect>
        <rect id="path-10" x="44" y="14.6666667" width="64" height="5"></rect>
        <rect id="path-11" x="44" y="24.3333333" width="64" height="5"></rect>
        <rect id="path-12" x="44" y="34" width="64" height="5"></rect>
        <rect id="path-13" x="0" y="0" width="114" height="46"></rect>
        <rect id="path-14" x="3" y="4" width="38" height="35"></rect>
        <rect id="path-15" x="44" y="5" width="64" height="5"></rect>
        <rect id="path-16" x="44" y="14.6666667" width="64" height="5"></rect>
        <rect id="path-17" x="44" y="24.3333333" width="64" height="5"></rect>
        <rect id="path-18" x="44" y="34" width="64" height="5"></rect>
        <rect id="path-19" x="0" y="0" width="114" height="46"></rect>
        <rect id="path-20" x="3" y="4" width="38" height="35"></rect>
        <rect id="path-21" x="44" y="5" width="64" height="5"></rect>
        <rect id="path-22" x="44" y="14.6666667" width="64" height="5"></rect>
        <rect id="path-23" x="44" y="24.3333333" width="64" height="5"></rect>
        <rect id="path-24" x="44" y="34" width="64" height="5"></rect>
        <rect id="path-25" x="0" y="0" width="114" height="46"></rect>
        <rect id="path-26" x="3" y="4" width="38" height="35"></rect>
        <rect id="path-27" x="44" y="5" width="64" height="5"></rect>
        <rect id="path-28" x="44" y="14.6666667" width="64" height="5"></rect>
        <rect id="path-29" x="44" y="24.3333333" width="64" height="5"></rect>
        <rect id="path-30" x="44" y="34" width="64" height="5"></rect>
        <rect id="path-31" x="0" y="0" width="114" height="46"></rect>
        <rect id="path-32" x="3" y="4" width="38" height="35"></rect>
        <rect id="path-33" x="44" y="5" width="64" height="5"></rect>
        <rect id="path-34" x="44" y="14.6666667" width="64" height="5"></rect>
        <rect id="path-35" x="44" y="24.3333333" width="64" height="5"></rect>
        <rect id="path-36" x="44" y="34" width="64" height="5"></rect>
        <rect id="path-37" x="0" y="2" width="20" height="2"></rect>
        <rect id="path-38" x="0" y="9" width="20" height="2"></rect>
        <rect id="path-39" x="0" y="16" width="20" height="2"></rect>
        <rect id="path-40" x="0" y="2.8" width="28" height="2.8"></rect>
        <rect id="path-41" x="0" y="12.6" width="28" height="2.8"></rect>
        <rect id="path-42" x="0" y="22.4" width="28" height="2.8"></rect>
        <rect id="path-43" x="0" y="0" width="114" height="46"></rect>
        <rect id="path-44" x="3" y="4" width="38" height="35"></rect>
        <rect id="path-45" x="44" y="5" width="64" height="5"></rect>
        <rect id="path-46" x="44" y="14.6666667" width="64" height="5"></rect>
        <rect id="path-47" x="44" y="24.3333333" width="64" height="5"></rect>
        <rect id="path-48" x="44" y="34" width="64" height="5"></rect>
    </defs>
    <g id="Illustration" stroke="none" stroke-width="1" fill="none" fill-rule="evenodd">
        <text id="OR" font-family="OpenSans-Semibold, Open Sans" font-size="12" font-weight="500" fill="#4A4A4A">
            <tspan x="195" y="92">OR</tspan>
        </text>
        <path d="M92,76 L98,76 L89,87 L80,76 L86,76 L86,61 L92,61 L92,76 Z" id="Combined-Shape" fill="#D1D0D3"></path>
        <path d="M335,149.5 L338,149.5 L333.5,155 L329,149.5 L332,149.5 L332,142 L335,142 L335,149.5 Z" id="Combined-Shape-Copy" fill="#D1D0D3"></path>
        <g id="Group" transform="translate(32.000000, 110.000000)">
            <g id="Rectangle-13">
                <use fill="#FFFFFF" fill-rule="evenodd" xlink:href="#path-1"></use>
                <rect stroke="#4A4A4A" stroke-width="1" x="0.5" y="0.5" width="113" height="45"></rect>
            </g>
            <g id="Rectangle-2">
                <use fill="#FFFFFF" fill-rule="evenodd" xlink:href="#path-2"></use>
                <rect stroke="#4A4A4A" stroke-width="1" x="3.5" y="4.5" width="37" height="34"></rect>
            </g>
            <polygon id="Star" stroke="#4A4A4A" fill="#FCFF82" points="22 25.75 16.1221475 28.9946784 17.2447174 22.1223392 12.4894348 17.2553216 19.0610737 16.2526608 22 10 24.9389263 16.2526608 31.5105652 17.2553216 26.7552826 22.1223392 27.8778525 28.9946784"></polygon>
            <g id="Rectangle-12">
                <use fill="#FFFFFF" fill-rule="evenodd" xlink:href="#path-3"></use>
                <rect stroke="#4A4A4A" stroke-width="1" x="44.5" y="5.5" width="63" height="4"></rect>
            </g>
            <g id="Rectangle-12">
                <use fill="#FFFFFF" fill-rule="evenodd" xlink:href="#path-4"></use>
                <rect stroke="#4A4A4A" stroke-width="1" x="44.5" y="15.1666667" width="63" height="4"></rect>
            </g>
            <g id="Rectangle-12">
                <use fill="#FFFFFF" fill-rule="evenodd" xlink:href="#path-5"></use>
                <rect stroke="#4A4A4A" stroke-width="1" x="44.5" y="24.8333333" width="63" height="4"></rect>
            </g>
            <g id="Rectangle-12">
                <use fill="#FFFFFF" fill-rule="evenodd" xlink:href="#path-6"></use>
                <rect stroke="#4A4A4A" stroke-width="1" x="44.5" y="34.5" width="63" height="4"></rect>
            </g>
        </g>
        <g id="Group" transform="translate(32.000000, 159.000000)">
            <g id="Rectangle-13">
                <use fill="#FFFFFF" fill-rule="evenodd" xlink:href="#path-7"></use>
                <rect stroke="#4A4A4A" stroke-width="1" x="0.5" y="0.5" width="113" height="45"></rect>
            </g>
            <g id="Rectangle-2">
                <use fill="#FFFFFF" fill-rule="evenodd" xlink:href="#path-8"></use>
                <rect stroke="#4A4A4A" stroke-width="1" x="3.5" y="4.5" width="37" height="34"></rect>
            </g>
            <g id="Rectangle-12">
                <use fill="#FFFFFF" fill-rule="evenodd" xlink:href="#path-9"></use>
                <rect stroke="#4A4A4A" stroke-width="1" x="44.5" y="5.5" width="63" height="4"></rect>
            </g>
            <g id="Rectangle-12">
                <use fill="#FFFFFF" fill-rule="evenodd" xlink:href="#path-10"></use>
                <rect stroke="#4A4A4A" stroke-width="1" x="44.5" y="15.1666667" width="63" height="4"></rect>
            </g>
            <g id="Rectangle-12">
                <use fill="#FFFFFF" fill-rule="evenodd" xlink:href="#path-11"></use>
                <rect stroke="#4A4A4A" stroke-width="1" x="44.5" y="24.8333333" width="63" height="4"></rect>
            </g>
            <g id="Rectangle-12">
                <use fill="#FFFFFF" fill-rule="evenodd" xlink:href="#path-12"></use>
                <rect stroke="#4A4A4A" stroke-width="1" x="44.5" y="34.5" width="63" height="4"></rect>
            </g>
            <polygon id="Star" stroke="#4A4A4A" fill="#FCFF82" points="22 25.75 16.1221475 28.9946784 17.2447174 22.1223392 12.4894348 17.2553216 19.0610737 16.2526608 22 10 24.9389263 16.2526608 31.5105652 17.2553216 26.7552826 22.1223392 27.8778525 28.9946784"></polygon>
        </g>
        <g id="Group" transform="translate(243.000000, 8.000000)">
            <g id="Rectangle-13">
                <use fill="#FFFFFF" fill-rule="evenodd" xlink:href="#path-13"></use>
                <rect stroke="#4A4A4A" stroke-width="1" x="0.5" y="0.5" width="113" height="45"></rect>
            </g>
            <g id="Rectangle-2">
                <use fill="#FFFFFF" fill-rule="evenodd" xlink:href="#path-14"></use>
                <rect stroke="#4A4A4A" stroke-width="1" x="3.5" y="4.5" width="37" height="34"></rect>
            </g>
            <polygon id="Star" stroke="#4A4A4A" fill="#FCFF82" points="22 25.75 16.1221475 28.9946784 17.2447174 22.1223392 12.4894348 17.2553216 19.0610737 16.2526608 22 10 24.9389263 16.2526608 31.5105652 17.2553216 26.7552826 22.1223392 27.8778525 28.9946784"></polygon>
            <g id="Rectangle-12">
                <use fill="#FFFFFF" fill-rule="evenodd" xlink:href="#path-15"></use>
                <rect stroke="#4A4A4A" stroke-width="1" x="44.5" y="5.5" width="63" height="4"></rect>
            </g>
            <g id="Rectangle-12">
                <use fill="#FFFFFF" fill-rule="evenodd" xlink:href="#path-16"></use>
                <rect stroke="#4A4A4A" stroke-width="1" x="44.5" y="15.1666667" width="63" height="4"></rect>
            </g>
            <g id="Rectangle-12">
                <use fill="#FFFFFF" fill-rule="evenodd" xlink:href="#path-17"></use>
                <rect stroke="#4A4A4A" stroke-width="1" x="44.5" y="24.8333333" width="63" height="4"></rect>
            </g>
            <g id="Rectangle-12">
                <use fill="#FFFFFF" fill-rule="evenodd" xlink:href="#path-18"></use>
                <rect stroke="#4A4A4A" stroke-width="1" x="44.5" y="34.5" width="63" height="4"></rect>
            </g>
        </g>
        <g id="Group" transform="translate(295.000000, 12.000000)">
            <g id="Rectangle-13">
                <use fill="#FFFFFF" fill-rule="evenodd" xlink:href="#path-19"></use>
                <rect stroke="#4A4A4A" stroke-width="1" x="0.5" y="0.5" width="113" height="45"></rect>
            </g>
            <g id="Rectangle-2">
                <use fill="#FFFFFF" fill-rule="evenodd" xlink:href="#path-20"></use>
                <rect stroke="#4A4A4A" stroke-width="1" x="3.5" y="4.5" width="37" height="34"></rect>
            </g>
            <g id="Rectangle-12">
                <use fill="#FFFFFF" fill-rule="evenodd" xlink:href="#path-21"></use>
                <rect stroke="#4A4A4A" stroke-width="1" x="44.5" y="5.5" width="63" height="4"></rect>
            </g>
            <g id="Rectangle-12">
                <use fill="#FFFFFF" fill-rule="evenodd" xlink:href="#path-22"></use>
                <rect stroke="#4A4A4A" stroke-width="1" x="44.5" y="15.1666667" width="63" height="4"></rect>
            </g>
            <g id="Rectangle-12">
                <use fill="#FFFFFF" fill-rule="evenodd" xlink:href="#path-23"></use>
                <rect stroke="#4A4A4A" stroke-width="1" x="44.5" y="24.8333333" width="63" height="4"></rect>
            </g>
            <g id="Rectangle-12">
                <use fill="#FFFFFF" fill-rule="evenodd" xlink:href="#path-24"></use>
                <rect stroke="#4A4A4A" stroke-width="1" x="44.5" y="34.5" width="63" height="4"></rect>
            </g>
        </g>
        <g id="Group" transform="translate(266.000000, 38.000000)">
            <g id="Rectangle-13">
                <use fill="#FFFFFF" fill-rule="evenodd" xlink:href="#path-25"></use>
                <rect stroke="#4A4A4A" stroke-width="1" x="0.5" y="0.5" width="113" height="45"></rect>
            </g>
            <g id="Rectangle-2">
                <use fill="#FFFFFF" fill-rule="evenodd" xlink:href="#path-26"></use>
                <rect stroke="#4A4A4A" stroke-width="1" x="3.5" y="4.5" width="37" height="34"></rect>
            </g>
            <g id="Rectangle-12">
                <use fill="#FFFFFF" fill-rule="evenodd" xlink:href="#path-27"></use>
                <rect stroke="#4A4A4A" stroke-width="1" x="44.5" y="5.5" width="63" height="4"></rect>
            </g>
            <g id="Rectangle-12">
                <use fill="#FFFFFF" fill-rule="evenodd" xlink:href="#path-28"></use>
                <rect stroke="#4A4A4A" stroke-width="1" x="44.5" y="15.1666667" width="63" height="4"></rect>
            </g>
            <g id="Rectangle-12">
                <use fill="#FFFFFF" fill-rule="evenodd" xlink:href="#path-29"></use>
                <rect stroke="#4A4A4A" stroke-width="1" x="44.5" y="24.8333333" width="63" height="4"></rect>
            </g>
            <g id="Rectangle-12">
                <use fill="#FFFFFF" fill-rule="evenodd" xlink:href="#path-30"></use>
                <rect stroke="#4A4A4A" stroke-width="1" x="44.5" y="34.5" width="63" height="4"></rect>
            </g>
        </g>
        <g id="Group" transform="translate(286.000000, 64.000000)">
            <g id="Rectangle-13">
                <use fill="#FFFFFF" fill-rule="evenodd" xlink:href="#path-31"></use>
                <rect stroke="#4A4A4A" stroke-width="1" x="0.5" y="0.5" width="113" height="45"></rect>
            </g>
            <g id="Rectangle-2">
                <use fill="#FFFFFF" fill-rule="evenodd" xlink:href="#path-32"></use>
                <rect stroke="#4A4A4A" stroke-width="1" x="3.5" y="4.5" width="37" height="34"></rect>
            </g>
            <polygon id="Star" stroke="#4A4A4A" fill="#FCFF82" points="22 25.75 16.1221475 28.9946784 17.2447174 22.1223392 12.4894348 17.2553216 19.0610737 16.2526608 22 10 24.9389263 16.2526608 31.5105652 17.2553216 26.7552826 22.1223392 27.8778525 28.9946784"></polygon>
            <g id="Rectangle-12">
                <use fill="#FFFFFF" fill-rule="evenodd" xlink:href="#path-33"></use>
                <rect stroke="#4A4A4A" stroke-width="1" x="44.5" y="5.5" width="63" height="4"></rect>
            </g>
            <g id="Rectangle-12">
                <use fill="#FFFFFF" fill-rule="evenodd" xlink:href="#path-34"></use>
                <rect stroke="#4A4A4A" stroke-width="1" x="44.5" y="15.1666667" width="63" height="4"></rect>
            </g>
            <g id="Rectangle-12">
                <use fill="#FFFFFF" fill-rule="evenodd" xlink:href="#path-35"></use>
                <rect stroke="#4A4A4A" stroke-width="1" x="44.5" y="24.8333333" width="63" height="4"></rect>
            </g>
            <g id="Rectangle-12">
                <use fill="#FFFFFF" fill-rule="evenodd" xlink:href="#path-36"></use>
                <rect stroke="#4A4A4A" stroke-width="1" x="44.5" y="34.5" width="63" height="4"></rect>
            </g>
        </g>
        <g id="icon-filter" transform="translate(323.000000, 117.000000)">
            <g>
                <g id="Rectangle-22">
                    <use fill="#FFFFFF" fill-rule="evenodd" xlink:href="#path-37"></use>
                    <rect stroke="#49C89F" stroke-width="2" x="1" y="3" width="18" height="1"></rect>
                </g>
                <g id="Rectangle-22">
                    <use fill="#FFFFFF" fill-rule="evenodd" xlink:href="#path-38"></use>
                    <rect stroke="#49C89F" stroke-width="2" x="1" y="10" width="18" height="1"></rect>
                </g>
                <g id="Rectangle-22">
                    <use fill="#FFFFFF" fill-rule="evenodd" xlink:href="#path-39"></use>
                    <rect stroke="#49C89F" stroke-width="2" x="1" y="17" width="18" height="1"></rect>
                </g>
                <circle id="Oval" stroke="#49C89F" fill="#FFFFFF" cx="15" cy="3" r="3"></circle>
                <circle id="Oval" stroke="#49C89F" fill="#FFFFFF" cx="5" cy="10" r="3"></circle>
                <circle id="Oval" stroke="#49C89F" fill="#FFFFFF" cx="15" cy="17" r="3"></circle>
            </g>
        </g>
        <g id="icon-filter" transform="translate(76.000000, 17.000000)">
            <g>
                <g id="Rectangle-22">
                    <use fill="#FFFFFF" fill-rule="evenodd" xlink:href="#path-40"></use>
                    <rect stroke="#49C89F" stroke-width="2" x="1" y="3.8" width="26" height="1"></rect>
                </g>
                <g id="Rectangle-22">
                    <use fill="#FFFFFF" fill-rule="evenodd" xlink:href="#path-41"></use>
                    <rect stroke="#49C89F" stroke-width="2" x="1" y="13.6" width="26" height="1"></rect>
                </g>
                <g id="Rectangle-22">
                    <use fill="#FFFFFF" fill-rule="evenodd" xlink:href="#path-42"></use>
                    <rect stroke="#49C89F" stroke-width="2" x="1" y="23.4" width="26" height="1"></rect>
                </g>
                <circle id="Oval" stroke="#49C89F" fill="#FFFFFF" cx="21" cy="4.2" r="4.2"></circle>
                <circle id="Oval" stroke="#49C89F" fill="#FFFFFF" cx="7" cy="14" r="4.2"></circle>
                <circle id="Oval" stroke="#49C89F" fill="#FFFFFF" cx="21" cy="23.8" r="4.2"></circle>
            </g>
        </g>
        <g id="Group" transform="translate(275.000000, 159.000000)">
            <g id="Rectangle-13">
                <use fill="#FFFFFF" fill-rule="evenodd" xlink:href="#path-43"></use>
                <rect stroke="#4A4A4A" stroke-width="1" x="0.5" y="0.5" width="113" height="45"></rect>
            </g>
            <g id="Rectangle-2">
                <use fill="#FFFFFF" fill-rule="evenodd" xlink:href="#path-44"></use>
                <rect stroke="#4A4A4A" stroke-width="1" x="3.5" y="4.5" width="37" height="34"></rect>
            </g>
            <polygon id="Star" stroke="#4A4A4A" fill="#FCFF82" points="22 25.75 16.1221475 28.9946784 17.2447174 22.1223392 12.4894348 17.2553216 19.0610737 16.2526608 22 10 24.9389263 16.2526608 31.5105652 17.2553216 26.7552826 22.1223392 27.8778525 28.9946784"></polygon>
            <g id="Rectangle-12">
                <use fill="#FFFFFF" fill-rule="evenodd" xlink:href="#path-45"></use>
                <rect stroke="#4A4A4A" stroke-width="1" x="44.5" y="5.5" width="63" height="4"></rect>
            </g>
            <g id="Rectangle-12">
                <use fill="#FFFFFF" fill-rule="evenodd" xlink:href="#path-46"></use>
                <rect stroke="#4A4A4A" stroke-width="1" x="44.5" y="15.1666667" width="63" height="4"></rect>
            </g>
            <g id="Rectangle-12">
                <use fill="#FFFFFF" fill-rule="evenodd" xlink:href="#path-47"></use>
                <rect stroke="#4A4A4A" stroke-width="1" x="44.5" y="24.8333333" width="63" height="4"></rect>
            </g>
            <g id="Rectangle-12">
                <use fill="#FFFFFF" fill-rule="evenodd" xlink:href="#path-48"></use>
                <rect stroke="#4A4A4A" stroke-width="1" x="44.5" y="34.5" width="63" height="4"></rect>
            </g>
        </g>
    </g>
</svg>