<?xml version="1.0" encoding="UTF-8"?>
<svg width="1341px" height="1024px" viewBox="0 0 1341 1024" version="1.1" xmlns="http://www.w3.org/2000/svg" xmlns:xlink="http://www.w3.org/1999/xlink">
    <!-- Generator: Sketch 51.2 (57519) - http://www.bohemiancoding.com/sketch -->
    <title>DataProcess</title>
    <desc>Created with Sketch.</desc>
    <defs></defs>
    <g id="DataProcess" stroke="none" stroke-width="1" fill="none" fill-rule="evenodd">
        <g id="DataScienceProcess" transform="translate(101.000000, 136.000000)">
            <text id="IT-Staff" font-family="OpenSans, Open Sans" font-size="24" font-weight="normal" fill="#4A4A4A">
                <tspan x="258" y="229">IT Staff</tspan>
            </text>
            <text id="Executives" font-family="OpenSans, Open Sans" font-size="24" font-weight="normal" fill="#4A4A4A">
                <tspan x="51" y="229">Executives</tspan>
            </text>
            <text id="IT-Staff" font-family="OpenSans, Open Sans" font-size="24" font-weight="normal" fill="#4A4A4A">
                <tspan x="1012" y="106">IT Staff</tspan>
            </text>
            <text id="Analyst" font-family="OpenSans, Open Sans" font-size="24" font-weight="normal" fill="#4A4A4A">
                <tspan x="66" y="530">Analyst</tspan>
            </text>
            <text id="Analyst" font-family="OpenSans, Open Sans" font-size="24" font-weight="normal" fill="#4A4A4A">
                <tspan x="448" y="530">Analyst</tspan>
            </text>
            <text id="Data-Scientist" font-family="OpenSans, Open Sans" font-size="24" font-weight="normal" fill="#4A4A4A">
                <tspan x="416" y="677">Data Scientist</tspan>
            </text>
            <text id="Data-Scientist" font-family="OpenSans, Open Sans" font-size="24" font-weight="normal" fill="#4A4A4A">
                <tspan x="666" y="530">Data Scientist</tspan>
            </text>
            <rect id="BG" fill="#D8D8D8" x="244" y="284" width="88" height="49" rx="24.5"></rect>
            <text id="10:20" font-family="OpenSans, Open Sans" font-size="24" font-weight="normal" fill="#4A4A4A">
                <tspan x="264" y="317">Data</tspan>
            </text>
            <rect id="BG" fill="#D8D8D8" x="422" y="284" width="127" height="49" rx="24.5"></rect>
            <text id="10:20" font-family="OpenSans, Open Sans" font-size="24" font-weight="normal" fill="#4A4A4A">
                <tspan x="442" y="317">Features</tspan>
            </text>
            <path id="Line-4" d="M352,308.25 C352,305.764719 349.985281,303.75 347.5,303.75 C345.014719,303.75 343,305.764719 343,308.25 C343,310.735281 345.014719,312.75 347.5,312.75 C349.985281,312.75 352,310.735281 352,308.25 Z M409,308.25 L400,303.75 L400,312.75 L409,308.25 Z M351.5,308.75 L400.5,308.75 L401,308.75 L401,307.75 L400.5,307.75 L351.5,307.75 L351,307.75 L351,308.75 L351.5,308.75 Z" fill="#4A4A4A" fill-rule="nonzero"></path>
            <path id="Line-5" d="M571,308.5 C571,306.014719 568.985281,304 566.5,304 C564.014719,304 562,306.014719 562,308.5 C562,310.985281 564.014719,313 566.5,313 C568.985281,313 571,310.985281 571,308.5 Z M666,308.5 L657,304 L657,313 L666,308.5 Z M570.5,309 L657.5,309 L658,309 L658,308 L657.5,308 L570.5,308 L570,308 L570,309 L570.5,309 Z" fill="#4A4A4A" fill-rule="nonzero"></path>
            <path id="Line-5" d="M821,308.25 C821,305.764719 818.985281,303.75 816.5,303.75 C814.014719,303.75 812,305.764719 812,308.25 C812,310.735281 814.014719,312.75 816.5,312.75 C818.985281,312.75 821,310.735281 821,308.25 Z M946,308.25 L937,303.75 L937,312.75 L946,308.25 Z M820.5,308.75 L937.5,308.75 L938,308.75 L938,307.75 L937.5,307.75 L820.5,307.75 L820,307.75 L820,308.75 L820.5,308.75 Z" fill="#4A4A4A" fill-rule="nonzero"></path>
            <rect id="BG" fill="#D8D8D8" x="963" y="284" width="176" height="49" rx="24.5"></rect>
            <text id="10:20" font-family="OpenSans, Open Sans" font-size="24" font-weight="normal" fill="#4A4A4A">
                <tspan x="988" y="317">Predictions</tspan>
            </text>
            <rect id="BG" fill="#D8D8D8" x="678" y="283" width="115" height="49" rx="24.5"></rect>
            <text id="10:20" font-family="OpenSans, Open Sans" font-size="24" font-weight="normal" fill="#4A4A4A">
                <tspan x="698" y="316">Models</tspan>
            </text>
            <rect id="BG" fill="#D8D8D8" x="0" y="284" width="200" height="49" rx="24.5"></rect>
            <text id="10:20" font-family="OpenSans, Open Sans" font-size="24" font-weight="normal" fill="#4A4A4A">
                <tspan x="26" y="317">Requirements</tspan>
            </text>
            <path id="Line-3" d="M210,306.5 C210,304.014719 207.985281,302 205.5,302 C203.014719,302 201,304.014719 201,306.5 C201,308.985281 203.014719,311 205.5,311 C207.985281,311 210,308.985281 210,306.5 Z M240,306.5 L231,302 L231,311 L240,306.5 Z M209.5,307 L231.5,307 L232,307 L232,306 L231.5,306 L209.5,306 L209,306 L209,307 L209.5,307 Z" fill="#4A4A4A" fill-rule="nonzero"></path>
            <path d="M93.995305,143.929131 C91.147345,140.859648 89.3913043,136.655282 89.3913043,132.017629 C89.3913043,122.619052 96.6034131,115 105.5,115 C114.396587,115 121.608696,122.619052 121.608696,132.017629 C121.608696,136.655282 119.852655,140.859648 117.004695,143.929131 C127.014401,148.955647 134,160.340391 134,173.579916 C134,191.473361 77,191.473361 77,173.579916 C77,160.340391 83.9855992,148.955647 93.995305,143.929131 Z" id="Combined-Shape" fill="#FF7453"></path>
            <text id="Executives" font-family="OpenSans, Open Sans" font-size="24" font-weight="normal" fill="#4A4A4A">
                <tspan x="998" y="677">Executives</tspan>
            </text>
            <path d="M1040.9953,591.929131 C1038.14735,588.859648 1036.3913,584.655282 1036.3913,580.017629 C1036.3913,570.619052 1043.60341,563 1052.5,563 C1061.39659,563 1068.6087,570.619052 1068.6087,580.017629 C1068.6087,584.655282 1066.85265,588.859648 1064.0047,591.929131 C1074.0144,596.955647 1081,608.340391 1081,621.579916 C1081,639.473361 1024,639.473361 1024,621.579916 C1024,608.340391 1030.9856,596.955647 1040.9953,591.929131 Z" id="Combined-Shape" fill="#FF7453"></path>
            <path d="M274.995305,143.929131 C272.147345,140.859648 270.391304,136.655282 270.391304,132.017629 C270.391304,122.619052 277.603413,115 286.5,115 C295.396587,115 302.608696,122.619052 302.608696,132.017629 C302.608696,136.655282 300.852655,140.859648 298.004695,143.929131 C308.014401,148.955647 315,160.340391 315,173.579916 C315,191.473361 258,191.473361 258,173.579916 C258,160.340391 264.985599,148.955647 274.995305,143.929131 Z" id="Combined-Shape" fill="#D8D8D8"></path>
            <path d="M1039.9953,28.9291311 C1037.14735,25.8596479 1035.3913,21.6552825 1035.3913,17.0176293 C1035.3913,7.61905217 1042.60341,0 1051.5,0 C1060.39659,0 1067.6087,7.61905217 1067.6087,17.0176293 C1067.6087,21.6552825 1065.85265,25.8596479 1063.0047,28.9291311 C1073.0144,33.9556472 1080,45.3403908 1080,58.5799163 C1080,76.4733612 1023,76.4733612 1023,58.5799163 C1023,45.3403908 1029.9856,33.9556472 1039.9953,28.9291311 Z" id="Combined-Shape" fill="#D8D8D8"></path>
            <path d="M93.995305,452.929131 C91.147345,449.859648 89.3913043,445.655282 89.3913043,441.017629 C89.3913043,431.619052 96.6034131,424 105.5,424 C114.396587,424 121.608696,431.619052 121.608696,441.017629 C121.608696,445.655282 119.852655,449.859648 117.004695,452.929131 C127.014401,457.955647 134,469.340391 134,482.579916 C134,500.473361 77,500.473361 77,482.579916 C77,469.340391 83.9855992,457.955647 93.995305,452.929131 Z" id="Combined-Shape" fill="#84DFB1"></path>
            <path d="M473.995305,452.929131 C471.147345,449.859648 469.391304,445.655282 469.391304,441.017629 C469.391304,431.619052 476.603413,424 485.5,424 C494.396587,424 501.608696,431.619052 501.608696,441.017629 C501.608696,445.655282 499.852655,449.859648 497.004695,452.929131 C507.014401,457.955647 514,469.340391 514,482.579916 C514,500.473361 457,500.473361 457,482.579916 C457,469.340391 463.985599,457.955647 473.995305,452.929131 Z" id="Combined-Shape" fill="#84DFB1"></path>
            <text id="Analyst" font-family="OpenSans, Open Sans" font-size="24" font-weight="normal" fill="#4A4A4A">
                <tspan x="1010" y="530">Analyst</tspan>
            </text>
            <path d="M1039.9953,452.929131 C1037.14735,449.859648 1035.3913,445.655282 1035.3913,441.017629 C1035.3913,431.619052 1042.60341,424 1051.5,424 C1060.39659,424 1067.6087,431.619052 1067.6087,441.017629 C1067.6087,445.655282 1065.85265,449.859648 1063.0047,452.929131 C1073.0144,457.955647 1080,469.340391 1080,482.579916 C1080,500.473361 1023,500.473361 1023,482.579916 C1023,469.340391 1029.9856,457.955647 1039.9953,452.929131 Z" id="Combined-Shape" fill="#84DFB1"></path>
            <path d="M473.995305,593.929131 C471.147345,590.859648 469.391304,586.655282 469.391304,582.017629 C469.391304,572.619052 476.603413,565 485.5,565 C494.396587,565 501.608696,572.619052 501.608696,582.017629 C501.608696,586.655282 499.852655,590.859648 497.004695,593.929131 C507.014401,598.955647 514,610.340391 514,623.579916 C514,641.473361 457,641.473361 457,623.579916 C457,610.340391 463.985599,598.955647 473.995305,593.929131 Z" id="Combined-Shape" fill="#4A90E2"></path>
            <path d="M723.995305,452.929131 C721.147345,449.859648 719.391304,445.655282 719.391304,441.017629 C719.391304,431.619052 726.603413,424 735.5,424 C744.396587,424 751.608696,431.619052 751.608696,441.017629 C751.608696,445.655282 749.852655,449.859648 747.004695,452.929131 C757.014401,457.955647 764,469.340391 764,482.579916 C764,500.473361 707,500.473361 707,482.579916 C707,469.340391 713.985599,457.955647 723.995305,452.929131 Z" id="Combined-Shape" fill="#4A90E2"></path>
            <text id="Data-Scientist" font-family="OpenSans, Open Sans" font-size="24" font-weight="normal" fill="#4A4A4A">
                <tspan x="975" y="237">Data Scientist</tspan>
            </text>
            <path d="M1039.9953,159.929131 C1037.14735,156.859648 1035.3913,152.655282 1035.3913,148.017629 C1035.3913,138.619052 1042.60341,131 1051.5,131 C1060.39659,131 1067.6087,138.619052 1067.6087,148.017629 C1067.6087,152.655282 1065.85265,156.859648 1063.0047,159.929131 C1073.0144,164.955647 1080,176.340391 1080,189.579916 C1080,207.473361 1023,207.473361 1023,189.579916 C1023,176.340391 1029.9856,164.955647 1039.9953,159.929131 Z" id="Combined-Shape" fill="#4A90E2"></path>
            <path id="Line-6" d="M109.564212,264.754869 L105.064212,272.754869 L105.935788,272.754869 L101.435788,264.754869 L101.190657,264.319082 L100.319082,264.809343 L100.564212,265.245131 L105.064212,273.245131 L105.5,274.019864 L105.935788,273.245131 L110.435788,265.245131 L110.680918,264.809343 L109.809343,264.319082 L109.564212,264.754869 Z M105,241.5 L105,248.5 L105,249 L106,249 L106,248.5 L106,241.5 L106,241 L105,241 L105,241.5 Z M105,255.5 L105,262.5 L105,263 L106,263 L106,262.5 L106,255.5 L106,255 L105,255 L105,255.5 Z M105,269.5 L105,272 L105,272.5 L106,272.5 L106,272 L106,269.5 L106,269 L105,269 L105,269.5 Z" fill="#448EED" fill-rule="nonzero"></path>
            <path id="Line-6" d="M110.064212,403.254869 L105.564212,411.254869 L106.435788,411.254869 L101.935788,403.254869 L101.690657,402.819082 L100.819082,403.309343 L101.064212,403.745131 L105.564212,411.745131 L106,412.519864 L106.435788,411.745131 L110.935788,403.745131 L111.180918,403.309343 L110.309343,402.819082 L110.064212,403.254869 Z M105.5,351 L105.5,358 L105.5,358.5 L106.5,358.5 L106.5,358 L106.5,351 L106.5,350.5 L105.5,350.5 L105.5,351 Z M105.5,365 L105.5,372 L105.5,372.5 L106.5,372.5 L106.5,372 L106.5,365 L106.5,364.5 L105.5,364.5 L105.5,365 Z M105.5,379 L105.5,386 L105.5,386.5 L106.5,386.5 L106.5,386 L106.5,379 L106.5,378.5 L105.5,378.5 L105.5,379 Z M105.5,393 L105.5,400 L105.5,400.5 L106.5,400.5 L106.5,400 L106.5,393 L106.5,392.5 L105.5,392.5 L105.5,393 Z M105.5,407 L105.5,410.5 L105.5,411 L106.5,411 L106.5,410.5 L106.5,407 L106.5,406.5 L105.5,406.5 L105.5,407 Z" fill="#448EED" fill-rule="nonzero"></path>
            <path id="Line-6" d="M489.064212,403.254869 L484.564212,411.254869 L485.435788,411.254869 L480.935788,403.254869 L480.690657,402.819082 L479.819082,403.309343 L480.064212,403.745131 L484.564212,411.745131 L485,412.519864 L485.435788,411.745131 L489.935788,403.745131 L490.180918,403.309343 L489.309343,402.819082 L489.064212,403.254869 Z M484.5,351 L484.5,358 L484.5,358.5 L485.5,358.5 L485.5,358 L485.5,351 L485.5,350.5 L484.5,350.5 L484.5,351 Z M484.5,365 L484.5,372 L484.5,372.5 L485.5,372.5 L485.5,372 L485.5,365 L485.5,364.5 L484.5,364.5 L484.5,365 Z M484.5,379 L484.5,386 L484.5,386.5 L485.5,386.5 L485.5,386 L485.5,379 L485.5,378.5 L484.5,378.5 L484.5,379 Z M484.5,393 L484.5,400 L484.5,400.5 L485.5,400.5 L485.5,400 L485.5,393 L485.5,392.5 L484.5,392.5 L484.5,393 Z M484.5,407 L484.5,410.5 L484.5,411 L485.5,411 L485.5,410.5 L485.5,407 L485.5,406.5 L484.5,406.5 L484.5,407 Z" fill="#448EED" fill-rule="nonzero"></path>
            <path id="Line-6" d="M739.064212,403.254869 L734.564212,411.254869 L735.435788,411.254869 L730.935788,403.254869 L730.690657,402.819082 L729.819082,403.309343 L730.064212,403.745131 L734.564212,411.745131 L735,412.519864 L735.435788,411.745131 L739.935788,403.745131 L740.180918,403.309343 L739.309343,402.819082 L739.064212,403.254869 Z M734.5,351 L734.5,358 L734.5,358.5 L735.5,358.5 L735.5,358 L735.5,351 L735.5,350.5 L734.5,350.5 L734.5,351 Z M734.5,365 L734.5,372 L734.5,372.5 L735.5,372.5 L735.5,372 L735.5,365 L735.5,364.5 L734.5,364.5 L734.5,365 Z M734.5,379 L734.5,386 L734.5,386.5 L735.5,386.5 L735.5,386 L735.5,379 L735.5,378.5 L734.5,378.5 L734.5,379 Z M734.5,393 L734.5,400 L734.5,400.5 L735.5,400.5 L735.5,400 L735.5,393 L735.5,392.5 L734.5,392.5 L734.5,393 Z M734.5,407 L734.5,410.5 L734.5,411 L735.5,411 L735.5,410.5 L735.5,407 L735.5,406.5 L734.5,406.5 L734.5,407 Z" fill="#448EED" fill-rule="nonzero"></path>
            <path id="Line-6" d="M1055.06421,403.254869 L1050.56421,411.254869 L1051.43579,411.254869 L1046.93579,403.254869 L1046.69066,402.819082 L1045.81908,403.309343 L1046.06421,403.745131 L1050.56421,411.745131 L1051,412.519864 L1051.43579,411.745131 L1055.93579,403.745131 L1056.18092,403.309343 L1055.30934,402.819082 L1055.06421,403.254869 Z M1050.5,351 L1050.5,358 L1050.5,358.5 L1051.5,358.5 L1051.5,358 L1051.5,351 L1051.5,350.5 L1050.5,350.5 L1050.5,351 Z M1050.5,365 L1050.5,372 L1050.5,372.5 L1051.5,372.5 L1051.5,372 L1051.5,365 L1051.5,364.5 L1050.5,364.5 L1050.5,365 Z M1050.5,379 L1050.5,386 L1050.5,386.5 L1051.5,386.5 L1051.5,386 L1051.5,379 L1051.5,378.5 L1050.5,378.5 L1050.5,379 Z M1050.5,393 L1050.5,400 L1050.5,400.5 L1051.5,400.5 L1051.5,400 L1051.5,393 L1051.5,392.5 L1050.5,392.5 L1050.5,393 Z M1050.5,407 L1050.5,410.5 L1050.5,411 L1051.5,411 L1051.5,410.5 L1051.5,407 L1051.5,406.5 L1050.5,406.5 L1050.5,407 Z" fill="#448EED" fill-rule="nonzero"></path>
            <path id="Line-6" d="M298.564212,264.754869 L294.064212,272.754869 L294.935788,272.754869 L290.435788,264.754869 L290.190657,264.319082 L289.319082,264.809343 L289.564212,265.245131 L294.064212,273.245131 L294.5,274.019864 L294.935788,273.245131 L299.435788,265.245131 L299.680918,264.809343 L298.809343,264.319082 L298.564212,264.754869 Z M294,241.5 L294,248.5 L294,249 L295,249 L295,248.5 L295,241.5 L295,241 L294,241 L294,241.5 Z M294,255.5 L294,262.5 L294,263 L295,263 L295,262.5 L295,255.5 L295,255 L294,255 L294,255.5 Z M294,269.5 L294,272 L294,272.5 L295,272.5 L295,272 L295,269.5 L295,269 L294,269 L294,269.5 Z" fill="#448EED" fill-rule="nonzero"></path>
            <path id="Line-6" d="M1055.31421,270.754869 L1050.81421,278.754869 L1051.68579,278.754869 L1047.18579,270.754869 L1046.94066,270.319082 L1046.06908,270.809343 L1046.31421,271.245131 L1050.81421,279.245131 L1051.25,280.019864 L1051.68579,279.245131 L1056.18579,271.245131 L1056.43092,270.809343 L1055.55934,270.319082 L1055.31421,270.754869 Z M1050.75,247.5 L1050.75,254.5 L1050.75,255 L1051.75,255 L1051.75,254.5 L1051.75,247.5 L1051.75,247 L1050.75,247 L1050.75,247.5 Z M1050.75,261.5 L1050.75,268.5 L1050.75,269 L1051.75,269 L1051.75,268.5 L1051.75,261.5 L1051.75,261 L1050.75,261 L1050.75,261.5 Z M1050.75,275.5 L1050.75,278 L1050.75,278.5 L1051.75,278.5 L1051.75,278 L1051.75,275.5 L1051.75,275 L1050.75,275 L1050.75,275.5 Z" fill="#448EED" fill-rule="nonzero"></path>
        </g>
    </g>
</svg>