<?xml version="1.0" encoding="UTF-8"?>
<svg width="1000px" height="350px" viewBox="0 0 1000 350" version="1.1" xmlns="http://www.w3.org/2000/svg" xmlns:xlink="http://www.w3.org/1999/xlink" style="background: #FFFFFF;">
    <!-- Generator: Sketch 49.1 (51147) - http://www.bohemiancoding.com/sketch -->
    <title>@1xTestUsers</title>
    <desc>Created with Sketch.</desc>
    <defs>
        <path d="M63,81 L56,88 L56,81 L52,81 C50.8954305,81 50,80.1045695 50,79 L50,34 C50,32.8954305 50.8954305,32 52,32 L117,32 C118.104569,32 119,32.8954305 119,34 L119,79 C119,80.1045695 118.104569,81 117,81 L63,81 Z" id="path-1"></path>
        <path d="M367,93 L360,100 L360,93 L356,93 C354.895431,93 354,92.1045695 354,91 L354,38 C354,36.8954305 354.895431,36 356,36 L430,36 C431.104569,36 432,36.8954305 432,38 L432,91 C432,92.1045695 431.104569,93 430,93 L367,93 Z" id="path-2"></path>
        <path d="M235.642857,69 L226,78 L226,69 L189,69 C187.343146,69 186,67.6568542 186,66 L186,3 C186,1.34314575 187.343146,-3.24835449e-15 189,-3.55271368e-15 L282,0 C283.656854,-3.04359188e-16 285,1.34314575 285,3 L285,66 C285,67.6568542 283.656854,69 282,69 L235.642857,69 Z" id="path-3"></path>
    </defs>
    <g id="TestUsers" stroke="none" stroke-width="1" fill="none" fill-rule="evenodd">
        <g id="Group" transform="translate(252.000000, 46.000000)">
            <g id="avatarGirl1" transform="translate(0.000000, 103.000000)" stroke="#4A4A4A">
                <path d="M30,97 C30.6858551,106.492545 30.6858551,113.159211 30,117 C29.3141449,120.840789 27.6474782,123.507455 25,125" id="Path-2"></path>
                <path d="M46,97 C46.6858551,106.492545 46.6858551,113.159211 46,117 C45.3141449,120.840789 43.6474782,123.507455 41,125" id="Path-2" transform="translate(43.757196, 111.000000) scale(-1, 1) translate(-43.757196, -111.000000) "></path>
                <path d="M35.5,107 C50.963973,107 65,92.09139 65,70 C65,47.90861 56,27 34,27 C12,27 6,44.90861 6,67 C6,89.09139 20.036027,107 35.5,107 Z" id="Oval" fill="#FFFFFF"></path>
                <circle id="Oval-3" fill="#4A4A4A" cx="24" cy="65" r="2"></circle>
                <circle id="Oval-3" fill="#4A4A4A" cx="48" cy="65" r="2"></circle>
                <path d="M35.5,71.5 C39.8333333,77.5 42,81.3333333 42,83 C42,84.6666667 39.8333333,85.5 35.5,85.5" id="Line" stroke-linecap="square"></path>
                <path d="M7,77 C7,62.3333333 10,52.3333333 16,47 C19.2149189,44.1422943 27.5778561,45.9694816 36,45.5 C42.2644055,45.1507988 49.9106343,39.4657183 55,43 C62.9544894,48.523951 66.2878227,59.1906176 65,75 C67.6666667,58.3333333 67.6666667,46 65,38 C61,26 50.5,17 41,17 C31.5,17 21,16 12,23 C3,30 0,37 0,49 C4.64905892e-16,57 2.33333333,66.3333333 7,77 Z" id="Path-3" fill="#4A4A4A"></path>
                <path d="M23,25 C30.1797017,25 36,22 36,13.5 C36,5 30.1797017,0 23,0 C15.8202983,0 8,3 8,12.5 C8,22 15.8202983,25 23,25 Z" id="Oval-2" fill="#4A4A4A"></path>
            </g>
            <g id="avatarGirl1" transform="translate(198.500000, 109.000000)" stroke="#4A4A4A">
                <path d="M40,91 C40.6858551,100.492545 40.6858551,107.159211 40,111 C39.3141449,114.840789 37.6474782,117.507455 35,119" id="Path-2"></path>
                <path d="M56,91 C56.6858551,100.492545 56.6858551,107.159211 56,111 C55.3141449,114.840789 53.6474782,117.507455 51,119" id="Path-2" transform="translate(53.757196, 105.000000) scale(-1, 1) translate(-53.757196, -105.000000) "></path>
                <path d="M45.5,101 C60.963973,101 75,86.09139 75,64 C75,41.90861 66,21 44,21 C22,21 16,38.90861 16,61 C16,83.09139 30.036027,101 45.5,101 Z" id="Oval" fill="#FFFFFF"></path>
                <circle id="Oval-3" fill="#4A4A4A" cx="35" cy="54" r="2"></circle>
                <circle id="Oval-3" fill="#4A4A4A" cx="59" cy="54" r="2"></circle>
                <path d="M46.5,62.5 C50.8333333,68.5 53,72.3333333 53,74 C53,75.6666667 50.8333333,76.5 46.5,76.5" id="Line" stroke-linecap="square"></path>
                <path d="M26,94 C20,63.5 20,45.8333333 26,41 C30.7378428,37.1834044 38,39.5 43.5,31 C52,39.5 58.3494526,35.5760088 64,39.5 C71.9544894,45.023951 73.6211561,62.523951 69,92 C85,92 93.6666667,90.6666667 95,88 C96.7589449,84.4821102 84.7577936,36.2733809 83,31 C79,19 64,0 43.5,0 C23,2.66040808e-15 19,10 15,15 C11,20 6,35 4,48.25 C3.27475508,53.0547476 8.58941135e-14,81.8479709 0,94 C-2.36847579e-14,97.3333333 8.66666667,97.3333333 26,94 Z" id="Path-3" fill="#4A4A4A"></path>
            </g>
            <g id="avatarBoy1" transform="translate(328.750000, 116.000000)" stroke="#4A4A4A">
                <path d="M29,84 C29.6858551,93.4925448 29.6858551,100.159211 29,104 C28.3141449,107.840789 26.6474782,110.507455 24,112" id="Path-2"></path>
                <path d="M45,84 C45.6858551,93.4925448 45.6858551,100.159211 45,104 C44.3141449,107.840789 42.6474782,110.507455 40,112" id="Path-2" transform="translate(42.757196, 98.000000) scale(-1, 1) translate(-42.757196, -98.000000) "></path>
                <path d="M34.5,94 C49.963973,94 64,79.09139 64,57 C64,34.90861 55,14 33,14 C11,14 5,31.90861 5,54 C5,76.09139 19.036027,94 34.5,94 Z" id="Oval" fill="#FFFFFF"></path>
                <circle id="Oval-3" fill="#4A4A4A" cx="23.5" cy="49" r="2"></circle>
                <circle id="Oval-3" fill="#4A4A4A" cx="47.5" cy="49" r="2"></circle>
                <path d="M34.5,55.5 C38.8333333,61.5 41,65.3333333 41,67 C41,68.6666667 38.8333333,69.5 34.5,69.5" id="Line" stroke-linecap="square"></path>
                <path d="M15,34 C19.7378428,30.1834044 47.3494526,28.5760088 53,32.5 C60.9544894,38.023951 64.2878227,50.1906176 63,69 C65.6666667,44.356275 65.6666667,28.8620104 63,22.5172063 C61.2440479,18.3392668 59.9940479,10.8335314 59.25,0 C47.448651,2.66666667 38.7860011,4 33.2620502,4 C9,4 4,17 1,28.5184463 C-2,40.0368927 10.5,79 7.5,66 C6.77475508,70.8047476 6,41.25 15,34 Z" id="Path-3" fill="#4A4A4A"></path>
            </g>
            <g id="avatarBoy2" transform="translate(101.250000, 129.000000)" stroke="#4A4A4A">
                <path d="M28,71 C28.6858551,80.4925448 28.6858551,87.1592115 28,91 C27.3141449,94.8407885 25.6474782,97.5074552 23,99" id="Path-2"></path>
                <path d="M44,71 C44.6858551,80.4925448 44.6858551,87.1592115 44,91 C43.3141449,94.8407885 41.6474782,97.5074552 39,99" id="Path-2" transform="translate(41.757196, 85.000000) scale(-1, 1) translate(-41.757196, -85.000000) "></path>
                <path d="M33.5,81 C48.963973,81 63,66.09139 63,44 C63,21.90861 54,1 32,1 C10,1 4,18.90861 4,41 C4,63.09139 18.036027,81 33.5,81 Z" id="Oval" fill="#FFFFFF"></path>
                <circle id="Oval-3" fill="#4A4A4A" cx="22.5" cy="38" r="2"></circle>
                <circle id="Oval-3" fill="#4A4A4A" cx="46.5" cy="38" r="2"></circle>
                <path d="M34.5,44.5 C38.8333333,50.5 41,54.3333333 41,56 C41,57.6666667 38.8333333,58.5 34.5,58.5" id="Line" stroke-linecap="square"></path>
                <path d="M13,19.6100515 C15.2893802,17.7658285 18.2691676,13 31.1345838,13 C44,13 49.5786837,17.3364479 52,19.6100515 C58.6666667,25.8700172 62,32 62,38 L62,5 C57.597756,1.66666667 47.309284,0 31.1345838,0 C14.9598837,0 4.58168905,3.17240209 0,9.51720626 C4,35.8390688 5,44.6666667 3,36 C2.27475508,40.8047476 4,26.8600515 13,19.6100515 Z" id="Path-3" fill="#4A4A4A"></path>
            </g>
            <g id="avatarBoy3" transform="translate(433.000000, 118.000000)" stroke="#4A4A4A">
                <path d="M28,82 C28.6858551,91.4925448 28.6858551,98.1592115 28,102 C27.3141449,105.840789 25.6474782,108.507455 23,110" id="Path-2"></path>
                <path d="M44,82 C44.6858551,91.4925448 44.6858551,98.1592115 44,102 C43.3141449,105.840789 41.6474782,108.507455 39,110" id="Path-2" transform="translate(41.757196, 96.000000) scale(-1, 1) translate(-41.757196, -96.000000) "></path>
                <path d="M33.5,92 C48.963973,92 63,77.09139 63,55 C63,32.90861 54,12 32,12 C10,12 4,29.90861 4,52 C4,74.09139 18.036027,92 33.5,92 Z" id="Oval" fill="#FFFFFF"></path>
                <circle id="Oval-3" fill="#4A4A4A" cx="22" cy="46" r="2"></circle>
                <circle id="Oval-3" fill="#4A4A4A" cx="46" cy="46" r="2"></circle>
                <path d="M33.5,53.5 C37.8333333,59.5 40,63.3333333 40,65 C40,66.6666667 37.8333333,67.5 33.5,67.5" id="Line" stroke-linecap="square"></path>
                <path d="M12,33 C14.2893802,31.155777 18.2691676,30.6100515 31.1345838,30.6100515 C44,30.6100515 49.5786837,28.3364479 52,30.6100515 C58.6666667,36.8700172 62,43 62,49 C64,35 64,25.6666667 62,21 C59,14 53.9757511,3.49577121 49,1 C46.8673369,-0.0697156947 43.6583424,8.72740049 41,9 C38.2680693,9.28014562 36.0877555,1.05053418 34,1 C32.3876807,0.960973765 32.8847335,11 31.1345838,11 C21.4601564,11 25.5270428,-1.26984544 20,1 C16.2863657,2.52511501 7.83256303,9.45554388 3,21 C-1.83256303,32.5444561 3,54 3,49 C2.27475508,53.8047476 3,40.25 12,33 Z" id="Path-3" fill="#4A4A4A"></path>
            </g>
            <g id="Combined-Shape">
                <use fill="#FFFFFF" fill-rule="evenodd" xlink:href="#path-1"></use>
                <path stroke="#4A4A4A" stroke-width="1" d="M56.5,86.7928932 L62.7928932,80.5 L117,80.5 C117.828427,80.5 118.5,79.8284271 118.5,79 L118.5,34 C118.5,33.1715729 117.828427,32.5 117,32.5 L52,32.5 C51.1715729,32.5 50.5,33.1715729 50.5,34 L50.5,79 C50.5,79.8284271 51.1715729,80.5 52,80.5 L56.5,80.5 L56.5,86.7928932 Z"></path>
            </g>
            <g id="Combined-Shape" transform="translate(393.000000, 68.000000) scale(-1, 1) translate(-393.000000, -68.000000) ">
                <use fill="#FFFFFF" fill-rule="evenodd" xlink:href="#path-2"></use>
                <path stroke="#4A4A4A" stroke-width="1" d="M360.5,98.7928932 L366.792893,92.5 L430,92.5 C430.828427,92.5 431.5,91.8284271 431.5,91 L431.5,38 C431.5,37.1715729 430.828427,36.5 430,36.5 L356,36.5 C355.171573,36.5 354.5,37.1715729 354.5,38 L354.5,91 C354.5,91.8284271 355.171573,92.5 356,92.5 L360.5,92.5 L360.5,98.7928932 Z"></path>
            </g>
            <g id="Combined-Shape">
                <use fill="#FFFFFF" fill-rule="evenodd" xlink:href="#path-3"></use>
                <path stroke="#4A4A4A" stroke-width="1" d="M226.5,76.8493905 L235.445776,68.5 L282,68.5 C283.380712,68.5 284.5,67.3807119 284.5,66 L284.5,3 C284.5,1.61928813 283.380712,0.5 282,0.5 L189,0.5 C187.619288,0.5 186.5,1.61928813 186.5,3 L186.5,66 C186.5,67.3807119 187.619288,68.5 189,68.5 L226.5,68.5 L226.5,76.8493905 Z"></path>
            </g>
            <path d="M77.5570938,48.0673427 C74.5190313,49.5863739 73,52.8776084 73,57.9410459 C73,65.5362023 83.5321009,62.4867788 86.6712815,60.2195929 C89.8104621,57.9524069 88.7795871,49.824264 86.6712815,48.0673427 C84.5629758,46.3104213 78.8964786,48.9889636 77.5570938,52.6244365 C76.2177091,56.2599094 76.7037371,59.74986 81.354672,62.4981398 C86.0056069,65.2464195 92.7474066,67.0552336 94.2664378,62.4981398 C95.7854691,57.9410459 91.750742,54.0096708 89.709344,52.6244365 C87.667946,51.2392021 84.6072003,50.6563298 83.6332189,55.2827412 C82.6592376,59.9091527 82.9554842,68.5647762 86.6712815,67.0552336 C90.3870787,65.545691 97.3045004,54.9029834 95.7854691,50.3458896 C94.7727816,47.307827 90.7220315,45.0292801 83.6332189,43.5102489" id="Path-4" stroke="#4A4A4A"></path>
            <path d="M382,54 C378,56 376,60.3333333 376,67 C376,77 389.866865,72.9850419 394,70 C398.133135,67.0149581 396.775855,56.3132129 394,54 C391.224145,51.6867871 383.763472,55.2134324 382,60 C380.236528,64.7865676 380.876446,69.3815363 387,73 C393.123554,76.6184637 402,79 404,73 C406,67 400.687763,61.8238391 398,60 C395.312237,58.1761609 391.282372,57.4087344 390,63.5 C388.717628,69.5912656 389.107675,80.987507 394,79 C398.892325,77.012493 408,63 406,57 C404.666667,53 399.333333,50 390,48" id="Path-4" stroke="#4A4A4A"></path>
            <path d="M216.921249,24.9212495 C211.640416,27.561666 209,33.2825684 209,42.0839567 C209,55.2860392 227.30715,49.9854584 232.763748,46.0445815 C238.220347,42.1037046 236.428456,27.9751723 232.763748,24.9212495 C229.099041,21.8673267 219.2494,26.523233 216.921249,32.842499 C214.593099,39.161765 215.437924,45.2280807 223.522291,50.0052062 C231.606657,54.7823318 243.325414,57.9264557 245.965831,50.0052062 C248.606247,42.0839567 241.592988,35.2503465 238.044581,32.842499 C234.496175,30.4346515 229.175913,29.4214888 227.482915,37.4632279 C225.789918,45.5049669 226.304861,60.5503788 232.763748,57.9264557 C239.222636,55.3025326 251.246664,36.8031237 248.606247,28.8818742 C246.84597,23.6010412 239.804859,19.6404165 227.482915,17" id="Path-4" stroke="#4A4A4A"></path>
            <path d="M227.921249,17.9212495 C222.640416,20.561666 220,26.2825684 220,35.0839567 C220,48.2860392 238.30715,42.9854584 243.763748,39.0445815 C249.220347,35.1037046 247.428456,20.9751723 243.763748,17.9212495 C240.099041,14.8673267 230.2494,19.523233 227.921249,25.842499 C225.593099,32.161765 226.437924,38.2280807 234.522291,43.0052062 C242.606657,47.7823318 254.325414,50.9264557 256.965831,43.0052062 C259.606247,35.0839567 252.592988,28.2503465 249.044581,25.842499 C245.496175,23.4346515 240.175913,22.4214888 238.482915,30.4632279 C236.789918,38.5049669 237.304861,53.5503788 243.763748,50.9264557 C250.222636,48.3025326 262.246664,29.8031237 259.606247,21.8818742 C257.84597,16.6010412 250.804859,12.6404165 238.482915,10" id="Path-4-Copy" stroke="#4A4A4A" transform="translate(239.989575, 30.614838) scale(-1, 1) translate(-239.989575, -30.614838) "></path>
        </g>
    </g>
</svg>