<?xml version="1.0" encoding="UTF-8"?>
<svg width="400px" height="400px" viewBox="0 0 400 400" version="1.1" xmlns="http://www.w3.org/2000/svg" xmlns:xlink="http://www.w3.org/1999/xlink">
    <!-- Generator: Sketch 49.1 (51147) - http://www.bohemiancoding.com/sketch -->
    <title>Artboard 5</title>
    <desc>Created with Sketch.</desc>
    <defs>
        <path d="M59.1088184,41.7312596 L68.8137624,41.7312596 C68.0349603,47.2890745 68.0349603,51.5624848 68.8137624,54.5514908 C69.5925645,57.5404967 71.1097708,59.0900528 73.3653812,59.200159 L59.1088184,59.200159 L59.1088184,41.7312596 Z" id="path-1"></path>
        <path d="M37.7579413,63.1597762 C40.4429013,61.1460562 46.3776915,58.5383588 53.3547131,57.032307 C56.9967228,56.246147 60.9227246,58.7492913 64.8187159,58.8046748 C68.6205987,58.8587206 72.3939033,56.5178006 75.8468364,57.4526186 C81.6781077,59.0313278 86.5956781,61.4274649 89.1941451,63.1597762 C92.1056283,83.5401588 92.1056283,88.3149913 86.2826618,120.341307 C88.2236506,130.693247 93.723119,149.132641 102.781067,175.659488 L27.0825028,175.659488 C30.3174842,155.602604 35.1699562,137.16321 41.639919,120.341307 C38.7284357,100.931419 32.9054693,77.7171923 37.7579413,63.1597762 Z" id="path-2"></path>
        <path d="M83.6595325,75.9293157 C83.6595325,69.1364014 87.3934335,63.5188591 88.3109951,63.5188591 C89.5365458,63.5188591 97.7152789,78.4211186 97.8104759,95.7406364 C97.941434,119.566286 94.3362378,146.684033 92.1500986,146.684033 C91.2072306,146.684033 89.9275295,143.853844 88.3109951,138.193467 C89.7276684,118.671873 90.0657115,106.407722 89.3251244,101.401014 C87.1262312,86.5354884 83.6595325,78.5083602 83.6595325,75.9293157 Z" id="path-3"></path>
        <path d="M33.8759637,66.5079819 C36.7874469,60.6850154 43.7750067,61.6555099 45.7159955,66.5079819 C47.6569843,71.360454 43.7750067,99.2553671 45.7159955,106.461544 C47.009988,111.265662 56.4755435,116.878919 74.1126619,123.301315 L71.8708198,127.784999 C47.8349083,122.175541 35.1699562,116.135831 33.8759637,109.665868 C31.9349749,99.9609242 30.9644805,72.3309484 33.8759637,66.5079819 Z" id="path-4"></path>
        <polygon id="path-5" points="49.1870832 48.0128055 58.6570645 48.0128055 58.6570645 65.0587719 49.1870832 65.0587719"></polygon>
        <path d="M48.8419394,162.545124 C47.7797443,185.509732 45.6851299,202.160328 42.5580962,212.496912 C39.0463702,224.105117 34.6270455,245.254742 29.3001223,275.945787 L20.4172798,275.945787 C20.968733,247.117763 22.9826823,225.968138 26.4591279,212.496912 C27.6858396,196.549659 27.7207684,177.622949 26.5639141,155.716781 C26.529007,155.70353 26.4940787,155.690285 26.4591279,155.677023 C25.2359544,150.241462 24.9202883,145.822138 25.5121298,142.41905 C26.1039712,139.015961 27.3666354,135.859301 29.3001223,132.949068 L78.5440253,142.41905 L80.1782586,153.858682 L80.2107421,153.858787 C80.2082898,153.917429 80.2058402,153.976041 80.2033933,154.034625 L80.4380216,155.677023 C80.334738,155.729214 80.2316525,155.781139 80.1287649,155.8328 C79.0722719,181.454295 78.5440253,201.447163 78.5440253,215.811405 C78.5440253,230.542487 76.018697,251.218613 70.9680403,277.839783 L64.3390533,275.945787 C61.6432653,254.796162 61.4002024,234.751368 63.6098648,215.811405 C60.3803065,199.125354 58.2452445,181.636214 57.2046786,163.343984 C55.7914383,163.430309 54.4654235,163.399984 53.2266342,163.253009 C51.8642567,163.091371 50.4026917,162.855409 48.8419394,162.545124 Z" id="path-6"></path>
        <path d="M32.7678581,59.7806191 C36.5688491,59.3027004 42.2349173,59.2439189 49.7660628,59.6042748 C51.7948759,62.404836 53.4169625,63.8094792 54.6323224,63.8182043 C55.8476824,63.8269295 57.0010644,62.4422116 58.0924685,59.6640506 C68.3385156,61.8344726 74.9086279,63.6775502 77.8028053,65.1932835 C87.8834464,66.158521 94.7945133,83.9698703 94.7945133,107.659822 C94.7945133,115.437833 92.6069477,130.837488 88.2318163,153.858787 L81.6691192,153.858787 C81.9437087,131.916001 81.9437087,118.061418 81.6691192,112.295039 C81.2503165,103.500182 80.6247548,96.599542 79.7924342,91.5931186 C79.653389,107.635387 78.5440253,125.769179 78.5440253,142.930429 C68.543725,148.025279 28.7887433,143.650147 28.7887433,135.430203 C26.9778547,123.357613 25.1130994,102.308531 25.2251671,84.952696 C20.638192,91.6011943 16.1530205,98.0362192 14.8323574,101.4347 C12.7543434,106.782083 9.99778995,120.853899 6.56269708,143.650147 L-9.9475983e-14,139.275016 C0.972251419,116.427107 2.18756569,102.086399 3.64594282,96.2528905 C9.47945133,75.8356107 15.3129598,72.1896679 22.5953755,64.6894426 C26.7901021,60.3692561 30.2370339,59.1407928 32.7678581,59.7806191 Z M83.1274963,153.858787 L83.1274963,157.50473 L83.1274963,153.858787 Z" id="path-7"></path>
        <circle id="path-8" cx="100" cy="100" r="100"></circle>
        <path d="M50.8808088,42.6742267 L59.9400227,42.6742267 C59.2130392,47.8622457 59.2130392,51.8513195 59.9400227,54.6414484 C60.6670063,57.4315772 62.0832634,58.8780317 64.1887941,58.9808118 C61.3562799,63.9758137 58.5911768,66.4733147 55.893485,66.4733147 C53.1957932,66.4733147 50.4306902,63.9758137 47.5981759,58.9808118 C49.5371165,57.3272095 50.6313274,55.880755 50.8808088,54.6414484 C51.1302901,53.4021417 51.1302901,49.4130678 50.8808088,42.6742267 Z" id="path-10"></path>
    </defs>
    <g id="Artboard-5" stroke="none" stroke-width="1" fill="none" fill-rule="evenodd">
        <text id="Keep-good-roommate-r" font-family="OpenSans, Open Sans" font-size="20" font-weight="normal" letter-spacing="-0.482353032" fill="#4A4A4A">
            <tspan x="41" y="75">Keep good roommate relationships </tspan>
        </text>
        <text id="5" font-family="OpenSans-Bold, Open Sans" font-size="36" font-weight="bold" letter-spacing="-0.868235409" fill="#4A4A4A">
            <tspan x="190" y="43">5</tspan>
        </text>
        <g id="img-Roommates2" transform="translate(-5.000000, 116.000000)">
            <circle id="Oval-6" fill-opacity="0.6" fill="#A2EFFC" cx="100" cy="199" r="100"></circle>
            <circle id="Oval-6" fill-opacity="0.6" fill="#49C89F" cx="319" cy="199" r="100"></circle>
            <circle id="Oval-6" fill-opacity="0.6" fill="#FCFDA4" cx="200" cy="106" r="100"></circle>
            <g id="Figure1" transform="translate(32.000000, 136.000000)">
                <g id="Neck">
                    <use fill="#FFFFFF" fill-rule="evenodd" xlink:href="#path-1"></use>
                    <path stroke="#4A4A4A" stroke-width="1" d="M59.6088184,42.2312596 L59.6088184,58.700159 L70.6127198,58.700159 C69.5718668,57.8645462 68.8087479,56.515291 68.3299167,54.6775595 C67.558651,51.717478 67.5323875,47.5728719 68.2409269,42.2312596 L59.6088184,42.2312596 Z"></path>
                </g>
                <path d="M69.7842569,50.4657093 C81.4301898,50.4657093 81.4301898,35.9082932 81.4301898,23.2918658 C81.4301898,10.6754385 73.6090971,4.85247205 63.9612904,4.85247205 C54.3134837,4.85247205 46.492391,13.1080699 46.492391,23.2918658 C46.492391,33.4756618 58.1383239,50.4657093 69.7842569,50.4657093 Z" id="Head" stroke="#4A4A4A" fill="#FFFFFF"></path>
                <g id="Rectangle-18">
                    <use fill="#4A4A4A" fill-rule="evenodd" xlink:href="#path-2"></use>
                    <path stroke="#4A4A4A" stroke-width="1" d="M38.1829027,63.4673055 C35.3775831,72.0291305 35.9250721,83.057588 39.0390662,101.772789 C39.3087535,103.393618 39.5796542,104.980565 39.9935744,107.376965 C41.3008988,114.945751 41.6256866,116.8758 42.1343871,120.267137 L42.1539618,120.397634 L42.1065918,120.520796 C35.7117884,137.147285 30.8994499,155.360071 27.6701344,175.159488 L102.08215,175.159488 C93.1510684,148.96558 87.7217382,130.729518 85.7912257,120.433451 L85.7907269,120.251864 C91.4332916,89.2177582 91.6849776,84.178928 88.7309614,63.4532779 C85.681845,61.4645707 80.7725312,59.3041596 75.7161744,57.9352441 C74.1716851,57.5171021 72.8920323,57.6886283 69.722953,58.5030311 C67.3559154,59.111322 66.2129501,59.3245451 64.8116088,59.3046243 C64.4319706,59.2992276 64.0432715,59.2716841 63.6411525,59.2231204 C62.5270417,59.0885698 61.6147187,58.8675347 59.7030993,58.323528 C56.43744,57.3941897 55.0875618,57.1697724 53.4602127,57.5210501 C47.1650468,58.8799174 41.1410509,61.3069593 38.1829027,63.4673055 Z"></path>
                </g>
                <g id="Path">
                    <use fill="#FFFFFF" fill-rule="evenodd" xlink:href="#path-3"></use>
                    <path stroke="#4A4A4A" stroke-width="1" d="M88.8160993,138.141199 C90.3180745,143.382853 91.5876763,146.184033 92.1500986,146.184033 C92.749803,146.184033 94.2474581,139.399392 95.3526842,130.088019 C96.613779,119.463474 97.3714813,106.840933 97.3104835,95.7433847 C97.2684925,88.1038278 95.644147,80.315017 93.0164754,73.3105487 C91.1674007,68.3815517 88.7068382,64.0188591 88.3109951,64.0188591 C88.0947874,64.0188591 86.9711178,65.5030206 86.0945364,67.3876151 C84.8946724,69.9672464 84.1595325,72.956906 84.1595325,75.9293157 C84.1595325,76.8441297 86.9763138,86.8379923 87.8646956,90.793751 C88.6204327,94.1588741 89.2734594,97.6347259 89.8197426,101.32785 C90.5667348,106.37786 90.2303626,118.629875 88.8160993,138.141199 Z"></path>
                </g>
                <g id="Hand" transform="translate(68.881697, 115.828508)" fill="#FFFFFF" stroke="#4A4A4A">
                    <path d="M6.1967774,3.56687263 C8.64440298,7.30475358 10.2703942,9.62737146 11.074751,10.5347263 C11.8791078,11.4420811 13.5856641,12.6452773 16.1944198,14.144315 C17.8973661,14.6682153 18.7488393,15.5771617 18.7488393,16.8711542 C18.7488393,18.812143 13.9439805,18.3003541 10.078755,16.1833 C6.21352954,14.0662458 6.1967774,10.3603335 5.22628299,8.41934468 C4.57928672,7.12535214 3.93229045,5.50786145 3.28529417,3.56687263 L6.1967774,3.56687263 Z" id="Path-7" transform="translate(11.017067, 10.824389) rotate(-37.000000) translate(-11.017067, -10.824389) "></path>
                    <path d="M6.1424851,8.0432001 C8.73309939,7.85279198 10.4509102,7.83208673 11.2959176,7.98108433 C12.4124859,8.17796544 13.5290541,8.37484654 14.6456223,8.57172764 L14.6456223,8.57172764 C15.128146,8.65680958 15.4503361,9.11694483 15.3652542,9.59946849 L15.3652542,9.59946849 C15.2801723,10.0819921 14.820037,10.4041823 14.3375134,10.3191004 C13.3795423,10.1501842 12.4215712,9.98126808 11.4636001,9.81235194 C10.8482209,9.70384398 9.95816348,9.99591666 8.79342786,10.68857" id="Path-8" transform="translate(10.760683, 9.285770) rotate(-15.000000) translate(-10.760683, -9.285770) "></path>
                </g>
                <g id="Path">
                    <use fill="#FFFFFF" fill-rule="evenodd" xlink:href="#path-4"></use>
                    <path stroke="#4A4A4A" stroke-width="1" d="M71.600229,127.208147 L73.4149416,123.578722 C55.9449804,117.174343 46.5759916,111.576868 45.2332022,106.591585 C44.4357412,103.630906 44.4950051,98.3146524 45.1386707,86.9449733 C45.1614022,86.5434452 45.1844403,86.1393479 45.2168119,85.5735627 C45.9383567,72.9625389 46.0158822,68.6039899 45.2517571,66.6936772 C43.3452423,61.9273901 36.8916074,61.5947285 34.3231773,66.7315887 C31.7644833,71.8489766 32.1281863,98.3774717 34.366254,109.56781 C35.5958295,115.715687 48.026987,121.673881 71.600229,127.208147 Z"></path>
                </g>
                <path d="M55.2268407,20.3803826 L60.0793128,27.1738435 C65.9635498,26.6168093 70.1690255,25.9698131 72.6957401,25.2328547 C75.2224546,24.4958962 78.7809341,22.8784056 83.3711786,20.3803826 C82.5198686,14.3531024 80.5788798,9.82412853 77.5482121,6.79346087 C73.0022106,2.24745938 62.990796,-1.94098882 52.3153575,2.91148323 C41.639919,7.76395528 42.6104134,11.7583266 37.7579413,17.4688994 C34.52296,21.2759479 29.3469898,25.8049218 22.2300308,31.0558211 L52.3153575,45.6132373 L55.2268407,20.3803826 Z" id="Path-6" stroke="#4A4A4A" fill="#4A4A4A"></path>
                <path d="M74.8599426,32.8803506 C77.3508783,35.645415 78.5963461,37.3890699 78.5963461,38.1113155 C78.5963461,38.833561 77.3508783,38.833561 74.8599426,38.1113155" id="Path-3" stroke="#4A4A4A"></path>
            </g>
            <g id="Figure2" transform="translate(273.000000, 118.000000)">
                <path d="M14.7527463,150.032741 C13.7804949,152.218391 13.2943692,153.676768 13.2943692,154.407872 C13.2943692,155.866249 14.4833731,155.596876 14.7527463,155.866249 C15.4819349,156.595438 17.8567425,160.221601 17.6695006,160.970569 C17.4822586,161.719537 17.0748224,162.347532 16.2111234,161.699758 C15.3474245,161.051983 14.949427,159.118831 14.7527463,159.512192 C14.5560656,159.905553 14.7527463,162.387058 14.7527463,163.887323 C14.7527463,165.387589 14.0235577,166.804078 12.2005863,166.804078 C10.3776149,166.804078 8.9192378,166.074889 8.19004923,164.616512 C7.46086067,163.158135 7.46086067,160.970569 8.19004923,158.053815 C8.9192378,155.137061 10.2672166,155.527321 11.1068035,154.407872 C11.6665281,153.661572 11.7880595,152.203195 11.4713978,150.032741" id="Path-18" stroke="#4A4A4A" fill="#FFFFFF" transform="translate(12.661568, 158.418409) rotate(-7.000000) translate(-12.661568, -158.418409) "></path>
                <g transform="translate(49.077990, 150.000000) scale(-1, 1) translate(-49.077990, -150.000000) translate(1.077990, 0.000000)">
                    <g id="Neck">
                        <use fill="#FFFFFF" fill-rule="evenodd" xlink:href="#path-5"></use>
                        <path stroke="#4A4A4A" stroke-width="1" d="M49.6870832,48.5128055 L49.6870832,64.5587719 L58.1570645,64.5587719 L58.1570645,48.5128055 L49.6870832,48.5128055 Z"></path>
                    </g>
                    <path d="M59.5767319,54.482558 C70.9407095,54.482558 72.9543743,39.4228359 70.9407095,27.9666102 C68.9270447,16.5103844 63.3089704,9.97364561 53.8947431,9.97364561 C44.4805158,9.97364561 36.8487766,18.0293702 36.8487766,27.9666102 C36.8487766,37.9038501 48.2127543,54.482558 59.5767319,54.482558 Z" id="Head" stroke="#4A4A4A" fill="#FFFFFF" transform="translate(54.238547, 32.228102) rotate(23.000000) translate(-54.238547, -32.228102) "></path>
                    <g id="Combined-Shape">
                        <use fill="#4A4A4A" fill-rule="evenodd" xlink:href="#path-6"></use>
                        <path stroke="#4A4A4A" stroke-width="1" d="M28.8794755,275.445787 C28.855498,275.583758 28.831502,275.721923 28.8074876,275.860282 L29.3001223,275.445787 L28.8794755,275.445787 Z M20.9270972,275.445787 L20.4172798,275.445787 L20.9171883,275.955349 C20.9204426,275.785227 20.9237479,275.615373 20.9271041,275.445787 Z M26.8884853,155.305178 L26.7413637,155.249329 L26.7130496,155.238583 L26.6365076,155.209545 L26.4591279,155.677023 L26.9469295,155.567253 C26.9272102,155.479624 26.9077296,155.392266 26.8884877,155.305179 Z M29.5347297,133.503347 C29.5946598,133.410567 29.655279,133.318037 29.7165873,133.225757 L29.2056986,133.440071 L29.5347297,133.503347 Z M78.0994735,142.84272 L78.4496016,142.910053 L78.0490506,142.48976 L78.0994735,142.84272 Z M79.7512241,154.357305 L80.2091266,154.358784 L80.2107421,153.858787 L79.7111787,153.837896 C79.7075011,153.925857 79.7075011,153.925857 79.7038288,154.01376 L79.7512241,154.357305 Z M79.8938672,155.391255 L79.9430469,155.747734 L80.4380216,155.677023 L80.2125206,155.230762 C80.0582623,155.308628 80.0582623,155.308628 79.9044045,155.385964 L79.8938672,155.391255 Z M70.5786929,277.208533 C70.5448448,277.387612 70.5108815,277.566962 70.4768031,277.746584 L71.1054008,277.359021 L70.5786929,277.208533 Z M64.7935535,275.555636 L64.4764139,275.465025 L64.8350405,275.882567 C64.8211462,275.77356 64.8073172,275.664583 64.7935535,275.555636 Z"></path>
                    </g>
                    <g id="Combined-Shape">
                        <use fill="#FFFFFF" fill-rule="evenodd" xlink:href="#path-7"></use>
                        <path stroke="#4A4A4A" stroke-width="1" d="M0.511542627,139.015119 L6.18572223,142.797905 C9.572552,120.417222 12.2932693,106.588178 14.3663102,101.253592 C15.4795317,98.3889239 17.5815161,95.1511702 24.8136129,84.6687539 L25.7356403,83.33234 L25.7251567,84.9559245 C25.6237405,100.662171 27.2055532,121.504978 29.2887433,135.430203 C29.2887433,142.612876 67.2361624,147.708645 78.044144,142.618567 C78.0478614,137.72735 78.1388735,132.528611 78.3130112,126.379245 C78.4032274,123.193419 78.4945801,120.386986 78.6756488,115.085296 C79.1017951,102.607732 79.238741,97.7857739 79.2924529,91.5887851 L80.2856644,91.5111189 C81.1217112,96.5399551 81.7489007,103.458552 82.1685533,112.271256 C82.4416877,118.00708 82.4437932,131.697878 82.1753844,153.358787 L87.817819,153.358787 C92.1356183,130.593516 94.2945133,115.350262 94.2945133,107.659822 C94.2945133,84.0128634 87.3951361,66.6140514 77.7551475,65.6910071 L77.5708336,65.6362159 C74.7698363,64.1692828 68.3646237,62.3632867 58.3991076,60.2403456 C57.280806,62.9380973 56.0575229,64.3284488 54.628733,64.3181915 C53.2270792,64.3081289 51.5575909,62.8894458 49.5032148,60.0923815 C42.1175469,59.7459014 36.5566911,59.8081659 32.8302347,60.2767131 L32.6453072,60.2653678 C30.0899108,59.6193293 26.7567855,61.1213282 22.9540993,65.0377489 C22.3491581,65.6607833 21.7404706,66.2724433 20.9427821,67.0628335 C21.1009258,66.9061367 19.4433123,68.5446055 19.0083947,68.9787854 C11.7461486,76.2287128 8.17545166,82.219637 4.13101407,96.3741583 C2.69007592,102.137911 1.48018939,116.368323 0.511542627,139.015119 Z"></path>
                    </g>
                    <path d="M41.6110981,149.048037 C39.7952488,151.598357 38.2169186,153.492353 36.8761074,154.730025 C35.5352962,155.967697 33.1678009,157.072528 29.7736214,158.044519" id="Line-5" stroke="#4A4A4A" stroke-linecap="square"></path>
                    <path d="M43.3452029,25.3783446 C50.241628,27.1060551 54.9226111,27.6103523 57.3881523,26.8912361 C58.8703724,26.4589219 61.157001,27.2600981 64.9641374,26.8912361 C66.6479349,26.728098 69.5804725,29.433356 73.7617501,35.0070101 C74.3387004,28.4671155 75.0678889,24.1835273 75.9493158,22.1562454 C76.8307427,20.1289636 78.5321827,18.8221062 81.0536357,18.2356731 C74.9751928,11.6317302 71.253029,7.9897819 69.8871444,7.30982839 C61.2315814,3.00098687 54.3184951,1.04070073 43.9015156,5.77569141 C33.4845361,10.5106821 34.6601971,16.5839292 29.9252064,22.1562454 C26.768546,25.8711229 28.3468762,26.818121 34.6601971,24.9972398 C34.0172525,24.5882481 34.0172525,25.2195802 34.6601971,26.8912361 C35.0376194,27.872534 34.4632873,25.2107755 36.5731333,29.1735016 C37.5626726,31.0320604 37.5626726,33.7057518 36.5731333,37.1945758 L43.3452029,25.3783446 Z" id="Path-6" stroke="#4A4A4A" fill="#4A4A4A" transform="translate(54.700256, 20.111493) rotate(6.000000) translate(-54.700256, -20.111493) "></path>
                    <path d="M57.349371,37.1886168 C55.4048682,39.8867372 54.4326167,41.5881772 54.4326167,42.2929367 C54.4326167,42.9976962 55.4048682,42.9976962 57.349371,42.2929367" id="Path-11" stroke="#4A4A4A" transform="translate(55.890994, 40.005062) scale(-1, 1) translate(-55.890994, -40.005062) "></path>
                </g>
                <g id="LuggugeAndHand" transform="translate(89.736178, 139.225089)" fill="#FFFFFF" stroke="#4A4A4A">
                    <path d="M8.43148349,0.779114988 L7.70229493,3.69586925 C6.46392029,3.47586676 5.49166887,3.71892961 4.78554067,4.42505781 C4.20374613,5.00685235 2.15835657,6.64883008 1.41025162,8.89221211 C0.796386073,10.7330433 1.41025162,13.2191768 1.41025162,13.8125394 C1.41025162,15.1290204 4.78554067,18.0378915 7.70229493,16.6294408 C8.702931,16.1462508 8.33876715,10.7908815 9.88986062,9.5871873 C10.6311819,9.01190017 11.2694066,15.3129598 12.6778573,13.8125394 C13.8653838,12.5474691 12.9360516,9.66137144 9.88986062,5.15424637 L11.3482377,2.96668068" id="Path-5" transform="translate(7.157459, 8.892212) scale(-1, 1) translate(-7.157459, -8.892212) "></path>
                </g>
            </g>
            <g id="Figure3" transform="translate(100.000000, 6.000000)">
                <mask id="mask-9" fill="white">
                    <use xlink:href="#path-8"></use>
                </mask>
                <g id="Mask"></g>
                <g mask="url(#mask-9)">
                    <g transform="translate(45.070896, 59.382463)">
                        <path d="M29.1219683,66.5644989 C38.3269332,61.8112564 44.706031,59.0377356 48.2592617,58.2439366 C57.6916474,56.1367222 63.8522513,58.8447579 67.3965552,59.908049 C72.9435967,61.5721615 80.1547508,65.7324427 89.0300173,72.3888926 L84.8697361,99.8467484 L23.2975746,99.8467484 L29.1219683,66.5644989 Z" id="Rectangle-2" stroke="none" fill="#FFFFFF" fill-rule="evenodd"></path>
                        <g id="Neck" stroke="none" fill="none">
                            <use fill="#FFFFFF" fill-rule="evenodd" xlink:href="#path-10"></use>
                            <path stroke="#4A4A4A" stroke-width="1" d="M51.3993685,43.1742267 C51.6318135,49.6532233 51.625275,53.4768814 51.3709755,54.7401224 C51.1090115,56.0414372 50.0593271,57.47975 48.2366066,59.0888809 C50.9156758,63.7040745 53.4874171,65.9733147 55.893485,65.9733147 C58.2483505,65.9733147 60.7619131,63.7996282 63.3794737,59.3803359 C61.459197,58.9734927 60.1435872,57.4057653 59.456177,54.7675171 C58.7367723,52.0064754 58.7105337,48.1461764 59.3673385,43.1742322 L51.3993685,43.1742267 Z"></path>
                        </g>
                        <path d="M54.9840998,50.8808088 C66.4733147,50.8808088 72.0047642,36.3754085 72.0047642,24.5984304 C72.0047642,12.8214522 63.0627409,7.38592385 54.0568626,7.38592385 C45.0509843,7.38592385 36.9296193,15.0922255 36.9296193,24.5984304 C36.9296193,34.1046352 43.4948849,50.8808088 54.9840998,50.8808088 Z" id="Head" stroke="#4A4A4A" stroke-width="1" fill="#FFFFFF" fill-rule="evenodd"></path>
                        <path d="M21.3371134,158.387034 L22.9784298,158.387034 C26.2610626,159.481245 27.902379,160.575456 27.902379,161.669667 C27.902379,162.763878 26.2610626,162.763878 22.9784298,161.669667 C25.0127161,165.668803 26.1069271,168.130777 26.2610626,169.05559 C26.4922658,170.44281 26.8506982,172.322274 24.6197462,173.158881 C22.3887942,173.995488 21.8554238,174.065925 19.6957969,172.338223 C18.2560457,171.186422 17.1618348,168.724448 16.4131641,164.952299 L16.4131641,161.669667 L15.5925059,158.387034 L18.0544805,155.925059 L21.3371134,158.387034 Z" id="Path-19" stroke="#4A4A4A" stroke-width="1" fill="#FFFFFF" fill-rule="evenodd"></path>
                        <g id="Group-2" stroke="none" stroke-width="1" fill="none" fill-rule="evenodd" transform="translate(0.000000, 59.075993)">
                            <path d="M0,0.0113980306 C13.1305313,0.558503501 21.3371134,2.74692538 24.6197462,6.57666368 C29.5436954,12.3212711 48.4188342,50.2007865 48.4188342,59.9194471 C48.4188342,66.3985541 43.4948849,80.3497436 33.6469864,101.773016 C31.8592038,100.476334 30.4914401,99.6556754 29.5436954,99.311041 C28.5959507,98.9664065 27.9120689,98.6928538 27.4920499,98.4903828 L31.1850118,65.6640545 L29.5436954,59.9194471 L21.3371134,41.0443083 L24.2094171,23.810486" id="Path-19-Copy" stroke="#4A4A4A" fill="#FFFFFF" transform="translate(24.209417, 50.892207) scale(-1, 1) translate(-24.209417, -50.892207) "></path>
                            <g id="Group" transform="translate(68.109516, 112.511398) scale(-1, 1) translate(-68.109516, -112.511398) translate(24.609516, 0.011398)" stroke="#4A4A4A">
                                <path d="M21.3371134,99.2996429 L22.9784298,99.2996429 C26.2610626,100.393854 27.902379,101.488065 27.902379,102.582276 C27.902379,103.676487 26.2610626,103.676487 22.9784298,102.582276 C25.0127161,106.581412 26.1069271,109.043387 26.2610626,109.9682 C26.4922658,111.355419 26.8506982,113.234884 24.6197462,114.071491 C22.3887942,114.908098 21.8554238,114.978534 19.6957969,113.250832 C18.2560457,112.099031 17.1618348,109.637057 16.4131641,105.864909 L16.4131641,102.582276 L15.5925059,99.2996429 L18.0544805,96.8376683 L21.3371134,99.2996429 Z" id="Path-19" fill="#FFFFFF"></path>
                                <path d="M0,0 C13.1305313,0.547105471 21.3371134,2.73552735 24.6197462,6.56526565 C29.5436954,12.3098731 48.4188342,50.1893885 48.4188342,59.908049 C48.4188342,66.3871561 43.4948849,80.3383456 33.6469864,101.761618 C31.8592038,100.464936 30.4914401,99.6442774 29.5436954,99.2996429 C28.5959507,98.9550085 27.9120689,98.6814558 27.4920499,98.4789847 L31.1850118,65.6526565 L29.5436954,61.5493655 L21.3371134,41.0329103 L24.2094171,23.799088" id="Path-19-Copy" fill="#FFFFFF" transform="translate(24.209417, 50.880809) scale(-1, 1) translate(-24.209417, -50.880809) "></path>
                                <path d="M84.9187511,39.5075252 C82.4102786,52.6866235 81.0709929,62.5080521 80.900894,68.9718109 C80.730795,75.4355697 81.1772236,82.5784269 82.2401797,90.4003824 L25.9901797,90.4003824 C28.5121264,79.6776374 29.8514122,71.4187089 30.0080368,65.6235966 C30.1646615,59.8284844 29.2718043,51.5695559 27.3294654,40.8468109 L84.9187511,39.5075252 Z" id="Path-4" fill="#4A4A4A"></path>
                                <path d="M61.3855609,122.543239 L51.7244312,122.543239 L39.7247724,171.9536 C41.3660888,181.254393 42.186747,188.366764 42.186747,193.290713 C42.186747,198.214662 41.3660888,208.609666 39.7247724,224.475725 L33.1595067,224.475725 L23.3116082,169.491625 L26.1144969,122.543239 L25.9901797,122.543239 L25.9901797,90.4003824 L82.2401797,90.4003824 L86.2580368,114.507525 L86.2580368,119.376557 C86.9961088,136.137975 86.9095111,152.150548 85.9982439,167.414274 C84.8167804,187.203787 82.6283585,206.078926 79.4329782,224.03969 L72.8677126,224.03969 C71.5856975,211.513614 70.7650393,201.11861 70.4057379,192.854678 C69.8667859,180.458781 71.9363821,177.910119 70.4057379,167.414274 C65.9427426,150.454892 62.9360169,135.49788 61.3855609,122.543239 Z" id="Combined-Shape" fill="#FFFFFF"></path>
                            </g>
                        </g>
                        <path d="M55.6644687,84.6175373 C70.1627636,84.6175373 75.9176422,95.284204 72.9291045,116.617537 L37.9291045,116.617537 C35.2543856,95.284204 41.1661737,84.6175373 55.6644687,84.6175373 Z" id="Triangle" stroke="#4A4A4A" stroke-width="1" fill="#4A4A4A" fill-rule="evenodd"></path>
                        <path d="M54.1634416,32.00567 C52.2695594,34.9514282 51.4489012,36.8662974 51.701467,37.7502775 C51.9540327,38.6342576 53.3217964,38.6342576 55.804758,37.7502775" id="Path-23" stroke="#4A4A4A" stroke-width="1" fill="none"></path>
                        <path d="M36.9296193,25.4404044 L41.0329103,27.0817208 L41.0329103,20.5164552 C45.1372581,21.0635606 49.5141019,21.3371134 54.1634416,21.3371134 C58.8127813,21.3371134 63.4631778,21.0635606 68.1146311,20.5164552 L68.9352893,26.2610626 L72.2179221,22.9784298 C72.9719556,18.8967426 72.4248501,15.6141097 70.5766057,13.1305313 C67.8042391,9.40516363 66.8787202,10.253304 64.8319983,8.20658206 C63.467517,6.84210077 61.8262006,4.92723162 59.908049,2.46197462 L56.6254162,4.92394924 L53.3427834,2.46197462 L53.3427834,4.92394924 L47.5981759,0 L45.9568595,6.56526565 L43.4948849,4.92394924 L43.4948849,8.20658206 C40.2961627,9.86971949 38.1077408,12.4684705 36.9296193,16.002835 C35.7514978,19.5371996 35.7514978,22.683056 36.9296193,25.4404044 Z" id="Path-24" stroke="#4A4A4A" stroke-width="1" fill="#4A4A4A" fill-rule="evenodd"></path>
                    </g>
                </g>
            </g>
            <g id="Face-Smile" transform="translate(304.000000, 64.000000)" stroke="#4A4A4A">
                <circle id="Oval-4" fill="#FFFFFF" cx="15" cy="15" r="15"></circle>
                <path d="M11.440678,21.1016949 C12.2881356,22.6271186 13.559322,23.3898305 15.2542373,23.3898305 C16.9491525,23.3898305 18.220339,22.6271186 19.0677966,21.1016949" id="Line" stroke-linecap="round" stroke-linejoin="round"></path>
                <circle id="Oval" fill="#4A4A4A" cx="9.12711864" cy="10.6525424" r="1.5"></circle>
                <circle id="Oval" fill="#4A4A4A" cx="20.8220339" cy="10.6525424" r="1.5"></circle>
            </g>
            <g id="Face-Smile" transform="translate(185.000000, 0.000000)" stroke="#4A4A4A">
                <circle id="Oval-4" fill="#FFFFFF" cx="15" cy="15" r="15"></circle>
                <path d="M11.440678,21.1016949 C12.2881356,22.6271186 13.559322,23.3898305 15.2542373,23.3898305 C16.9491525,23.3898305 18.220339,22.6271186 19.0677966,21.1016949" id="Line" stroke-linecap="round" stroke-linejoin="round"></path>
                <circle id="Oval" fill="#4A4A4A" cx="9.12711864" cy="10.6525424" r="1.5"></circle>
                <circle id="Oval" fill="#4A4A4A" cx="20.8220339" cy="10.6525424" r="1.5"></circle>
            </g>
            <g id="Face-Smile" transform="translate(64.000000, 69.000000)" stroke="#4A4A4A">
                <circle id="Oval-4" fill="#FFFFFF" cx="15" cy="15" r="15"></circle>
                <path d="M11.440678,21.1016949 C12.2881356,22.6271186 13.559322,23.3898305 15.2542373,23.3898305 C16.9491525,23.3898305 18.220339,22.6271186 19.0677966,21.1016949" id="Line" stroke-linecap="round" stroke-linejoin="round"></path>
                <circle id="Oval" fill="#4A4A4A" cx="9.12711864" cy="10.6525424" r="1.5"></circle>
                <circle id="Oval" fill="#4A4A4A" cx="20.8220339" cy="10.6525424" r="1.5"></circle>
            </g>
        </g>
    </g>
</svg>