<?xml version="1.0" encoding="UTF-8"?>
<svg width="622px" height="1332px" viewBox="0 0 622 1332" version="1.1" xmlns="http://www.w3.org/2000/svg" xmlns:xlink="http://www.w3.org/1999/xlink">
    <!-- Generator: Sketch 51.2 (57519) - http://www.bohemiancoding.com/sketch -->
    <title>Desktop HD</title>
    <desc>Created with Sketch.</desc>
    <defs></defs>
    <g id="Desktop-HD" stroke="none" stroke-width="1" fill="none" fill-rule="evenodd">
        <g id="Dynamic-group" transform="translate(221.000000, 133.000000)">
            <rect id="BG" fill="#D8D8D8" x="0" y="0" width="148" height="39" rx="5"></rect>
            <text id="10:20" font-family="SFProText-Regular, SF Pro Text" font-size="16" font-weight="normal" letter-spacing="-0.384" fill="#4A4A4A">
                <tspan x="20.40225" y="25">Launch Screen</tspan>
            </text>
        </g>
        <g id="Dynamic-group" transform="translate(109.000000, 223.000000)">
            <rect id="BG" fill="#D8D8D8" x="0" y="0" width="372" height="64" rx="5"></rect>
            <text id="10:20" font-family="SFProText-Regular, SF Pro Text" font-size="16" font-weight="normal" letter-spacing="-0.384" fill="#4A4A4A">
                <tspan x="103.144094" y="21">Select One Use Case</tspan>
            </text>
        </g>
        <g id="Dynamic-group" transform="translate(180.000000, 334.000000)">
            <rect id="BG" fill="#D8D8D8" x="0.5" y="0" width="229" height="39" rx="5"></rect>
            <text id="10:20" font-family="SFProText-Regular, SF Pro Text" font-size="16" font-weight="normal" letter-spacing="-0.384" fill="#4A4A4A">
                <tspan x="20.6632813" y="25">Input Preference for Room</tspan>
            </text>
        </g>
        <g id="Dynamic-group" transform="translate(221.000000, 408.000000)">
            <rect id="BG" fill="#D8D8D8" x="0.5" y="0" width="147" height="39" rx="5"></rect>
            <text id="10:20" font-family="SFProText-Regular, SF Pro Text" font-size="16" font-weight="normal" letter-spacing="-0.384" fill="#4A4A4A">
                <tspan x="20.5602813" y="25">Input Life Style</tspan>
            </text>
        </g>
        <g id="Dynamic-group" transform="translate(181.000000, 497.000000)">
            <rect id="BG" fill="#D8D8D8" x="0" y="0" width="229" height="136" rx="5"></rect>
            <rect id="Rectangle-2" fill="#FFFFFF" fill-rule="nonzero" x="91" y="45" width="107" height="69"></rect>
            <rect id="Rectangle-2-Copy" fill="#FFFFFF" fill-rule="nonzero" x="26" y="45" width="59" height="69"></rect>
            <path d="M52.6651017,77.6430437 C51.7157817,76.6198826 51.1304348,75.2184275 51.1304348,73.6725431 C51.1304348,70.5396841 53.534471,68 56.5,68 C59.465529,68 61.8695652,70.5396841 61.8695652,73.6725431 C61.8695652,75.2184275 61.2842183,76.6198826 60.3348983,77.6430437 C63.6714669,79.3185491 66,83.1134636 66,87.5266388 C66,93.4911204 47,93.4911204 47,87.5266388 C47,83.1134636 49.3285331,79.3185491 52.6651017,77.6430437 Z" id="Combined-Shape" fill="#D8D8D8"></path>
            <g id="iconRoomie" transform="translate(115.000000, 68.000000)">
                <path d="M24.689481,12.5903772 L24.9949631,12.5903772 L24.9949631,22 C24.9949631,23.1045695 24.0995326,24 22.9949631,24 L3.534144,24 C2.4295745,24 1.534144,23.1045695 1.534144,22 L1.534144,12.5903772 L1.63305594,12.5903772 C1.63126771,12.5557037 1.63036257,12.5207967 1.63036257,12.4856783 C1.63036257,11.9698714 1.82964556,11.4740089 2.18658991,11.101655 L11.7175172,1.15927013 C12.4818922,0.361896509 13.7479396,0.33514581 14.5453132,1.09952077 C14.5656482,1.11901423 14.5855691,1.13893513 14.6050626,1.15927013 L24.1359899,11.101655 C24.5337314,11.5165673 24.7172656,12.0583791 24.689481,12.5903772 Z" id="Combined-Shape" fill="#D8D8D8"></path>
                <path d="M13.1612903,14.4 L13.1612903,14.4 C15.3639509,14.4 17.1495601,16.1856092 17.1495601,18.3882698 L17.1495601,24 L9.17302053,24 L9.17302053,18.3882698 C9.17302053,16.1856092 10.9586297,14.4 13.1612903,14.4 Z" id="Rectangle" fill="#FFFFFF"></path>
            </g>
        </g>
        <g id="Icons" transform="translate(229.000000, 22.000000)">
            <path d="M47.6220428,69.6430437 C46.6799383,68.6198826 46.0990405,67.2184275 46.0990405,65.6725431 C46.0990405,62.5396841 48.4848043,60 51.4277931,60 C54.3707819,60 56.7565457,62.5396841 56.7565457,65.6725431 C56.7565457,67.2184275 56.1756479,68.6198826 55.2335434,69.6430437 C58.5447516,71.3185491 60.8555862,75.1134636 60.8555862,79.5266388 C60.8555862,85.4911204 42,85.4911204 42,79.5266388 C42,75.1134636 44.3108345,71.3185491 47.6220428,69.6430437 Z" id="Combined-Shape" fill="#F5A623"></path>
            <g id="house" transform="translate(71.000000, 60.000000)">
                <g id="iconRoomie">
                    <path d="M24.3936424,12.5903772 L24.6886523,12.5903772 L24.6886523,22 C24.6886523,23.1045695 23.7932218,24 22.6886523,24 L3.51534322,24 C2.41077372,24 1.51534322,23.1045695 1.51534322,22 L1.51534322,12.5903772 L1.60631171,12.5903772 C1.60452349,12.5557037 1.60361835,12.5207967 1.60361835,12.4856783 C1.60361835,11.9741291 1.79963301,11.4820252 2.15135024,11.110572 L11.5477315,1.18692841 C12.3071817,0.384862881 13.5730404,0.350316363 14.3751059,1.1097666 C14.4015235,1.13478061 14.4272537,1.16051079 14.4522677,1.18692841 L23.8486489,11.110572 C24.2407825,11.5247095 24.421232,12.0624968 24.3936424,12.5903772 Z" id="Combined-Shape" fill="#F5A623"></path>
                    <path d="M13,14.4 L13,14.4 C15.1756672,14.4 16.9393939,16.1637267 16.9393939,18.3393939 L16.9393939,24 L9.06060606,24 L9.06060606,18.3393939 C9.06060606,16.1637267 10.8243328,14.4 13,14.4 Z" id="Rectangle" fill="#FFFFFF"></path>
                </g>
            </g>
            <text id="Browse-Result-List" font-family="SFProText-Regular, SF Pro Text" font-size="16" font-weight="normal" letter-spacing="-0.384" fill="#4A4A4A">
                <tspan x="0.81928125" y="503">Browse Result List</tspan>
            </text>
            <path d="M62.6651017,9.64304369 C61.7157817,8.61988262 61.1304348,7.21842748 61.1304348,5.6725431 C61.1304348,2.53968406 63.534471,0 66.5,0 C69.465529,0 71.8695652,2.53968406 71.8695652,5.6725431 C71.8695652,7.21842748 71.2842183,8.61988262 70.3348983,9.64304369 C73.6714669,11.3185491 76,15.1134636 76,19.5266388 C76,25.4911204 57,25.4911204 57,19.5266388 C57,15.1134636 59.3285331,11.3185491 62.6651017,9.64304369 Z" id="Combined-Shape" fill="#F5A623"></path>
        </g>
        <g id="Bars-/-Search-Bar-/-x---Glyphs-/-Search-Glyph---On-Light" transform="translate(288.000000, 59.000000)" fill="#8E8E93">
            <path d="M13.7430947,12.5740557 L9.91009465,8.73955572 C10.5971654,7.80245935 10.9652265,6.66953223 10.9600947,5.50755572 C10.946985,2.47441147 8.49371664,0.0175744397 5.46059465,5.57178262e-05 C4.00907481,-0.00651157295 2.61521603,0.567712287 1.58953064,1.59480646 C0.56384524,2.62190064 -0.00846492859,4.01654626 9.46502197e-05,5.46805572 C0.0132043609,8.50147611 2.46669652,10.958537 5.50009465,10.9760557 C6.66680484,10.9811124 7.80387114,10.6087552 8.74159465,9.91455572 L8.74559465,9.91155572 L12.5750947,13.7430557 C12.7821435,13.9602692 13.0906604,14.0481921 13.3811096,13.9727584 C13.6715587,13.8973248 13.898302,13.6703873 13.9734871,13.3798737 C14.0486722,13.0893602 13.9604853,12.7809186 13.7430947,12.5740557 L13.7430947,12.5740557 Z M5.49609465,9.87805572 C3.06950871,9.86409673 1.1067469,7.89865842 1.09609465,5.47205572 C1.08954524,4.31099854 1.54743104,3.19550612 2.36782487,2.37389147 C3.1882187,1.55227681 4.30302902,1.09273279 5.46409465,1.09755572 C7.89068059,1.1115147 9.8534424,3.07695301 9.86409465,5.50355572 C9.87064406,6.6646129 9.41275826,7.78010532 8.59236443,8.60171997 C7.7719706,9.42333462 6.65716028,9.88287864 5.49609465,9.87805572 Z" id="Search"></path>
        </g>
        <polygon id="Path-2" fill="#F4F3F3" fill-rule="nonzero" points="288 691 181 736.222222 288 772 410 736.222222"></polygon>
        <text id="Find-a-good-match?" font-family="SFProText-Regular, SF Pro Text" font-size="16" font-weight="normal" letter-spacing="-0.384" fill="#4A4A4A">
            <tspan x="224.346625" y="739">Find a good match?</tspan>
        </text>
        <polygon id="Path-2" fill="#F4F3F3" fill-rule="nonzero" points="288 999 181 1044.22222 288 1081 410 1044.22222"></polygon>
        <text id="Became-roommates?" font-family="SFProText-Regular, SF Pro Text" font-size="16" font-weight="normal" letter-spacing="-0.384" fill="#4A4A4A">
            <tspan x="219.330406" y="1047">Became roommates?</tspan>
        </text>
        <g id="SignUp" transform="translate(242.000000, 807.000000)">
            <rect id="BG" fill="#D8D8D8" x="0" y="0" width="107" height="39" rx="5"></rect>
            <text id="Sign-Up" font-family="SFProText-Regular, SF Pro Text" font-size="16" font-weight="normal" letter-spacing="-0.384" fill="#4A4A4A">
                <tspan x="25.1486875" y="25">Sign Up</tspan>
            </text>
        </g>
        <g id="Message" transform="translate(199.000000, 873.000000)">
            <rect id="BG" fill="#D8D8D8" x="0.5" y="0" width="192" height="39" rx="5"></rect>
            <text id="10:20" font-family="SFProText-Regular, SF Pro Text" font-size="16" font-weight="normal" letter-spacing="-0.384" fill="#4A4A4A">
                <tspan x="20.5224063" y="25">Send InApp Message</tspan>
            </text>
        </g>
        <g id="Add" transform="translate(199.000000, 1124.000000)">
            <rect id="BG" fill="#D8D8D8" x="0.5" y="0" width="192" height="39" rx="5"></rect>
            <text id="Add-as-Roommate" font-family="SFProText-Regular, SF Pro Text" font-size="16" font-weight="normal" letter-spacing="-0.384" fill="#4A4A4A">
                <tspan x="30.9620313" y="25">Add as Roommate</tspan>
            </text>
        </g>
        <g id="Add" transform="translate(199.000000, 1192.000000)">
            <rect id="BG" fill="#D8D8D8" x="0.5" y="0" width="192" height="39" rx="5"></rect>
            <text id="Roommate-Activities" font-family="SFProText-Regular, SF Pro Text" font-size="16" font-weight="normal" letter-spacing="-0.384" fill="#4A4A4A">
                <tspan x="23.0503438" y="25">Roommate Activities</tspan>
            </text>
        </g>
        <g id="Meet-Offline" transform="translate(199.000000, 931.000000)">
            <path d="M5.5,0 L187.5,0 C190.261424,-5.07265313e-16 192.5,2.23857625 192.5,5 L192.5,34 C192.5,36.7614237 190.261424,39 187.5,39 L5.5,39 C2.73857625,39 0.5,36.7614237 0.5,34 L0.5,5 C0.5,2.23857625 2.73857625,5.07265313e-16 5.5,0 Z" id="BG" stroke="#979797" stroke-dasharray="7"></path>
            <text font-family="SFProText-Regular, SF Pro Text" font-size="16" font-weight="normal" letter-spacing="-0.384" fill="#4A4A4A">
                <tspan x="52.3274375" y="25">Meet Offline</tspan>
            </text>
        </g>
        <text id="(I’m-looking-for-bot" font-family="SFProText-Regular, SF Pro Text" font-size="16" font-weight="normal" letter-spacing="-0.384" fill="#4A4A4A">
            <tspan x="132.393313" y="266">(I’m looking for both a room and a roommate)</tspan>
        </text>
        <path id="Line" d="M295.25,166 C292.764719,166 290.75,168.014719 290.75,170.5 C290.75,172.985281 292.764719,175 295.25,175 C297.735281,175 299.75,172.985281 299.75,170.5 C299.75,168.014719 297.735281,166 295.25,166 Z M295.25,221 L299.75,212 L290.75,212 L295.25,221 Z M294.75,174.5 L294.75,212.5 L294.75,213 L295.75,213 L295.75,212.5 L295.75,174.5 L295.75,174 L294.75,174 L294.75,174.5 Z" fill="#4A4A4A" fill-rule="nonzero"></path>
        <path id="Line" d="M295.25,286 C292.764719,286 290.75,288.014719 290.75,290.5 C290.75,292.985281 292.764719,295 295.25,295 C297.735281,295 299.75,292.985281 299.75,290.5 C299.75,288.014719 297.735281,286 295.25,286 Z M295.25,340 L299.75,331 L290.75,331 L295.25,340 Z M294.75,294.5 L294.75,331.5 L294.75,332 L295.75,332 L295.75,331.5 L295.75,294.5 L295.75,294 L294.75,294 L294.75,294.5 Z" fill="#4A4A4A" fill-rule="nonzero"></path>
        <path id="Line" d="M295.208333,369 C292.723052,369 290.708333,371.014719 290.708333,373.5 C290.708333,375.985281 292.723052,378 295.208333,378 C297.693615,378 299.708333,375.985281 299.708333,373.5 C299.708333,371.014719 297.693615,369 295.208333,369 Z M295.208333,413 L299.708333,404 L290.708333,404 L295.208333,413 Z M294.708333,377.5 L294.708333,404.5 L294.708333,405 L295.708333,405 L295.708333,404.5 L295.708333,377.5 L295.708333,377 L294.708333,377 L294.708333,377.5 Z" fill="#4A4A4A" fill-rule="nonzero"></path>
        <path id="Line" d="M295.201389,443 C292.716108,443 290.701389,445.014719 290.701389,447.5 C290.701389,449.985281 292.716108,452 295.201389,452 C297.68667,452 299.701389,449.985281 299.701389,447.5 C299.701389,445.014719 297.68667,443 295.201389,443 Z M295.201389,500 L299.701389,491 L290.701389,491 L295.201389,500 Z M294.701389,451.5 L294.701389,491.5 L294.701389,492 L295.701389,492 L295.701389,491.5 L295.701389,451.5 L295.701389,451 L294.701389,451 L294.701389,451.5 Z" fill="#4A4A4A" fill-rule="nonzero"></path>
        <path id="Line" d="M295.200231,632 C292.71495,632 290.700231,634.014719 290.700231,636.5 C290.700231,638.985281 292.71495,641 295.200231,641 C297.685513,641 299.700231,638.985281 299.700231,636.5 C299.700231,634.014719 297.685513,632 295.200231,632 Z M295.200231,689 L299.700231,680 L290.700231,680 L295.200231,689 Z M294.700231,640.5 L294.700231,680.5 L294.700231,681 L295.700231,681 L295.700231,680.5 L295.700231,640.5 L295.700231,640 L294.700231,640 L294.700231,640.5 Z" fill="#4A4A4A" fill-rule="nonzero"></path>
        <path id="Line" d="M295.200039,769 C292.714757,769 290.700039,771.014719 290.700039,773.5 C290.700039,775.985281 292.714757,778 295.200039,778 C297.68532,778 299.700039,775.985281 299.700039,773.5 C299.700039,771.014719 297.68532,769 295.200039,769 Z M295.200039,807 L299.700039,798 L290.700039,798 L295.200039,807 Z M294.700039,777.5 L294.700039,798.5 L294.700039,799 L295.700039,799 L295.700039,798.5 L295.700039,777.5 L295.700039,777 L294.700039,777 L294.700039,777.5 Z" fill="#4A4A4A" fill-rule="nonzero"></path>
        <path id="Line" d="M295.200039,842 C292.714757,842 290.700039,844.014719 290.700039,846.5 C290.700039,848.985281 292.714757,851 295.200039,851 C297.68532,851 299.700039,848.985281 299.700039,846.5 C299.700039,844.014719 297.68532,842 295.200039,842 Z M295.200039,880 L299.700039,871 L290.700039,871 L295.200039,880 Z M294.700039,850.5 L294.700039,871.5 L294.700039,872 L295.700039,872 L295.700039,871.5 L295.700039,850.5 L295.700039,850 L294.700039,850 L294.700039,850.5 Z" fill="#4A4A4A" fill-rule="nonzero"></path>
        <path id="Line" d="M295.200039,908 C292.714757,908 290.700039,910.014719 290.700039,912.5 C290.700039,914.985281 292.714757,917 295.200039,917 C297.68532,917 299.700039,914.985281 299.700039,912.5 C299.700039,910.014719 297.68532,908 295.200039,908 Z M295.200039,935 L299.700039,926 L290.700039,926 L295.200039,935 Z M294.700039,916.5 L294.700039,926.5 L294.700039,927 L295.700039,927 L295.700039,926.5 L295.700039,916.5 L295.700039,916 L294.700039,916 L294.700039,916.5 Z" fill="#4A4A4A" fill-rule="nonzero"></path>
        <path id="Line" d="M295.200006,970 C292.714725,970 290.700006,972.014719 290.700006,974.5 C290.700006,976.985281 292.714725,979 295.200006,979 C297.685288,979 299.700006,976.985281 299.700006,974.5 C299.700006,972.014719 297.685288,970 295.200006,970 Z M295.200006,997 L299.700006,988 L290.700006,988 L295.200006,997 Z M294.700006,978.5 L294.700006,988.5 L294.700006,989 L295.700006,989 L295.700006,988.5 L295.700006,978.5 L295.700006,978 L294.700006,978 L294.700006,978.5 Z" fill="#4A4A4A" fill-rule="nonzero"></path>
        <path id="Line" d="M295.200006,1077 C292.714725,1077 290.700006,1079.01472 290.700006,1081.5 C290.700006,1083.98528 292.714725,1086 295.200006,1086 C297.685288,1086 299.700006,1083.98528 299.700006,1081.5 C299.700006,1079.01472 297.685288,1077 295.200006,1077 Z M295.200006,1125 L299.700006,1116 L290.700006,1116 L295.200006,1125 Z M294.700006,1085.5 L294.700006,1116.5 L294.700006,1117 L295.700006,1117 L295.700006,1116.5 L295.700006,1085.5 L295.700006,1085 L294.700006,1085 L294.700006,1085.5 Z" fill="#4A4A4A" fill-rule="nonzero"></path>
        <path id="Line" d="M295.200001,1159 C292.71472,1159 290.700001,1161.01472 290.700001,1163.5 C290.700001,1165.98528 292.71472,1168 295.200001,1168 C297.685282,1168 299.700001,1165.98528 299.700001,1163.5 C299.700001,1161.01472 297.685282,1159 295.200001,1159 Z M295.200001,1197 L299.700001,1188 L290.700001,1188 L295.200001,1197 Z M294.700001,1167.5 L294.700001,1188.5 L294.700001,1189 L295.700001,1189 L295.700001,1188.5 L295.700001,1167.5 L295.700001,1167 L294.700001,1167 L294.700001,1167.5 Z" fill="#4A4A4A" fill-rule="nonzero"></path>
        <text id="Yes" font-family="SFProText-Regular, SF Pro Text" font-size="16" font-weight="normal" letter-spacing="-0.384" fill="#4A4A4A">
            <tspan x="304.23225" y="792">Yes</tspan>
        </text>
        <text id="Yes" font-family="SFProText-Regular, SF Pro Text" font-size="16" font-weight="normal" letter-spacing="-0.384" fill="#4A4A4A">
            <tspan x="302.23225" y="1104">Yes</tspan>
        </text>
    </g>
</svg>