<?xml version="1.0" encoding="UTF-8"?>
<svg width="1000px" height="200px" viewBox="0 0 1000 200" version="1.1" xmlns="http://www.w3.org/2000/svg" xmlns:xlink="http://www.w3.org/1999/xlink">
    <!-- Generator: Sketch 49.1 (51147) - http://www.bohemiancoding.com/sketch -->
    <title>Artboard 6</title>
    <desc>Created with Sketch.</desc>
    <defs>
        <path d="M6.85775464,11.6520111 C5.70857781,10.4156915 5,8.72226654 5,6.85432292 C5,3.0687849 7.91014913,0 11.5,0 C15.0898509,0 18,3.0687849 18,6.85432292 C18,8.72226654 17.2914222,10.4156915 16.1422454,11.6520111 C20.1812494,13.6765801 23,18.2621018 23,23.5946885 C23,30.8017705 0,30.8017705 0,23.5946885 C0,18.2621018 2.81875057,13.6765801 6.85775464,11.6520111 Z" id="path-1"></path>
        <path d="M6.85775464,11.6520111 C5.70857781,10.4156915 5,8.72226654 5,6.85432292 C5,3.0687849 7.91014913,0 11.5,0 C15.0898509,0 18,3.0687849 18,6.85432292 C18,8.72226654 17.2914222,10.4156915 16.1422454,11.6520111 C20.1812494,13.6765801 23,18.2621018 23,23.5946885 C23,30.8017705 0,30.8017705 0,23.5946885 C0,18.2621018 2.81875057,13.6765801 6.85775464,11.6520111 Z" id="path-3"></path>
    </defs>
    <g id="Artboard-6" stroke="none" stroke-width="1" fill="none" fill-rule="evenodd">
        <g id="Group" transform="translate(126.000000, 20.000000)">
            <text id="Option-1" font-family="OpenSans, Open Sans" font-size="18" font-weight="normal" fill="#4A4A4A">
                <tspan x="4" y="19">Option 1</tspan>
            </text>
            <text id="Option-2" font-family="OpenSans, Open Sans" font-size="18" font-weight="normal" fill="#4A4A4A">
                <tspan x="224" y="19">Option 2</tspan>
            </text>
            <text id="Option-3" font-family="OpenSans, Open Sans" font-size="18" font-weight="normal" fill="#4A4A4A">
                <tspan x="444" y="19">Option 3</tspan>
            </text>
            <text id="Option-4" font-family="OpenSans, Open Sans" font-size="18" font-weight="normal" fill="#4A4A4A">
                <tspan x="664" y="19">Option 4</tspan>
            </text>
            <path d="M217.857755,56.6520111 C216.708578,55.4156915 216,53.7222665 216,51.8543229 C216,48.0687849 218.910149,45 222.5,45 C226.089851,45 229,48.0687849 229,51.8543229 C229,53.7222665 228.291422,55.4156915 227.142245,56.6520111 C231.181249,58.6765801 234,63.2621018 234,68.5946885 C234,75.8017705 211,75.8017705 211,68.5946885 C211,63.2621018 213.818751,58.6765801 217.857755,56.6520111 Z" id="Combined-Shape" stroke="#4A4A4A" fill="#49C89F"></path>
            <path d="M364.857755,131.652011 C363.708578,130.415691 363,128.722267 363,126.854323 C363,123.068785 365.910149,120 369.5,120 C373.089851,120 376,123.068785 376,126.854323 C376,128.722267 375.291422,130.415691 374.142245,131.652011 C378.181249,133.67658 381,138.262102 381,143.594689 C381,150.80177 358,150.80177 358,143.594689 C358,138.262102 360.818751,133.67658 364.857755,131.652011 Z" id="Combined-Shape" stroke="#4A4A4A" fill="#EBEBEB"></path>
            <text id="?" font-family="OpenSans, Open Sans" font-size="18" font-weight="normal" fill="#4A4A4A">
                <tspan x="381" y="135">?</tspan>
            </text>
            <path d="M0.5,89.5 L748.5,89.5" id="Line" stroke="#C4C4C4" stroke-linecap="square" stroke-dasharray="7"></path>
            <path d="M245.857755,56.6520111 C244.708578,55.4156915 244,53.7222665 244,51.8543229 C244,48.0687849 246.910149,45 250.5,45 C254.089851,45 257,48.0687849 257,51.8543229 C257,53.7222665 256.291422,55.4156915 255.142245,56.6520111 C259.181249,58.6765801 262,63.2621018 262,68.5946885 C262,75.8017705 239,75.8017705 239,68.5946885 C239,63.2621018 241.818751,58.6765801 245.857755,56.6520111 Z" id="Combined-Shape" stroke="#4A4A4A" fill="#49C89F"></path>
            <path d="M273.857755,56.6520111 C272.708578,55.4156915 272,53.7222665 272,51.8543229 C272,48.0687849 274.910149,45 278.5,45 C282.089851,45 285,48.0687849 285,51.8543229 C285,53.7222665 284.291422,55.4156915 283.142245,56.6520111 C287.181249,58.6765801 290,63.2621018 290,68.5946885 C290,75.8017705 267,75.8017705 267,68.5946885 C267,63.2621018 269.818751,58.6765801 273.857755,56.6520111 Z" id="Combined-Shape" stroke="#4A4A4A" fill="#49C89F"></path>
            <path d="M301.857755,56.6520111 C300.708578,55.4156915 300,53.7222665 300,51.8543229 C300,48.0687849 302.910149,45 306.5,45 C310.089851,45 313,48.0687849 313,51.8543229 C313,53.7222665 312.291422,55.4156915 311.142245,56.6520111 C315.181249,58.6765801 318,63.2621018 318,68.5946885 C318,75.8017705 295,75.8017705 295,68.5946885 C295,63.2621018 297.818751,58.6765801 301.857755,56.6520111 Z" id="Combined-Shape" stroke="#4A4A4A" fill="#49C89F"></path>
            <g id="Rectangle" transform="translate(295.000000, 45.000000)">
                <mask id="mask-2" fill="white">
                    <use xlink:href="#path-1"></use>
                </mask>
                <use id="Mask" stroke="#4A4A4A" fill="#49C89F" xlink:href="#path-1"></use>
                <rect fill="#FFFFFF" mask="url(#mask-2)" x="12" y="-12" width="15" height="47"></rect>
            </g>
            <g id="Rectangle" transform="translate(691.000000, 45.000000)">
                <mask id="mask-4" fill="white">
                    <use xlink:href="#path-3"></use>
                </mask>
                <use id="Mask" stroke="#4A4A4A" fill="#49C89F" xlink:href="#path-3"></use>
                <rect fill="#FFFFFF" mask="url(#mask-4)" x="12" y="-12" width="15" height="47"></rect>
            </g>
        </g>
    </g>
</svg>