<?xml version="1.0" encoding="UTF-8"?>
<svg width="400px" height="400px" viewBox="0 0 400 400" version="1.1" xmlns="http://www.w3.org/2000/svg" xmlns:xlink="http://www.w3.org/1999/xlink">
    <!-- Generator: Sketch 49.1 (51147) - http://www.bohemiancoding.com/sketch -->
    <title>Artboard 5</title>
    <desc>Created with Sketch.</desc>
    <defs>
        <rect id="path-1" x="0" y="0" width="149.466192" height="142.540084" rx="2"></rect>
        <rect id="path-2" x="73.6654804" y="53.5864979" width="3.20284698" height="128.607595" rx="1.60142349"></rect>
        <rect id="path-3" x="0" y="0" width="149.466192" height="252.92827" rx="2"></rect>
        <rect id="path-4" x="32.0284698" y="154.329114" width="85.4092527" height="8.57383966" rx="2"></rect>
        <rect id="path-5" x="40.569395" y="161.831224" width="68.3274021" height="91.0970464" rx="2"></rect>
        <rect id="path-6" x="40.569395" y="161.831224" width="34.1637011" height="91.0970464" rx="2"></rect>
        <rect id="path-7" x="19.2170819" y="22.5063291" width="19.2170819" height="19.2911392" rx="2"></rect>
        <rect id="path-8" x="49.1103203" y="22.5063291" width="19.2170819" height="19.2911392" rx="2"></rect>
        <rect id="path-9" x="79.0035587" y="22.5063291" width="19.2170819" height="19.2911392" rx="2"></rect>
        <rect id="path-10" x="108.896797" y="22.5063291" width="19.2170819" height="19.2911392" rx="2"></rect>
        <rect id="path-11" x="19.2170819" y="51.443038" width="19.2170819" height="19.2911392" rx="2"></rect>
        <rect id="path-12" x="49.1103203" y="51.443038" width="19.2170819" height="19.2911392" rx="2"></rect>
        <rect id="path-13" x="79.0035587" y="51.443038" width="19.2170819" height="19.2911392" rx="2"></rect>
        <rect id="path-14" x="108.896797" y="51.443038" width="19.2170819" height="19.2911392" rx="2"></rect>
        <rect id="path-15" x="19.2170819" y="80.3797468" width="19.2170819" height="19.2911392" rx="2"></rect>
        <rect id="path-16" x="49.1103203" y="80.3797468" width="19.2170819" height="19.2911392" rx="2"></rect>
        <rect id="path-17" x="79.0035587" y="80.3797468" width="19.2170819" height="19.2911392" rx="2"></rect>
        <rect id="path-18" x="108.896797" y="80.3797468" width="19.2170819" height="19.2911392" rx="2"></rect>
        <rect id="path-19" x="19.2170819" y="109.316456" width="19.2170819" height="19.2911392" rx="2"></rect>
        <rect id="path-20" x="49.1103203" y="109.316456" width="19.2170819" height="19.2911392" rx="2"></rect>
        <rect id="path-21" x="79.0035587" y="109.316456" width="19.2170819" height="19.2911392" rx="2"></rect>
        <rect id="path-22" x="108.896797" y="109.316456" width="19.2170819" height="19.2911392" rx="2"></rect>
        <path d="M50.0514141,62.2354749 L55.4405917,61.1879249 L57.916142,73.923527 L47.6050171,74.3287745 C49.0254955,72.9866401 49.7405452,71.4262867 49.7501662,69.6477142 C49.7597872,67.8691417 49.8602032,65.3983953 50.0514141,62.2354749 Z" id="path-23"></path>
        <rect id="path-24" x="4" y="0" width="4" height="82"></rect>
        <rect id="path-25" x="0" y="41" width="12" height="82" rx="2"></rect>
    </defs>
    <g id="Artboard-5" stroke="none" stroke-width="1" fill="none" fill-rule="evenodd">
        <path d="M62.0195312,71.2011719 C62.0195312,72.4576886 61.5638066,73.4374965 60.6523438,74.140625 C59.7408809,74.8437535 58.5039141,75.1953125 56.9414062,75.1953125 C55.2486895,75.1953125 53.9466191,74.9772157 53.0351562,74.5410156 L53.0351562,72.9394531 C53.6210967,73.1868502 54.2591111,73.3821607 54.9492188,73.5253906 C55.6393264,73.6686205 56.3229133,73.7402344 57,73.7402344 C58.1067764,73.7402344 58.9401014,73.5302755 59.5,73.1103516 C60.0598986,72.6904276 60.3398438,72.1061235 60.3398438,71.3574219 C60.3398438,70.8626277 60.2405609,70.4573583 60.0419922,70.1416016 C59.8434235,69.8258448 59.5113956,69.5345065 59.0458984,69.2675781 C58.5804013,69.0006497 57.8724006,68.6979184 56.921875,68.359375 C55.5937434,67.8841122 54.6448596,67.3209668 54.0751953,66.6699219 C53.505531,66.018877 53.2207031,65.1692761 53.2207031,64.1210938 C53.2207031,63.0208278 53.6341104,62.1451855 54.4609375,61.4941406 C55.2877646,60.8430957 56.3815036,60.5175781 57.7421875,60.5175781 C59.1614654,60.5175781 60.4667909,60.7779922 61.6582031,61.2988281 L61.140625,62.7441406 C59.9622337,62.2493465 58.8164118,62.0019531 57.703125,62.0019531 C56.8242144,62.0019531 56.1373723,62.1907533 55.6425781,62.5683594 C55.147784,62.9459654 54.9003906,63.4700487 54.9003906,64.140625 C54.9003906,64.6354191 54.9915355,65.0406885 55.1738281,65.3564453 C55.3561207,65.6722021 55.6637348,65.9619127 56.0966797,66.2255859 C56.5296246,66.4892591 57.1920528,66.7805974 58.0839844,67.0996094 C59.5813877,67.6334662 60.6116508,68.2063771 61.1748047,68.8183594 C61.7379585,69.4303416 62.0195312,70.2246045 62.0195312,71.2011719 Z M68.7344438,75.1953125 C67.1524047,75.1953125 65.9040448,74.7135465 64.9893267,73.75 C64.0746085,72.7864535 63.6172563,71.4485763 63.6172563,69.7363281 C63.6172563,68.0110591 64.0420568,66.6406301 64.8916704,65.625 C65.741284,64.6093699 66.8822231,64.1015625 68.314522,64.1015625 C69.6556745,64.1015625 70.7168618,64.5426388 71.4981157,65.4248047 C72.2793696,66.3069706 72.6699907,67.4706959 72.6699907,68.9160156 L72.6699907,69.9414062 L65.2969438,69.9414062 C65.3294961,71.1979229 65.6468757,72.1516895 66.2490923,72.8027344 C66.8513088,73.4537793 67.6992821,73.7792969 68.7930376,73.7792969 C69.9453871,73.7792969 71.0846986,73.5384139 72.2110063,73.0566406 L72.2110063,74.5019531 C71.6380868,74.7493502 71.0961,74.9267573 70.5850298,75.0341797 C70.0739595,75.1416021 69.4571037,75.1953125 68.7344438,75.1953125 Z M68.2949907,65.4589844 C67.4356114,65.4589844 66.7503969,65.7389295 66.2393267,66.2988281 C65.7282564,66.8587268 65.4271526,67.6334586 65.3360063,68.6230469 L70.9317095,68.6230469 C70.9317095,67.6009063 70.7038472,66.8180366 70.2481157,66.2744141 C69.7923843,65.7307916 69.1413491,65.4589844 68.2949907,65.4589844 Z M81.5333408,75 L81.2110752,73.4765625 L81.1329502,73.4765625 C80.5990934,74.1471388 80.0668721,74.6012358 79.5362705,74.8388672 C79.0056689,75.0764986 78.3432406,75.1953125 77.5489658,75.1953125 C76.4877626,75.1953125 75.6560652,74.9218777 75.0538486,74.375 C74.4516321,73.8281223 74.1505283,73.0501353 74.1505283,72.0410156 C74.1505283,69.8795465 75.8790267,68.7467453 79.3360752,68.6425781 L81.1524814,68.5839844 L81.1524814,67.9199219 C81.1524814,67.0800739 80.9718192,66.4599629 80.6104892,66.0595703 C80.2491593,65.6591777 79.6713656,65.4589844 78.8770908,65.4589844 C77.9851593,65.4589844 76.9760548,65.7324191 75.8497471,66.2792969 L75.3517002,65.0390625 C75.8790466,64.7526027 76.4568403,64.5279956 77.0850986,64.3652344 C77.713357,64.2024731 78.3432335,64.1210938 78.9747471,64.1210938 C80.2507951,64.1210938 81.1964237,64.404294 81.8116611,64.9707031 C82.4268986,65.5371122 82.7345127,66.4453063 82.7345127,67.6953125 L82.7345127,75 L81.5333408,75 Z M77.8712314,73.8574219 C78.8803511,73.8574219 79.6729864,73.5807319 80.2491611,73.0273438 C80.8253359,72.4739556 81.1134189,71.6992237 81.1134189,70.703125 L81.1134189,69.7363281 L79.4923252,69.8046875 C78.2032562,69.8502606 77.2739036,70.050454 76.7042392,70.4052734 C76.1345749,70.7600929 75.8497471,71.3118452 75.8497471,72.0605469 C75.8497471,72.6464873 76.0271541,73.0924464 76.3819736,73.3984375 C76.7367931,73.7044286 77.2332074,73.8574219 77.8712314,73.8574219 Z M90.4748159,64.1015625 C90.9500787,64.1015625 91.3765067,64.1406246 91.7541128,64.21875 L91.5295034,65.7226562 C91.0867929,65.6249995 90.6961718,65.5761719 90.3576284,65.5761719 C89.4917387,65.5761719 88.7511862,65.9277309 88.1359487,66.6308594 C87.5207113,67.3339879 87.2130972,68.2096302 87.2130972,69.2578125 L87.2130972,75 L85.5920034,75 L85.5920034,64.296875 L86.929894,64.296875 L87.1154409,66.2792969 L87.1935659,66.2792969 C87.5907033,65.5826788 88.0692141,65.0455748 88.6291128,64.6679688 C89.1890114,64.2903627 89.8042396,64.1015625 90.4748159,64.1015625 Z M97.150666,75.1953125 C95.6011791,75.1953125 94.4016468,74.7184292 93.5520332,73.7646484 C92.7024196,72.8108676 92.2776191,71.4615973 92.2776191,69.7167969 C92.2776191,67.9264233 92.7089299,66.5429736 93.5715644,65.5664062 C94.434199,64.5898389 95.6630278,64.1015625 97.2580879,64.1015625 C97.7724134,64.1015625 98.2867311,64.1569005 98.8010566,64.2675781 C99.3153821,64.3782558 99.7190239,64.5084628 100.011994,64.6582031 L99.5139472,66.0351562 C99.1558725,65.8919264 98.7652514,65.7731125 98.3420722,65.6787109 C97.918893,65.5843094 97.5445478,65.5371094 97.2190254,65.5371094 C95.0445353,65.5371094 93.9573066,66.9238143 93.9573066,69.6972656 C93.9573066,71.0123764 94.2226034,72.0214809 94.7532051,72.7246094 C95.2838067,73.4277379 96.0699316,73.7792969 97.1116035,73.7792969 C98.003535,73.7792969 98.9182394,73.5872415 99.8557441,73.203125 L99.8557441,74.6386719 C99.1395947,75.0097675 98.237911,75.1953125 97.150666,75.1953125 Z M109.236672,75 L109.236672,68.0761719 C109.236672,67.2037717 109.038107,66.5527365 108.640969,66.1230469 C108.243832,65.6933572 107.622093,65.4785156 106.775735,65.4785156 C105.649427,65.4785156 104.827495,65.7845021 104.309915,66.3964844 C103.792334,67.0084666 103.533547,68.0110607 103.533547,69.4042969 L103.533547,75 L101.912454,75 L101.912454,59.8046875 L103.533547,59.8046875 L103.533547,64.4042969 C103.533547,64.9576851 103.507506,65.4166648 103.455422,65.78125 L103.553079,65.78125 C103.872091,65.2669245 104.326188,64.8616551 104.915383,64.5654297 C105.504579,64.2692042 106.176773,64.1210938 106.931985,64.1210938 C108.240585,64.1210938 109.222021,64.431963 109.876321,65.0537109 C110.530621,65.6754588 110.857766,66.6634047 110.857766,68.0175781 L110.857766,75 L109.236672,75 Z M123.242669,65.5566406 L120.51806,65.5566406 L120.51806,75 L118.896966,75 L118.896966,65.5566406 L116.982904,65.5566406 L116.982904,64.8242188 L118.896966,64.2382812 L118.896966,63.6425781 C118.896966,61.0123566 120.046043,59.6972656 122.344232,59.6972656 C122.910641,59.6972656 123.574697,59.8111968 124.336419,60.0390625 L123.916498,61.3378906 C123.291494,61.1360667 122.757646,61.0351562 122.314935,61.0351562 C121.702953,61.0351562 121.250483,61.2386047 120.957513,61.6455078 C120.664543,62.0524109 120.51806,62.7050736 120.51806,63.6035156 L120.51806,64.296875 L123.242669,64.296875 L123.242669,65.5566406 Z M133.951723,69.6386719 C133.951723,71.3834723 133.512274,72.7457633 132.633363,73.7255859 C131.754453,74.7054085 130.540272,75.1953125 128.990785,75.1953125 C128.033749,75.1953125 127.184148,74.9707054 126.441957,74.5214844 C125.699766,74.0722634 125.126855,73.4277386 124.723207,72.5878906 C124.319559,71.7480427 124.117738,70.7649796 124.117738,69.6386719 C124.117738,67.8938715 124.553932,66.5348356 125.426332,65.5615234 C126.298732,64.5882113 127.509658,64.1015625 129.059144,64.1015625 C130.556548,64.1015625 131.746315,64.5996044 132.62848,65.5957031 C133.510646,66.5918019 133.951723,67.9394446 133.951723,69.6386719 Z M125.797426,69.6386719 C125.797426,71.0058662 126.070861,72.0475225 126.617738,72.7636719 C127.164616,73.4798213 127.968644,73.8378906 129.029848,73.8378906 C130.091051,73.8378906 130.896707,73.4814489 131.44684,72.7685547 C131.996973,72.0556605 132.272035,71.0123767 132.272035,69.6386719 C132.272035,68.277988 131.996973,67.2444697 131.44684,66.5380859 C130.896707,65.8317022 130.08454,65.4785156 129.010316,65.4785156 C127.949113,65.4785156 127.14834,65.8268194 126.607973,66.5234375 C126.067605,67.2200556 125.797426,68.2584566 125.797426,69.6386719 Z M141.193979,64.1015625 C141.669242,64.1015625 142.09567,64.1406246 142.473276,64.21875 L142.248666,65.7226562 C141.805956,65.6249995 141.415335,65.5761719 141.076791,65.5761719 C140.210902,65.5761719 139.470349,65.9277309 138.855112,66.6308594 C138.239874,67.3339879 137.93226,68.2096302 137.93226,69.2578125 L137.93226,75 L136.311166,75 L136.311166,64.296875 L137.649057,64.296875 L137.834604,66.2792969 L137.912729,66.2792969 C138.309866,65.5826788 138.788377,65.0455748 139.348276,64.6679688 C139.908174,64.2903627 140.523403,64.1015625 141.193979,64.1015625 Z M153.588648,64.1015625 C154.063911,64.1015625 154.490339,64.1406246 154.867945,64.21875 L154.643335,65.7226562 C154.200625,65.6249995 153.810004,65.5761719 153.47146,65.5761719 C152.605571,65.5761719 151.865018,65.9277309 151.249781,66.6308594 C150.634543,67.3339879 150.326929,68.2096302 150.326929,69.2578125 L150.326929,75 L148.705835,75 L148.705835,64.296875 L150.043726,64.296875 L150.229273,66.2792969 L150.307398,66.2792969 C150.704535,65.5826788 151.183046,65.0455748 151.742945,64.6679688 C152.302843,64.2903627 152.918072,64.1015625 153.588648,64.1015625 Z M165.225435,69.6386719 C165.225435,71.3834723 164.785987,72.7457633 163.907076,73.7255859 C163.028165,74.7054085 161.813985,75.1953125 160.264498,75.1953125 C159.307462,75.1953125 158.457861,74.9707054 157.71567,74.5214844 C156.973479,74.0722634 156.400568,73.4277386 155.99692,72.5878906 C155.593272,71.7480427 155.391451,70.7649796 155.391451,69.6386719 C155.391451,67.8938715 155.827645,66.5348356 156.700045,65.5615234 C157.572445,64.5882113 158.78337,64.1015625 160.332857,64.1015625 C161.830261,64.1015625 163.020027,64.5996044 163.902193,65.5957031 C164.784359,66.5918019 165.225435,67.9394446 165.225435,69.6386719 Z M157.071139,69.6386719 C157.071139,71.0058662 157.344573,72.0475225 157.891451,72.7636719 C158.438329,73.4798213 159.242357,73.8378906 160.30356,73.8378906 C161.364764,73.8378906 162.17042,73.4814489 162.720553,72.7685547 C163.270686,72.0556605 163.545748,71.0123767 163.545748,69.6386719 C163.545748,68.277988 163.270686,67.2444697 162.720553,66.5380859 C162.17042,65.8317022 161.358253,65.4785156 160.284029,65.4785156 C159.222826,65.4785156 158.422053,65.8268194 157.881685,66.5234375 C157.341318,67.2200556 157.071139,68.2584566 157.071139,69.6386719 Z M176.823161,69.6386719 C176.823161,71.3834723 176.383712,72.7457633 175.504801,73.7255859 C174.625891,74.7054085 173.41171,75.1953125 171.862223,75.1953125 C170.905187,75.1953125 170.055586,74.9707054 169.313395,74.5214844 C168.571204,74.0722634 167.998293,73.4277386 167.594645,72.5878906 C167.190997,71.7480427 166.989176,70.7649796 166.989176,69.6386719 C166.989176,67.8938715 167.42537,66.5348356 168.29777,65.5615234 C169.17017,64.5882113 170.381096,64.1015625 171.930582,64.1015625 C173.427986,64.1015625 174.617753,64.5996044 175.499918,65.5957031 C176.382084,66.5918019 176.823161,67.9394446 176.823161,69.6386719 Z M168.668864,69.6386719 C168.668864,71.0058662 168.942298,72.0475225 169.489176,72.7636719 C170.036054,73.4798213 170.840082,73.8378906 171.901286,73.8378906 C172.962489,73.8378906 173.768145,73.4814489 174.318278,72.7685547 C174.868411,72.0556605 175.143473,71.0123767 175.143473,69.6386719 C175.143473,68.277988 174.868411,67.2444697 174.318278,66.5380859 C173.768145,65.8317022 172.955978,65.4785156 171.881754,65.4785156 C170.820551,65.4785156 170.019778,65.8268194 169.479411,66.5234375 C168.939043,67.2200556 168.668864,68.2584566 168.668864,69.6386719 Z M192.825183,75 L192.825183,68.0371094 C192.825183,67.1842405 192.642893,66.5445985 192.278308,66.1181641 C191.913722,65.6917296 191.347322,65.4785156 190.579089,65.4785156 C189.569969,65.4785156 188.824534,65.7682263 188.342761,66.3476562 C187.860987,66.9270862 187.620104,67.8190044 187.620104,69.0234375 L187.620104,75 L185.999011,75 L185.999011,68.0371094 C185.999011,67.1842405 185.816721,66.5445985 185.452136,66.1181641 C185.087551,65.6917296 184.517895,65.4785156 183.743151,65.4785156 C182.727521,65.4785156 181.983714,65.7828746 181.511706,66.3916016 C181.039698,67.0003286 180.803698,67.9980399 180.803698,69.3847656 L180.803698,75 L179.182604,75 L179.182604,64.296875 L180.500964,64.296875 L180.764636,65.7617188 L180.842761,65.7617188 C181.148752,65.2408828 181.580063,64.8339858 182.136706,64.5410156 C182.693349,64.2480454 183.316716,64.1015625 184.006823,64.1015625 C185.680009,64.1015625 186.773748,64.7070252 187.288073,65.9179688 L187.366198,65.9179688 C187.68521,65.3580701 188.147445,64.9153662 188.752917,64.5898438 C189.358389,64.2643213 190.048486,64.1015625 190.823229,64.1015625 C192.034173,64.1015625 192.940739,64.4124318 193.542956,65.0341797 C194.145173,65.6559276 194.446276,66.6503838 194.446276,68.0175781 L194.446276,75 L192.825183,75 Z M210.946345,75 L210.946345,68.0371094 C210.946345,67.1842405 210.764055,66.5445985 210.39947,66.1181641 C210.034885,65.6917296 209.468484,65.4785156 208.700251,65.4785156 C207.691132,65.4785156 206.945697,65.7682263 206.463923,66.3476562 C205.98215,66.9270862 205.741267,67.8190044 205.741267,69.0234375 L205.741267,75 L204.120173,75 L204.120173,68.0371094 C204.120173,67.1842405 203.937883,66.5445985 203.573298,66.1181641 C203.208713,65.6917296 202.639057,65.4785156 201.864314,65.4785156 C200.848684,65.4785156 200.104876,65.7828746 199.632869,66.3916016 C199.160861,67.0003286 198.924861,67.9980399 198.924861,69.3847656 L198.924861,75 L197.303767,75 L197.303767,64.296875 L198.622126,64.296875 L198.885798,65.7617188 L198.963923,65.7617188 C199.269914,65.2408828 199.701225,64.8339858 200.257869,64.5410156 C200.814512,64.2480454 201.437878,64.1015625 202.127986,64.1015625 C203.801171,64.1015625 204.89491,64.7070252 205.409236,65.9179688 L205.487361,65.9179688 C205.806373,65.3580701 206.268608,64.9153662 206.87408,64.5898438 C207.479551,64.2643213 208.169649,64.1015625 208.944392,64.1015625 C210.155336,64.1015625 211.061902,64.4124318 211.664119,65.0341797 C212.266335,65.6559276 212.567439,66.6503838 212.567439,68.0175781 L212.567439,75 L210.946345,75 Z M222.006961,75 L221.684695,73.4765625 L221.60657,73.4765625 C221.072713,74.1471388 220.540492,74.6012358 220.009891,74.8388672 C219.479289,75.0764986 218.816861,75.1953125 218.022586,75.1953125 C216.961383,75.1953125 216.129685,74.9218777 215.527469,74.375 C214.925252,73.8281223 214.624148,73.0501353 214.624148,72.0410156 C214.624148,69.8795465 216.352647,68.7467453 219.809695,68.6425781 L221.626101,68.5839844 L221.626101,67.9199219 C221.626101,67.0800739 221.445439,66.4599629 221.084109,66.0595703 C220.722779,65.6591777 220.144986,65.4589844 219.350711,65.4589844 C218.458779,65.4589844 217.449675,65.7324191 216.323367,66.2792969 L215.82532,65.0390625 C216.352667,64.7526027 216.93046,64.5279956 217.558719,64.3652344 C218.186977,64.2024731 218.816854,64.1210938 219.448367,64.1210938 C220.724415,64.1210938 221.670044,64.404294 222.285281,64.9707031 C222.900519,65.5371122 223.208133,66.4453063 223.208133,67.6953125 L223.208133,75 L222.006961,75 Z M218.344851,73.8574219 C219.353971,73.8574219 220.146606,73.5807319 220.722781,73.0273438 C221.298956,72.4739556 221.587039,71.6992237 221.587039,70.703125 L221.587039,69.7363281 L219.965945,69.8046875 C218.676876,69.8502606 217.747524,70.050454 217.177859,70.4052734 C216.608195,70.7600929 216.323367,71.3118452 216.323367,72.0605469 C216.323367,72.6464873 216.500774,73.0924464 216.855594,73.3984375 C217.210413,73.7044286 217.706827,73.8574219 218.344851,73.8574219 Z M229.522655,73.8574219 C229.809114,73.8574219 230.085804,73.8362632 230.352733,73.7939453 C230.619661,73.7516274 230.831248,73.7076825 230.987498,73.6621094 L230.987498,74.9023438 C230.811716,74.9869796 230.55293,75.0569659 230.211131,75.1123047 C229.869333,75.1676435 229.561719,75.1953125 229.28828,75.1953125 C227.217957,75.1953125 226.182811,74.1048286 226.182811,71.9238281 L226.182811,65.5566406 L224.649608,65.5566406 L224.649608,64.7753906 L226.182811,64.1015625 L226.866405,61.8164062 L227.803905,61.8164062 L227.803905,64.296875 L230.909373,64.296875 L230.909373,65.5566406 L227.803905,65.5566406 L227.803905,71.8554688 C227.803905,72.5000032 227.956898,72.9947899 228.262889,73.3398438 C228.56888,73.6848976 228.988798,73.8574219 229.522655,73.8574219 Z M237.165302,75.1953125 C235.583263,75.1953125 234.334903,74.7135465 233.420184,73.75 C232.505466,72.7864535 232.048114,71.4485763 232.048114,69.7363281 C232.048114,68.0110591 232.472915,66.6406301 233.322528,65.625 C234.172142,64.6093699 235.313081,64.1015625 236.74538,64.1015625 C238.086532,64.1015625 239.14772,64.5426388 239.928974,65.4248047 C240.710227,66.3069706 241.100849,67.4706959 241.100849,68.9160156 L241.100849,69.9414062 L233.727802,69.9414062 C233.760354,71.1979229 234.077734,72.1516895 234.67995,72.8027344 C235.282167,73.4537793 236.13014,73.7792969 237.223895,73.7792969 C238.376245,73.7792969 239.515556,73.5384139 240.641864,73.0566406 L240.641864,74.5019531 C240.068945,74.7493502 239.526958,74.9267573 239.015888,75.0341797 C238.504817,75.1416021 237.887962,75.1953125 237.165302,75.1953125 Z M236.725849,65.4589844 C235.866469,65.4589844 235.181255,65.7389295 234.670184,66.2988281 C234.159114,66.8587268 233.85801,67.6334586 233.766864,68.6230469 L239.362567,68.6230469 C239.362567,67.6009063 239.134705,66.8180366 238.678974,66.2744141 C238.223242,65.7307916 237.572207,65.4589844 236.725849,65.4589844 Z M250.286464,72.0800781 C250.286464,73.0761769 249.915374,73.8443983 249.173183,74.3847656 C248.430992,74.9251329 247.389336,75.1953125 246.048183,75.1953125 C244.628905,75.1953125 243.522145,74.9707054 242.727871,74.5214844 L242.727871,73.0175781 C243.242196,73.2779961 243.793948,73.4830722 244.383144,73.6328125 C244.97234,73.7825528 245.540368,73.8574219 246.087246,73.8574219 C246.933604,73.8574219 247.584639,73.7223321 248.040371,73.4521484 C248.496102,73.1819648 248.723964,72.7701851 248.723964,72.2167969 C248.723964,71.8001281 248.543302,71.4436864 248.181972,71.1474609 C247.820642,70.8512355 247.115897,70.5013041 246.067714,70.0976562 C245.071616,69.7265606 244.363615,69.4026707 243.943691,69.1259766 C243.523767,68.8492825 243.21127,68.535158 243.006191,68.1835938 C242.801112,67.8320295 242.698574,67.4121118 242.698574,66.9238281 C242.698574,66.0514279 243.053388,65.3629583 243.763027,64.8583984 C244.472666,64.3538386 245.445963,64.1015625 246.682949,64.1015625 C247.835298,64.1015625 248.961589,64.3359352 250.061855,64.8046875 L249.485683,66.1230469 C248.411459,65.6803363 247.438161,65.4589844 246.565761,65.4589844 C245.797528,65.4589844 245.218107,65.5794259 244.82748,65.8203125 C244.436853,66.0611991 244.241542,66.3932271 244.241542,66.8164062 C244.241542,67.102866 244.314784,67.3470042 244.461269,67.5488281 C244.607754,67.7506521 244.843754,67.9427074 245.169277,68.125 C245.494799,68.3072926 246.119793,68.5709618 247.044277,68.9160156 C248.313814,69.3782575 249.171553,69.8437477 249.617519,70.3125 C250.063485,70.7812523 250.286464,71.3704392 250.286464,72.0800781 Z M263.735821,75 L263.413555,73.4765625 L263.33543,73.4765625 C262.801573,74.1471388 262.269352,74.6012358 261.73875,74.8388672 C261.208149,75.0764986 260.545721,75.1953125 259.751446,75.1953125 C258.690242,75.1953125 257.858545,74.9218777 257.256329,74.375 C256.654112,73.8281223 256.353008,73.0501353 256.353008,72.0410156 C256.353008,69.8795465 258.081507,68.7467453 261.538555,68.6425781 L263.354961,68.5839844 L263.354961,67.9199219 C263.354961,67.0800739 263.174299,66.4599629 262.812969,66.0595703 C262.451639,65.6591777 261.873846,65.4589844 261.079571,65.4589844 C260.187639,65.4589844 259.178535,65.7324191 258.052227,66.2792969 L257.55418,65.0390625 C258.081526,64.7526027 258.65932,64.5279956 259.287579,64.3652344 C259.915837,64.2024731 260.545713,64.1210938 261.177227,64.1210938 C262.453275,64.1210938 263.398904,64.404294 264.014141,64.9707031 C264.629378,65.5371122 264.936993,66.4453063 264.936993,67.6953125 L264.936993,75 L263.735821,75 Z M260.073711,73.8574219 C261.082831,73.8574219 261.875466,73.5807319 262.451641,73.0273438 C263.027816,72.4739556 263.315899,71.6992237 263.315899,70.703125 L263.315899,69.7363281 L261.694805,69.8046875 C260.405736,69.8502606 259.476383,70.050454 258.906719,70.4052734 C258.337055,70.7600929 258.052227,71.3118452 258.052227,72.0605469 C258.052227,72.6464873 258.229634,73.0924464 258.584454,73.3984375 C258.939273,73.7044286 259.435687,73.8574219 260.073711,73.8574219 Z M275.118702,75 L275.118702,68.0761719 C275.118702,67.2037717 274.920136,66.5527365 274.522999,66.1230469 C274.125862,65.6933572 273.504123,65.4785156 272.657765,65.4785156 C271.537967,65.4785156 270.717663,65.781247 270.196827,66.3867188 C269.675991,66.9921905 269.415577,67.9915295 269.415577,69.3847656 L269.415577,75 L267.794483,75 L267.794483,64.296875 L269.112843,64.296875 L269.376515,65.7617188 L269.45464,65.7617188 C269.786672,65.2343724 270.252163,64.8258478 270.851124,64.5361328 C271.450085,64.2464178 272.117396,64.1015625 272.853077,64.1015625 C274.142146,64.1015625 275.112188,64.4124318 275.763233,65.0341797 C276.414278,65.6559276 276.739796,66.6503838 276.739796,68.0175781 L276.739796,75 L275.118702,75 Z M286.872677,73.5644531 L286.784787,73.5644531 C286.036085,74.6516981 284.916304,75.1953125 283.425412,75.1953125 C282.025665,75.1953125 280.936809,74.7168017 280.15881,73.7597656 C279.380811,72.8027296 278.991818,71.4420661 278.991818,69.6777344 C278.991818,67.9134026 279.382439,66.5429736 280.163693,65.5664062 C280.944947,64.5898389 282.032175,64.1015625 283.425412,64.1015625 C284.877242,64.1015625 285.990512,64.628901 286.765255,65.6835938 L286.892208,65.6835938 L286.823849,64.9121094 L286.784787,64.1601562 L286.784787,59.8046875 L288.40588,59.8046875 L288.40588,75 L287.087521,75 L286.872677,73.5644531 Z M283.63049,73.8378906 C284.737266,73.8378906 285.539667,73.5367869 286.037716,72.9345703 C286.535766,72.3323538 286.784787,71.3606838 286.784787,70.0195312 L286.784787,69.6777344 C286.784787,68.1607997 286.53251,67.0784538 286.027951,66.4306641 C285.523391,65.7828744 284.717735,65.4589844 283.610958,65.4589844 C282.660433,65.4589844 281.932901,65.8284468 281.428341,66.5673828 C280.923781,67.3063188 280.671505,68.3496026 280.671505,69.6972656 C280.671505,71.06446 280.922154,72.0963507 281.423458,72.7929688 C281.924763,73.4895868 282.660433,73.8378906 283.63049,73.8378906 Z M300.956799,64.1015625 C301.432062,64.1015625 301.85849,64.1406246 302.236096,64.21875 L302.011487,65.7226562 C301.568776,65.6249995 301.178155,65.5761719 300.839612,65.5761719 C299.973722,65.5761719 299.233169,65.9277309 298.617932,66.6308594 C298.002695,67.3339879 297.69508,68.2096302 297.69508,69.2578125 L297.69508,75 L296.073987,75 L296.073987,64.296875 L297.411877,64.296875 L297.597424,66.2792969 L297.675549,66.2792969 C298.072687,65.5826788 298.551197,65.0455748 299.111096,64.6679688 C299.670995,64.2903627 300.286223,64.1015625 300.956799,64.1015625 Z M312.593587,69.6386719 C312.593587,71.3834723 312.154138,72.7457633 311.275227,73.7255859 C310.396317,74.7054085 309.182136,75.1953125 307.632649,75.1953125 C306.675613,75.1953125 305.826012,74.9707054 305.083821,74.5214844 C304.34163,74.0722634 303.768719,73.4277386 303.365071,72.5878906 C302.961423,71.7480427 302.759602,70.7649796 302.759602,69.6386719 C302.759602,67.8938715 303.195796,66.5348356 304.068196,65.5615234 C304.940596,64.5882113 306.151522,64.1015625 307.701009,64.1015625 C309.198412,64.1015625 310.388179,64.5996044 311.270345,65.5957031 C312.15251,66.5918019 312.593587,67.9394446 312.593587,69.6386719 Z M304.43929,69.6386719 C304.43929,71.0058662 304.712725,72.0475225 305.259602,72.7636719 C305.80648,73.4798213 306.610509,73.8378906 307.671712,73.8378906 C308.732915,73.8378906 309.538571,73.4814489 310.088704,72.7685547 C310.638837,72.0556605 310.913899,71.0123767 310.913899,69.6386719 C310.913899,68.277988 310.638837,67.2444697 310.088704,66.5380859 C309.538571,65.8317022 308.726405,65.4785156 307.652181,65.4785156 C306.590977,65.4785156 305.790204,65.8268194 305.249837,66.5234375 C304.70947,67.2200556 304.43929,68.2584566 304.43929,69.6386719 Z M324.191312,69.6386719 C324.191312,71.3834723 323.751863,72.7457633 322.872953,73.7255859 C321.994042,74.7054085 320.779861,75.1953125 319.230374,75.1953125 C318.273338,75.1953125 317.423737,74.9707054 316.681546,74.5214844 C315.939355,74.0722634 315.366444,73.4277386 314.962796,72.5878906 C314.559148,71.7480427 314.357328,70.7649796 314.357328,69.6386719 C314.357328,67.8938715 314.793521,66.5348356 315.665921,65.5615234 C316.538321,64.5882113 317.749247,64.1015625 319.298734,64.1015625 C320.796137,64.1015625 321.985904,64.5996044 322.86807,65.5957031 C323.750236,66.5918019 324.191312,67.9394446 324.191312,69.6386719 Z M316.037015,69.6386719 C316.037015,71.0058662 316.31045,72.0475225 316.857328,72.7636719 C317.404205,73.4798213 318.208234,73.8378906 319.269437,73.8378906 C320.33064,73.8378906 321.136296,73.4814489 321.686429,72.7685547 C322.236562,72.0556605 322.511624,71.0123767 322.511624,69.6386719 C322.511624,68.277988 322.236562,67.2444697 321.686429,66.5380859 C321.136296,65.8317022 320.32413,65.4785156 319.249906,65.4785156 C318.188702,65.4785156 317.387929,65.8268194 316.847562,66.5234375 C316.307195,67.2200556 316.037015,68.2584566 316.037015,69.6386719 Z M340.193334,75 L340.193334,68.0371094 C340.193334,67.1842405 340.011044,66.5445985 339.646459,66.1181641 C339.281874,65.6917296 338.715473,65.4785156 337.94724,65.4785156 C336.93812,65.4785156 336.192685,65.7682263 335.710912,66.3476562 C335.229139,66.9270862 334.988256,67.8190044 334.988256,69.0234375 L334.988256,75 L333.367162,75 L333.367162,68.0371094 C333.367162,67.1842405 333.184872,66.5445985 332.820287,66.1181641 C332.455702,65.6917296 331.886046,65.4785156 331.111303,65.4785156 C330.095673,65.4785156 329.351865,65.7828746 328.879857,66.3916016 C328.40785,67.0003286 328.171849,67.9980399 328.171849,69.3847656 L328.171849,75 L326.550756,75 L326.550756,64.296875 L327.869115,64.296875 L328.132787,65.7617188 L328.210912,65.7617188 C328.516903,65.2408828 328.948214,64.8339858 329.504857,64.5410156 C330.061501,64.2480454 330.684867,64.1015625 331.374974,64.1015625 C333.04816,64.1015625 334.141899,64.7070252 334.656224,65.9179688 L334.734349,65.9179688 C335.053362,65.3580701 335.515596,64.9153662 336.121068,64.5898438 C336.72654,64.2643213 337.416637,64.1015625 338.191381,64.1015625 C339.402324,64.1015625 340.308891,64.4124318 340.911107,65.0341797 C341.513324,65.6559276 341.814428,66.6503838 341.814428,68.0175781 L341.814428,75 L340.193334,75 Z" id="Search-for-roommates" fill="#4A4A4A"></path>
        <g id="illustration-house" transform="translate(60.000000, 156.000000)">
            <g id="Group">
                <g id="Houses">
                    <g id="Building2" transform="translate(74.733096, 110.388186)">
                        <g id="Rectangle-9">
                            <use fill="#FFFFFF" fill-rule="evenodd" xlink:href="#path-1"></use>
                            <rect stroke="#4A4A4A" stroke-width="1" x="0.5" y="0.5" width="148.466192" height="141.540084" rx="2"></rect>
                        </g>
                        <rect id="Rectangle-3" stroke="#4A4A4A" x="74.1654804" y="77.664557" width="33.1637011" height="64.3755274" rx="1"></rect>
                    </g>
                    <g id="Tree" transform="translate(149.466192, 70.734177)">
                        <g id="Rectangle-4">
                            <use fill="#4A4A4A" fill-rule="evenodd" xlink:href="#path-2"></use>
                            <rect stroke="#4A4A4A" stroke-width="1" x="74.1654804" y="54.0864979" width="2.20284698" height="127.607595" rx="1.10142349"></rect>
                        </g>
                        <path d="M150.533808,94.8481013 C122.775801,79.962936 116.370107,55.7299578 73.4807008,55.7299578 C30.5912948,55.7299578 -7.47330961,80.1416386 2.13523132,109.733267 C11.7437722,139.324895 135.587189,123.248945 150.533808,94.8481013 Z" id="Oval-2" fill-opacity="0.6" fill="#49C89F"></path>
                        <path d="M131.316726,56.8016878 C105.69395,46.1985563 111.032028,30.0084388 73.1522037,26.7932489 C35.2723789,23.5780591 20.2846975,42.2455627 20.2846975,65.2613593 C20.2846975,88.2771559 131.316726,79.8174844 131.316726,56.8016878 Z" id="Oval-2" fill-opacity="0.6" fill="#49C89F"></path>
                        <path d="M108.896797,29.3918337 C89.6797153,22.3414907 81.0480069,0 67.2597865,0 C53.4715661,0 40.569395,17.5774765 40.569395,29.3918337 C40.569395,41.206191 108.896797,41.206191 108.896797,29.3918337 Z" id="Oval-2" fill-opacity="0.6" fill="#49C89F"></path>
                        <path d="M131.316726,14.6959169 C120.640569,14.6959169 120.640569,7.5021097 114.234875,5.35864979 C107.829181,3.21518987 101.423488,6.88550461 101.423488,14.6959169 C101.423488,27.8649789 131.316726,20.6030955 131.316726,14.6959169 Z" id="Oval-2-Copy" fill-opacity="0.6" fill="#49C89F"></path>
                    </g>
                    <g id="Building1">
                        <g id="Rectangle-9">
                            <use fill="#FFFFFF" fill-rule="evenodd" xlink:href="#path-3"></use>
                            <rect stroke="#4A4A4A" stroke-width="1" x="0.5" y="0.5" width="148.466192" height="251.92827" rx="2"></rect>
                        </g>
                        <g id="Rectangle-2">
                            <use fill="#FFFFFF" fill-rule="evenodd" xlink:href="#path-4"></use>
                            <rect stroke="#4A4A4A" stroke-width="1" x="32.5284698" y="154.829114" width="84.4092527" height="7.57383966" rx="2"></rect>
                        </g>
                        <g id="Rectangle-2">
                            <use fill="#FFFFFF" fill-rule="evenodd" xlink:href="#path-5"></use>
                            <rect stroke="#4A4A4A" stroke-width="1" x="41.069395" y="162.331224" width="67.3274021" height="90.0970464" rx="2"></rect>
                        </g>
                        <ellipse id="Oval" stroke="#4A4A4A" fill="#FFFFFF" cx="82.2064057" cy="206.843882" rx="3.20284698" ry="3.21518987"></ellipse>
                        <g id="Rectangle-2-Copy">
                            <use fill="#FFFFFF" fill-rule="evenodd" xlink:href="#path-6"></use>
                            <rect stroke="#4A4A4A" stroke-width="1" x="41.069395" y="162.331224" width="33.1637011" height="90.0970464" rx="2"></rect>
                        </g>
                        <ellipse id="Oval" stroke="#4A4A4A" fill="#FFFFFF" cx="67.2597865" cy="206.843882" rx="3.20284698" ry="3.21518987"></ellipse>
                        <g id="Rectangle">
                            <use fill="#FFFFFF" fill-rule="evenodd" xlink:href="#path-7"></use>
                            <rect stroke="#4A4A4A" stroke-width="1" x="19.7170819" y="23.0063291" width="18.2170819" height="18.2911392" rx="2"></rect>
                        </g>
                        <g id="Rectangle">
                            <use fill="#FFFFFF" fill-rule="evenodd" xlink:href="#path-8"></use>
                            <rect stroke="#4A4A4A" stroke-width="1" x="49.6103203" y="23.0063291" width="18.2170819" height="18.2911392" rx="2"></rect>
                        </g>
                        <g id="Rectangle">
                            <use fill="#FFFFFF" fill-rule="evenodd" xlink:href="#path-9"></use>
                            <rect stroke="#4A4A4A" stroke-width="1" x="79.5035587" y="23.0063291" width="18.2170819" height="18.2911392" rx="2"></rect>
                        </g>
                        <g id="Rectangle">
                            <use fill="#FFFFFF" fill-rule="evenodd" xlink:href="#path-10"></use>
                            <rect stroke="#4A4A4A" stroke-width="1" x="109.396797" y="23.0063291" width="18.2170819" height="18.2911392" rx="2"></rect>
                        </g>
                        <g id="Rectangle">
                            <use fill="#FFFFFF" fill-rule="evenodd" xlink:href="#path-11"></use>
                            <rect stroke="#4A4A4A" stroke-width="1" x="19.7170819" y="51.943038" width="18.2170819" height="18.2911392" rx="2"></rect>
                        </g>
                        <g id="Rectangle">
                            <use fill="#FFFFFF" fill-rule="evenodd" xlink:href="#path-12"></use>
                            <rect stroke="#4A4A4A" stroke-width="1" x="49.6103203" y="51.943038" width="18.2170819" height="18.2911392" rx="2"></rect>
                        </g>
                        <g id="Rectangle">
                            <use fill="#FFFFFF" fill-rule="evenodd" xlink:href="#path-13"></use>
                            <rect stroke="#4A4A4A" stroke-width="1" x="79.5035587" y="51.943038" width="18.2170819" height="18.2911392" rx="2"></rect>
                        </g>
                        <g id="Rectangle">
                            <use fill="#FFFFFF" fill-rule="evenodd" xlink:href="#path-14"></use>
                            <rect stroke="#4A4A4A" stroke-width="1" x="109.396797" y="51.943038" width="18.2170819" height="18.2911392" rx="2"></rect>
                        </g>
                        <g id="Rectangle">
                            <use fill="#FFFFFF" fill-rule="evenodd" xlink:href="#path-15"></use>
                            <rect stroke="#4A4A4A" stroke-width="1" x="19.7170819" y="80.8797468" width="18.2170819" height="18.2911392" rx="2"></rect>
                        </g>
                        <g id="Rectangle">
                            <use fill="#FFFFFF" fill-rule="evenodd" xlink:href="#path-16"></use>
                            <rect stroke="#4A4A4A" stroke-width="1" x="49.6103203" y="80.8797468" width="18.2170819" height="18.2911392" rx="2"></rect>
                        </g>
                        <g id="Rectangle">
                            <use fill="#FFFFFF" fill-rule="evenodd" xlink:href="#path-17"></use>
                            <rect stroke="#4A4A4A" stroke-width="1" x="79.5035587" y="80.8797468" width="18.2170819" height="18.2911392" rx="2"></rect>
                        </g>
                        <g id="Rectangle">
                            <use fill="#FFFFFF" fill-rule="evenodd" xlink:href="#path-18"></use>
                            <rect stroke="#4A4A4A" stroke-width="1" x="109.396797" y="80.8797468" width="18.2170819" height="18.2911392" rx="2"></rect>
                        </g>
                        <g id="Rectangle">
                            <use fill="#FFFFFF" fill-rule="evenodd" xlink:href="#path-19"></use>
                            <rect stroke="#4A4A4A" stroke-width="1" x="19.7170819" y="109.816456" width="18.2170819" height="18.2911392" rx="2"></rect>
                        </g>
                        <g id="Rectangle">
                            <use fill="#FFFFFF" fill-rule="evenodd" xlink:href="#path-20"></use>
                            <rect stroke="#4A4A4A" stroke-width="1" x="49.6103203" y="109.816456" width="18.2170819" height="18.2911392" rx="2"></rect>
                        </g>
                        <g id="Rectangle">
                            <use fill="#FFFFFF" fill-rule="evenodd" xlink:href="#path-21"></use>
                            <rect stroke="#4A4A4A" stroke-width="1" x="79.5035587" y="109.816456" width="18.2170819" height="18.2911392" rx="2"></rect>
                        </g>
                        <g id="Rectangle">
                            <use fill="#FFFFFF" fill-rule="evenodd" xlink:href="#path-22"></use>
                            <rect stroke="#4A4A4A" stroke-width="1" x="109.396797" y="109.816456" width="18.2170819" height="18.2911392" rx="2"></rect>
                        </g>
                    </g>
                </g>
            </g>
        </g>
        <g id="Head-1-girl" transform="translate(210.000000, 96.000000)">
            <g id="Head-1" transform="translate(40.906475, 46.000000) scale(-1, 1) translate(-40.906475, -46.000000) translate(0.906475, 0.000000)">
                <g id="Rectangle-3" transform="translate(52.760580, 67.758350) rotate(11.000000) translate(-52.760580, -67.758350) ">
                    <use fill="#FFFFFF" fill-rule="evenodd" xlink:href="#path-23"></use>
                    <path stroke="#4A4A4A" stroke-width="1" d="M49.5757039,61.8185853 L55.8360008,60.6017068 L58.5181663,74.4002522 L46.292802,74.8807332 L47.2616281,73.9653409 C48.5853368,72.714639 49.2413119,71.2831959 49.2501735,69.6450095 C49.2598526,67.8557044 49.3606088,65.3765859 49.5523253,62.205303 L49.5757039,61.8185853 Z"></path>
                </g>
                <path d="M50.0514141,63.2819105 L55.4405917,62.2343605 L57.916142,74.9699626 L47.6050171,75.3752101 C49.0254955,74.0330757 49.7405452,72.4727222 49.7501662,70.6941498 C49.7597872,68.9155773 49.8602032,66.4448309 50.0514141,63.2819105 Z" id="Rectangle-3-Copy-2" fill="#FFFFFF" transform="translate(52.760580, 68.804785) rotate(11.000000) translate(-52.760580, -68.804785) "></path>
                <path d="M57.6952256,64.852845 C72.0837148,64.852845 76.792675,51.9689529 76.792675,36.0758666 C76.792675,20.1827803 71.0372793,7.29888816 57.6952256,7.29888816 C44.353172,7.29888816 38.5977763,20.1827803 38.5977763,36.0758666 C38.5977763,51.9689529 43.3067364,64.852845 57.6952256,64.852845 Z" id="Head" stroke="#4A4A4A" fill="#FFFFFF" transform="translate(57.695226, 36.075867) rotate(6.000000) translate(-57.695226, -36.075867) "></path>
                <path d="M57.4336167,28.2275997 L65.2818836,23.5186396 L68.9444081,25.8731197 L72.6069326,20.9025507 L78.8855461,20.9025507 C74.6998038,13.9263135 70.1652496,9.21735339 65.2818836,6.77567037 C57.9568345,3.11314585 51.7022168,-4.01008289 31.204709,3.63636364 C6.47743623,12.8606933 -0.467202276,64.6106251 0.659254415,62.5454545 C3.56834532,57.2121212 20.0531938,58.1818182 50.1137999,65.4545455 C42.8410726,59.3177349 39.204709,52.5298561 39.204709,45.0909091 C39.204709,37.651962 41.4440811,32.2924678 45.9228254,29.0124264 L57.4336167,28.2275997 Z" id="Hair" stroke="#4A4A4A" fill="#4A4A4A"></path>
                <path d="M71.8796599,39.3041203 C75.3677785,44.2101491 77.1118378,47.3494558 77.1118378,48.7220405 C77.1118378,50.0946253 75.3677785,50.2690312 71.8796599,49.2452583" id="Nose" stroke="#4A4A4A" fill="#FFFFFF"></path>
                <path d="M44.9064748,73 C40.9064748,74.3333333 36.5731415,75.6666667 31.9064748,77 C27.2398082,78.3333333 22.2398082,79.8333333 16.9064748,81.5 C23.5731415,85.1666667 32.5731415,88 43.9064748,90 C55.2398082,92 62.5731415,92 65.9064748,90 L56.9064748,75 C55.5731415,75.6666667 53.9064748,76 51.9064748,76 C49.9064748,76 47.5731415,75 44.9064748,73 Z" id="Path-2" stroke="#4A4A4A"></path>
            </g>
        </g>
        <g id="iconMagnificant" transform="translate(159.000000, 142.000000)">
            <g>
                <circle id="Oval-7" stroke="#4A4A4A" stroke-width="6" fill-opacity="0.2" fill="#FFFFFF" cx="55" cy="55" r="55"></circle>
                <g id="Group" transform="translate(136.000000, 137.500000) rotate(-45.000000) translate(-136.000000, -137.500000) translate(130.000000, 76.000000)">
                    <g id="Rectangle-9">
                        <use fill="#4A4A4A" fill-rule="evenodd" xlink:href="#path-24"></use>
                        <rect stroke="#4A4A4A" stroke-width="1" x="4.5" y="0.5" width="3" height="81"></rect>
                    </g>
                    <g id="Rectangle-9-Copy">
                        <use fill="#4A4A4A" fill-rule="evenodd" xlink:href="#path-25"></use>
                        <rect stroke="#4A4A4A" stroke-width="1" x="0.5" y="41.5" width="11" height="81" rx="2"></rect>
                    </g>
                </g>
            </g>
        </g>
        <text id="2" font-family="OpenSans-Bold, Open Sans" font-size="36" font-weight="bold" letter-spacing="-0.868235409" fill="#4A4A4A">
            <tspan x="190" y="43">2</tspan>
        </text>
    </g>
</svg>