<?xml version="1.0" encoding="UTF-8"?>
<svg width="400px" height="400px" viewBox="0 0 400 400" version="1.1" xmlns="http://www.w3.org/2000/svg" xmlns:xlink="http://www.w3.org/1999/xlink">
    <!-- Generator: Sketch 49.1 (51147) - http://www.bohemiancoding.com/sketch -->
    <title>Artboard 5</title>
    <desc>Created with Sketch.</desc>
    <defs></defs>
    <g id="Artboard-5" stroke="none" stroke-width="1" fill="none" fill-rule="evenodd">
        <g id="Earch" transform="translate(-40.000000, 271.000000)" stroke="#4A4A4A">
            <circle id="Oval" fill="#FFFFFF" cx="248.5" cy="248.5" r="248.5"></circle>
            <path d="M296,40 C270.486225,52.3816848 243.338267,50.0195836 233,58 C222.661733,65.9804164 229.97767,77.0597461 239,84 C248.02233,90.9402539 257.026759,88.9660155 272,88 C286.973241,87.0339845 287.790944,77.0940078 301,80 C314.209056,82.9059922 307.248583,89.8809423 322,99 C336.751417,108.119058 345.142528,109.346798 356,114 C366.857472,118.653202 376.394548,129.421808 378,123 C379.605452,116.578192 365.697206,105.102486 361,94 C356.302794,82.8975135 361.888146,79.1528181 356,71 C350.111854,62.8471819 343.669448,65.9044968 335,58 C326.330552,50.0955032 330.629674,48.3758601 322,40 C313.370326,31.6241399 306.548345,25 301,25 C295.451655,25 321.513775,27.6183152 296,40 Z" id="Path-12" fill="#FFFFFF"></path>
            <path d="M103,90 C116,75 125,83 140.5,73 C150.833333,66.3333333 161,68.6666667 171,80 C182.017974,87.2254902 187.017974,93.8921569 186,100 C184.982026,106.107843 177.982026,111.441176 165,116 L140.5,116 L124,132 L108,146 C92.6814189,172.18789 83.6814189,182.18789 81,176 C78.3185811,169.81211 79.6519144,155.145443 85,132 C88.3333333,114 94.3333333,100 103,90 Z" id="Path-17" fill-opacity="0.6" fill="#49C89F"></path>
        </g>
        <g id="Box" transform="translate(116.000000, 158.000000)" stroke="#4A4A4A">
            <g>
                <polygon id="Path-12" fill="#FFFFFF" points="70.507772 27.1181818 14.9561941 55.6636364 83.3273669 70.65 138.878945 42.1045455"></polygon>
                <polygon id="Path-12-Copy-3" fill="#FFFFFF" points="14.9561941 137.018182 14.9561941 55.6636364 83.3273669 70.65 83.3273669 157"></polygon>
                <polygon id="Path-12-Copy-4" fill="#FCFDA4" points="137.454545 127.027273 137.454545 42.8181818 83.3273669 70.65 83.3273669 157"></polygon>
                <polygon id="Path-12-Copy-2" fill="#FFFFFF" points="0 87.7772727 14.9561941 55.6636364 83.3273669 70.65 65.522374 102.05"></polygon>
                <polygon id="Path-12-Copy" fill="#FFFFFF" points="167.366934 70.65 115.376354 99.9090909 83.3273669 70.65 138.878945 42.1045455"></polygon>
                <g id="Group" transform="translate(53.414979, 0.000000)">
                    <path d="M25.9952897,62.8 C43.3254828,48.0515152 51.9905794,35.8007576 51.9905794,26.0477273 C51.9905794,11.4181818 40.3520917,0 25.9952897,0 C11.6384876,0 0,11.6619647 0,26.0477273 C0,35.6382356 8.66509656,47.8889932 25.9952897,62.8 Z" id="Oval-6" fill="#4A4A4A"></path>
                    <ellipse id="Oval" fill="#FFFFFF" cx="26.3513895" cy="24.2636364" rx="9.25859633" ry="9.27727273"></ellipse>
                </g>
            </g>
        </g>
        <path d="M77.0195312,71.2011719 C77.0195312,72.4576886 76.5638066,73.4374965 75.6523438,74.140625 C74.7408809,74.8437535 73.5039141,75.1953125 71.9414062,75.1953125 C70.2486895,75.1953125 68.9466191,74.9772157 68.0351562,74.5410156 L68.0351562,72.9394531 C68.6210967,73.1868502 69.2591111,73.3821607 69.9492188,73.5253906 C70.6393264,73.6686205 71.3229133,73.7402344 72,73.7402344 C73.1067764,73.7402344 73.9401014,73.5302755 74.5,73.1103516 C75.0598986,72.6904276 75.3398438,72.1061235 75.3398438,71.3574219 C75.3398438,70.8626277 75.2405609,70.4573583 75.0419922,70.1416016 C74.8434235,69.8258448 74.5113956,69.5345065 74.0458984,69.2675781 C73.5804013,69.0006497 72.8724006,68.6979184 71.921875,68.359375 C70.5937434,67.8841122 69.6448596,67.3209668 69.0751953,66.6699219 C68.505531,66.018877 68.2207031,65.1692761 68.2207031,64.1210938 C68.2207031,63.0208278 68.6341104,62.1451855 69.4609375,61.4941406 C70.2877646,60.8430957 71.3815036,60.5175781 72.7421875,60.5175781 C74.1614654,60.5175781 75.4667909,60.7779922 76.6582031,61.2988281 L76.140625,62.7441406 C74.9622337,62.2493465 73.8164118,62.0019531 72.703125,62.0019531 C71.8242144,62.0019531 71.1373723,62.1907533 70.6425781,62.5683594 C70.147784,62.9459654 69.9003906,63.4700487 69.9003906,64.140625 C69.9003906,64.6354191 69.9915355,65.0406885 70.1738281,65.3564453 C70.3561207,65.6722021 70.6637348,65.9619127 71.0966797,66.2255859 C71.5296246,66.4892591 72.1920528,66.7805974 73.0839844,67.0996094 C74.5813877,67.6334662 75.6116508,68.2063771 76.1748047,68.8183594 C76.7379585,69.4303416 77.0195312,70.2246045 77.0195312,71.2011719 Z M88.4512407,69.6386719 C88.4512407,71.3834723 88.011792,72.7457633 87.1328813,73.7255859 C86.2539707,74.7054085 85.0397901,75.1953125 83.4903032,75.1953125 C82.5332672,75.1953125 81.6836663,74.9707054 80.9414751,74.5214844 C80.1992839,74.0722634 79.6263729,73.4277386 79.2227251,72.5878906 C78.8190772,71.7480427 78.6172563,70.7649796 78.6172563,69.6386719 C78.6172563,67.8938715 79.0534499,66.5348356 79.9258501,65.5615234 C80.7982503,64.5882113 82.0091757,64.1015625 83.5586626,64.1015625 C85.0560659,64.1015625 86.2458327,64.5996044 87.1279985,65.5957031 C88.0101644,66.5918019 88.4512407,67.9394446 88.4512407,69.6386719 Z M80.2969438,69.6386719 C80.2969438,71.0058662 80.5703786,72.0475225 81.1172563,72.7636719 C81.6641341,73.4798213 82.4681625,73.8378906 83.5293657,73.8378906 C84.5905689,73.8378906 85.3962249,73.4814489 85.9463579,72.7685547 C86.4964909,72.0556605 86.7715532,71.0123767 86.7715532,69.6386719 C86.7715532,68.277988 86.4964909,67.2444697 85.9463579,66.5380859 C85.3962249,65.8317022 84.5840586,65.4785156 83.5098345,65.4785156 C82.4486312,65.4785156 81.647858,65.8268194 81.1074907,66.5234375 C80.5671234,67.2200556 80.2969438,68.2584566 80.2969438,69.6386719 Z M104.453263,75 L104.453263,68.0371094 C104.453263,67.1842405 104.270973,66.5445985 103.906388,66.1181641 C103.541803,65.6917296 102.975402,65.4785156 102.207169,65.4785156 C101.198049,65.4785156 100.452614,65.7682263 99.9708408,66.3476562 C99.4890676,66.9270862 99.2481846,67.8190044 99.2481846,69.0234375 L99.2481846,75 L97.6270908,75 L97.6270908,68.0371094 C97.6270908,67.1842405 97.444801,66.5445985 97.0802158,66.1181641 C96.7156307,65.6917296 96.1459749,65.4785156 95.3712314,65.4785156 C94.3556014,65.4785156 93.6117937,65.7828746 93.1397861,66.3916016 C92.6677786,67.0003286 92.4317783,67.9980399 92.4317783,69.3847656 L92.4317783,75 L90.8106846,75 L90.8106846,64.296875 L92.1290439,64.296875 L92.3927158,65.7617188 L92.4708408,65.7617188 C92.7768319,65.2408828 93.2081427,64.8339858 93.7647861,64.5410156 C94.3214295,64.2480454 94.9447957,64.1015625 95.6349033,64.1015625 C97.3080888,64.1015625 98.4018278,64.7070252 98.9161533,65.9179688 L98.9942783,65.9179688 C99.3132903,65.3580701 99.7755253,64.9153662 100.380997,64.5898438 C100.986469,64.2643213 101.676566,64.1015625 102.45131,64.1015625 C103.662253,64.1015625 104.56882,64.4124318 105.171036,65.0341797 C105.773253,65.6559276 106.074356,66.6503838 106.074356,68.0175781 L106.074356,75 L104.453263,75 Z M113.453332,75.1953125 C111.871292,75.1953125 110.622932,74.7135465 109.708214,73.75 C108.793496,72.7864535 108.336144,71.4485763 108.336144,69.7363281 C108.336144,68.0110591 108.760944,66.6406301 109.610558,65.625 C110.460172,64.6093699 111.601111,64.1015625 113.03341,64.1015625 C114.374562,64.1015625 115.435749,64.5426388 116.217003,65.4248047 C116.998257,66.3069706 117.388878,67.4706959 117.388878,68.9160156 L117.388878,69.9414062 L110.015832,69.9414062 C110.048384,71.1979229 110.365763,72.1516895 110.96798,72.8027344 C111.570197,73.4537793 112.41817,73.7792969 113.511925,73.7792969 C114.664275,73.7792969 115.803586,73.5384139 116.929894,73.0566406 L116.929894,74.5019531 C116.356974,74.7493502 115.814988,74.9267573 115.303917,75.0341797 C114.792847,75.1416021 114.175991,75.1953125 113.453332,75.1953125 Z M113.013878,65.4589844 C112.154499,65.4589844 111.469285,65.7389295 110.958214,66.2988281 C110.447144,66.8587268 110.14604,67.6334586 110.054894,68.6230469 L115.650597,68.6230469 C115.650597,67.6009063 115.422735,66.8180366 114.967003,66.2744141 C114.511272,65.7307916 113.860237,65.4589844 113.013878,65.4589844 Z M123.127228,73.8574219 C123.413688,73.8574219 123.690378,73.8362632 123.957307,73.7939453 C124.224235,73.7516274 124.435821,73.7076825 124.592072,73.6621094 L124.592072,74.9023438 C124.41629,74.9869796 124.157504,75.0569659 123.815705,75.1123047 C123.473906,75.1676435 123.166292,75.1953125 122.892853,75.1953125 C120.822531,75.1953125 119.787385,74.1048286 119.787385,71.9238281 L119.787385,65.5566406 L118.254182,65.5566406 L118.254182,64.7753906 L119.787385,64.1015625 L120.470978,61.8164062 L121.408478,61.8164062 L121.408478,64.296875 L124.513947,64.296875 L124.513947,65.5566406 L121.408478,65.5566406 L121.408478,71.8554688 C121.408478,72.5000032 121.561472,72.9947899 121.867463,73.3398438 C122.173454,73.6848976 122.593372,73.8574219 123.127228,73.8574219 Z M133.57261,75 L133.57261,68.0761719 C133.57261,67.2037717 133.374044,66.5527365 132.976907,66.1230469 C132.579769,65.6933572 131.958031,65.4785156 131.111672,65.4785156 C129.985365,65.4785156 129.163433,65.7845021 128.645852,66.3964844 C128.128271,67.0084666 127.869485,68.0110607 127.869485,69.4042969 L127.869485,75 L126.248391,75 L126.248391,59.8046875 L127.869485,59.8046875 L127.869485,64.4042969 C127.869485,64.9576851 127.843443,65.4166648 127.79136,65.78125 L127.889016,65.78125 C128.208028,65.2669245 128.662125,64.8616551 129.251321,64.5654297 C129.840516,64.2692042 130.51271,64.1210938 131.267922,64.1210938 C132.576523,64.1210938 133.557958,64.431963 134.212258,65.0537109 C134.866558,65.6754588 135.193704,66.6634047 135.193704,68.0175781 L135.193704,75 L133.57261,75 Z M139.662522,75 L138.041429,75 L138.041429,64.296875 L139.662522,64.296875 L139.662522,75 Z M137.90471,61.3964844 C137.90471,61.0253888 137.995855,60.7535816 138.178147,60.5810547 C138.36044,60.4085278 138.588302,60.3222656 138.861741,60.3222656 C139.122159,60.3222656 139.346766,60.4101554 139.535569,60.5859375 C139.724372,60.7617196 139.818772,61.0318992 139.818772,61.3964844 C139.818772,61.7610695 139.724372,62.0328767 139.535569,62.2119141 C139.346766,62.3909514 139.122159,62.4804688 138.861741,62.4804688 C138.588302,62.4804688 138.36044,62.3909514 138.178147,62.2119141 C137.995855,62.0328767 137.90471,61.7610695 137.90471,61.3964844 Z M149.941888,75 L149.941888,68.0761719 C149.941888,67.2037717 149.743322,66.5527365 149.346185,66.1230469 C148.949048,65.6933572 148.327309,65.4785156 147.480951,65.4785156 C146.361153,65.4785156 145.540849,65.781247 145.020013,66.3867188 C144.499177,66.9921905 144.238763,67.9915295 144.238763,69.3847656 L144.238763,75 L142.617669,75 L142.617669,64.296875 L143.936029,64.296875 L144.199701,65.7617188 L144.277826,65.7617188 C144.609859,65.2343724 145.075349,64.8258478 145.67431,64.5361328 C146.273271,64.2464178 146.940582,64.1015625 147.676263,64.1015625 C148.965332,64.1015625 149.935374,64.4124318 150.586419,65.0341797 C151.237464,65.6559276 151.562982,66.6503838 151.562982,68.0175781 L151.562982,75 L149.941888,75 Z M163.170473,64.296875 L163.170473,65.3222656 L161.188051,65.5566406 C161.370343,65.7845063 161.533102,66.0823549 161.676332,66.4501953 C161.819562,66.8180357 161.891176,67.2330706 161.891176,67.6953125 C161.891176,68.7434948 161.533106,69.580075 160.816957,70.2050781 C160.100808,70.8300813 159.117744,71.1425781 157.867738,71.1425781 C157.548726,71.1425781 157.24925,71.1165367 156.969301,71.0644531 C156.279193,71.4290383 155.934144,71.8880181 155.934144,72.4414062 C155.934144,72.7343765 156.054586,72.9508457 156.295473,73.0908203 C156.536359,73.230795 156.949767,73.3007812 157.535707,73.3007812 L159.430238,73.3007812 C160.589098,73.3007812 161.479389,73.5449194 162.101137,74.0332031 C162.722885,74.5214868 163.033754,75.2311151 163.033754,76.1621094 C163.033754,77.3470111 162.558498,78.2503224 161.607973,78.8720703 C160.657447,79.4938182 159.270742,79.8046875 157.447816,79.8046875 C156.04807,79.8046875 154.968979,79.5442734 154.210512,79.0234375 C153.452044,78.5026016 153.072816,77.7669318 153.072816,76.8164062 C153.072816,76.1653613 153.281148,75.6022159 153.697816,75.1269531 C154.114485,74.6516903 154.700417,74.3294279 155.455629,74.1601562 C155.18219,74.0364577 154.9527,73.8444023 154.767152,73.5839844 C154.581605,73.3235664 154.488832,73.0208351 154.488832,72.6757812 C154.488832,72.2851543 154.592998,71.9433608 154.801332,71.6503906 C155.009666,71.3574204 155.338439,71.0742201 155.78766,70.8007812 C155.234272,70.5729155 154.78343,70.1855496 154.435121,69.6386719 C154.086812,69.0917941 153.91266,68.4668004 153.91266,67.7636719 C153.91266,66.591791 154.264219,65.6884797 154.967348,65.0537109 C155.670476,64.4189421 156.66656,64.1015625 157.955629,64.1015625 C158.515528,64.1015625 159.02008,64.166666 159.469301,64.296875 L163.170473,64.296875 Z M154.635316,76.796875 C154.635316,77.376305 154.879455,77.8157537 155.367738,78.1152344 C155.856022,78.414715 156.555885,78.5644531 157.467348,78.5644531 C158.828032,78.5644531 159.835508,78.3610046 160.489809,77.9541016 C161.144109,77.5471985 161.471254,76.9954462 161.471254,76.2988281 C161.471254,75.7193981 161.292219,75.3173839 160.934144,75.0927734 C160.57607,74.8681629 159.902248,74.7558594 158.91266,74.7558594 L156.969301,74.7558594 C156.23362,74.7558594 155.660709,74.9316389 155.250551,75.2832031 C154.840392,75.6347674 154.635316,76.1393196 154.635316,76.796875 Z M155.514223,67.7246094 C155.514223,68.473311 155.725809,69.0397116 156.148988,69.4238281 C156.572167,69.8079446 157.161354,70 157.916566,70 C159.498606,70 160.289613,69.2317785 160.289613,67.6953125 C160.289613,66.0872315 159.48884,65.2832031 157.887269,65.2832031 C157.125547,65.2832031 156.539615,65.4882792 156.129457,65.8984375 C155.719299,66.3085958 155.514223,66.9173137 155.514223,67.7246094 Z M173.055376,73.8574219 C173.341836,73.8574219 173.618526,73.8362632 173.885454,73.7939453 C174.152382,73.7516274 174.363969,73.7076825 174.52022,73.6621094 L174.52022,74.9023438 C174.344438,74.9869796 174.085651,75.0569659 173.743852,75.1123047 C173.402054,75.1676435 173.09444,75.1953125 172.821001,75.1953125 C170.750678,75.1953125 169.715532,74.1048286 169.715532,71.9238281 L169.715532,65.5566406 L168.182329,65.5566406 L168.182329,64.7753906 L169.715532,64.1015625 L170.399126,61.8164062 L171.336626,61.8164062 L171.336626,64.296875 L174.442095,64.296875 L174.442095,65.5566406 L171.336626,65.5566406 L171.336626,71.8554688 C171.336626,72.5000032 171.489619,72.9947899 171.79561,73.3398438 C172.101601,73.6848976 172.521519,73.8574219 173.055376,73.8574219 Z M181.059351,64.1015625 C181.534614,64.1015625 181.961042,64.1406246 182.338648,64.21875 L182.114039,65.7226562 C181.671328,65.6249995 181.280707,65.5761719 180.942164,65.5761719 C180.076274,65.5761719 179.335721,65.9277309 178.720484,66.6308594 C178.105246,67.3339879 177.797632,68.2096302 177.797632,69.2578125 L177.797632,75 L176.176539,75 L176.176539,64.296875 L177.514429,64.296875 L177.699976,66.2792969 L177.778101,66.2792969 C178.175238,65.5826788 178.653749,65.0455748 179.213648,64.6679688 C179.773547,64.2903627 180.388775,64.1015625 181.059351,64.1015625 Z M185.479342,75 L183.858248,75 L183.858248,64.296875 L185.479342,64.296875 L185.479342,75 Z M183.721529,61.3964844 C183.721529,61.0253888 183.812674,60.7535816 183.994967,60.5810547 C184.177259,60.4085278 184.405122,60.3222656 184.67856,60.3222656 C184.938978,60.3222656 185.163586,60.4101554 185.352389,60.5859375 C185.541192,60.7617196 185.635592,61.0318992 185.635592,61.3964844 C185.635592,61.7610695 185.541192,62.0328767 185.352389,62.2119141 C185.163586,62.3909514 184.938978,62.4804688 184.67856,62.4804688 C184.405122,62.4804688 184.177259,62.3909514 183.994967,62.2119141 C183.812674,62.0328767 183.721529,61.7610695 183.721529,61.3964844 Z M197.194254,64.296875 L197.194254,65.3222656 L195.211832,65.5566406 C195.394125,65.7845063 195.556884,66.0823549 195.700114,66.4501953 C195.843344,66.8180357 195.914957,67.2330706 195.914957,67.6953125 C195.914957,68.7434948 195.556888,69.580075 194.840739,70.2050781 C194.124589,70.8300813 193.141526,71.1425781 191.89152,71.1425781 C191.572508,71.1425781 191.273032,71.1165367 190.993082,71.0644531 C190.302975,71.4290383 189.957926,71.8880181 189.957926,72.4414062 C189.957926,72.7343765 190.078368,72.9508457 190.319254,73.0908203 C190.560141,73.230795 190.973548,73.3007812 191.559489,73.3007812 L193.45402,73.3007812 C194.61288,73.3007812 195.503171,73.5449194 196.124918,74.0332031 C196.746666,74.5214868 197.057536,75.2311151 197.057536,76.1621094 C197.057536,77.3470111 196.58228,78.2503224 195.631754,78.8720703 C194.681229,79.4938182 193.294524,79.8046875 191.471598,79.8046875 C190.071852,79.8046875 188.992761,79.5442734 188.234293,79.0234375 C187.475826,78.5026016 187.096598,77.7669318 187.096598,76.8164062 C187.096598,76.1653613 187.304929,75.6022159 187.721598,75.1269531 C188.138267,74.6516903 188.724198,74.3294279 189.479411,74.1601562 C189.205972,74.0364577 188.976482,73.8444023 188.790934,73.5839844 C188.605386,73.3235664 188.512614,73.0208351 188.512614,72.6757812 C188.512614,72.2851543 188.616779,71.9433608 188.825114,71.6503906 C189.033448,71.3574204 189.362221,71.0742201 189.811442,70.8007812 C189.258054,70.5729155 188.807212,70.1855496 188.458903,69.6386719 C188.110594,69.0917941 187.936442,68.4668004 187.936442,67.7636719 C187.936442,66.591791 188.288001,65.6884797 188.991129,65.0537109 C189.694258,64.4189421 190.690342,64.1015625 191.979411,64.1015625 C192.539309,64.1015625 193.043861,64.166666 193.493082,64.296875 L197.194254,64.296875 Z M188.659098,76.796875 C188.659098,77.376305 188.903236,77.8157537 189.39152,78.1152344 C189.879804,78.414715 190.579666,78.5644531 191.491129,78.5644531 C192.851813,78.5644531 193.85929,78.3610046 194.51359,77.9541016 C195.16789,77.5471985 195.495036,76.9954462 195.495036,76.2988281 C195.495036,75.7193981 195.316001,75.3173839 194.957926,75.0927734 C194.599852,74.8681629 193.92603,74.7558594 192.936442,74.7558594 L190.993082,74.7558594 C190.257402,74.7558594 189.684491,74.9316389 189.274332,75.2832031 C188.864174,75.6347674 188.659098,76.1393196 188.659098,76.796875 Z M189.538004,67.7246094 C189.538004,68.473311 189.749591,69.0397116 190.17277,69.4238281 C190.595949,69.8079446 191.185136,70 191.940348,70 C193.522387,70 194.313395,69.2317785 194.313395,67.6953125 C194.313395,66.0872315 193.512622,65.2832031 191.911051,65.2832031 C191.149329,65.2832031 190.563397,65.4882792 190.153239,65.8984375 C189.74308,66.3085958 189.538004,66.9173137 189.538004,67.7246094 Z M207.668933,64.296875 L207.668933,65.3222656 L205.686511,65.5566406 C205.868803,65.7845063 206.031562,66.0823549 206.174792,66.4501953 C206.318022,66.8180357 206.389636,67.2330706 206.389636,67.6953125 C206.389636,68.7434948 206.031566,69.580075 205.315417,70.2050781 C204.599268,70.8300813 203.616204,71.1425781 202.366198,71.1425781 C202.047186,71.1425781 201.74771,71.1165367 201.467761,71.0644531 C200.777653,71.4290383 200.432604,71.8880181 200.432604,72.4414062 C200.432604,72.7343765 200.553046,72.9508457 200.793933,73.0908203 C201.034819,73.230795 201.448227,73.3007812 202.034167,73.3007812 L203.928698,73.3007812 C205.087558,73.3007812 205.977849,73.5449194 206.599597,74.0332031 C207.221345,74.5214868 207.532214,75.2311151 207.532214,76.1621094 C207.532214,77.3470111 207.056958,78.2503224 206.106433,78.8720703 C205.155907,79.4938182 203.769202,79.8046875 201.946276,79.8046875 C200.54653,79.8046875 199.467439,79.5442734 198.708972,79.0234375 C197.950504,78.5026016 197.571276,77.7669318 197.571276,76.8164062 C197.571276,76.1653613 197.779608,75.6022159 198.196276,75.1269531 C198.612945,74.6516903 199.198877,74.3294279 199.954089,74.1601562 C199.68065,74.0364577 199.45116,73.8444023 199.265612,73.5839844 C199.080064,73.3235664 198.987292,73.0208351 198.987292,72.6757812 C198.987292,72.2851543 199.091458,71.9433608 199.299792,71.6503906 C199.508126,71.3574204 199.836899,71.0742201 200.28612,70.8007812 C199.732732,70.5729155 199.28189,70.1855496 198.933581,69.6386719 C198.585272,69.0917941 198.41112,68.4668004 198.41112,67.7636719 C198.41112,66.591791 198.762679,65.6884797 199.465808,65.0537109 C200.168936,64.4189421 201.16502,64.1015625 202.454089,64.1015625 C203.013987,64.1015625 203.51854,64.166666 203.967761,64.296875 L207.668933,64.296875 Z M199.133776,76.796875 C199.133776,77.376305 199.377914,77.8157537 199.866198,78.1152344 C200.354482,78.414715 201.054345,78.5644531 201.965808,78.5644531 C203.326491,78.5644531 204.333968,78.3610046 204.988268,77.9541016 C205.642569,77.5471985 205.969714,76.9954462 205.969714,76.2988281 C205.969714,75.7193981 205.790679,75.3173839 205.432604,75.0927734 C205.07453,74.8681629 204.400708,74.7558594 203.41112,74.7558594 L201.467761,74.7558594 C200.73208,74.7558594 200.159169,74.9316389 199.749011,75.2832031 C199.338852,75.6347674 199.133776,76.1393196 199.133776,76.796875 Z M200.012683,67.7246094 C200.012683,68.473311 200.224269,69.0397116 200.647448,69.4238281 C201.070627,69.8079446 201.659814,70 202.415026,70 C203.997065,70 204.788073,69.2317785 204.788073,67.6953125 C204.788073,66.0872315 203.9873,65.2832031 202.385729,65.2832031 C201.624007,65.2832031 201.038075,65.4882792 200.627917,65.8984375 C200.217759,66.3085958 200.012683,66.9173137 200.012683,67.7246094 Z M213.90533,75.1953125 C212.32329,75.1953125 211.07493,74.7135465 210.160212,73.75 C209.245494,72.7864535 208.788142,71.4485763 208.788142,69.7363281 C208.788142,68.0110591 209.212942,66.6406301 210.062556,65.625 C210.91217,64.6093699 212.053109,64.1015625 213.485408,64.1015625 C214.82656,64.1015625 215.887747,64.5426388 216.669001,65.4248047 C217.450255,66.3069706 217.840876,67.4706959 217.840876,68.9160156 L217.840876,69.9414062 L210.46783,69.9414062 C210.500382,71.1979229 210.817761,72.1516895 211.419978,72.8027344 C212.022195,73.4537793 212.870168,73.7792969 213.963923,73.7792969 C215.116273,73.7792969 216.255584,73.5384139 217.381892,73.0566406 L217.381892,74.5019531 C216.808972,74.7493502 216.266986,74.9267573 215.755915,75.0341797 C215.244845,75.1416021 214.627989,75.1953125 213.90533,75.1953125 Z M213.465876,65.4589844 C212.606497,65.4589844 211.921283,65.7389295 211.410212,66.2988281 C210.899142,66.8587268 210.598038,67.6334586 210.506892,68.6230469 L216.102595,68.6230469 C216.102595,67.6009063 215.874733,66.8180366 215.419001,66.2744141 C214.96327,65.7307916 214.312235,65.4589844 213.465876,65.4589844 Z M225.005008,64.1015625 C225.480271,64.1015625 225.906699,64.1406246 226.284305,64.21875 L226.059695,65.7226562 C225.616985,65.6249995 225.226364,65.5761719 224.88782,65.5761719 C224.02193,65.5761719 223.281378,65.9277309 222.666141,66.6308594 C222.050903,67.3339879 221.743289,68.2096302 221.743289,69.2578125 L221.743289,75 L220.122195,75 L220.122195,64.296875 L221.460086,64.296875 L221.645633,66.2792969 L221.723758,66.2792969 C222.120895,65.5826788 222.599406,65.0455748 223.159305,64.6679688 C223.719203,64.2903627 224.334431,64.1015625 225.005008,64.1015625 Z M234.708202,72.0800781 C234.708202,73.0761769 234.337112,73.8443983 233.59492,74.3847656 C232.852729,74.9251329 231.811073,75.1953125 230.46992,75.1953125 C229.050642,75.1953125 227.943883,74.9707054 227.149608,74.5214844 L227.149608,73.0175781 C227.663933,73.2779961 228.215686,73.4830722 228.804881,73.6328125 C229.394077,73.7825528 229.962105,73.8574219 230.508983,73.8574219 C231.355341,73.8574219 232.006376,73.7223321 232.462108,73.4521484 C232.917839,73.1819648 233.145702,72.7701851 233.145702,72.2167969 C233.145702,71.8001281 232.965039,71.4436864 232.603709,71.1474609 C232.242379,70.8512355 231.537634,70.5013041 230.489452,70.0976562 C229.493353,69.7265606 228.785352,69.4026707 228.365428,69.1259766 C227.945504,68.8492825 227.633007,68.535158 227.427928,68.1835938 C227.222849,67.8320295 227.120311,67.4121118 227.120311,66.9238281 C227.120311,66.0514279 227.475125,65.3629583 228.184764,64.8583984 C228.894403,64.3538386 229.867701,64.1015625 231.104686,64.1015625 C232.257035,64.1015625 233.383326,64.3359352 234.483592,64.8046875 L233.90742,66.1230469 C232.833196,65.6803363 231.859899,65.4589844 230.987498,65.4589844 C230.219265,65.4589844 229.639844,65.5794259 229.249217,65.8203125 C228.85859,66.0611991 228.66328,66.3932271 228.66328,66.8164062 C228.66328,67.102866 228.736521,67.3470042 228.883006,67.5488281 C229.029491,67.7506521 229.265492,67.9427074 229.591014,68.125 C229.916537,68.3072926 230.54153,68.5709618 231.466014,68.9160156 C232.735552,69.3782575 233.593291,69.8437477 234.039256,70.3125 C234.485222,70.7812523 234.708202,71.3704392 234.708202,72.0800781 Z M245.032558,73.8574219 C245.319018,73.8574219 245.595708,73.8362632 245.862636,73.7939453 C246.129565,73.7516274 246.341151,73.7076825 246.497402,73.6621094 L246.497402,74.9023438 C246.32162,74.9869796 246.062833,75.0569659 245.721035,75.1123047 C245.379236,75.1676435 245.071622,75.1953125 244.798183,75.1953125 C242.72786,75.1953125 241.692714,74.1048286 241.692714,71.9238281 L241.692714,65.5566406 L240.159511,65.5566406 L240.159511,64.7753906 L241.692714,64.1015625 L242.376308,61.8164062 L243.313808,61.8164062 L243.313808,64.296875 L246.419277,64.296875 L246.419277,65.5566406 L243.313808,65.5566406 L243.313808,71.8554688 C243.313808,72.5000032 243.466801,72.9947899 243.772792,73.3398438 C244.078784,73.6848976 244.498701,73.8574219 245.032558,73.8574219 Z M255.477939,75 L255.477939,68.0761719 C255.477939,67.2037717 255.279374,66.5527365 254.882236,66.1230469 C254.485099,65.6933572 253.86336,65.4785156 253.017002,65.4785156 C251.890694,65.4785156 251.068762,65.7845021 250.551182,66.3964844 C250.033601,67.0084666 249.774814,68.0110607 249.774814,69.4042969 L249.774814,75 L248.153721,75 L248.153721,59.8046875 L249.774814,59.8046875 L249.774814,64.4042969 C249.774814,64.9576851 249.748773,65.4166648 249.696689,65.78125 L249.794346,65.78125 C250.113358,65.2669245 250.567455,64.8616551 251.15665,64.5654297 C251.745846,64.2692042 252.41804,64.1210938 253.173252,64.1210938 C254.481852,64.1210938 255.463288,64.431963 256.117588,65.0537109 C256.771888,65.6754588 257.099033,66.6634047 257.099033,68.0175781 L257.099033,75 L255.477939,75 Z M264.468243,75.1953125 C262.886203,75.1953125 261.637844,74.7135465 260.723125,73.75 C259.808407,72.7864535 259.351055,71.4485763 259.351055,69.7363281 C259.351055,68.0110591 259.775856,66.6406301 260.625469,65.625 C261.475083,64.6093699 262.616022,64.1015625 264.048321,64.1015625 C265.389473,64.1015625 266.450661,64.5426388 267.231914,65.4248047 C268.013168,66.3069706 268.403789,67.4706959 268.403789,68.9160156 L268.403789,69.9414062 L261.030743,69.9414062 C261.063295,71.1979229 261.380674,72.1516895 261.982891,72.8027344 C262.585108,73.4537793 263.433081,73.7792969 264.526836,73.7792969 C265.679186,73.7792969 266.818497,73.5384139 267.944805,73.0566406 L267.944805,74.5019531 C267.371886,74.7493502 266.829899,74.9267573 266.318829,75.0341797 C265.807758,75.1416021 265.190902,75.1953125 264.468243,75.1953125 Z M264.028789,65.4589844 C263.16941,65.4589844 262.484196,65.7389295 261.973125,66.2988281 C261.462055,66.8587268 261.160951,67.6334586 261.069805,68.6230469 L266.665508,68.6230469 C266.665508,67.6009063 266.437646,66.8180366 265.981914,66.2744141 C265.526183,65.7307916 264.875148,65.4589844 264.028789,65.4589844 Z M282.722287,75 L282.722287,68.0761719 C282.722287,67.2037717 282.523721,66.5527365 282.126583,66.1230469 C281.729446,65.6933572 281.107707,65.4785156 280.261349,65.4785156 C279.141552,65.4785156 278.321247,65.781247 277.800412,66.3867188 C277.279576,66.9921905 277.019162,67.9915295 277.019162,69.3847656 L277.019162,75 L275.398068,75 L275.398068,64.296875 L276.716427,64.296875 L276.980099,65.7617188 L277.058224,65.7617188 C277.390257,65.2343724 277.855747,64.8258478 278.454708,64.5361328 C279.05367,64.2464178 279.720981,64.1015625 280.456662,64.1015625 C281.74573,64.1015625 282.715773,64.4124318 283.366818,65.0341797 C284.017863,65.6559276 284.34338,66.6503838 284.34338,68.0175781 L284.34338,75 L282.722287,75 Z M291.71259,75.1953125 C290.130551,75.1953125 288.882191,74.7135465 287.967473,73.75 C287.052754,72.7864535 286.595402,71.4485763 286.595402,69.7363281 C286.595402,68.0110591 287.020203,66.6406301 287.869816,65.625 C288.71943,64.6093699 289.860369,64.1015625 291.292668,64.1015625 C292.63382,64.1015625 293.695008,64.5426388 294.476262,65.4248047 C295.257516,66.3069706 295.648137,67.4706959 295.648137,68.9160156 L295.648137,69.9414062 L288.27509,69.9414062 C288.307642,71.1979229 288.625022,72.1516895 289.227238,72.8027344 C289.829455,73.4537793 290.677428,73.7792969 291.771183,73.7792969 C292.923533,73.7792969 294.062845,73.5384139 295.189152,73.0566406 L295.189152,74.5019531 C294.616233,74.7493502 294.074246,74.9267573 293.563176,75.0341797 C293.052105,75.1416021 292.43525,75.1953125 291.71259,75.1953125 Z M291.273137,65.4589844 C290.413757,65.4589844 289.728543,65.7389295 289.217473,66.2988281 C288.706402,66.8587268 288.405299,67.6334586 288.314152,68.6230469 L293.909855,68.6230469 C293.909855,67.6009063 293.681993,66.8180366 293.226262,66.2744141 C292.77053,65.7307916 292.119495,65.4589844 291.273137,65.4589844 Z M302.45094,75.1953125 C300.868901,75.1953125 299.620541,74.7135465 298.705823,73.75 C297.791105,72.7864535 297.333752,71.4485763 297.333752,69.7363281 C297.333752,68.0110591 297.758553,66.6406301 298.608166,65.625 C299.45778,64.6093699 300.598719,64.1015625 302.031018,64.1015625 C303.37217,64.1015625 304.433358,64.5426388 305.214612,65.4248047 C305.995866,66.3069706 306.386487,67.4706959 306.386487,68.9160156 L306.386487,69.9414062 L299.01344,69.9414062 C299.045992,71.1979229 299.363372,72.1516895 299.965588,72.8027344 C300.567805,73.4537793 301.415778,73.7792969 302.509534,73.7792969 C303.661883,73.7792969 304.801195,73.5384139 305.927502,73.0566406 L305.927502,74.5019531 C305.354583,74.7493502 304.812596,74.9267573 304.301526,75.0341797 C303.790456,75.1416021 303.1736,75.1953125 302.45094,75.1953125 Z M302.011487,65.4589844 C301.152107,65.4589844 300.466893,65.7389295 299.955823,66.2988281 C299.444752,66.8587268 299.143649,67.6334586 299.052502,68.6230469 L304.648205,68.6230469 C304.648205,67.6009063 304.420343,66.8180366 303.964612,66.2744141 C303.50888,65.7307916 302.857845,65.4589844 302.011487,65.4589844 Z M315.952962,73.5644531 L315.865071,73.5644531 C315.11637,74.6516981 313.996589,75.1953125 312.505696,75.1953125 C311.10595,75.1953125 310.017093,74.7168017 309.239095,73.7597656 C308.461096,72.8027296 308.072102,71.4420661 308.072102,69.6777344 C308.072102,67.9134026 308.462724,66.5429736 309.243977,65.5664062 C310.025231,64.5898389 311.11246,64.1015625 312.505696,64.1015625 C313.957526,64.1015625 315.070796,64.628901 315.84554,65.6835938 L315.972493,65.6835938 L315.904134,64.9121094 L315.865071,64.1601562 L315.865071,59.8046875 L317.486165,59.8046875 L317.486165,75 L316.167806,75 L315.952962,73.5644531 Z M312.710774,73.8378906 C313.817551,73.8378906 314.619951,73.5367869 315.118001,72.9345703 C315.61605,72.3323538 315.865071,71.3606838 315.865071,70.0195312 L315.865071,69.6777344 C315.865071,68.1607997 315.612795,67.0784538 315.108235,66.4306641 C314.603675,65.7828744 313.798019,65.4589844 312.691243,65.4589844 C311.740717,65.4589844 311.013186,65.8284468 310.508626,66.5673828 C310.004066,67.3063188 309.75179,68.3496026 309.75179,69.6972656 C309.75179,71.06446 310.002438,72.0963507 310.503743,72.7929688 C311.005048,73.4895868 311.740717,73.8378906 312.710774,73.8378906 Z M320.206937,73.9648438 C320.206937,73.5286437 320.30622,73.1982433 320.504788,72.9736328 C320.703357,72.7490223 320.988185,72.6367188 321.359281,72.6367188 C321.736887,72.6367188 322.03148,72.7490223 322.24307,72.9736328 C322.454659,73.1982433 322.560453,73.5286437 322.560453,73.9648438 C322.560453,74.3880229 322.453032,74.7135405 322.238187,74.9414062 C322.023342,75.169272 321.730376,75.2832031 321.359281,75.2832031 C321.027248,75.2832031 320.752185,75.1806651 320.534085,74.9755859 C320.315985,74.7705068 320.206937,74.4335961 320.206937,73.9648438 Z M325.382718,73.9648438 C325.382718,73.5286437 325.482001,73.1982433 325.68057,72.9736328 C325.879138,72.7490223 326.163966,72.6367188 326.535062,72.6367188 C326.912668,72.6367188 327.207261,72.7490223 327.418851,72.9736328 C327.630441,73.1982433 327.736234,73.5286437 327.736234,73.9648438 C327.736234,74.3880229 327.628813,74.7135405 327.413968,74.9414062 C327.199123,75.169272 326.906158,75.2832031 326.535062,75.2832031 C326.203029,75.2832031 325.927967,75.1806651 325.709867,74.9755859 C325.491767,74.7705068 325.382718,74.4335961 325.382718,73.9648438 Z M330.568265,73.9648438 C330.568265,73.5286437 330.667548,73.1982433 330.866117,72.9736328 C331.064685,72.7490223 331.349513,72.6367188 331.720609,72.6367188 C332.098215,72.6367188 332.392808,72.7490223 332.604398,72.9736328 C332.815987,73.1982433 332.921781,73.5286437 332.921781,73.9648438 C332.921781,74.3880229 332.81436,74.7135405 332.599515,74.9414062 C332.38467,75.169272 332.091704,75.2832031 331.720609,75.2832031 C331.388576,75.2832031 331.113514,75.1806651 330.895413,74.9755859 C330.677313,74.7705068 330.568265,74.4335961 330.568265,73.9648438 Z" id="Something-triggers-t" fill="#4A4A4A"></path>
        <text id="1" font-family="OpenSans-Bold, Open Sans" font-size="36" font-weight="bold" letter-spacing="-0.868235469" fill="#4A4A4A">
            <tspan x="190" y="43">1</tspan>
        </text>
        <path d="M80.0302734,103.425781 C80.0302734,102.904294 80.1489246,102.510255 80.3862305,102.243652 C80.6235363,101.977049 80.9560525,101.84375 81.3837891,101.84375 C81.8115256,101.84375 82.1440418,101.981444 82.3813477,102.256836 C82.6186535,102.532228 82.7373047,102.921872 82.7373047,103.425781 C82.7373047,103.923831 82.6171887,104.313475 82.3769531,104.594727 C82.1367175,104.875978 81.8056662,105.016602 81.3837891,105.016602 C80.961912,105.016602 80.6308606,104.878908 80.390625,104.603516 C80.1503894,104.328124 80.0302734,103.935549 80.0302734,103.425781 Z M110.470703,110 L105.680664,98.1347656 L105.610352,98.1347656 C105.657227,98.8613318 105.680664,99.6054649 105.680664,100.367188 L105.680664,110 L104.819336,110 L104.819336,97.1503906 L106.208008,97.1503906 L110.760742,108.453125 L110.813477,108.453125 L115.366211,97.1503906 L116.719727,97.1503906 L116.719727,110 L115.814453,110 L115.814453,100.261719 C115.814453,99.5820279 115.849609,98.8789099 115.919922,98.1523438 L115.849609,98.1523438 L111.041992,110 L110.470703,110 Z M127.597132,105.209961 C127.597132,106.768562 127.219206,107.985835 126.463343,108.861816 C125.70748,109.737797 124.664522,110.175781 123.334437,110.175781 C122.496542,110.175781 121.758268,109.973635 121.119593,109.569336 C120.480918,109.165037 119.991665,108.584965 119.65182,107.829102 C119.311974,107.073238 119.142054,106.2002 119.142054,105.209961 C119.142054,103.651359 119.51998,102.437016 120.275843,101.566895 C121.031706,100.696773 122.068805,100.261719 123.387171,100.261719 C124.699678,100.261719 125.729453,100.702632 126.476527,101.584473 C127.223601,102.466313 127.597132,103.674797 127.597132,105.209961 Z M120.056117,105.209961 C120.056117,106.522468 120.344688,107.546383 120.921839,108.281738 C121.498991,109.017094 122.3149,109.384766 123.369593,109.384766 C124.424286,109.384766 125.240196,109.017094 125.817347,108.281738 C126.394498,107.546383 126.68307,106.522468 126.68307,105.209961 C126.68307,103.891595 126.391569,102.869144 125.808558,102.142578 C125.225547,101.416012 124.406708,101.052734 123.352015,101.052734 C122.297322,101.052734 121.484342,101.414547 120.91305,102.138184 C120.341758,102.86182 120.056117,103.885736 120.056117,105.209961 Z M131.539968,110 L127.848561,100.446289 L128.745046,100.446289 L131.214772,106.941406 C131.542899,107.773442 131.78899,108.499997 131.953054,109.121094 L132.005788,109.121094 C132.246024,108.324215 132.492115,107.5918 132.744069,106.923828 L135.213796,100.446289 L136.11028,100.446289 L132.418874,110 L131.539968,110 Z M141.13417,110.175781 C139.745491,110.175781 138.662983,109.748051 137.886612,108.892578 C137.110241,108.037105 136.722061,106.838875 136.722061,105.297852 C136.722061,103.774406 137.097057,102.554204 137.847061,101.637207 C138.597065,100.72021 139.607797,100.261719 140.879287,100.261719 C142.004293,100.261719 142.891979,100.654293 143.542373,101.439453 C144.192767,102.224613 144.517959,103.291009 144.517959,104.638672 L144.517959,105.341797 L137.636123,105.341797 C137.647842,106.654303 137.953991,107.656247 138.55458,108.347656 C139.155169,109.039066 140.015024,109.384766 141.13417,109.384766 C141.679095,109.384766 142.158094,109.34668 142.571182,109.270508 C142.98427,109.194336 143.507214,109.030275 144.14003,108.77832 L144.14003,109.569336 C143.600964,109.803712 143.102923,109.963378 142.645889,110.04834 C142.188855,110.133301 141.684954,110.175781 141.13417,110.175781 Z M140.879287,101.035156 C139.959361,101.035156 139.221087,101.338376 138.664444,101.944824 C138.1078,102.551273 137.782608,103.425776 137.688858,104.568359 L143.595108,104.568359 C143.595108,103.460932 143.354876,102.595218 142.874405,101.971191 C142.393933,101.347165 141.728901,101.035156 140.879287,101.035156 Z M153.484685,109.402344 C154.035469,109.402344 154.515933,109.355469 154.926091,109.261719 L154.926091,109.964844 C154.504214,110.105469 154.017891,110.175781 153.467107,110.175781 C152.623352,110.175781 152.0008,109.950198 151.599431,109.499023 C151.198062,109.047849 150.99738,108.338872 150.99738,107.37207 L150.99738,101.202148 L149.582341,101.202148 L149.582341,100.692383 L150.99738,100.296875 L151.436833,98.1347656 L151.885075,98.1347656 L151.885075,100.446289 L154.688786,100.446289 L154.688786,101.202148 L151.885075,101.202148 L151.885075,107.249023 C151.885075,107.981449 152.01398,108.523436 152.271794,108.875 C152.529608,109.226564 152.933901,109.402344 153.484685,109.402344 Z M164.45877,105.209961 C164.45877,106.768562 164.080844,107.985835 163.324981,108.861816 C162.569118,109.737797 161.52616,110.175781 160.196075,110.175781 C159.35818,110.175781 158.619906,109.973635 157.981231,109.569336 C157.342556,109.165037 156.853303,108.584965 156.513458,107.829102 C156.173612,107.073238 156.003692,106.2002 156.003692,105.209961 C156.003692,103.651359 156.381618,102.437016 157.137481,101.566895 C157.893344,100.696773 158.930443,100.261719 160.248809,100.261719 C161.561316,100.261719 162.591091,100.702632 163.338165,101.584473 C164.085239,102.466313 164.45877,103.674797 164.45877,105.209961 Z M156.917755,105.209961 C156.917755,106.522468 157.206326,107.546383 157.783477,108.281738 C158.360629,109.017094 159.176538,109.384766 160.231231,109.384766 C161.285924,109.384766 162.101834,109.017094 162.678985,108.281738 C163.256136,107.546383 163.544708,106.522468 163.544708,105.209961 C163.544708,103.891595 163.253207,102.869144 162.670196,102.142578 C162.087185,101.416012 161.268346,101.052734 160.213653,101.052734 C159.15896,101.052734 158.34598,101.414547 157.774688,102.138184 C157.203396,102.86182 156.917755,103.885736 156.917755,105.209961 Z M176.712605,110 L176.492878,108.488281 L176.422566,108.488281 C175.942095,109.103519 175.448447,109.538573 174.941609,109.793457 C174.43477,110.048341 173.835655,110.175781 173.144246,110.175781 C172.206741,110.175781 171.477256,109.935549 170.955769,109.455078 C170.434282,108.974607 170.173542,108.309575 170.173542,107.459961 C170.173542,106.528316 170.561722,105.80469 171.338093,105.289062 C172.114464,104.773435 173.237988,104.500977 174.708699,104.47168 L176.528035,104.418945 L176.528035,103.786133 C176.528035,102.877925 176.343466,102.192385 175.974324,101.729492 C175.605181,101.266599 175.010461,101.035156 174.190144,101.035156 C173.305374,101.035156 172.388391,101.281248 171.439167,101.773438 L171.113972,101.017578 C172.162806,100.525388 173.199905,100.279297 174.2253,100.279297 C175.274134,100.279297 176.057817,100.551755 176.576375,101.09668 C177.094932,101.641604 177.354207,102.491205 177.354207,103.645508 L177.354207,110 L176.712605,110 Z M173.19698,109.384766 C174.216516,109.384766 175.020708,109.093265 175.609578,108.510254 C176.198448,107.927243 176.492878,107.117193 176.492878,106.080078 L176.492878,105.139648 L174.822957,105.209961 C173.481153,105.274414 172.52462,105.483885 171.953328,105.838379 C171.382036,106.192873 171.096394,106.745113 171.096394,107.495117 C171.096394,108.092776 171.279498,108.557127 171.64571,108.888184 C172.011923,109.21924 172.529008,109.384766 173.19698,109.384766 Z M190.917612,110 L190.917612,103.803711 C190.917612,102.842769 190.715465,102.144045 190.311166,101.70752 C189.906868,101.270994 189.279921,101.052734 188.430307,101.052734 C187.287723,101.052734 186.451306,101.341306 185.92103,101.918457 C185.390754,102.495608 185.12562,103.431634 185.12562,104.726562 L185.12562,110 L184.255502,110 L184.255502,100.446289 L184.993784,100.446289 L185.160776,101.755859 L185.21351,101.755859 C185.834607,100.759761 186.939088,100.261719 188.526987,100.261719 C190.694966,100.261719 191.77894,101.424793 191.77894,103.750977 L191.77894,110 L190.917612,110 Z M198.296971,110.175781 C196.908292,110.175781 195.825783,109.748051 195.049412,108.892578 C194.273041,108.037105 193.884861,106.838875 193.884861,105.297852 C193.884861,103.774406 194.259857,102.554204 195.009861,101.637207 C195.759865,100.72021 196.770597,100.261719 198.042088,100.261719 C199.167093,100.261719 200.05478,100.654293 200.705174,101.439453 C201.355568,102.224613 201.68076,103.291009 201.68076,104.638672 L201.68076,105.341797 L194.798924,105.341797 C194.810642,106.654303 195.116792,107.656247 195.717381,108.347656 C196.31797,109.039066 197.177824,109.384766 198.296971,109.384766 C198.841895,109.384766 199.320894,109.34668 199.733982,109.270508 C200.14707,109.194336 200.670014,109.030275 201.30283,108.77832 L201.30283,109.569336 C200.763765,109.803712 200.265723,109.963378 199.808689,110.04834 C199.351656,110.133301 198.847755,110.175781 198.296971,110.175781 Z M198.042088,101.035156 C197.122161,101.035156 196.383887,101.338376 195.827244,101.944824 C195.270601,102.551273 194.945409,103.425776 194.851658,104.568359 L200.757908,104.568359 C200.757908,103.460932 200.517676,102.595218 200.037205,101.971191 C199.556734,101.347165 198.891701,101.035156 198.042088,101.035156 Z M211.160704,110 L209.068907,103.610352 C208.934141,103.176756 208.761291,102.54102 208.550353,101.703125 L208.497618,101.703125 L208.313048,102.353516 L207.91754,103.62793 L205.790587,110 L204.929259,110 L202.195861,100.446289 L203.127501,100.446289 L204.656798,105.983398 C205.014222,107.354499 205.248594,108.362301 205.359923,109.006836 L205.412657,109.006836 C205.758362,107.635735 206.010313,106.724612 206.168517,106.273438 L208.137267,100.446289 L208.928282,100.446289 L210.800353,106.255859 C211.22223,107.632819 211.48004,108.543943 211.57379,108.989258 L211.626525,108.989258 C211.6734,108.608397 211.907773,107.588875 212.32965,105.930664 L213.788634,100.446289 L214.66754,100.446289 L212.074767,110 L211.160704,110 Z M224.16161,110.175781 C222.796368,110.175781 221.727043,109.745121 220.953602,108.883789 C220.18016,108.022457 219.793445,106.821297 219.793445,105.280273 C219.793445,103.698234 220.194809,102.466313 220.997547,101.584473 C221.800285,100.702632 222.898907,100.261719 224.293445,100.261719 C225.119621,100.261719 225.910629,100.405272 226.666492,100.692383 L226.429188,101.46582 C225.603012,101.190428 224.885245,101.052734 224.275867,101.052734 C223.103986,101.052734 222.2163,101.414547 221.612781,102.138184 C221.009263,102.86182 220.707508,103.903314 220.707508,105.262695 C220.707508,106.551764 221.009263,107.561032 221.612781,108.290527 C222.2163,109.020023 223.060042,109.384766 224.144031,109.384766 C225.011223,109.384766 225.816879,109.229494 226.561024,108.918945 L226.561024,109.727539 C225.951646,110.026369 225.151849,110.175781 224.16161,110.175781 Z M229.334914,110 L228.464796,110 L228.464796,100.446289 L229.334914,100.446289 L229.334914,110 Z M228.34175,97.7919922 C228.34175,97.2294894 228.526318,96.9482422 228.895461,96.9482422 C229.077102,96.9482422 229.219191,97.0214836 229.32173,97.1679688 C229.42427,97.3144539 229.475539,97.5224596 229.475539,97.7919922 C229.475539,98.0556654 229.42427,98.2636711 229.32173,98.4160156 C229.219191,98.5683601 229.077102,98.6445312 228.895461,98.6445312 C228.526318,98.6445312 228.34175,98.3603544 228.34175,97.7919922 Z M234.622476,109.402344 C235.17326,109.402344 235.653724,109.355469 236.063882,109.261719 L236.063882,109.964844 C235.642005,110.105469 235.155682,110.175781 234.604897,110.175781 C233.761143,110.175781 233.138591,109.950198 232.737222,109.499023 C232.335853,109.047849 232.135171,108.338872 232.135171,107.37207 L232.135171,101.202148 L230.720132,101.202148 L230.720132,100.692383 L232.135171,100.296875 L232.574624,98.1347656 L233.022866,98.1347656 L233.022866,100.446289 L235.826577,100.446289 L235.826577,101.202148 L233.022866,101.202148 L233.022866,107.249023 C233.022866,107.981449 233.151771,108.523436 233.409585,108.875 C233.667399,109.226564 234.071692,109.402344 234.622476,109.402344 Z M236.095584,100.446289 L236.992069,100.446289 L239.013553,105.807617 C239.628791,107.45411 240.018435,108.56445 240.182499,109.138672 L240.235233,109.138672 C240.481328,108.382809 240.882691,107.25489 241.439334,105.754883 L243.460819,100.446289 L244.357303,100.446289 L240.07703,111.546875 C239.731325,112.449223 239.441289,113.058592 239.206913,113.375 C238.972536,113.691408 238.698613,113.92871 238.385135,114.086914 C238.071657,114.245118 237.692266,114.324219 237.246952,114.324219 C236.912966,114.324219 236.540899,114.262696 236.130741,114.139648 L236.130741,113.383789 C236.470586,113.47754 236.836793,113.524414 237.229374,113.524414 C237.528203,113.524414 237.791872,113.454102 238.020389,113.313477 C238.248906,113.172851 238.455447,112.954591 238.640018,112.658691 C238.824589,112.362791 239.038454,111.894046 239.28162,111.252441 C239.524785,110.610837 239.681522,110.19336 239.751834,110 L236.095584,100.446289 Z" id="•-Move-to-a-new-city" fill="#4A4A4A"></path>
    </g>
</svg>