<?xml version="1.0" encoding="UTF-8"?>
<svg width="400px" height="400px" viewBox="0 0 400 400" version="1.1" xmlns="http://www.w3.org/2000/svg" xmlns:xlink="http://www.w3.org/1999/xlink">
    <!-- Generator: Sketch 49.1 (51147) - http://www.bohemiancoding.com/sketch -->
    <title>Artboard 5</title>
    <desc>Created with Sketch.</desc>
    <defs>
        <path d="M22.4317282,69.9984697 L28.8692693,68.7471384 L31.8263914,83.9602131 L19.5094306,84.4442939 C21.2062364,82.8410724 22.0603856,80.9771815 22.0718782,78.8526211 C22.0833708,76.7280607 22.2033208,73.7766769 22.4317282,69.9984697 Z" id="path-1"></path>
        <path d="M34.2394175,69.8033182 L42.3644175,69.8033182 C42.7457574,71.7651415 43.2771942,74.4991468 43.9587279,78.0053341 C44.6402617,81.5115215 46.2605278,83.8341272 48.8195261,84.9731511 L34.7086353,87.7160304 L35.000147,79.2431484 L34.2394175,69.8033182 Z" id="path-2"></path>
        <path d="M46.1113591,20 L46.1113591,24.0977182 L42.0136409,20 L2,20 C0.8954305,20 1.3527075e-16,19.1045695 0,18 L0,2 C-1.3527075e-16,0.8954305 0.8954305,2.02906125e-16 2,0 L60.5,0 C61.6045695,-2.02906125e-16 62.5,0.8954305 62.5,2 L62.5,18 C62.5,19.1045695 61.6045695,20 60.5,20 L46.1113591,20 Z" id="path-3"></path>
        <path d="M15.2090774,20 L10.4863591,24.7227182 L10.4863591,20 L2,20 C0.8954305,20 1.3527075e-16,19.1045695 0,18 L0,2 C-1.3527075e-16,0.8954305 0.8954305,2.02906125e-16 2,0 L84.875,0 C85.9795695,-2.02906125e-16 86.875,0.8954305 86.875,2 L86.875,18 C86.875,19.1045695 85.9795695,20 84.875,20 L15.2090774,20 Z" id="path-4"></path>
        <path d="M14.2363591,20 L10.3125,23.9238591 L10.3125,20 L2,20 C0.8954305,20 1.3527075e-16,19.1045695 0,18 L0,2 C-1.3527075e-16,0.8954305 0.8954305,2.02906125e-16 2,0 L60.5,0 C61.6045695,-2.02906125e-16 62.5,0.8954305 62.5,2 L62.5,18 C62.5,19.1045695 61.6045695,20 60.5,20 L14.2363591,20 Z" id="path-5"></path>
    </defs>
    <g id="Artboard-5" stroke="none" stroke-width="1" fill="none" fill-rule="evenodd">
        <path d="M55.0761719,67.0019531 C53.5071536,67.0019531 52.2685592,67.5244088 51.3603516,68.5693359 C50.4521439,69.614263 49.9980469,71.0449128 49.9980469,72.8613281 C49.9980469,74.7298271 50.435868,76.1734975 51.3115234,77.1923828 C52.1871789,78.2112681 53.4355388,78.7207031 55.0566406,78.7207031 C56.0527394,78.7207031 57.1887957,78.5416685 58.4648438,78.1835938 L58.4648438,79.6386719 C57.4752555,80.0097675 56.2545646,80.1953125 54.8027344,80.1953125 C52.6998593,80.1953125 51.0771542,79.557298 49.9345703,78.28125 C48.7919865,77.005202 48.2207031,75.192069 48.2207031,72.8417969 C48.2207031,71.3704354 48.4957655,70.0813857 49.0458984,68.9746094 C49.5960314,67.867833 50.3902943,67.014977 51.4287109,66.4160156 C52.4671276,65.8170543 53.6894461,65.5175781 55.0957031,65.5175781 C56.5931064,65.5175781 57.9016871,65.7910129 59.0214844,66.3378906 L58.3183594,67.7636719 C57.2376248,67.2558568 56.1569064,67.0019531 55.0761719,67.0019531 Z M70.0918657,74.6386719 C70.0918657,76.3834723 69.652417,77.7457633 68.7735063,78.7255859 C67.8945957,79.7054085 66.6804151,80.1953125 65.1309282,80.1953125 C64.1738922,80.1953125 63.3242913,79.9707054 62.5821001,79.5214844 C61.8399089,79.0722634 61.2669979,78.4277386 60.8633501,77.5878906 C60.4597022,76.7480427 60.2578813,75.7649796 60.2578813,74.6386719 C60.2578813,72.8938715 60.6940749,71.5348356 61.5664751,70.5615234 C62.4388753,69.5882113 63.6498007,69.1015625 65.1992876,69.1015625 C66.6966909,69.1015625 67.8864577,69.5996044 68.7686235,70.5957031 C69.6507894,71.5918019 70.0918657,72.9394446 70.0918657,74.6386719 Z M61.9375688,74.6386719 C61.9375688,76.0058662 62.2110036,77.0475225 62.7578813,77.7636719 C63.3047591,78.4798213 64.1087875,78.8378906 65.1699907,78.8378906 C66.2311939,78.8378906 67.0368499,78.4814489 67.5869829,77.7685547 C68.1371159,77.0556605 68.4121782,76.0123767 68.4121782,74.6386719 C68.4121782,73.277988 68.1371159,72.2444697 67.5869829,71.5380859 C67.0368499,70.8317022 66.2246836,70.4785156 65.1504595,70.4785156 C64.0892562,70.4785156 63.288483,70.8268194 62.7481157,71.5234375 C62.2077484,72.2200556 61.9375688,73.2584566 61.9375688,74.6386719 Z M86.0938877,80 L86.0938877,73.0371094 C86.0938877,72.1842405 85.9115978,71.5445985 85.5470127,71.1181641 C85.1824275,70.6917296 84.6160269,70.4785156 83.8477939,70.4785156 C82.8386743,70.4785156 82.0932391,70.7682263 81.6114658,71.3476562 C81.1296926,71.9270862 80.8888096,72.8190044 80.8888096,74.0234375 L80.8888096,80 L79.2677158,80 L79.2677158,73.0371094 C79.2677158,72.1842405 79.085426,71.5445985 78.7208408,71.1181641 C78.3562557,70.6917296 77.7865999,70.4785156 77.0118564,70.4785156 C75.9962264,70.4785156 75.2524187,70.7828746 74.7804111,71.3916016 C74.3084036,72.0003286 74.0724033,72.9980399 74.0724033,74.3847656 L74.0724033,80 L72.4513096,80 L72.4513096,69.296875 L73.7696689,69.296875 L74.0333408,70.7617188 L74.1114658,70.7617188 C74.4174569,70.2408828 74.8487677,69.8339858 75.4054111,69.5410156 C75.9620545,69.2480454 76.5854207,69.1015625 77.2755283,69.1015625 C78.9487138,69.1015625 80.0424528,69.7070252 80.5567783,70.9179688 L80.6349033,70.9179688 C80.9539153,70.3580701 81.4161503,69.9153662 82.0216221,69.5898438 C82.6270938,69.2643213 83.3171911,69.1015625 84.0919346,69.1015625 C85.3028781,69.1015625 86.2094446,69.4124318 86.8116611,70.0341797 C87.4138777,70.6559276 87.7149814,71.6503838 87.7149814,73.0175781 L87.7149814,80 L86.0938877,80 Z M104.21505,80 L104.21505,73.0371094 C104.21505,72.1842405 104.03276,71.5445985 103.668175,71.1181641 C103.30359,70.6917296 102.73719,70.4785156 101.968957,70.4785156 C100.959837,70.4785156 100.214402,70.7682263 99.7326284,71.3476562 C99.2508552,71.9270862 99.0099722,72.8190044 99.0099722,74.0234375 L99.0099722,80 L97.3888784,80 L97.3888784,73.0371094 C97.3888784,72.1842405 97.2065886,71.5445985 96.8420034,71.1181641 C96.4774182,70.6917296 95.9077625,70.4785156 95.133019,70.4785156 C94.117389,70.4785156 93.3735813,70.7828746 92.9015737,71.3916016 C92.4295661,72.0003286 92.1935659,72.9980399 92.1935659,74.3847656 L92.1935659,80 L90.5724722,80 L90.5724722,69.296875 L91.8908315,69.296875 L92.1545034,70.7617188 L92.2326284,70.7617188 C92.5386195,70.2408828 92.9699303,69.8339858 93.5265737,69.5410156 C94.0832171,69.2480454 94.7065833,69.1015625 95.3966909,69.1015625 C97.0698764,69.1015625 98.1636154,69.7070252 98.6779409,70.9179688 L98.7560659,70.9179688 C99.0750779,70.3580701 99.5373129,69.9153662 100.142785,69.5898438 C100.748256,69.2643213 101.438354,69.1015625 102.213097,69.1015625 C103.424041,69.1015625 104.330607,69.4124318 104.932824,70.0341797 C105.53504,70.6559276 105.836144,71.6503838 105.836144,73.0175781 L105.836144,80 L104.21505,80 Z M110.217072,69.296875 L110.217072,76.2402344 C110.217072,77.1126346 110.415638,77.7636697 110.812775,78.1933594 C111.209913,78.623049 111.831651,78.8378906 112.67801,78.8378906 C113.797807,78.8378906 114.616484,78.5319041 115.134064,77.9199219 C115.651645,77.3079396 115.910432,76.3086007 115.910432,74.921875 L115.910432,69.296875 L117.531525,69.296875 L117.531525,80 L116.193635,80 L115.95926,78.5644531 L115.871369,78.5644531 C115.539336,79.0917995 115.078729,79.4954413 114.489533,79.7753906 C113.900338,80.0553399 113.228144,80.1953125 112.472932,80.1953125 C111.170842,80.1953125 110.195917,79.8860708 109.548127,79.2675781 C108.900337,78.6490854 108.576447,77.659512 108.576447,76.2988281 L108.576447,69.296875 L110.217072,69.296875 Z M127.810891,80 L127.810891,73.0761719 C127.810891,72.2037717 127.612325,71.5527365 127.215188,71.1230469 C126.818051,70.6933572 126.196312,70.4785156 125.349954,70.4785156 C124.230156,70.4785156 123.409852,70.781247 122.889016,71.3867188 C122.36818,71.9921905 122.107766,72.9915295 122.107766,74.3847656 L122.107766,80 L120.486672,80 L120.486672,69.296875 L121.805032,69.296875 L122.068704,70.7617188 L122.146829,70.7617188 C122.478862,70.2343724 122.944352,69.8258478 123.543313,69.5361328 C124.142274,69.2464178 124.809585,69.1015625 125.545266,69.1015625 C126.834335,69.1015625 127.804377,69.4124318 128.455422,70.0341797 C129.106467,70.6559276 129.431985,71.6503838 129.431985,73.0175781 L129.431985,80 L127.810891,80 Z M133.900804,80 L132.27971,80 L132.27971,69.296875 L133.900804,69.296875 L133.900804,80 Z M132.142991,66.3964844 C132.142991,66.0253888 132.234136,65.7535816 132.416429,65.5810547 C132.598721,65.4085278 132.826584,65.3222656 133.100022,65.3222656 C133.36044,65.3222656 133.585048,65.4101554 133.773851,65.5859375 C133.962654,65.7617196 134.057054,66.0318992 134.057054,66.3964844 C134.057054,66.7610695 133.962654,67.0328767 133.773851,67.2119141 C133.585048,67.3909514 133.36044,67.4804688 133.100022,67.4804688 C132.826584,67.4804688 132.598721,67.3909514 132.416429,67.2119141 C132.234136,67.0328767 132.142991,66.7610695 132.142991,66.3964844 Z M141.133294,80.1953125 C139.583807,80.1953125 138.384275,79.7184292 137.534662,78.7646484 C136.685048,77.8108676 136.260248,76.4615973 136.260248,74.7167969 C136.260248,72.9264233 136.691558,71.5429736 137.554193,70.5664062 C138.416827,69.5898389 139.645656,69.1015625 141.240716,69.1015625 C141.755042,69.1015625 142.26936,69.1569005 142.783685,69.2675781 C143.298011,69.3782558 143.701652,69.5084628 143.994623,69.6582031 L143.496576,71.0351562 C143.138501,70.8919264 142.74788,70.7731125 142.324701,70.6787109 C141.901521,70.5843094 141.527176,70.5371094 141.201654,70.5371094 C139.027164,70.5371094 137.939935,71.9238143 137.939935,74.6972656 C137.939935,76.0123764 138.205232,77.0214809 138.735833,77.7246094 C139.266435,78.4277379 140.05256,78.7792969 141.094232,78.7792969 C141.986163,78.7792969 142.900868,78.5872415 143.838373,78.203125 L143.838373,79.6386719 C143.122223,80.0097675 142.220539,80.1953125 141.133294,80.1953125 Z M152.477113,80 L152.154848,78.4765625 L152.076723,78.4765625 C151.542866,79.1471388 151.010645,79.6012358 150.480043,79.8388672 C149.949441,80.0764986 149.287013,80.1953125 148.492738,80.1953125 C147.431535,80.1953125 146.599838,79.9218777 145.997621,79.375 C145.395405,78.8281223 145.094301,78.0501353 145.094301,77.0410156 C145.094301,74.8795465 146.822799,73.7467453 150.279848,73.6425781 L152.096254,73.5839844 L152.096254,72.9199219 C152.096254,72.0800739 151.915592,71.4599629 151.554262,71.0595703 C151.192932,70.6591777 150.615138,70.4589844 149.820863,70.4589844 C148.928932,70.4589844 147.919827,70.7324191 146.793519,71.2792969 L146.295473,70.0390625 C146.822819,69.7526027 147.400613,69.5279956 148.028871,69.3652344 C148.657129,69.2024731 149.287006,69.1210938 149.918519,69.1210938 C151.194568,69.1210938 152.140196,69.404294 152.755434,69.9707031 C153.370671,70.5371122 153.678285,71.4453063 153.678285,72.6953125 L153.678285,80 L152.477113,80 Z M148.815004,78.8574219 C149.824124,78.8574219 150.616759,78.5807319 151.192934,78.0273438 C151.769108,77.4739556 152.057191,76.6992237 152.057191,75.703125 L152.057191,74.7363281 L150.436098,74.8046875 C149.147029,74.8502606 148.217676,75.050454 147.648012,75.4052734 C147.078347,75.7600929 146.793519,76.3118452 146.793519,77.0605469 C146.793519,77.6464873 146.970927,78.0924464 147.325746,78.3984375 C147.680566,78.7044286 148.17698,78.8574219 148.815004,78.8574219 Z M159.992807,78.8574219 C160.279267,78.8574219 160.555957,78.8362632 160.822885,78.7939453 C161.089814,78.7516274 161.3014,78.7076825 161.457651,78.6621094 L161.457651,79.9023438 C161.281869,79.9869796 161.023082,80.0569659 160.681284,80.1123047 C160.339485,80.1676435 160.031871,80.1953125 159.758432,80.1953125 C157.688109,80.1953125 156.652963,79.1048286 156.652963,76.9238281 L156.652963,70.5566406 L155.11976,70.5566406 L155.11976,69.7753906 L156.652963,69.1015625 L157.336557,66.8164062 L158.274057,66.8164062 L158.274057,69.296875 L161.379526,69.296875 L161.379526,70.5566406 L158.274057,70.5566406 L158.274057,76.8554688 C158.274057,77.5000032 158.42705,77.9947899 158.733041,78.3398438 C159.039033,78.6848976 159.45895,78.8574219 159.992807,78.8574219 Z M164.735063,80 L163.11397,80 L163.11397,69.296875 L164.735063,69.296875 L164.735063,80 Z M162.977251,66.3964844 C162.977251,66.0253888 163.068396,65.7535816 163.250688,65.5810547 C163.432981,65.4085278 163.660843,65.3222656 163.934282,65.3222656 C164.1947,65.3222656 164.419307,65.4101554 164.60811,65.5859375 C164.796913,65.7617196 164.891313,66.0318992 164.891313,66.3964844 C164.891313,66.7610695 164.796913,67.0328767 164.60811,67.2119141 C164.419307,67.3909514 164.1947,67.4804688 163.934282,67.4804688 C163.660843,67.4804688 163.432981,67.3909514 163.250688,67.2119141 C163.068396,67.0328767 162.977251,66.7610695 162.977251,66.3964844 Z M176.928492,74.6386719 C176.928492,76.3834723 176.489043,77.7457633 175.610132,78.7255859 C174.731222,79.7054085 173.517041,80.1953125 171.967554,80.1953125 C171.010518,80.1953125 170.160917,79.9707054 169.418726,79.5214844 C168.676535,79.0722634 168.103624,78.4277386 167.699976,77.5878906 C167.296328,76.7480427 167.094507,75.7649796 167.094507,74.6386719 C167.094507,72.8938715 167.530701,71.5348356 168.403101,70.5615234 C169.275501,69.5882113 170.486427,69.1015625 172.035914,69.1015625 C173.533317,69.1015625 174.723084,69.5996044 175.605249,70.5957031 C176.487415,71.5918019 176.928492,72.9394446 176.928492,74.6386719 Z M168.774195,74.6386719 C168.774195,76.0058662 169.04763,77.0475225 169.594507,77.7636719 C170.141385,78.4798213 170.945413,78.8378906 172.006617,78.8378906 C173.06782,78.8378906 173.873476,78.4814489 174.423609,77.7685547 C174.973742,77.0556605 175.248804,76.0123767 175.248804,74.6386719 C175.248804,73.277988 174.973742,72.2444697 174.423609,71.5380859 C173.873476,70.8317022 173.06131,70.4785156 171.987085,70.4785156 C170.925882,70.4785156 170.125109,70.8268194 169.584742,71.5234375 C169.044374,72.2200556 168.774195,73.2584566 168.774195,74.6386719 Z M186.612154,80 L186.612154,73.0761719 C186.612154,72.2037717 186.413589,71.5527365 186.016451,71.1230469 C185.619314,70.6933572 184.997575,70.4785156 184.151217,70.4785156 C183.031419,70.4785156 182.211115,70.781247 181.690279,71.3867188 C181.169443,71.9921905 180.909029,72.9915295 180.909029,74.3847656 L180.909029,80 L179.287935,80 L179.287935,69.296875 L180.606295,69.296875 L180.869967,70.7617188 L180.948092,70.7617188 C181.280125,70.2343724 181.745615,69.8258478 182.344576,69.5361328 C182.943537,69.2464178 183.610848,69.1015625 184.346529,69.1015625 C185.635598,69.1015625 186.605641,69.4124318 187.256685,70.0341797 C187.90773,70.6559276 188.233248,71.6503838 188.233248,73.0175781 L188.233248,80 L186.612154,80 Z M194.875964,74.5214844 C194.875964,72.7962153 195.12824,71.1816481 195.6328,69.6777344 C196.13736,68.1738206 196.864891,66.8554744 197.815417,65.7226562 L199.397448,65.7226562 C198.459943,66.9791729 197.755198,68.3593675 197.28319,69.8632812 C196.811183,71.367195 196.575183,72.9134035 196.575183,74.5019531 C196.575183,76.0644609 196.816066,77.5911384 197.297839,79.0820312 C197.779612,80.5729241 198.472964,81.9335876 199.377917,83.1640625 L197.815417,83.1640625 C196.858381,82.0572861 196.129222,80.7649813 195.627917,79.2871094 C195.126612,77.8092374 194.875964,76.2207116 194.875964,74.5214844 Z M213.866267,72.8417969 C213.866267,75.1269646 213.288473,76.9238216 212.132869,78.2324219 C210.977264,79.5410222 209.370835,80.1953125 207.313533,80.1953125 C205.210658,80.1953125 203.587952,79.5524153 202.445369,78.2666016 C201.302785,76.9807878 200.731501,75.1660273 200.731501,72.8222656 C200.731501,70.4980353 201.304412,68.6962955 202.450251,67.4169922 C203.59609,66.1376889 205.223678,65.4980469 207.333064,65.4980469 C209.383855,65.4980469 210.985402,66.149082 212.137751,67.4511719 C213.290101,68.7532617 213.866267,70.5501187 213.866267,72.8417969 Z M202.489314,72.8417969 C202.489314,74.7754003 202.901094,76.241857 203.724665,77.2412109 C204.548237,78.2405649 205.744514,78.7402344 207.313533,78.7402344 C208.895572,78.7402344 210.090221,78.2421925 210.897517,77.2460938 C211.704813,76.249995 212.108455,74.7819107 212.108455,72.8417969 C212.108455,70.9212144 211.70644,69.4645232 210.9024,68.4716797 C210.098359,67.4788362 208.908593,66.9824219 207.333064,66.9824219 C205.751025,66.9824219 204.548237,67.4820914 203.724665,68.4814453 C202.901094,69.4807993 202.489314,70.9342353 202.489314,72.8417969 Z M223.647586,80 L223.647586,73.0761719 C223.647586,72.2037717 223.44902,71.5527365 223.051883,71.1230469 C222.654745,70.6933572 222.033007,70.4785156 221.186648,70.4785156 C220.066851,70.4785156 219.246547,70.781247 218.725711,71.3867188 C218.204875,71.9921905 217.944461,72.9915295 217.944461,74.3847656 L217.944461,80 L216.323367,80 L216.323367,69.296875 L217.641726,69.296875 L217.905398,70.7617188 L217.983523,70.7617188 C218.315556,70.2343724 218.781046,69.8258478 219.380008,69.5361328 C219.978969,69.2464178 220.64628,69.1015625 221.381961,69.1015625 C222.67103,69.1015625 223.641072,69.4124318 224.292117,70.0341797 C224.943162,70.6559276 225.26868,71.6503838 225.26868,73.0175781 L225.26868,80 L223.647586,80 Z M229.737498,80 L228.116405,80 L228.116405,64.8046875 L229.737498,64.8046875 L229.737498,80 Z M234.313739,80 L232.692645,80 L232.692645,69.296875 L234.313739,69.296875 L234.313739,80 Z M232.555927,66.3964844 C232.555927,66.0253888 232.647072,65.7535816 232.829364,65.5810547 C233.011657,65.4085278 233.239519,65.3222656 233.512958,65.3222656 C233.773376,65.3222656 233.997983,65.4101554 234.186786,65.5859375 C234.375589,65.7617196 234.469989,66.0318992 234.469989,66.3964844 C234.469989,66.7610695 234.375589,67.0328767 234.186786,67.2119141 C233.997983,67.3909514 233.773376,67.4804688 233.512958,67.4804688 C233.239519,67.4804688 233.011657,67.3909514 232.829364,67.2119141 C232.647072,67.0328767 232.555927,66.7610695 232.555927,66.3964844 Z M244.593105,80 L244.593105,73.0761719 C244.593105,72.2037717 244.394539,71.5527365 243.997402,71.1230469 C243.600264,70.6933572 242.978526,70.4785156 242.132167,70.4785156 C241.01237,70.4785156 240.192066,70.781247 239.67123,71.3867188 C239.150394,71.9921905 238.88998,72.9915295 238.88998,74.3847656 L238.88998,80 L237.268886,80 L237.268886,69.296875 L238.587246,69.296875 L238.850917,70.7617188 L238.929042,70.7617188 C239.261075,70.2343724 239.726565,69.8258478 240.325527,69.5361328 C240.924488,69.2464178 241.591799,69.1015625 242.32748,69.1015625 C243.616549,69.1015625 244.586591,69.4124318 245.237636,70.0341797 C245.888681,70.6559276 246.214199,71.6503838 246.214199,73.0175781 L246.214199,80 L244.593105,80 Z M253.583408,80.1953125 C252.001369,80.1953125 250.753009,79.7135465 249.838291,78.75 C248.923573,77.7864535 248.466221,76.4485763 248.466221,74.7363281 C248.466221,73.0110591 248.891021,71.6406301 249.740635,70.625 C250.590248,69.6093699 251.731187,69.1015625 253.163486,69.1015625 C254.504639,69.1015625 255.565826,69.5426388 256.34708,70.4248047 C257.128334,71.3069706 257.518955,72.4706959 257.518955,73.9160156 L257.518955,74.9414062 L250.145908,74.9414062 C250.17846,76.1979229 250.49584,77.1516895 251.098057,77.8027344 C251.700273,78.4537793 252.548246,78.7792969 253.642002,78.7792969 C254.794351,78.7792969 255.933663,78.5384139 257.059971,78.0566406 L257.059971,79.5019531 C256.487051,79.7493502 255.945064,79.9267573 255.433994,80.0341797 C254.922924,80.1416021 254.306068,80.1953125 253.583408,80.1953125 Z M253.143955,70.4589844 C252.284576,70.4589844 251.599361,70.7389295 251.088291,71.2988281 C250.577221,71.8587268 250.276117,72.6334586 250.184971,73.6230469 L255.780674,73.6230469 C255.780674,72.6009063 255.552811,71.8180366 255.09708,71.2744141 C254.641349,70.7307916 253.990313,70.4589844 253.143955,70.4589844 Z M266.837452,68.5644531 C266.837452,69.0136741 266.954638,69.4417297 267.189015,69.8486328 C267.423391,70.2555359 267.823777,70.7454398 268.390186,71.3183594 C269.230034,70.8300757 269.814338,70.3792338 270.143116,69.9658203 C270.471894,69.5524068 270.63628,69.0755235 270.63628,68.5351562 C270.63628,68.0338517 270.468639,67.6253271 270.13335,67.3095703 C269.798062,66.9938135 269.350476,66.8359375 268.790577,66.8359375 C268.211147,66.8359375 267.740774,66.9921859 267.379444,67.3046875 C267.018114,67.6171891 266.837452,68.0371067 266.837452,68.5644531 Z M268.351124,78.7402344 C269.920142,78.7402344 271.222213,78.2389373 272.257374,77.2363281 L267.989796,73.0957031 C267.267136,73.5384137 266.756073,73.9046209 266.456593,74.1943359 C266.157112,74.4840509 265.93576,74.7949202 265.79253,75.1269531 C265.6493,75.458986 265.577686,75.8365864 265.577686,76.2597656 C265.577686,77.0214882 265.829963,77.6253233 266.334522,78.0712891 C266.839082,78.5172548 267.511276,78.7402344 268.351124,78.7402344 Z M263.897999,76.2988281 C263.897999,75.4524697 264.124234,74.7037793 264.57671,74.0527344 C265.029186,73.4016895 265.841352,72.7441439 267.013233,72.0800781 C266.459845,71.4615854 266.083872,70.9928401 265.885304,70.6738281 C265.686735,70.3548161 265.528859,70.0227882 265.411671,69.6777344 C265.294483,69.3326806 265.23589,68.9746112 265.23589,68.6035156 C265.23589,67.6269482 265.554897,66.8652371 266.192921,66.3183594 C266.830945,65.7714816 267.719608,65.4980469 268.858936,65.4980469 C269.913629,65.4980469 270.743699,65.7698541 271.349171,66.3134766 C271.954643,66.8570991 272.257374,67.6139274 272.257374,68.5839844 C272.257374,69.2806024 272.036022,69.9234997 271.593311,70.5126953 C271.150601,71.101891 270.418186,71.6992157 269.396046,72.3046875 L273.370655,76.1230469 C273.73524,75.719399 274.026579,75.2457709 274.244679,74.7021484 C274.462779,74.1585259 274.646696,73.5644563 274.796436,72.9199219 L276.437061,72.9199219 C275.994351,74.7819104 275.32704,76.1946566 274.435108,77.1582031 L277.35503,80 L275.118702,80 L273.312061,78.2617188 C272.543828,78.9518264 271.762586,79.4466131 270.968311,79.7460938 C270.174037,80.0455744 269.288629,80.1953125 268.312061,80.1953125 C266.912315,80.1953125 265.826714,79.8502639 265.055225,79.1601562 C264.283737,78.4700486 263.897999,77.5162821 263.897999,76.2988281 Z M295.980168,72.8417969 C295.980168,75.1269646 295.402374,76.9238216 294.246769,78.2324219 C293.091165,79.5410222 291.484735,80.1953125 289.427433,80.1953125 C287.324558,80.1953125 285.701853,79.5524153 284.559269,78.2666016 C283.416686,76.9807878 282.845402,75.1660273 282.845402,72.8222656 C282.845402,70.4980353 283.418313,68.6962955 284.564152,67.4169922 C285.709991,66.1376889 287.337579,65.4980469 289.446965,65.4980469 C291.497756,65.4980469 293.099303,66.149082 294.251652,67.4511719 C295.404002,68.7532617 295.980168,70.5501187 295.980168,72.8417969 Z M284.603215,72.8417969 C284.603215,74.7754003 285.014994,76.241857 285.838566,77.2412109 C286.662138,78.2405649 287.858415,78.7402344 289.427433,78.7402344 C291.009473,78.7402344 292.204122,78.2421925 293.011418,77.2460938 C293.818714,76.249995 294.222355,74.7819107 294.222355,72.8417969 C294.222355,70.9212144 293.820341,69.4645232 293.016301,68.4716797 C292.21226,67.4788362 291.022493,66.9824219 289.446965,66.9824219 C287.864926,66.9824219 286.662138,67.4820914 285.838566,68.4814453 C285.014994,69.4807993 284.603215,70.9342353 284.603215,72.8417969 Z M309.980237,70.5566406 L307.255627,70.5566406 L307.255627,80 L305.634534,80 L305.634534,70.5566406 L303.720471,70.5566406 L303.720471,69.8242188 L305.634534,69.2382812 L305.634534,68.6425781 C305.634534,66.0123566 306.783611,64.6972656 309.081799,64.6972656 C309.648208,64.6972656 310.312264,64.8111968 311.073987,65.0390625 L310.654065,66.3378906 C310.029062,66.1360667 309.495213,66.0351562 309.052502,66.0351562 C308.44052,66.0351562 307.988051,66.2386047 307.69508,66.6455078 C307.40211,67.0524109 307.255627,67.7050736 307.255627,68.6035156 L307.255627,69.296875 L309.980237,69.296875 L309.980237,70.5566406 Z M303.261487,70.5566406 L300.536877,70.5566406 L300.536877,80 L298.915784,80 L298.915784,70.5566406 L297.001721,70.5566406 L297.001721,69.8242188 L298.915784,69.2382812 L298.915784,68.6425781 C298.915784,66.0123566 300.064861,64.6972656 302.363049,64.6972656 C302.929458,64.6972656 303.593514,64.8111968 304.355237,65.0390625 L303.935315,66.3378906 C303.310312,66.1360667 302.776463,66.0351562 302.333752,66.0351562 C301.72177,66.0351562 301.269301,66.2386047 300.97633,66.6455078 C300.68336,67.0524109 300.536877,67.7050736 300.536877,68.6035156 L300.536877,69.296875 L303.261487,69.296875 L303.261487,70.5566406 Z M313.622815,80 L312.001721,80 L312.001721,64.8046875 L313.622815,64.8046875 L313.622815,80 Z M318.218587,80 L316.597493,80 L316.597493,69.296875 L318.218587,69.296875 L318.218587,80 Z M316.460774,66.3964844 C316.460774,66.0253888 316.551919,65.7535816 316.734212,65.5810547 C316.916504,65.4085278 317.144367,65.3222656 317.417806,65.3222656 C317.678224,65.3222656 317.902831,65.4101554 318.091634,65.5859375 C318.280437,65.7617196 318.374837,66.0318992 318.374837,66.3964844 C318.374837,66.7610695 318.280437,67.0328767 318.091634,67.2119141 C317.902831,67.3909514 317.678224,67.4804688 317.417806,67.4804688 C317.144367,67.4804688 316.916504,67.3909514 316.734212,67.2119141 C316.551919,67.0328767 316.460774,66.7610695 316.460774,66.3964844 Z M328.497953,80 L328.497953,73.0761719 C328.497953,72.2037717 328.299387,71.5527365 327.902249,71.1230469 C327.505112,70.6933572 326.883373,70.4785156 326.037015,70.4785156 C324.917218,70.4785156 324.096913,70.781247 323.576078,71.3867188 C323.055242,71.9921905 322.794828,72.9915295 322.794828,74.3847656 L322.794828,80 L321.173734,80 L321.173734,69.296875 L322.492093,69.296875 L322.755765,70.7617188 L322.83389,70.7617188 C323.165923,70.2343724 323.631413,69.8258478 324.230374,69.5361328 C324.829336,69.2464178 325.496647,69.1015625 326.232328,69.1015625 C327.521396,69.1015625 328.491439,69.4124318 329.142484,70.0341797 C329.793529,70.6559276 330.119046,71.6503838 330.119046,73.0175781 L330.119046,80 L328.497953,80 Z M337.488256,80.1953125 C335.906217,80.1953125 334.657857,79.7135465 333.743139,78.75 C332.82842,77.7864535 332.371068,76.4485763 332.371068,74.7363281 C332.371068,73.0110591 332.795869,71.6406301 333.645482,70.625 C334.495096,69.6093699 335.636035,69.1015625 337.068334,69.1015625 C338.409486,69.1015625 339.470674,69.5426388 340.251928,70.4248047 C341.033182,71.3069706 341.423803,72.4706959 341.423803,73.9160156 L341.423803,74.9414062 L334.050756,74.9414062 C334.083308,76.1979229 334.400688,77.1516895 335.002904,77.8027344 C335.605121,78.4537793 336.453094,78.7792969 337.546849,78.7792969 C338.699199,78.7792969 339.838511,78.5384139 340.964818,78.0566406 L340.964818,79.5019531 C340.391899,79.7493502 339.849912,79.9267573 339.338842,80.0341797 C338.827771,80.1416021 338.210916,80.1953125 337.488256,80.1953125 Z M337.048803,70.4589844 C336.189423,70.4589844 335.504209,70.7389295 334.993139,71.2988281 C334.482068,71.8587268 334.180965,72.6334586 334.089818,73.6230469 L339.685521,73.6230469 C339.685521,72.6009063 339.457659,71.8180366 339.001928,71.2744141 C338.546196,70.7307916 337.895161,70.4589844 337.048803,70.4589844 Z M347.103559,74.5214844 C347.103559,76.2337325 346.851283,77.8287687 346.346723,79.3066406 C345.842163,80.7845126 345.114631,82.070307 344.164106,83.1640625 L342.601606,83.1640625 C343.506558,81.940098 344.199911,80.5810622 344.681684,79.0869141 C345.163457,77.592766 345.40434,76.0644609 345.40434,74.5019531 C345.40434,72.9134035 345.16834,71.367195 344.696332,69.8632812 C344.224325,68.3593675 343.519579,66.9791729 342.582075,65.7226562 L344.164106,65.7226562 C345.121142,66.8619849 345.850301,68.1852138 346.351606,69.6923828 C346.85291,71.1995518 347.103559,72.8092362 347.103559,74.5214844 Z" id="Communication-(Onlin" fill="#4A4A4A"></path>
        <g id="img-Message-Empty" transform="translate(47.000000, 110.000000)">
            <g id="Background" transform="translate(1.250000, 0.000000)">
                <circle id="Oval-3" stroke="#D8D8D8" cx="56.5625" cy="242.8125" r="56.5625"></circle>
                <polygon id="Triangle" stroke="#D8D8D8" points="195.625 111.875 296.875 265.625 94.375 265.625"></polygon>
                <path d="M73.6355986,0.581713252 C72.2833923,0.263893731 71.125,1.66971531 71.125,3.88746804 L71.125,221.182706 C71.125,223.400459 72.2833923,224.806281 73.6355986,224.488461 L223.635599,189.2328 C225.139348,188.879362 226.375,187.379778 226.375,185.927045 L226.375,39.1431297 C226.375,37.6903964 225.139348,36.1908128 223.635599,35.8373749 L73.6355986,0.581713252 Z" id="Combined-Shape" stroke="#D8D8D8"></path>
                <circle id="Oval" stroke="#4A4A4A" fill="#FFFFFF" cx="84.6875" cy="109.6875" r="4.0625"></circle>
                <circle id="Oval-2" stroke="#4A4A4A" fill-opacity="0.6" fill="#49C89F" cx="212.5" cy="70.625" r="10.625"></circle>
            </g>
            <g id="Head-1" transform="translate(0.000000, 99.375000)">
                <g id="Rectangle-3" transform="translate(25.667911, 76.595716) rotate(11.000000) translate(-25.667911, -76.595716) ">
                    <use fill="#FFFFFF" fill-rule="evenodd" xlink:href="#path-1"></use>
                    <path stroke="#4A4A4A" stroke-width="1" d="M21.956018,69.58158 L29.2646784,68.1609203 L32.4284158,84.4369384 L18.1972154,84.9962526 L19.1660416,84.0808604 C20.7660778,82.5690713 21.5611523,80.8340907 21.5718855,78.8499165 C21.5834362,76.7146233 21.7037264,73.7548675 21.9326394,69.9682978 L21.956018,69.58158 Z"></path>
                </g>
                <path d="M22.4317282,71.2484697 L28.8692693,69.9971384 L31.8263914,85.2102131 L19.5094306,85.6942939 C21.2062364,84.0910724 22.0603856,82.2271815 22.0718782,80.1026211 C22.0833708,77.9780607 22.2033208,75.0266769 22.4317282,71.2484697 Z" id="Rectangle-3-Copy-2" fill="#FFFFFF" transform="translate(25.667911, 77.845716) rotate(11.000000) translate(-25.667911, -77.845716) "></path>
                <path d="M31.5625,73.125 C48.75,73.125 54.375,57.7347883 54.375,38.75 C54.375,19.7652117 47.5,4.375 31.5625,4.375 C15.625,4.375 8.75,19.7652117 8.75,38.75 C8.75,57.7347883 14.375,73.125 31.5625,73.125 Z" id="Head" stroke="#4A4A4A" fill="#FFFFFF" transform="translate(31.562500, 38.750000) rotate(6.000000) translate(-31.562500, -38.750000) "></path>
                <path d="M31.25,29.375 L40.625,23.75 L45,26.5625 L49.375,20.625 L56.875,20.625 C51.875,12.2916667 46.4583333,6.66666667 40.625,3.75 C31.875,-0.625 17.5,-1.875 9.375,5.625 C1.25,13.125 -2.5,22.5 1.875,33.75 C4.79166667,41.25 7.29166667,48.5416667 9.375,55.625 L14.375,47.5 L17.5,30.3125 L31.25,29.375 Z" id="Hair" stroke="#4A4A4A" fill="#4A4A4A"></path>
                <path d="M49.375,40 C53.5416667,45.8604046 55.625,49.6104046 55.625,51.25 C55.625,52.8895954 53.5416667,53.0979287 49.375,51.875" id="Nose" stroke="#4A4A4A" fill="#FFFFFF"></path>
            </g>
            <g id="Head-2" transform="translate(261.875000, 205.312500) scale(-1, 1) translate(-261.875000, -205.312500) translate(223.750000, 160.000000)">
                <g id="Rectangle-3" transform="translate(41.529472, 78.759674) rotate(11.000000) translate(-41.529472, -78.759674) ">
                    <use fill="#FFFFFF" fill-rule="evenodd" xlink:href="#path-2"></use>
                    <path stroke="#4A4A4A" stroke-width="1" d="M33.697503,69.3033182 L42.7765857,69.3033182 L42.8552311,69.7079137 C43.5022893,73.0367396 43.5022893,73.0367396 44.4495415,77.9099296 C45.101875,81.2658943 46.6248094,83.4489778 49.0228474,84.5163575 L50.4718717,85.161326 L34.1873285,88.3267206 L34.208931,87.698838 L34.5017627,79.2833118 L33.697503,69.3033182 Z"></path>
                </g>
                <path d="M34.2394175,71.0533182 L42.3644175,71.0533182 C42.7457574,73.0151415 43.2771942,75.7491468 43.9587279,79.2553341 C44.6402617,82.7615215 46.2605278,85.0841272 48.8195261,86.2231511 L34.7086353,88.9660304 L35.000147,80.4931484 L34.2394175,71.0533182 Z" id="Rectangle-3-Copy" fill="#FFFFFF" transform="translate(41.529472, 80.009674) rotate(11.000000) translate(-41.529472, -80.009674) "></path>
                <path d="M45.3125,73.75 C62.5,73.75 68.125,58.3597883 68.125,39.375 C68.125,20.3902117 61.25,5 45.3125,5 C29.375,5 22.5,20.3902117 22.5,39.375 C22.5,58.3597883 28.125,73.75 45.3125,73.75 Z" id="Head" stroke="#4A4A4A" fill="#FFFFFF" transform="translate(45.312500, 39.375000) rotate(-15.000000) translate(-45.312500, -39.375000) "></path>
                <path d="M30.625,37.5 C40.7509448,34.6858179 47.6259448,32.28724 51.25,30.3042664 C54.8740552,28.3212928 59.0407219,24.2615373 63.75,18.125 C61.25,12.7083333 57.0833333,8.54166667 51.25,5.625 C42.5,1.25 28.1295071,3.19093895 19.375,10 C13.75,14.375 14.4684509,19.7455974 10,24.375 C6.79304313,27.6974701 0.973759024,28.3091142 0.625,30.3042664 C-0.139041276,34.6751316 11.6591883,32.123627 13.75,37.5 C14.5451591,39.5446949 11.1362492,46.25 13.75,46.25 C17.5,46.25 23.125,52.0833333 30.625,63.75 L30.625,37.5 Z" id="Hair" stroke="#4A4A4A" fill="#4A4A4A"></path>
                <path d="M64.375,33.75 C68.5416667,39.6104046 70.625,43.3604046 70.625,45 C70.625,46.6395954 68.5416667,46.8479287 64.375,45.625" id="Nose" stroke="#4A4A4A" fill="#FFFFFF" transform="translate(67.500000, 40.079345) rotate(-25.000000) translate(-67.500000, -40.079345) "></path>
            </g>
            <g id="Message" transform="translate(93.125000, 81.250000)">
                <g id="ConversationContent" transform="translate(86.875000, 35.625000)">
                    <g id="Combined-Shape">
                        <use fill="#4A4A4A" fill-rule="evenodd" xlink:href="#path-3"></use>
                        <path stroke="#FFFFFF" stroke-width="1" d="M45.6113591,22.8906115 L45.6113591,19.5 L60.5,19.5 C61.3284271,19.5 62,18.8284271 62,18 L62,2 C62,1.17157288 61.3284271,0.5 60.5,0.5 L2,0.5 C1.17157288,0.5 0.5,1.17157288 0.5,2 L0.5,18 C0.5,18.8284271 1.17157288,19.5 2,19.5 L42.2207477,19.5 L45.6113591,22.8906115 Z"></path>
                    </g>
                    <path d="M43.125,7.5 L55,7.5" id="Path-2" stroke="#FFFFFF" stroke-width="2" stroke-linecap="round" stroke-linejoin="round"></path>
                    <path d="M23.75,7.5 L39.375,7.5" id="Path-3" stroke="#FFFFFF" stroke-width="2" stroke-linecap="round" stroke-linejoin="round"></path>
                    <path d="M7.5,7.5 L20,7.5" id="Path-3-Copy" stroke="#FFFFFF" stroke-width="2" stroke-linecap="round" stroke-linejoin="round"></path>
                    <path d="M10.625,11.25 L39.375,11.25" id="Path-2" stroke="#FFFFFF" stroke-width="2" stroke-linecap="round" stroke-linejoin="round"></path>
                    <path d="M43.125,11.25 L55,11.25" id="Path-3" stroke="#FFFFFF" stroke-width="2" stroke-linecap="round" stroke-linejoin="round"></path>
                </g>
                <g id="ConversationContent" transform="translate(0.000000, 70.625000)">
                    <g id="Combined-Shape">
                        <use fill="#FFFFFF" fill-rule="evenodd" xlink:href="#path-4"></use>
                        <path stroke="#4A4A4A" stroke-width="1" d="M10.9863591,23.5156115 L15.0019706,19.5 L84.875,19.5 C85.7034271,19.5 86.375,18.8284271 86.375,18 L86.375,2 C86.375,1.17157288 85.7034271,0.5 84.875,0.5 L2,0.5 C1.17157288,0.5 0.5,1.17157288 0.5,2 L0.5,18 C0.5,18.8284271 1.17157288,19.5 2,19.5 L10.9863591,19.5 L10.9863591,23.5156115 Z"></path>
                    </g>
                    <path d="M5,7.5 L23.75,7.5" id="Path-2" stroke="#4A4A4A" stroke-width="2" stroke-linecap="round" stroke-linejoin="round"></path>
                    <path d="M31.875,7.5 L79.375,7.5" id="Path-3" stroke="#4A4A4A" stroke-width="2" stroke-linecap="round" stroke-linejoin="round"></path>
                    <path d="M5,11.25 L50.625,11.25" id="Path-2" stroke="#4A4A4A" stroke-width="2" stroke-linecap="round" stroke-linejoin="round"></path>
                    <path d="M60.224349,11.25 L78.9611816,11.25" id="Path-3" stroke="#4A4A4A" stroke-width="2" stroke-linecap="round" stroke-linejoin="round"></path>
                </g>
                <g id="ConversationContent">
                    <g id="Combined-Shape">
                        <use fill="#FFFFFF" fill-rule="evenodd" xlink:href="#path-5"></use>
                        <path stroke="#4A4A4A" stroke-width="1" d="M10.8125,22.7167523 L14.0292523,19.5 L14.2363591,19.5 L60.5,19.5 C61.3284271,19.5 62,18.8284271 62,18 L62,2 C62,1.17157288 61.3284271,0.5 60.5,0.5 L2,0.5 C1.17157288,0.5 0.5,1.17157288 0.5,2 L0.5,18 C0.5,18.8284271 1.17157288,19.5 2,19.5 L10.8125,19.5 L10.8125,22.7167523 Z"></path>
                    </g>
                    <path d="M7.5,8.125 L19.375,8.125" id="Path-2" stroke="#4A4A4A" stroke-width="2" stroke-linecap="round" stroke-linejoin="round"></path>
                    <path d="M24.375,8.125 L54.375,8.125" id="Path-3" stroke="#4A4A4A" stroke-width="2" stroke-linecap="round" stroke-linejoin="round"></path>
                    <path d="M7.5,11.875 L36.25,11.875" id="Path-2" stroke="#4A4A4A" stroke-width="2" stroke-linecap="round" stroke-linejoin="round"></path>
                    <path d="M42.5,11.875 L54.375,11.875" id="Path-3" stroke="#4A4A4A" stroke-width="2" stroke-linecap="round" stroke-linejoin="round"></path>
                </g>
            </g>
        </g>
        <text id="3" font-family="OpenSans-Bold, Open Sans" font-size="36" font-weight="bold" letter-spacing="-0.868235409" fill="#4A4A4A">
            <tspan x="190" y="43">3</tspan>
        </text>
    </g>
</svg>