<?xml version="1.0" encoding="UTF-8"?>
<svg width="400px" height="400px" viewBox="0 0 400 400" version="1.1" xmlns="http://www.w3.org/2000/svg" xmlns:xlink="http://www.w3.org/1999/xlink">
    <!-- Generator: Sketch 49.1 (51147) - http://www.bohemiancoding.com/sketch -->
    <title>Artboard 5</title>
    <desc>Created with Sketch.</desc>
    <defs>
        <path d="M59.1088184,41.7312596 L68.8137624,41.7312596 C68.0349603,47.2890745 68.0349603,51.5624848 68.8137624,54.5514908 C69.5925645,57.5404967 71.1097708,59.0900528 73.3653812,59.200159 L59.1088184,59.200159 L59.1088184,41.7312596 Z" id="path-1"></path>
        <path d="M37.7579413,63.1597762 C40.4429013,61.1460562 46.3776915,58.5383588 53.3547131,57.032307 C56.9967228,56.246147 60.9227246,58.7492913 64.8187159,58.8046748 C68.6205987,58.8587206 72.3939033,56.5178006 75.8468364,57.4526186 C81.6781077,59.0313278 86.5956781,61.4274649 89.1941451,63.1597762 C92.1056283,83.5401588 92.1056283,88.3149913 86.2826618,120.341307 C88.2236506,130.693247 93.723119,149.132641 102.781067,175.659488 L27.0825028,175.659488 C30.3174842,155.602604 35.1699562,137.16321 41.639919,120.341307 C38.7284357,100.931419 32.9054693,77.7171923 37.7579413,63.1597762 Z" id="path-2"></path>
        <path d="M83.6595325,75.9293157 C83.6595325,69.1364014 87.3934335,63.5188591 88.3109951,63.5188591 C89.5365458,63.5188591 97.7152789,78.4211186 97.8104759,95.7406364 C97.941434,119.566286 94.3362378,146.684033 92.1500986,146.684033 C91.2072306,146.684033 89.9275295,143.853844 88.3109951,138.193467 C89.7276684,118.671873 90.0657115,106.407722 89.3251244,101.401014 C87.1262312,86.5354884 83.6595325,78.5083602 83.6595325,75.9293157 Z" id="path-3"></path>
        <path d="M33.8759637,66.5079819 C36.7874469,60.6850154 43.7750067,61.6555099 45.7159955,66.5079819 C47.6569843,71.360454 43.7750067,99.2553671 45.7159955,106.461544 C47.009988,111.265662 56.4755435,116.878919 74.1126619,123.301315 L71.8708198,127.784999 C47.8349083,122.175541 35.1699562,116.135831 33.8759637,109.665868 C31.9349749,99.9609242 30.9644805,72.3309484 33.8759637,66.5079819 Z" id="path-4"></path>
        <polygon id="path-5" points="49.1870832 48.0128055 58.6570645 48.0128055 58.6570645 65.0587719 49.1870832 65.0587719"></polygon>
        <path d="M48.8419394,162.545124 C47.7797443,185.509732 45.6851299,202.160328 42.5580962,212.496912 C39.0463702,224.105117 34.6270455,245.254742 29.3001223,275.945787 L20.4172798,275.945787 C20.968733,247.117763 22.9826823,225.968138 26.4591279,212.496912 C27.6858396,196.549659 27.7207684,177.622949 26.5639141,155.716781 C26.529007,155.70353 26.4940787,155.690285 26.4591279,155.677023 C25.2359544,150.241462 24.9202883,145.822138 25.5121298,142.41905 C26.1039712,139.015961 27.3666354,135.859301 29.3001223,132.949068 L78.5440253,142.41905 L80.1782586,153.858682 L80.2107421,153.858787 C80.2082898,153.917429 80.2058402,153.976041 80.2033933,154.034625 L80.4380216,155.677023 C80.334738,155.729214 80.2316525,155.781139 80.1287649,155.8328 C79.0722719,181.454295 78.5440253,201.447163 78.5440253,215.811405 C78.5440253,230.542487 76.018697,251.218613 70.9680403,277.839783 L64.3390533,275.945787 C61.6432653,254.796162 61.4002024,234.751368 63.6098648,215.811405 C60.3803065,199.125354 58.2452445,181.636214 57.2046786,163.343984 C55.7914383,163.430309 54.4654235,163.399984 53.2266342,163.253009 C51.8642567,163.091371 50.4026917,162.855409 48.8419394,162.545124 Z" id="path-6"></path>
        <path d="M32.7678581,59.7806191 C36.5688491,59.3027004 42.2349173,59.2439189 49.7660628,59.6042748 C51.7948759,62.404836 53.4169625,63.8094792 54.6323224,63.8182043 C55.8476824,63.8269295 57.0010644,62.4422116 58.0924685,59.6640506 C68.3385156,61.8344726 74.9086279,63.6775502 77.8028053,65.1932835 C87.8834464,66.158521 94.7945133,83.9698703 94.7945133,107.659822 C94.7945133,115.437833 92.6069477,130.837488 88.2318163,153.858787 L81.6691192,153.858787 C81.9437087,131.916001 81.9437087,118.061418 81.6691192,112.295039 C81.2503165,103.500182 80.6247548,96.599542 79.7924342,91.5931186 C79.653389,107.635387 78.5440253,125.769179 78.5440253,142.930429 C68.543725,148.025279 28.7887433,143.650147 28.7887433,135.430203 C26.9778547,123.357613 25.1130994,102.308531 25.2251671,84.952696 C20.638192,91.6011943 16.1530205,98.0362192 14.8323574,101.4347 C12.7543434,106.782083 9.99778995,120.853899 6.56269708,143.650147 L-9.9475983e-14,139.275016 C0.972251419,116.427107 2.18756569,102.086399 3.64594282,96.2528905 C9.47945133,75.8356107 15.3129598,72.1896679 22.5953755,64.6894426 C26.7901021,60.3692561 30.2370339,59.1407928 32.7678581,59.7806191 Z M83.1274963,153.858787 L83.1274963,157.50473 L83.1274963,153.858787 Z" id="path-7"></path>
        <circle id="path-8" cx="100" cy="100" r="100"></circle>
        <path d="M50.8808088,42.6742267 L59.9400227,42.6742267 C59.2130392,47.8622457 59.2130392,51.8513195 59.9400227,54.6414484 C60.6670063,57.4315772 62.0832634,58.8780317 64.1887941,58.9808118 C61.3562799,63.9758137 58.5911768,66.4733147 55.893485,66.4733147 C53.1957932,66.4733147 50.4306902,63.9758137 47.5981759,58.9808118 C49.5371165,57.3272095 50.6313274,55.880755 50.8808088,54.6414484 C51.1302901,53.4021417 51.1302901,49.4130678 50.8808088,42.6742267 Z" id="path-10"></path>
    </defs>
    <g id="Artboard-5" stroke="none" stroke-width="1" fill="none" fill-rule="evenodd">
        <path d="M53.2753906,75 L51.3222656,75 L46.1171875,68.0761719 L44.6230469,69.4042969 L44.6230469,75 L42.9628906,75 L42.9628906,60.7226562 L44.6230469,60.7226562 L44.6230469,67.8027344 L51.0976562,60.7226562 L53.0605469,60.7226562 L47.3183594,66.9238281 L53.2753906,75 Z M59.033272,75.1953125 C57.4512328,75.1953125 56.2028729,74.7135465 55.2881548,73.75 C54.3734367,72.7864535 53.9160845,71.4485763 53.9160845,69.7363281 C53.9160845,68.0110591 54.3408849,66.6406301 55.1904985,65.625 C56.0401122,64.6093699 57.1810513,64.1015625 58.6133501,64.1015625 C59.9545026,64.1015625 61.0156899,64.5426388 61.7969438,65.4248047 C62.5781977,66.3069706 62.9688188,67.4706959 62.9688188,68.9160156 L62.9688188,69.9414062 L55.595772,69.9414062 C55.6283242,71.1979229 55.9457039,72.1516895 56.5479204,72.8027344 C57.150137,73.4537793 57.9981102,73.7792969 59.0918657,73.7792969 C60.2442152,73.7792969 61.3835268,73.5384139 62.5098345,73.0566406 L62.5098345,74.5019531 C61.9369149,74.7493502 61.3949282,74.9267573 60.8838579,75.0341797 C60.3727876,75.1416021 59.7559318,75.1953125 59.033272,75.1953125 Z M58.5938188,65.4589844 C57.7344395,65.4589844 57.049225,65.7389295 56.5381548,66.2988281 C56.0270845,66.8587268 55.7259808,67.6334586 55.6348345,68.6230469 L61.2305376,68.6230469 C61.2305376,67.6009063 61.0026753,66.8180366 60.5469438,66.2744141 C60.0912124,65.7307916 59.4401772,65.4589844 58.5938188,65.4589844 Z M69.7716221,75.1953125 C68.1895829,75.1953125 66.941223,74.7135465 66.0265049,73.75 C65.1117868,72.7864535 64.6544346,71.4485763 64.6544346,69.7363281 C64.6544346,68.0110591 65.079235,66.6406301 65.9288486,65.625 C66.7784622,64.6093699 67.9194014,64.1015625 69.3517002,64.1015625 C70.6928527,64.1015625 71.75404,64.5426388 72.5352939,65.4248047 C73.3165478,66.3069706 73.7071689,67.4706959 73.7071689,68.9160156 L73.7071689,69.9414062 L66.3341221,69.9414062 C66.3666743,71.1979229 66.6840539,72.1516895 67.2862705,72.8027344 C67.8884871,73.4537793 68.7364603,73.7792969 69.8302158,73.7792969 C70.9825653,73.7792969 72.1218768,73.5384139 73.2481846,73.0566406 L73.2481846,74.5019531 C72.675265,74.7493502 72.1332783,74.9267573 71.622208,75.0341797 C71.1111377,75.1416021 70.4942819,75.1953125 69.7716221,75.1953125 Z M69.3321689,65.4589844 C68.4727896,65.4589844 67.7875751,65.7389295 67.2765049,66.2988281 C66.7654346,66.8587268 66.4643309,67.6334586 66.3731846,68.6230469 L71.9688877,68.6230469 C71.9688877,67.6009063 71.7410254,66.8180366 71.2852939,66.2744141 C70.8295625,65.7307916 70.1785273,65.4589844 69.3321689,65.4589844 Z M80.9689565,75.1953125 C80.2723385,75.1953125 79.6359516,75.0667331 79.0597768,74.8095703 C78.4836021,74.5524076 78.0002085,74.1569037 77.6095815,73.6230469 L77.492394,73.6230469 C77.5705194,74.24805 77.6095815,74.840492 77.6095815,75.4003906 L77.6095815,79.8046875 L75.9884878,79.8046875 L75.9884878,64.296875 L77.3068472,64.296875 L77.5314565,65.7617188 L77.6095815,65.7617188 C78.0262503,65.1757783 78.5112715,64.7526055 79.0646597,64.4921875 C79.6180478,64.2317695 80.2528071,64.1015625 80.9689565,64.1015625 C82.3882345,64.1015625 83.4836011,64.5865837 84.2550893,65.5566406 C85.0265776,66.5266976 85.4123159,67.887361 85.4123159,69.6386719 C85.4123159,71.3964932 85.0200672,72.7620394 84.2355581,73.7353516 C83.451049,74.7086637 82.3621927,75.1953125 80.9689565,75.1953125 Z M80.7345815,65.4785156 C79.6408261,65.4785156 78.8498183,65.781247 78.3615347,66.3867188 C77.873251,66.9921905 77.6226024,67.9557226 77.6095815,69.2773438 L77.6095815,69.6386719 C77.6095815,71.1425856 77.8602301,72.2184212 78.3615347,72.8662109 C78.8628392,73.5140006 79.6668677,73.8378906 80.773644,73.8378906 C81.6981278,73.8378906 82.4224044,73.4635454 82.9464956,72.7148438 C83.4705868,71.9661421 83.7326284,70.9342514 83.7326284,69.6191406 C83.7326284,68.2844985 83.4705868,67.2607458 82.9464956,66.5478516 C82.4224044,65.8349574 81.6851071,65.4785156 80.7345815,65.4785156 Z M101.234719,64.296875 L101.234719,65.3222656 L99.2522973,65.5566406 C99.4345899,65.7845063 99.5973487,66.0823549 99.7405786,66.4501953 C99.8838085,66.8180357 99.9554223,67.2330706 99.9554223,67.6953125 C99.9554223,68.7434948 99.597353,69.580075 98.8812036,70.2050781 C98.1650542,70.8300813 97.1819911,71.1425781 95.9319848,71.1425781 C95.6129728,71.1425781 95.3134967,71.1165367 95.0335473,71.0644531 C94.3434397,71.4290383 93.9983911,71.8880181 93.9983911,72.4414062 C93.9983911,72.7343765 94.1188326,72.9508457 94.3597192,73.0908203 C94.6006058,73.230795 95.0140132,73.3007812 95.5999536,73.3007812 L97.4944848,73.3007812 C98.6533448,73.3007812 99.5436354,73.5449194 100.165383,74.0332031 C100.787131,74.5214868 101.098,75.2311151 101.098,76.1621094 C101.098,77.3470111 100.622745,78.2503224 99.6722192,78.8720703 C98.7216936,79.4938182 97.3349887,79.8046875 95.512063,79.8046875 C94.1123164,79.8046875 93.0332256,79.5442734 92.2747583,79.0234375 C91.5162909,78.5026016 91.137063,77.7669318 91.137063,76.8164062 C91.137063,76.1653613 91.3453942,75.6022159 91.762063,75.1269531 C92.1787317,74.6516903 92.7646634,74.3294279 93.5198755,74.1601562 C93.2464366,74.0364577 93.0169467,73.8444023 92.8313989,73.5839844 C92.6458511,73.3235664 92.5530786,73.0208351 92.5530786,72.6757812 C92.5530786,72.2851543 92.6572442,71.9433608 92.8655786,71.6503906 C93.073913,71.3574204 93.4026857,71.0742201 93.8519067,70.8007812 C93.2985185,70.5729155 92.8476767,70.1855496 92.4993677,69.6386719 C92.1510586,69.0917941 91.9769067,68.4668004 91.9769067,67.7636719 C91.9769067,66.591791 92.3284657,65.6884797 93.0315942,65.0537109 C93.7347227,64.4189421 94.7308065,64.1015625 96.0198755,64.1015625 C96.5797741,64.1015625 97.0843263,64.166666 97.5335473,64.296875 L101.234719,64.296875 Z M92.699563,76.796875 C92.699563,77.376305 92.9437012,77.8157537 93.4319848,78.1152344 C93.9202685,78.414715 94.6201313,78.5644531 95.5315942,78.5644531 C96.8922781,78.5644531 97.899755,78.3610046 98.5540552,77.9541016 C99.2083553,77.5471985 99.5355005,76.9954462 99.5355005,76.2988281 C99.5355005,75.7193981 99.3564658,75.3173839 98.9983911,75.0927734 C98.6403164,74.8681629 97.966495,74.7558594 96.9769067,74.7558594 L95.0335473,74.7558594 C94.2978666,74.7558594 93.7249556,74.9316389 93.3147973,75.2832031 C92.904639,75.6347674 92.699563,76.1393196 92.699563,76.796875 Z M93.5784692,67.7246094 C93.5784692,68.473311 93.7900556,69.0397116 94.2132348,69.4238281 C94.636414,69.8079446 95.2256009,70 95.980813,70 C97.5628521,70 98.3538598,69.2317785 98.3538598,67.6953125 C98.3538598,66.0872315 97.5530866,65.2832031 95.9515161,65.2832031 C95.1897935,65.2832031 94.6038619,65.4882792 94.1937036,65.8984375 C93.7835453,66.3085958 93.5784692,66.9173137 93.5784692,67.7246094 Z M112.187913,69.6386719 C112.187913,71.3834723 111.748464,72.7457633 110.869554,73.7255859 C109.990643,74.7054085 108.776462,75.1953125 107.226976,75.1953125 C106.26994,75.1953125 105.420339,74.9707054 104.678147,74.5214844 C103.935956,74.0722634 103.363045,73.4277386 102.959397,72.5878906 C102.55575,71.7480427 102.353929,70.7649796 102.353929,69.6386719 C102.353929,67.8938715 102.790122,66.5348356 103.662522,65.5615234 C104.534923,64.5882113 105.745848,64.1015625 107.295335,64.1015625 C108.792738,64.1015625 109.982505,64.5996044 110.864671,65.5957031 C111.746837,66.5918019 112.187913,67.9394446 112.187913,69.6386719 Z M104.033616,69.6386719 C104.033616,71.0058662 104.307051,72.0475225 104.853929,72.7636719 C105.400806,73.4798213 106.204835,73.8378906 107.266038,73.8378906 C108.327241,73.8378906 109.132897,73.4814489 109.68303,72.7685547 C110.233163,72.0556605 110.508226,71.0123767 110.508226,69.6386719 C110.508226,68.277988 110.233163,67.2444697 109.68303,66.5380859 C109.132897,65.8317022 108.320731,65.4785156 107.246507,65.4785156 C106.185304,65.4785156 105.38453,65.8268194 104.844163,66.5234375 C104.303796,67.2200556 104.033616,68.2584566 104.033616,69.6386719 Z M123.785638,69.6386719 C123.785638,71.3834723 123.346189,72.7457633 122.467279,73.7255859 C121.588368,74.7054085 120.374188,75.1953125 118.824701,75.1953125 C117.867665,75.1953125 117.018064,74.9707054 116.275873,74.5214844 C115.533681,74.0722634 114.96077,73.4277386 114.557123,72.5878906 C114.153475,71.7480427 113.951654,70.7649796 113.951654,69.6386719 C113.951654,67.8938715 114.387847,66.5348356 115.260248,65.5615234 C116.132648,64.5882113 117.343573,64.1015625 118.89306,64.1015625 C120.390463,64.1015625 121.58023,64.5996044 122.462396,65.5957031 C123.344562,66.5918019 123.785638,67.9394446 123.785638,69.6386719 Z M115.631341,69.6386719 C115.631341,71.0058662 115.904776,72.0475225 116.451654,72.7636719 C116.998532,73.4798213 117.80256,73.8378906 118.863763,73.8378906 C119.924966,73.8378906 120.730622,73.4814489 121.280755,72.7685547 C121.830888,72.0556605 122.105951,71.0123767 122.105951,69.6386719 C122.105951,68.277988 121.830888,67.2444697 121.280755,66.5380859 C120.730622,65.8317022 119.918456,65.4785156 118.844232,65.4785156 C117.783029,65.4785156 116.982255,65.8268194 116.441888,66.5234375 C115.901521,67.2200556 115.631341,68.2584566 115.631341,69.6386719 Z M133.430238,73.5644531 L133.342348,73.5644531 C132.593646,74.6516981 131.473865,75.1953125 129.982973,75.1953125 C128.583226,75.1953125 127.49437,74.7168017 126.716371,73.7597656 C125.938372,72.8027296 125.549379,71.4420661 125.549379,69.6777344 C125.549379,67.9134026 125.94,66.5429736 126.721254,65.5664062 C127.502508,64.5898389 128.589736,64.1015625 129.982973,64.1015625 C131.434803,64.1015625 132.548073,64.628901 133.322816,65.6835938 L133.449769,65.6835938 L133.38141,64.9121094 L133.342348,64.1601562 L133.342348,59.8046875 L134.963441,59.8046875 L134.963441,75 L133.645082,75 L133.430238,73.5644531 Z M130.188051,73.8378906 C131.294827,73.8378906 132.097228,73.5367869 132.595277,72.9345703 C133.093327,72.3323538 133.342348,71.3606838 133.342348,70.0195312 L133.342348,69.6777344 C133.342348,68.1607997 133.090071,67.0784538 132.585512,66.4306641 C132.080952,65.7828744 131.275296,65.4589844 130.168519,65.4589844 C129.217994,65.4589844 128.490462,65.8284468 127.985902,66.5673828 C127.481342,67.3063188 127.229066,68.3496026 127.229066,69.6972656 C127.229066,71.06446 127.479715,72.0963507 127.981019,72.7929688 C128.482324,73.4895868 129.217994,73.8378906 130.188051,73.8378906 Z M147.51436,64.1015625 C147.989623,64.1015625 148.416051,64.1406246 148.793657,64.21875 L148.569048,65.7226562 C148.126337,65.6249995 147.735716,65.5761719 147.397173,65.5761719 C146.531283,65.5761719 145.790731,65.9277309 145.175493,66.6308594 C144.560256,67.3339879 144.252642,68.2096302 144.252642,69.2578125 L144.252642,75 L142.631548,75 L142.631548,64.296875 L143.969438,64.296875 L144.154985,66.2792969 L144.23311,66.2792969 C144.630248,65.5826788 145.108759,65.0455748 145.668657,64.6679688 C146.228556,64.2903627 146.843784,64.1015625 147.51436,64.1015625 Z M159.151148,69.6386719 C159.151148,71.3834723 158.711699,72.7457633 157.832789,73.7255859 C156.953878,74.7054085 155.739697,75.1953125 154.19021,75.1953125 C153.233174,75.1953125 152.383573,74.9707054 151.641382,74.5214844 C150.899191,74.0722634 150.32628,73.4277386 149.922632,72.5878906 C149.518984,71.7480427 149.317164,70.7649796 149.317164,69.6386719 C149.317164,67.8938715 149.753357,66.5348356 150.625757,65.5615234 C151.498157,64.5882113 152.709083,64.1015625 154.25857,64.1015625 C155.755973,64.1015625 156.94574,64.5996044 157.827906,65.5957031 C158.710072,66.5918019 159.151148,67.9394446 159.151148,69.6386719 Z M150.996851,69.6386719 C150.996851,71.0058662 151.270286,72.0475225 151.817164,72.7636719 C152.364041,73.4798213 153.16807,73.8378906 154.229273,73.8378906 C155.290476,73.8378906 156.096132,73.4814489 156.646265,72.7685547 C157.196398,72.0556605 157.47146,71.0123767 157.47146,69.6386719 C157.47146,68.277988 157.196398,67.2444697 156.646265,66.5380859 C156.096132,65.8317022 155.283966,65.4785156 154.209742,65.4785156 C153.148538,65.4785156 152.347765,65.8268194 151.807398,66.5234375 C151.267031,67.2200556 150.996851,68.2584566 150.996851,69.6386719 Z M170.748873,69.6386719 C170.748873,71.3834723 170.309424,72.7457633 169.430514,73.7255859 C168.551603,74.7054085 167.337422,75.1953125 165.787935,75.1953125 C164.830899,75.1953125 163.981299,74.9707054 163.239107,74.5214844 C162.496916,74.0722634 161.924005,73.4277386 161.520357,72.5878906 C161.11671,71.7480427 160.914889,70.7649796 160.914889,69.6386719 C160.914889,67.8938715 161.351082,66.5348356 162.223482,65.5615234 C163.095883,64.5882113 164.306808,64.1015625 165.856295,64.1015625 C167.353698,64.1015625 168.543465,64.5996044 169.425631,65.5957031 C170.307797,66.5918019 170.748873,67.9394446 170.748873,69.6386719 Z M162.594576,69.6386719 C162.594576,71.0058662 162.868011,72.0475225 163.414889,72.7636719 C163.961766,73.4798213 164.765795,73.8378906 165.826998,73.8378906 C166.888201,73.8378906 167.693857,73.4814489 168.24399,72.7685547 C168.794123,72.0556605 169.069185,71.0123767 169.069185,69.6386719 C169.069185,68.277988 168.794123,67.2444697 168.24399,66.5380859 C167.693857,65.8317022 166.881691,65.4785156 165.807467,65.4785156 C164.746264,65.4785156 163.94549,65.8268194 163.405123,66.5234375 C162.864756,67.2200556 162.594576,68.2584566 162.594576,69.6386719 Z M186.750895,75 L186.750895,68.0371094 C186.750895,67.1842405 186.568605,66.5445985 186.20402,66.1181641 C185.839435,65.6917296 185.273034,65.4785156 184.504801,65.4785156 C183.495682,65.4785156 182.750246,65.7682263 182.268473,66.3476562 C181.7867,66.9270862 181.545817,67.8190044 181.545817,69.0234375 L181.545817,75 L179.924723,75 L179.924723,68.0371094 C179.924723,67.1842405 179.742433,66.5445985 179.377848,66.1181641 C179.013263,65.6917296 178.443607,65.4785156 177.668864,65.4785156 C176.653234,65.4785156 175.909426,65.7828746 175.437418,66.3916016 C174.965411,67.0003286 174.729411,67.9980399 174.729411,69.3847656 L174.729411,75 L173.108317,75 L173.108317,64.296875 L174.426676,64.296875 L174.690348,65.7617188 L174.768473,65.7617188 C175.074464,65.2408828 175.505775,64.8339858 176.062418,64.5410156 C176.619062,64.2480454 177.242428,64.1015625 177.932536,64.1015625 C179.605721,64.1015625 180.69946,64.7070252 181.213786,65.9179688 L181.291911,65.9179688 C181.610923,65.3580701 182.073158,64.9153662 182.678629,64.5898438 C183.284101,64.2643213 183.974198,64.1015625 184.748942,64.1015625 C185.959885,64.1015625 186.866452,64.4124318 187.468668,65.0341797 C188.070885,65.6559276 188.371989,66.6503838 188.371989,68.0175781 L188.371989,75 L186.750895,75 Z M204.872058,75 L204.872058,68.0371094 C204.872058,67.1842405 204.689768,66.5445985 204.325183,66.1181641 C203.960597,65.6917296 203.394197,65.4785156 202.625964,65.4785156 C201.616844,65.4785156 200.871409,65.7682263 200.389636,66.3476562 C199.907862,66.9270862 199.666979,67.8190044 199.666979,69.0234375 L199.666979,75 L198.045886,75 L198.045886,68.0371094 C198.045886,67.1842405 197.863596,66.5445985 197.499011,66.1181641 C197.134426,65.6917296 196.56477,65.4785156 195.790026,65.4785156 C194.774396,65.4785156 194.030589,65.7828746 193.558581,66.3916016 C193.086573,67.0003286 192.850573,67.9980399 192.850573,69.3847656 L192.850573,75 L191.229479,75 L191.229479,64.296875 L192.547839,64.296875 L192.811511,65.7617188 L192.889636,65.7617188 C193.195627,65.2408828 193.626938,64.8339858 194.183581,64.5410156 C194.740224,64.2480454 195.363591,64.1015625 196.053698,64.1015625 C197.726884,64.1015625 198.820623,64.7070252 199.334948,65.9179688 L199.413073,65.9179688 C199.732085,65.3580701 200.19432,64.9153662 200.799792,64.5898438 C201.405264,64.2643213 202.095361,64.1015625 202.870104,64.1015625 C204.081048,64.1015625 204.987614,64.4124318 205.589831,65.0341797 C206.192048,65.6559276 206.493151,66.6503838 206.493151,68.0175781 L206.493151,75 L204.872058,75 Z M215.932673,75 L215.610408,73.4765625 L215.532283,73.4765625 C214.998426,74.1471388 214.466205,74.6012358 213.935603,74.8388672 C213.405001,75.0764986 212.742573,75.1953125 211.948298,75.1953125 C210.887095,75.1953125 210.055398,74.9218777 209.453181,74.375 C208.850965,73.8281223 208.549861,73.0501353 208.549861,72.0410156 C208.549861,69.8795465 210.278359,68.7467453 213.735408,68.6425781 L215.551814,68.5839844 L215.551814,67.9199219 C215.551814,67.0800739 215.371152,66.4599629 215.009822,66.0595703 C214.648492,65.6591777 214.070698,65.4589844 213.276423,65.4589844 C212.384492,65.4589844 211.375387,65.7324191 210.24908,66.2792969 L209.751033,65.0390625 C210.278379,64.7526027 210.856173,64.5279956 211.484431,64.3652344 C212.112689,64.2024731 212.742566,64.1210938 213.37408,64.1210938 C214.650128,64.1210938 215.595756,64.404294 216.210994,64.9707031 C216.826231,65.5371122 217.133845,66.4453063 217.133845,67.6953125 L217.133845,75 L215.932673,75 Z M212.270564,73.8574219 C213.279684,73.8574219 214.072319,73.5807319 214.648494,73.0273438 C215.224668,72.4739556 215.512751,71.6992237 215.512751,70.703125 L215.512751,69.7363281 L213.891658,69.8046875 C212.602589,69.8502606 211.673236,70.050454 211.103572,70.4052734 C210.533907,70.7600929 210.24908,71.3118452 210.24908,72.0605469 C210.24908,72.6464873 210.426487,73.0924464 210.781306,73.3984375 C211.136126,73.7044286 211.63254,73.8574219 212.270564,73.8574219 Z M223.448367,73.8574219 C223.734827,73.8574219 224.011517,73.8362632 224.278445,73.7939453 C224.545374,73.7516274 224.75696,73.7076825 224.913211,73.6621094 L224.913211,74.9023438 C224.737429,74.9869796 224.478642,75.0569659 224.136844,75.1123047 C223.795045,75.1676435 223.487431,75.1953125 223.213992,75.1953125 C221.143669,75.1953125 220.108523,74.1048286 220.108523,71.9238281 L220.108523,65.5566406 L218.57532,65.5566406 L218.57532,64.7753906 L220.108523,64.1015625 L220.792117,61.8164062 L221.729617,61.8164062 L221.729617,64.296875 L224.835086,64.296875 L224.835086,65.5566406 L221.729617,65.5566406 L221.729617,71.8554688 C221.729617,72.5000032 221.88261,72.9947899 222.188601,73.3398438 C222.494593,73.6848976 222.91451,73.8574219 223.448367,73.8574219 Z M231.091014,75.1953125 C229.508975,75.1953125 228.260615,74.7135465 227.345897,73.75 C226.431179,72.7864535 225.973827,71.4485763 225.973827,69.7363281 C225.973827,68.0110591 226.398627,66.6406301 227.248241,65.625 C228.097854,64.6093699 229.238793,64.1015625 230.671092,64.1015625 C232.012245,64.1015625 233.073432,64.5426388 233.854686,65.4248047 C234.63594,66.3069706 235.026561,67.4706959 235.026561,68.9160156 L235.026561,69.9414062 L227.653514,69.9414062 C227.686066,71.1979229 228.003446,72.1516895 228.605663,72.8027344 C229.207879,73.4537793 230.055852,73.7792969 231.149608,73.7792969 C232.301957,73.7792969 233.441269,73.5384139 234.567577,73.0566406 L234.567577,74.5019531 C233.994657,74.7493502 233.45267,74.9267573 232.9416,75.0341797 C232.43053,75.1416021 231.813674,75.1953125 231.091014,75.1953125 Z M230.651561,65.4589844 C229.792182,65.4589844 229.106967,65.7389295 228.595897,66.2988281 C228.084827,66.8587268 227.783723,67.6334586 227.692577,68.6230469 L233.28828,68.6230469 C233.28828,67.6009063 233.060417,66.8180366 232.604686,66.2744141 C232.148955,65.7307916 231.497919,65.4589844 230.651561,65.4589844 Z M246.903652,64.1015625 C247.378915,64.1015625 247.805343,64.1406246 248.182949,64.21875 L247.958339,65.7226562 C247.515629,65.6249995 247.125008,65.5761719 246.786464,65.5761719 C245.920575,65.5761719 245.180022,65.9277309 244.564785,66.6308594 C243.949547,67.3339879 243.641933,68.2096302 243.641933,69.2578125 L243.641933,75 L242.020839,75 L242.020839,64.296875 L243.35873,64.296875 L243.544277,66.2792969 L243.622402,66.2792969 C244.019539,65.5826788 244.49805,65.0455748 245.057949,64.6679688 C245.617847,64.2903627 246.233076,64.1015625 246.903652,64.1015625 Z M253.823642,75.1953125 C252.241603,75.1953125 250.993243,74.7135465 250.078525,73.75 C249.163807,72.7864535 248.706455,71.4485763 248.706455,69.7363281 C248.706455,68.0110591 249.131255,66.6406301 249.980869,65.625 C250.830483,64.6093699 251.971422,64.1015625 253.403721,64.1015625 C254.744873,64.1015625 255.80606,64.5426388 256.587314,65.4248047 C257.368568,66.3069706 257.759189,67.4706959 257.759189,68.9160156 L257.759189,69.9414062 L250.386142,69.9414062 C250.418695,71.1979229 250.736074,72.1516895 251.338291,72.8027344 C251.940507,73.4537793 252.788481,73.7792969 253.882236,73.7792969 C255.034586,73.7792969 256.173897,73.5384139 257.300205,73.0566406 L257.300205,74.5019531 C256.727285,74.7493502 256.185299,74.9267573 255.674228,75.0341797 C255.163158,75.1416021 254.546302,75.1953125 253.823642,75.1953125 Z M253.384189,65.4589844 C252.52481,65.4589844 251.839596,65.7389295 251.328525,66.2988281 C250.817455,66.8587268 250.516351,67.6334586 250.425205,68.6230469 L256.020908,68.6230469 C256.020908,67.6009063 255.793046,66.8180366 255.337314,66.2744141 C254.881583,65.7307916 254.230548,65.4589844 253.384189,65.4589844 Z M261.661602,75 L260.040508,75 L260.040508,59.8046875 L261.661602,59.8046875 L261.661602,75 Z M271.19878,75 L270.876515,73.4765625 L270.79839,73.4765625 C270.264533,74.1471388 269.732311,74.6012358 269.20171,74.8388672 C268.671108,75.0764986 268.00868,75.1953125 267.214405,75.1953125 C266.153202,75.1953125 265.321505,74.9218777 264.719288,74.375 C264.117071,73.8281223 263.815968,73.0501353 263.815968,72.0410156 C263.815968,69.8795465 265.544466,68.7467453 269.001515,68.6425781 L270.817921,68.5839844 L270.817921,67.9199219 C270.817921,67.0800739 270.637259,66.4599629 270.275929,66.0595703 C269.914599,65.6591777 269.336805,65.4589844 268.54253,65.4589844 C267.650599,65.4589844 266.641494,65.7324191 265.515186,66.2792969 L265.01714,65.0390625 C265.544486,64.7526027 266.12228,64.5279956 266.750538,64.3652344 C267.378796,64.2024731 268.008673,64.1210938 268.640186,64.1210938 C269.916234,64.1210938 270.861863,64.404294 271.4771,64.9707031 C272.092338,65.5371122 272.399952,66.4453063 272.399952,67.6953125 L272.399952,75 L271.19878,75 Z M267.536671,73.8574219 C268.54579,73.8574219 269.338426,73.5807319 269.9146,73.0273438 C270.490775,72.4739556 270.778858,71.6992237 270.778858,70.703125 L270.778858,69.7363281 L269.157765,69.8046875 C267.868696,69.8502606 266.939343,70.050454 266.369679,70.4052734 C265.800014,70.7600929 265.515186,71.3118452 265.515186,72.0605469 C265.515186,72.6464873 265.692594,73.0924464 266.047413,73.3984375 C266.402232,73.7044286 266.898647,73.8574219 267.536671,73.8574219 Z M278.714474,73.8574219 C279.000934,73.8574219 279.277624,73.8362632 279.544552,73.7939453 C279.811481,73.7516274 280.023067,73.7076825 280.179318,73.6621094 L280.179318,74.9023438 C280.003536,74.9869796 279.744749,75.0569659 279.402951,75.1123047 C279.061152,75.1676435 278.753538,75.1953125 278.480099,75.1953125 C276.409776,75.1953125 275.37463,74.1048286 275.37463,71.9238281 L275.37463,65.5566406 L273.841427,65.5566406 L273.841427,64.7753906 L275.37463,64.1015625 L276.058224,61.8164062 L276.995724,61.8164062 L276.995724,64.296875 L280.101193,64.296875 L280.101193,65.5566406 L276.995724,65.5566406 L276.995724,71.8554688 C276.995724,72.5000032 277.148717,72.9947899 277.454708,73.3398438 C277.7607,73.6848976 278.180617,73.8574219 278.714474,73.8574219 Z M283.45673,75 L281.835637,75 L281.835637,64.296875 L283.45673,64.296875 L283.45673,75 Z M281.698918,61.3964844 C281.698918,61.0253888 281.790063,60.7535816 281.972355,60.5810547 C282.154648,60.4085278 282.38251,60.3222656 282.655949,60.3222656 C282.916367,60.3222656 283.140974,60.4101554 283.329777,60.5859375 C283.51858,60.7617196 283.61298,61.0318992 283.61298,61.3964844 C283.61298,61.7610695 283.51858,62.0328767 283.329777,62.2119141 C283.140974,62.3909514 282.916367,62.4804688 282.655949,62.4804688 C282.38251,62.4804688 282.154648,62.3909514 281.972355,62.2119141 C281.790063,62.0328767 281.698918,61.7610695 281.698918,61.3964844 Z M295.650159,69.6386719 C295.650159,71.3834723 295.21071,72.7457633 294.331799,73.7255859 C293.452889,74.7054085 292.238708,75.1953125 290.689221,75.1953125 C289.732185,75.1953125 288.882584,74.9707054 288.140393,74.5214844 C287.398202,74.0722634 286.825291,73.4277386 286.421643,72.5878906 C286.017995,71.7480427 285.816174,70.7649796 285.816174,69.6386719 C285.816174,67.8938715 286.252368,66.5348356 287.124768,65.5615234 C287.997168,64.5882113 289.208094,64.1015625 290.75758,64.1015625 C292.254984,64.1015625 293.444751,64.5996044 294.326916,65.5957031 C295.209082,66.5918019 295.650159,67.9394446 295.650159,69.6386719 Z M287.495862,69.6386719 C287.495862,71.0058662 287.769296,72.0475225 288.316174,72.7636719 C288.863052,73.4798213 289.66708,73.8378906 290.728284,73.8378906 C291.789487,73.8378906 292.595143,73.4814489 293.145276,72.7685547 C293.695409,72.0556605 293.970471,71.0123767 293.970471,69.6386719 C293.970471,68.277988 293.695409,67.2444697 293.145276,66.5380859 C292.595143,65.8317022 291.782976,65.4785156 290.708752,65.4785156 C289.647549,65.4785156 288.846776,65.8268194 288.306409,66.5234375 C287.766041,67.2200556 287.495862,68.2584566 287.495862,69.6386719 Z M305.333821,75 L305.333821,68.0761719 C305.333821,67.2037717 305.135255,66.5527365 304.738118,66.1230469 C304.340981,65.6933572 303.719242,65.4785156 302.872884,65.4785156 C301.753086,65.4785156 300.932782,65.781247 300.411946,66.3867188 C299.89111,66.9921905 299.630696,67.9915295 299.630696,69.3847656 L299.630696,75 L298.009602,75 L298.009602,64.296875 L299.327962,64.296875 L299.591634,65.7617188 L299.669759,65.7617188 C300.001792,65.2343724 300.467282,64.8258478 301.066243,64.5361328 C301.665204,64.2464178 302.332515,64.1015625 303.068196,64.1015625 C304.357265,64.1015625 305.327308,64.4124318 305.978352,65.0341797 C306.629397,65.6559276 306.954915,66.6503838 306.954915,68.0175781 L306.954915,75 L305.333821,75 Z M316.706937,72.0800781 C316.706937,73.0761769 316.335847,73.8443983 315.593656,74.3847656 C314.851464,74.9251329 313.809808,75.1953125 312.468656,75.1953125 C311.049378,75.1953125 309.942618,74.9707054 309.148343,74.5214844 L309.148343,73.0175781 C309.662669,73.2779961 310.214421,73.4830722 310.803617,73.6328125 C311.392812,73.7825528 311.96084,73.8574219 312.507718,73.8574219 C313.354077,73.8574219 314.005112,73.7223321 314.460843,73.4521484 C314.916575,73.1819648 315.144437,72.7701851 315.144437,72.2167969 C315.144437,71.8001281 314.963775,71.4436864 314.602445,71.1474609 C314.241115,70.8512355 313.536369,70.5013041 312.488187,70.0976562 C311.492088,69.7265606 310.784087,69.4026707 310.364163,69.1259766 C309.944239,68.8492825 309.631743,68.535158 309.426663,68.1835938 C309.221584,67.8320295 309.119046,67.4121118 309.119046,66.9238281 C309.119046,66.0514279 309.47386,65.3629583 310.183499,64.8583984 C310.893138,64.3538386 311.866436,64.1015625 313.103421,64.1015625 C314.255771,64.1015625 315.382062,64.3359352 316.482328,64.8046875 L315.906156,66.1230469 C314.831932,65.6803363 313.858634,65.4589844 312.986234,65.4589844 C312.218001,65.4589844 311.638579,65.5794259 311.247953,65.8203125 C310.857326,66.0611991 310.662015,66.3932271 310.662015,66.8164062 C310.662015,67.102866 310.735256,67.3470042 310.881742,67.5488281 C311.028227,67.7506521 311.264227,67.9427074 311.589749,68.125 C311.915272,68.3072926 312.540266,68.5709618 313.464749,68.9160156 C314.734287,69.3782575 315.592026,69.8437477 316.037992,70.3125 C316.483957,70.7812523 316.706937,71.3704392 316.706937,72.0800781 Z M326.185521,75 L326.185521,68.0761719 C326.185521,67.2037717 325.986956,66.5527365 325.589818,66.1230469 C325.192681,65.6933572 324.570942,65.4785156 323.724584,65.4785156 C322.598276,65.4785156 321.776344,65.7845021 321.258764,66.3964844 C320.741183,67.0084666 320.482396,68.0110607 320.482396,69.4042969 L320.482396,75 L318.861303,75 L318.861303,59.8046875 L320.482396,59.8046875 L320.482396,64.4042969 C320.482396,64.9576851 320.456355,65.4166648 320.404271,65.78125 L320.501928,65.78125 C320.82094,65.2669245 321.275037,64.8616551 321.864232,64.5654297 C322.453428,64.2692042 323.125622,64.1210938 323.880834,64.1210938 C325.189434,64.1210938 326.17087,64.431963 326.82517,65.0537109 C327.47947,65.6754588 327.806615,66.6634047 327.806615,68.0175781 L327.806615,75 L326.185521,75 Z M332.275434,75 L330.65434,75 L330.65434,64.296875 L332.275434,64.296875 L332.275434,75 Z M330.517621,61.3964844 C330.517621,61.0253888 330.608766,60.7535816 330.791059,60.5810547 C330.973352,60.4085278 331.201214,60.3222656 331.474653,60.3222656 C331.735071,60.3222656 331.959678,60.4101554 332.148481,60.5859375 C332.337284,60.7617196 332.431684,61.0318992 332.431684,61.3964844 C332.431684,61.7610695 332.337284,62.0328767 332.148481,62.2119141 C331.959678,62.3909514 331.735071,62.4804688 331.474653,62.4804688 C331.201214,62.4804688 330.973352,62.3909514 330.791059,62.2119141 C330.608766,62.0328767 330.517621,61.7610695 330.517621,61.3964844 Z M340.21105,75.1953125 C339.514432,75.1953125 338.878045,75.0667331 338.30187,74.8095703 C337.725695,74.5524076 337.242302,74.1569037 336.851675,73.6230469 L336.734487,73.6230469 C336.812613,74.24805 336.851675,74.840492 336.851675,75.4003906 L336.851675,79.8046875 L335.230581,79.8046875 L335.230581,64.296875 L336.54894,64.296875 L336.77355,65.7617188 L336.851675,65.7617188 C337.268343,65.1757783 337.753365,64.7526055 338.306753,64.4921875 C338.860141,64.2317695 339.4949,64.1015625 340.21105,64.1015625 C341.630328,64.1015625 342.725694,64.5865837 343.497182,65.5566406 C344.268671,66.5266976 344.654409,67.887361 344.654409,69.6386719 C344.654409,71.3964932 344.26216,72.7620394 343.477651,73.7353516 C342.693142,74.7086637 341.604286,75.1953125 340.21105,75.1953125 Z M339.976675,65.4785156 C338.882919,65.4785156 338.091911,65.781247 337.603628,66.3867188 C337.115344,66.9921905 336.864696,67.9557226 336.851675,69.2773438 L336.851675,69.6386719 C336.851675,71.1425856 337.102323,72.2184212 337.603628,72.8662109 C338.104932,73.5140006 338.908961,73.8378906 340.015737,73.8378906 C340.940221,73.8378906 341.664498,73.4635454 342.188589,72.7148438 C342.71268,71.9661421 342.974722,70.9342514 342.974722,69.6191406 C342.974722,68.2844985 342.71268,67.2607458 342.188589,66.5478516 C341.664498,65.8349574 340.9272,65.4785156 339.976675,65.4785156 Z M353.908384,72.0800781 C353.908384,73.0761769 353.537294,73.8443983 352.795103,74.3847656 C352.052912,74.9251329 351.011255,75.1953125 349.670103,75.1953125 C348.250825,75.1953125 347.144065,74.9707054 346.34979,74.5214844 L346.34979,73.0175781 C346.864116,73.2779961 347.415868,73.4830722 348.005064,73.6328125 C348.594259,73.7825528 349.162288,73.8574219 349.709165,73.8574219 C350.555524,73.8574219 351.206559,73.7223321 351.66229,73.4521484 C352.118022,73.1819648 352.345884,72.7701851 352.345884,72.2167969 C352.345884,71.8001281 352.165222,71.4436864 351.803892,71.1474609 C351.442562,70.8512355 350.737816,70.5013041 349.689634,70.0976562 C348.693535,69.7265606 347.985535,69.4026707 347.565611,69.1259766 C347.145687,68.8492825 346.83319,68.535158 346.628111,68.1835938 C346.423032,67.8320295 346.320494,67.4121118 346.320494,66.9238281 C346.320494,66.0514279 346.675308,65.3629583 347.384947,64.8583984 C348.094586,64.3538386 349.067883,64.1015625 350.304869,64.1015625 C351.457218,64.1015625 352.583509,64.3359352 353.683775,64.8046875 L353.107603,66.1230469 C352.033379,65.6803363 351.060081,65.4589844 350.187681,65.4589844 C349.419448,65.4589844 348.840027,65.5794259 348.4494,65.8203125 C348.058773,66.0611991 347.863462,66.3932271 347.863462,66.8164062 C347.863462,67.102866 347.936704,67.3470042 348.083189,67.5488281 C348.229674,67.7506521 348.465674,67.9427074 348.791197,68.125 C349.116719,68.3072926 349.741713,68.5709618 350.666197,68.9160156 C351.935734,69.3782575 352.793473,69.8437477 353.239439,70.3125 C353.685405,70.7812523 353.908384,71.3704392 353.908384,72.0800781 Z" id="Keep-good-roommate-r" fill="#4A4A4A"></path>
        <text id="5" font-family="OpenSans-Bold, Open Sans" font-size="36" font-weight="bold" letter-spacing="-0.868235409" fill="#4A4A4A">
            <tspan x="190" y="43">5</tspan>
        </text>
        <g id="img-Roommates2" transform="translate(-5.000000, 116.000000)">
            <circle id="Oval-6" fill-opacity="0.6" fill="#A2EFFC" cx="100" cy="199" r="100"></circle>
            <circle id="Oval-6" fill-opacity="0.6" fill="#49C89F" cx="319" cy="199" r="100"></circle>
            <circle id="Oval-6" fill-opacity="0.6" fill="#FCFDA4" cx="200" cy="106" r="100"></circle>
            <g id="Figure1" transform="translate(32.000000, 136.000000)">
                <g id="Neck">
                    <use fill="#FFFFFF" fill-rule="evenodd" xlink:href="#path-1"></use>
                    <path stroke="#4A4A4A" stroke-width="1" d="M59.6088184,42.2312596 L59.6088184,58.700159 L70.6127198,58.700159 C69.5718668,57.8645462 68.8087479,56.515291 68.3299167,54.6775595 C67.558651,51.717478 67.5323875,47.5728719 68.2409269,42.2312596 L59.6088184,42.2312596 Z"></path>
                </g>
                <path d="M69.7842569,50.4657093 C81.4301898,50.4657093 81.4301898,35.9082932 81.4301898,23.2918658 C81.4301898,10.6754385 73.6090971,4.85247205 63.9612904,4.85247205 C54.3134837,4.85247205 46.492391,13.1080699 46.492391,23.2918658 C46.492391,33.4756618 58.1383239,50.4657093 69.7842569,50.4657093 Z" id="Head" stroke="#4A4A4A" fill="#FFFFFF"></path>
                <g id="Rectangle-18">
                    <use fill="#4A4A4A" fill-rule="evenodd" xlink:href="#path-2"></use>
                    <path stroke="#4A4A4A" stroke-width="1" d="M38.1829027,63.4673055 C35.3775831,72.0291305 35.9250721,83.057588 39.0390662,101.772789 C39.3087535,103.393618 39.5796542,104.980565 39.9935744,107.376965 C41.3008988,114.945751 41.6256866,116.8758 42.1343871,120.267137 L42.1539618,120.397634 L42.1065918,120.520796 C35.7117884,137.147285 30.8994499,155.360071 27.6701344,175.159488 L102.08215,175.159488 C93.1510684,148.96558 87.7217382,130.729518 85.7912257,120.433451 L85.7907269,120.251864 C91.4332916,89.2177582 91.6849776,84.178928 88.7309614,63.4532779 C85.681845,61.4645707 80.7725312,59.3041596 75.7161744,57.9352441 C74.1716851,57.5171021 72.8920323,57.6886283 69.722953,58.5030311 C67.3559154,59.111322 66.2129501,59.3245451 64.8116088,59.3046243 C64.4319706,59.2992276 64.0432715,59.2716841 63.6411525,59.2231204 C62.5270417,59.0885698 61.6147187,58.8675347 59.7030993,58.323528 C56.43744,57.3941897 55.0875618,57.1697724 53.4602127,57.5210501 C47.1650468,58.8799174 41.1410509,61.3069593 38.1829027,63.4673055 Z"></path>
                </g>
                <g id="Path">
                    <use fill="#FFFFFF" fill-rule="evenodd" xlink:href="#path-3"></use>
                    <path stroke="#4A4A4A" stroke-width="1" d="M88.8160993,138.141199 C90.3180745,143.382853 91.5876763,146.184033 92.1500986,146.184033 C92.749803,146.184033 94.2474581,139.399392 95.3526842,130.088019 C96.613779,119.463474 97.3714813,106.840933 97.3104835,95.7433847 C97.2684925,88.1038278 95.644147,80.315017 93.0164754,73.3105487 C91.1674007,68.3815517 88.7068382,64.0188591 88.3109951,64.0188591 C88.0947874,64.0188591 86.9711178,65.5030206 86.0945364,67.3876151 C84.8946724,69.9672464 84.1595325,72.956906 84.1595325,75.9293157 C84.1595325,76.8441297 86.9763138,86.8379923 87.8646956,90.793751 C88.6204327,94.1588741 89.2734594,97.6347259 89.8197426,101.32785 C90.5667348,106.37786 90.2303626,118.629875 88.8160993,138.141199 Z"></path>
                </g>
                <g id="Hand" transform="translate(68.881697, 115.828508)" fill="#FFFFFF" stroke="#4A4A4A">
                    <path d="M6.1967774,3.56687263 C8.64440298,7.30475358 10.2703942,9.62737146 11.074751,10.5347263 C11.8791078,11.4420811 13.5856641,12.6452773 16.1944198,14.144315 C17.8973661,14.6682153 18.7488393,15.5771617 18.7488393,16.8711542 C18.7488393,18.812143 13.9439805,18.3003541 10.078755,16.1833 C6.21352954,14.0662458 6.1967774,10.3603335 5.22628299,8.41934468 C4.57928672,7.12535214 3.93229045,5.50786145 3.28529417,3.56687263 L6.1967774,3.56687263 Z" id="Path-7" transform="translate(11.017067, 10.824389) rotate(-37.000000) translate(-11.017067, -10.824389) "></path>
                    <path d="M6.1424851,8.0432001 C8.73309939,7.85279198 10.4509102,7.83208673 11.2959176,7.98108433 C12.4124859,8.17796544 13.5290541,8.37484654 14.6456223,8.57172764 L14.6456223,8.57172764 C15.128146,8.65680958 15.4503361,9.11694483 15.3652542,9.59946849 L15.3652542,9.59946849 C15.2801723,10.0819921 14.820037,10.4041823 14.3375134,10.3191004 C13.3795423,10.1501842 12.4215712,9.98126808 11.4636001,9.81235194 C10.8482209,9.70384398 9.95816348,9.99591666 8.79342786,10.68857" id="Path-8" transform="translate(10.760683, 9.285770) rotate(-15.000000) translate(-10.760683, -9.285770) "></path>
                </g>
                <g id="Path">
                    <use fill="#FFFFFF" fill-rule="evenodd" xlink:href="#path-4"></use>
                    <path stroke="#4A4A4A" stroke-width="1" d="M71.600229,127.208147 L73.4149416,123.578722 C55.9449804,117.174343 46.5759916,111.576868 45.2332022,106.591585 C44.4357412,103.630906 44.4950051,98.3146524 45.1386707,86.9449733 C45.1614022,86.5434452 45.1844403,86.1393479 45.2168119,85.5735627 C45.9383567,72.9625389 46.0158822,68.6039899 45.2517571,66.6936772 C43.3452423,61.9273901 36.8916074,61.5947285 34.3231773,66.7315887 C31.7644833,71.8489766 32.1281863,98.3774717 34.366254,109.56781 C35.5958295,115.715687 48.026987,121.673881 71.600229,127.208147 Z"></path>
                </g>
                <path d="M55.2268407,20.3803826 L60.0793128,27.1738435 C65.9635498,26.6168093 70.1690255,25.9698131 72.6957401,25.2328547 C75.2224546,24.4958962 78.7809341,22.8784056 83.3711786,20.3803826 C82.5198686,14.3531024 80.5788798,9.82412853 77.5482121,6.79346087 C73.0022106,2.24745938 62.990796,-1.94098882 52.3153575,2.91148323 C41.639919,7.76395528 42.6104134,11.7583266 37.7579413,17.4688994 C34.52296,21.2759479 29.3469898,25.8049218 22.2300308,31.0558211 L52.3153575,45.6132373 L55.2268407,20.3803826 Z" id="Path-6" stroke="#4A4A4A" fill="#4A4A4A"></path>
                <path d="M74.8599426,32.8803506 C77.3508783,35.645415 78.5963461,37.3890699 78.5963461,38.1113155 C78.5963461,38.833561 77.3508783,38.833561 74.8599426,38.1113155" id="Path-3" stroke="#4A4A4A"></path>
            </g>
            <g id="Figure2" transform="translate(273.000000, 118.000000)">
                <path d="M14.7527463,150.032741 C13.7804949,152.218391 13.2943692,153.676768 13.2943692,154.407872 C13.2943692,155.866249 14.4833731,155.596876 14.7527463,155.866249 C15.4819349,156.595438 17.8567425,160.221601 17.6695006,160.970569 C17.4822586,161.719537 17.0748224,162.347532 16.2111234,161.699758 C15.3474245,161.051983 14.949427,159.118831 14.7527463,159.512192 C14.5560656,159.905553 14.7527463,162.387058 14.7527463,163.887323 C14.7527463,165.387589 14.0235577,166.804078 12.2005863,166.804078 C10.3776149,166.804078 8.9192378,166.074889 8.19004923,164.616512 C7.46086067,163.158135 7.46086067,160.970569 8.19004923,158.053815 C8.9192378,155.137061 10.2672166,155.527321 11.1068035,154.407872 C11.6665281,153.661572 11.7880595,152.203195 11.4713978,150.032741" id="Path-18" stroke="#4A4A4A" fill="#FFFFFF" transform="translate(12.661568, 158.418409) rotate(-7.000000) translate(-12.661568, -158.418409) "></path>
                <g transform="translate(49.077990, 150.000000) scale(-1, 1) translate(-49.077990, -150.000000) translate(1.077990, 0.000000)">
                    <g id="Neck">
                        <use fill="#FFFFFF" fill-rule="evenodd" xlink:href="#path-5"></use>
                        <path stroke="#4A4A4A" stroke-width="1" d="M49.6870832,48.5128055 L49.6870832,64.5587719 L58.1570645,64.5587719 L58.1570645,48.5128055 L49.6870832,48.5128055 Z"></path>
                    </g>
                    <path d="M59.5767319,54.482558 C70.9407095,54.482558 72.9543743,39.4228359 70.9407095,27.9666102 C68.9270447,16.5103844 63.3089704,9.97364561 53.8947431,9.97364561 C44.4805158,9.97364561 36.8487766,18.0293702 36.8487766,27.9666102 C36.8487766,37.9038501 48.2127543,54.482558 59.5767319,54.482558 Z" id="Head" stroke="#4A4A4A" fill="#FFFFFF" transform="translate(54.238547, 32.228102) rotate(23.000000) translate(-54.238547, -32.228102) "></path>
                    <g id="Combined-Shape">
                        <use fill="#4A4A4A" fill-rule="evenodd" xlink:href="#path-6"></use>
                        <path stroke="#4A4A4A" stroke-width="1" d="M28.8794755,275.445787 C28.855498,275.583758 28.831502,275.721923 28.8074876,275.860282 L29.3001223,275.445787 L28.8794755,275.445787 Z M20.9270972,275.445787 L20.4172798,275.445787 L20.9171883,275.955349 C20.9204426,275.785227 20.9237479,275.615373 20.9271041,275.445787 Z M26.8884853,155.305178 L26.7413637,155.249329 L26.7130496,155.238583 L26.6365076,155.209545 L26.4591279,155.677023 L26.9469295,155.567253 C26.9272102,155.479624 26.9077296,155.392266 26.8884877,155.305179 Z M29.5347297,133.503347 C29.5946598,133.410567 29.655279,133.318037 29.7165873,133.225757 L29.2056986,133.440071 L29.5347297,133.503347 Z M78.0994735,142.84272 L78.4496016,142.910053 L78.0490506,142.48976 L78.0994735,142.84272 Z M79.7512241,154.357305 L80.2091266,154.358784 L80.2107421,153.858787 L79.7111787,153.837896 C79.7075011,153.925857 79.7075011,153.925857 79.7038288,154.01376 L79.7512241,154.357305 Z M79.8938672,155.391255 L79.9430469,155.747734 L80.4380216,155.677023 L80.2125206,155.230762 C80.0582623,155.308628 80.0582623,155.308628 79.9044045,155.385964 L79.8938672,155.391255 Z M70.5786929,277.208533 C70.5448448,277.387612 70.5108815,277.566962 70.4768031,277.746584 L71.1054008,277.359021 L70.5786929,277.208533 Z M64.7935535,275.555636 L64.4764139,275.465025 L64.8350405,275.882567 C64.8211462,275.77356 64.8073172,275.664583 64.7935535,275.555636 Z"></path>
                    </g>
                    <g id="Combined-Shape">
                        <use fill="#FFFFFF" fill-rule="evenodd" xlink:href="#path-7"></use>
                        <path stroke="#4A4A4A" stroke-width="1" d="M0.511542627,139.015119 L6.18572223,142.797905 C9.572552,120.417222 12.2932693,106.588178 14.3663102,101.253592 C15.4795317,98.3889239 17.5815161,95.1511702 24.8136129,84.6687539 L25.7356403,83.33234 L25.7251567,84.9559245 C25.6237405,100.662171 27.2055532,121.504978 29.2887433,135.430203 C29.2887433,142.612876 67.2361624,147.708645 78.044144,142.618567 C78.0478614,137.72735 78.1388735,132.528611 78.3130112,126.379245 C78.4032274,123.193419 78.4945801,120.386986 78.6756488,115.085296 C79.1017951,102.607732 79.238741,97.7857739 79.2924529,91.5887851 L80.2856644,91.5111189 C81.1217112,96.5399551 81.7489007,103.458552 82.1685533,112.271256 C82.4416877,118.00708 82.4437932,131.697878 82.1753844,153.358787 L87.817819,153.358787 C92.1356183,130.593516 94.2945133,115.350262 94.2945133,107.659822 C94.2945133,84.0128634 87.3951361,66.6140514 77.7551475,65.6910071 L77.5708336,65.6362159 C74.7698363,64.1692828 68.3646237,62.3632867 58.3991076,60.2403456 C57.280806,62.9380973 56.0575229,64.3284488 54.628733,64.3181915 C53.2270792,64.3081289 51.5575909,62.8894458 49.5032148,60.0923815 C42.1175469,59.7459014 36.5566911,59.8081659 32.8302347,60.2767131 L32.6453072,60.2653678 C30.0899108,59.6193293 26.7567855,61.1213282 22.9540993,65.0377489 C22.3491581,65.6607833 21.7404706,66.2724433 20.9427821,67.0628335 C21.1009258,66.9061367 19.4433123,68.5446055 19.0083947,68.9787854 C11.7461486,76.2287128 8.17545166,82.219637 4.13101407,96.3741583 C2.69007592,102.137911 1.48018939,116.368323 0.511542627,139.015119 Z"></path>
                    </g>
                    <path d="M41.6110981,149.048037 C39.7952488,151.598357 38.2169186,153.492353 36.8761074,154.730025 C35.5352962,155.967697 33.1678009,157.072528 29.7736214,158.044519" id="Line-5" stroke="#4A4A4A" stroke-linecap="square"></path>
                    <path d="M43.3452029,25.3783446 C50.241628,27.1060551 54.9226111,27.6103523 57.3881523,26.8912361 C58.8703724,26.4589219 61.157001,27.2600981 64.9641374,26.8912361 C66.6479349,26.728098 69.5804725,29.433356 73.7617501,35.0070101 C74.3387004,28.4671155 75.0678889,24.1835273 75.9493158,22.1562454 C76.8307427,20.1289636 78.5321827,18.8221062 81.0536357,18.2356731 C74.9751928,11.6317302 71.253029,7.9897819 69.8871444,7.30982839 C61.2315814,3.00098687 54.3184951,1.04070073 43.9015156,5.77569141 C33.4845361,10.5106821 34.6601971,16.5839292 29.9252064,22.1562454 C26.768546,25.8711229 28.3468762,26.818121 34.6601971,24.9972398 C34.0172525,24.5882481 34.0172525,25.2195802 34.6601971,26.8912361 C35.0376194,27.872534 34.4632873,25.2107755 36.5731333,29.1735016 C37.5626726,31.0320604 37.5626726,33.7057518 36.5731333,37.1945758 L43.3452029,25.3783446 Z" id="Path-6" stroke="#4A4A4A" fill="#4A4A4A" transform="translate(54.700256, 20.111493) rotate(6.000000) translate(-54.700256, -20.111493) "></path>
                    <path d="M57.349371,37.1886168 C55.4048682,39.8867372 54.4326167,41.5881772 54.4326167,42.2929367 C54.4326167,42.9976962 55.4048682,42.9976962 57.349371,42.2929367" id="Path-11" stroke="#4A4A4A" transform="translate(55.890994, 40.005062) scale(-1, 1) translate(-55.890994, -40.005062) "></path>
                </g>
                <g id="LuggugeAndHand" transform="translate(89.736178, 139.225089)" fill="#FFFFFF" stroke="#4A4A4A">
                    <path d="M8.43148349,0.779114988 L7.70229493,3.69586925 C6.46392029,3.47586676 5.49166887,3.71892961 4.78554067,4.42505781 C4.20374613,5.00685235 2.15835657,6.64883008 1.41025162,8.89221211 C0.796386073,10.7330433 1.41025162,13.2191768 1.41025162,13.8125394 C1.41025162,15.1290204 4.78554067,18.0378915 7.70229493,16.6294408 C8.702931,16.1462508 8.33876715,10.7908815 9.88986062,9.5871873 C10.6311819,9.01190017 11.2694066,15.3129598 12.6778573,13.8125394 C13.8653838,12.5474691 12.9360516,9.66137144 9.88986062,5.15424637 L11.3482377,2.96668068" id="Path-5" transform="translate(7.157459, 8.892212) scale(-1, 1) translate(-7.157459, -8.892212) "></path>
                </g>
            </g>
            <g id="Figure3" transform="translate(100.000000, 6.000000)">
                <mask id="mask-9" fill="white">
                    <use xlink:href="#path-8"></use>
                </mask>
                <g id="Mask"></g>
                <g mask="url(#mask-9)">
                    <g transform="translate(45.070896, 59.382463)">
                        <path d="M29.1219683,66.5644989 C38.3269332,61.8112564 44.706031,59.0377356 48.2592617,58.2439366 C57.6916474,56.1367222 63.8522513,58.8447579 67.3965552,59.908049 C72.9435967,61.5721615 80.1547508,65.7324427 89.0300173,72.3888926 L84.8697361,99.8467484 L23.2975746,99.8467484 L29.1219683,66.5644989 Z" id="Rectangle-2" stroke="none" fill="#FFFFFF" fill-rule="evenodd"></path>
                        <g id="Neck" stroke="none" fill="none">
                            <use fill="#FFFFFF" fill-rule="evenodd" xlink:href="#path-10"></use>
                            <path stroke="#4A4A4A" stroke-width="1" d="M51.3993685,43.1742267 C51.6318135,49.6532233 51.625275,53.4768814 51.3709755,54.7401224 C51.1090115,56.0414372 50.0593271,57.47975 48.2366066,59.0888809 C50.9156758,63.7040745 53.4874171,65.9733147 55.893485,65.9733147 C58.2483505,65.9733147 60.7619131,63.7996282 63.3794737,59.3803359 C61.459197,58.9734927 60.1435872,57.4057653 59.456177,54.7675171 C58.7367723,52.0064754 58.7105337,48.1461764 59.3673385,43.1742322 L51.3993685,43.1742267 Z"></path>
                        </g>
                        <path d="M54.9840998,50.8808088 C66.4733147,50.8808088 72.0047642,36.3754085 72.0047642,24.5984304 C72.0047642,12.8214522 63.0627409,7.38592385 54.0568626,7.38592385 C45.0509843,7.38592385 36.9296193,15.0922255 36.9296193,24.5984304 C36.9296193,34.1046352 43.4948849,50.8808088 54.9840998,50.8808088 Z" id="Head" stroke="#4A4A4A" stroke-width="1" fill="#FFFFFF" fill-rule="evenodd"></path>
                        <path d="M21.3371134,158.387034 L22.9784298,158.387034 C26.2610626,159.481245 27.902379,160.575456 27.902379,161.669667 C27.902379,162.763878 26.2610626,162.763878 22.9784298,161.669667 C25.0127161,165.668803 26.1069271,168.130777 26.2610626,169.05559 C26.4922658,170.44281 26.8506982,172.322274 24.6197462,173.158881 C22.3887942,173.995488 21.8554238,174.065925 19.6957969,172.338223 C18.2560457,171.186422 17.1618348,168.724448 16.4131641,164.952299 L16.4131641,161.669667 L15.5925059,158.387034 L18.0544805,155.925059 L21.3371134,158.387034 Z" id="Path-19" stroke="#4A4A4A" stroke-width="1" fill="#FFFFFF" fill-rule="evenodd"></path>
                        <g id="Group-2" stroke="none" stroke-width="1" fill="none" fill-rule="evenodd" transform="translate(0.000000, 59.075993)">
                            <path d="M0,0.0113980306 C13.1305313,0.558503501 21.3371134,2.74692538 24.6197462,6.57666368 C29.5436954,12.3212711 48.4188342,50.2007865 48.4188342,59.9194471 C48.4188342,66.3985541 43.4948849,80.3497436 33.6469864,101.773016 C31.8592038,100.476334 30.4914401,99.6556754 29.5436954,99.311041 C28.5959507,98.9664065 27.9120689,98.6928538 27.4920499,98.4903828 L31.1850118,65.6640545 L29.5436954,59.9194471 L21.3371134,41.0443083 L24.2094171,23.810486" id="Path-19-Copy" stroke="#4A4A4A" fill="#FFFFFF" transform="translate(24.209417, 50.892207) scale(-1, 1) translate(-24.209417, -50.892207) "></path>
                            <g id="Group" transform="translate(68.109516, 112.511398) scale(-1, 1) translate(-68.109516, -112.511398) translate(24.609516, 0.011398)" stroke="#4A4A4A">
                                <path d="M21.3371134,99.2996429 L22.9784298,99.2996429 C26.2610626,100.393854 27.902379,101.488065 27.902379,102.582276 C27.902379,103.676487 26.2610626,103.676487 22.9784298,102.582276 C25.0127161,106.581412 26.1069271,109.043387 26.2610626,109.9682 C26.4922658,111.355419 26.8506982,113.234884 24.6197462,114.071491 C22.3887942,114.908098 21.8554238,114.978534 19.6957969,113.250832 C18.2560457,112.099031 17.1618348,109.637057 16.4131641,105.864909 L16.4131641,102.582276 L15.5925059,99.2996429 L18.0544805,96.8376683 L21.3371134,99.2996429 Z" id="Path-19" fill="#FFFFFF"></path>
                                <path d="M0,0 C13.1305313,0.547105471 21.3371134,2.73552735 24.6197462,6.56526565 C29.5436954,12.3098731 48.4188342,50.1893885 48.4188342,59.908049 C48.4188342,66.3871561 43.4948849,80.3383456 33.6469864,101.761618 C31.8592038,100.464936 30.4914401,99.6442774 29.5436954,99.2996429 C28.5959507,98.9550085 27.9120689,98.6814558 27.4920499,98.4789847 L31.1850118,65.6526565 L29.5436954,61.5493655 L21.3371134,41.0329103 L24.2094171,23.799088" id="Path-19-Copy" fill="#FFFFFF" transform="translate(24.209417, 50.880809) scale(-1, 1) translate(-24.209417, -50.880809) "></path>
                                <path d="M84.9187511,39.5075252 C82.4102786,52.6866235 81.0709929,62.5080521 80.900894,68.9718109 C80.730795,75.4355697 81.1772236,82.5784269 82.2401797,90.4003824 L25.9901797,90.4003824 C28.5121264,79.6776374 29.8514122,71.4187089 30.0080368,65.6235966 C30.1646615,59.8284844 29.2718043,51.5695559 27.3294654,40.8468109 L84.9187511,39.5075252 Z" id="Path-4" fill="#4A4A4A"></path>
                                <path d="M61.3855609,122.543239 L51.7244312,122.543239 L39.7247724,171.9536 C41.3660888,181.254393 42.186747,188.366764 42.186747,193.290713 C42.186747,198.214662 41.3660888,208.609666 39.7247724,224.475725 L33.1595067,224.475725 L23.3116082,169.491625 L26.1144969,122.543239 L25.9901797,122.543239 L25.9901797,90.4003824 L82.2401797,90.4003824 L86.2580368,114.507525 L86.2580368,119.376557 C86.9961088,136.137975 86.9095111,152.150548 85.9982439,167.414274 C84.8167804,187.203787 82.6283585,206.078926 79.4329782,224.03969 L72.8677126,224.03969 C71.5856975,211.513614 70.7650393,201.11861 70.4057379,192.854678 C69.8667859,180.458781 71.9363821,177.910119 70.4057379,167.414274 C65.9427426,150.454892 62.9360169,135.49788 61.3855609,122.543239 Z" id="Combined-Shape" fill="#FFFFFF"></path>
                            </g>
                        </g>
                        <path d="M55.6644687,84.6175373 C70.1627636,84.6175373 75.9176422,95.284204 72.9291045,116.617537 L37.9291045,116.617537 C35.2543856,95.284204 41.1661737,84.6175373 55.6644687,84.6175373 Z" id="Triangle" stroke="#4A4A4A" stroke-width="1" fill="#4A4A4A" fill-rule="evenodd"></path>
                        <path d="M54.1634416,32.00567 C52.2695594,34.9514282 51.4489012,36.8662974 51.701467,37.7502775 C51.9540327,38.6342576 53.3217964,38.6342576 55.804758,37.7502775" id="Path-23" stroke="#4A4A4A" stroke-width="1" fill="none"></path>
                        <path d="M36.9296193,25.4404044 L41.0329103,27.0817208 L41.0329103,20.5164552 C45.1372581,21.0635606 49.5141019,21.3371134 54.1634416,21.3371134 C58.8127813,21.3371134 63.4631778,21.0635606 68.1146311,20.5164552 L68.9352893,26.2610626 L72.2179221,22.9784298 C72.9719556,18.8967426 72.4248501,15.6141097 70.5766057,13.1305313 C67.8042391,9.40516363 66.8787202,10.253304 64.8319983,8.20658206 C63.467517,6.84210077 61.8262006,4.92723162 59.908049,2.46197462 L56.6254162,4.92394924 L53.3427834,2.46197462 L53.3427834,4.92394924 L47.5981759,0 L45.9568595,6.56526565 L43.4948849,4.92394924 L43.4948849,8.20658206 C40.2961627,9.86971949 38.1077408,12.4684705 36.9296193,16.002835 C35.7514978,19.5371996 35.7514978,22.683056 36.9296193,25.4404044 Z" id="Path-24" stroke="#4A4A4A" stroke-width="1" fill="#4A4A4A" fill-rule="evenodd"></path>
                    </g>
                </g>
            </g>
            <g id="Face-Smile" transform="translate(304.000000, 64.000000)" stroke="#4A4A4A">
                <circle id="Oval-4" fill="#FFFFFF" cx="15" cy="15" r="15"></circle>
                <path d="M11.440678,21.1016949 C12.2881356,22.6271186 13.559322,23.3898305 15.2542373,23.3898305 C16.9491525,23.3898305 18.220339,22.6271186 19.0677966,21.1016949" id="Line" stroke-linecap="round" stroke-linejoin="round"></path>
                <circle id="Oval" fill="#4A4A4A" cx="9.12711864" cy="10.6525424" r="1.5"></circle>
                <circle id="Oval" fill="#4A4A4A" cx="20.8220339" cy="10.6525424" r="1.5"></circle>
            </g>
            <g id="Face-Smile" transform="translate(185.000000, 0.000000)" stroke="#4A4A4A">
                <circle id="Oval-4" fill="#FFFFFF" cx="15" cy="15" r="15"></circle>
                <path d="M11.440678,21.1016949 C12.2881356,22.6271186 13.559322,23.3898305 15.2542373,23.3898305 C16.9491525,23.3898305 18.220339,22.6271186 19.0677966,21.1016949" id="Line" stroke-linecap="round" stroke-linejoin="round"></path>
                <circle id="Oval" fill="#4A4A4A" cx="9.12711864" cy="10.6525424" r="1.5"></circle>
                <circle id="Oval" fill="#4A4A4A" cx="20.8220339" cy="10.6525424" r="1.5"></circle>
            </g>
            <g id="Face-Smile" transform="translate(64.000000, 69.000000)" stroke="#4A4A4A">
                <circle id="Oval-4" fill="#FFFFFF" cx="15" cy="15" r="15"></circle>
                <path d="M11.440678,21.1016949 C12.2881356,22.6271186 13.559322,23.3898305 15.2542373,23.3898305 C16.9491525,23.3898305 18.220339,22.6271186 19.0677966,21.1016949" id="Line" stroke-linecap="round" stroke-linejoin="round"></path>
                <circle id="Oval" fill="#4A4A4A" cx="9.12711864" cy="10.6525424" r="1.5"></circle>
                <circle id="Oval" fill="#4A4A4A" cx="20.8220339" cy="10.6525424" r="1.5"></circle>
            </g>
        </g>
    </g>
</svg>