<?xml version="1.0" encoding="UTF-8"?>
<svg width="800px" height="743px" viewBox="0 0 800 743" version="1.1" xmlns="http://www.w3.org/2000/svg" xmlns:xlink="http://www.w3.org/1999/xlink">
    <!-- Generator: Sketch 49.1 (51147) - http://www.bohemiancoding.com/sketch -->
    <title>ThankYou</title>
    <desc>Created with Sketch.</desc>
    <defs>
        <path d="M0,16 C6.68288118,5.33333333 13.6828812,2.40548322e-16 21,0 C28.3171188,0 35.3171188,5.33333333 42,16 C35,24 28,28 21,28 C14,28 7,24 0,16 Z" id="path-1"></path>
        <path d="M0,16 C5.34954784,5.33333333 11.6828812,3.88578059e-16 19,0 C26.3171188,0 33.9837855,5.33333333 42,16 C35,24 28,28 21,28 C14,28 7,24 0,16 Z" id="path-3"></path>
        <path d="M237.67281,461.852162 C233.362946,473.71344 232.138676,484.762719 234,495 C236.666667,509.666667 263,525 313,541 C275.703862,552.539091 247.203862,558.539091 227.5,559 C207.796138,559.460909 179.296138,554.794242 142,545 C191.333333,521 216,501.666667 216,487 C216,478.818916 214.755431,470.948974 212.266294,463.390175 C151.354698,455.129384 65,364.161828 65,265.110056 C65,161.218304 111,80.9164125 221,76.9973989 C331,73.0783852 371,161.218304 371,265.110056 C371,359.860374 296.973158,447.213365 237.67281,461.852162 Z" id="path-5"></path>
    </defs>
    <g id="ThankYou" stroke="none" stroke-width="1" fill="none" fill-rule="evenodd">
        <g id="ThankYouForWatchiing" transform="translate(180.000000, 36.000000)">
            <g id="fIFI" transform="translate(115.000000, 0.000000)">
                <path d="M4,126 C8.97421882,105.471197 11.9742188,91.137864 13,83 C14.0257812,74.862136 14.0257812,51.1954693 13,12 L47,61 C65.9232222,58.7506564 79.9232222,57.4173231 89,57 C98.0767778,56.5826769 113.076778,56.5826769 134,57 L143,0 C158.276759,39.7275648 166.943426,67.3942315 169,83 C171.056574,98.6057685 171.056574,116.272435 169,136 L0,147 L4,126 Z" id="Path-3" stroke="#4A4A4A" stroke-width="2" fill="#F4F3F3"></path>
                <g id="rightEye" transform="translate(114.000000, 83.000000)">
                    <path d="M0,16 C5.34954784,8.66666667 11.6828812,5 19,5 C26.3171188,5 33.9837855,8.66666667 42,16 C35,22.6666667 28,26 21,26 C14,26 7,22.6666667 0,16 Z" id="Path-8" stroke="#4A4A4A" stroke-width="2"></path>
                    <g id="Oval-2">
                        <mask id="mask-2" fill="white">
                            <use xlink:href="#path-1"></use>
                        </mask>
                        <use id="Mask" stroke="#4A4A4A" stroke-width="2" fill="#FFFFFF" xlink:href="#path-1"></use>
                        <circle stroke="#4A4A4A" fill="#4A4A4A" mask="url(#mask-2)" cx="25.5" cy="15.5" r="13.5"></circle>
                    </g>
                </g>
                <g id="leftEye" transform="translate(47.000000, 82.000000)">
                    <path d="M0,16 C5.34954784,8.66666667 11.6828812,5 19,5 C26.3171188,5 33.9837855,8.66666667 42,16 C35,22.6666667 28,26 21,26 C14,26 7,22.6666667 0,16 Z" id="Path-8" stroke="#4A4A4A" stroke-width="2"></path>
                    <g id="Oval-2">
                        <mask id="mask-4" fill="white">
                            <use xlink:href="#path-3"></use>
                        </mask>
                        <use id="Mask" stroke="#4A4A4A" stroke-width="2" fill="#FFFFFF" xlink:href="#path-3"></use>
                        <circle stroke="#4A4A4A" fill="#4A4A4A" mask="url(#mask-4)" cx="25.5" cy="15.5" r="13.5"></circle>
                    </g>
                </g>
                <path d="M69,60 C73.6538005,66.7974268 77.3204672,70.4640934 80,71 C82.6795328,71.5359066 86.6795328,69.8692399 92,66 C93.6335969,70 95.6335969,72 98,72 C100.366403,72 103.03307,70 106,66 C110.398164,71.5541595 115.064831,73.2208262 120,71 C124.935169,68.7791738 126.935169,64.1125071 126,57 C112.922069,56.5583561 103.12598,56.5583561 96.6117323,57 C90.0974843,57.4416439 80.8935736,58.4416439 69,60 Z" id="Path-9" fill="#9B9B9B"></path>
            </g>
            <g id="Weiwei-Arvatar-ThankU" transform="translate(0.000000, 111.000000)">
                <g id="Combined-Shape">
                    <use fill="#FFFFFF" fill-rule="evenodd" xlink:href="#path-5"></use>
                    <path stroke="#4A4A4A" stroke-width="2" d="M144.863003,544.713285 C180.798194,554.021194 208.345782,558.447778 227.476615,558.000273 C246.533333,557.554502 273.941831,551.881777 309.67218,540.976531 C261.254135,525.207164 235.724083,510.072628 233.01613,495.178885 C231.121368,484.757694 232.365307,473.530895 236.732932,461.510652 L236.915145,461.009179 L237.433146,460.881306 C266.914243,453.603646 300.04812,428.16978 325.766301,392.933383 C353.584227,354.820131 370,309.448816 370,265.110056 C370,210.202142 358.887712,163.849731 336.426064,131.191374 C311.406299,94.8136128 272.975583,76.1462786 221.035605,77.9967648 C168.445275,79.8704214 128.760493,99.3358451 102.549014,134.165263 C78.2342152,166.4744 66,211.505064 66,265.110056 C66,311.196268 84.9633507,358.536939 116.569243,397.6684 C145.603317,433.615677 182.208504,458.304602 212.400683,462.399246 L213.020484,462.483303 L213.21612,463.077394 C215.738731,470.737846 217,478.71339 217,487 C217,501.989439 192.963363,521.07474 144.863003,544.713285 Z"></path>
                </g>
                <path d="M93.0622122,211.128813 L336.937788,201.871187" id="Path-4" stroke="#4A4A4A" stroke-width="2"></path>
                <path d="M226,87 C144,73 99.6666667,117.333333 93,220 C86.3333333,322.666667 104,398.666667 146,448 L1,334 C-2.59095142,213.381628 12.7423819,128.714961 47,80 C76,38 113.569566,1 217,1 C226.333333,21 229.333333,49.6666667 226,87 Z" id="leftHair" stroke="#4A4A4A" stroke-width="2" fill="#E4E4E4"></path>
                <path d="M292,242 C296,242 303,242.963263 303,240 C303,237.036737 296,238.036737 292,238.036737 C288,238.036737 281,238 281,240 C281,242 288,242 292,242 Z" id="rightEye" stroke="#4A4A4A" fill="#4A4A4A"></path>
                <circle id="leftEye" stroke="#4A4A4A" fill="#4A4A4A" cx="155" cy="244" r="11"></circle>
                <path d="M228,91 C302,75 341.666667,138.666667 347,282 C347,335.777778 327.333333,392.111111 288,451 L441,334 C437,288 428.666667,237.333333 416,182 C402,100 366.5,56 329.5,32 C304.833333,16 267.666667,5.33333333 218,0 L228,91 Z" id="rightHair" stroke="#4A4A4A" stroke-width="2" fill="#E4E4E4"></path>
                <path d="M199,224 C209.588542,220.666667 217.755208,219 223.5,219 C229.244792,219 237.411458,220.666667 248,224" id="Path-5" stroke="#4A4A4A" stroke-width="2"></path>
                <path d="M252.659743,213 C252.47589,213 252.292255,213.012676 252.110145,213.037937 C249.921963,213.341472 248.394152,215.361409 248.697681,217.549592 C253.70151,253.622182 260.36251,273.897811 268.318346,278.116525 C282.354805,285.559589 332.088466,286.352735 342.021799,278.226021 C348.691289,272.769541 351.99109,252.239295 351.628505,216.958893 C351.605968,214.765905 349.821818,212.999998 347.628715,212.999998 L252.659743,213 Z" id="Rectangle" stroke="#4A4A4A" stroke-width="2" transform="translate(300.155699, 248.511627) rotate(-2.000000) translate(-300.155699, -248.511627) "></path>
                <path d="M96.0915603,218 C95.898527,218 95.7057468,218.013973 95.5147312,218.04181 C93.3286852,218.360384 91.814799,220.39078 92.1333704,222.576826 C97.3876504,258.631557 104.37618,278.883336 112.740875,283.107359 C127.505827,290.563398 179.770668,291.357167 190.226124,283.211159 C197.231725,277.752987 200.694459,257.235375 200.313561,221.956815 C200.289892,219.764645 198.506083,217.999992 196.313786,217.999992 L96.0915604,218 Z" id="Rectangle" stroke="#4A4A4A" stroke-width="2" transform="translate(146.216525, 253.511625) scale(-1, 1) rotate(2.000000) translate(-146.216525, -253.511625) "></path>
                <path d="M220.36528,243.135202 L205.277022,327.451915 C205.112988,328.368578 205.603308,329.277159 206.459567,329.643216 C213.25367,332.547739 219.603694,334 225.50964,334 C231.383094,334 237.690215,332.563674 244.431003,329.691022 L244.431006,329.69103 C245.337211,329.304842 245.827279,328.316312 245.586001,327.361255 L224.273085,242.997628 C224.002536,241.926705 222.915058,241.277873 221.844134,241.548422 C221.082262,241.740895 220.503699,242.361681 220.36528,243.135202 Z" id="Path-6" stroke="#4A4A4A" stroke-width="2"></path>
                <path d="M213,383 C223.666667,385 231.666667,385 237,383 C242.313439,381.00746 247.313439,377.00746 252,371" id="Path-7" stroke="#4A4A4A" stroke-width="2"></path>
            </g>
        </g>
    </g>
</svg>