<?xml version="1.0" encoding="UTF-8"?>
<svg width="420px" height="420px" viewBox="0 0 420 420" version="1.1" xmlns="http://www.w3.org/2000/svg" xmlns:xlink="http://www.w3.org/1999/xlink">
    <!-- Generator: Sketch 52.1 (67048) - http://www.bohemiancoding.com/sketch -->
    <title>A6 Copy 11@3x</title>
    <desc>Created with Sketch.</desc>
    <g id="A6-Copy-11" stroke="none" stroke-width="1" fill="none" fill-rule="evenodd">
        <rect fill="#FFFFFF" x="0" y="0" width="420" height="420"></rect>
        <g id="Group" transform="translate(105.000000, 104.000000)" fill="#11D2AC" fill-rule="nonzero">
            <g id="w2">
                <polygon id="Triangle" fill-opacity="0.6" transform="translate(70.333333, 95.703704) scale(1, -1) translate(-70.333333, -95.703704) " points="70.3333333 39.4074074 140.666667 152 0 152"></polygon>
                <polygon id="Triangle" fill-opacity="0.6" transform="translate(140.666667, 95.703704) scale(1, -1) translate(-140.666667, -95.703704) " points="140.666667 39.4074074 211 152 70.3333333 152"></polygon>
                <ellipse id="Oval" cx="160.36" cy="10.5555556" rx="10.55" ry="10.5555556"></ellipse>
                <ellipse id="Oval" cx="200.45" cy="10.5555556" rx="10.55" ry="10.5555556"></ellipse>
            </g>
        </g>
        <path d="M128.472,299 C129.274671,299 129.787999,299.391996 130.012,300.176 L133.148,309.948 L136.396,300.568 L136.536,300.232 L136.536,300.26 C136.816001,299.755997 137.095999,299.420001 137.376,299.252 C137.656001,299.083999 138.057331,299 138.58,299 L141.856,299 C142.080001,299 142.294666,299.088666 142.5,299.266 C142.705334,299.443334 142.808,299.727998 142.808,300.12 C142.808,300.400001 142.742667,300.707998 142.612,301.044 L137.264,316.976 C137.114666,317.442669 136.946668,317.825332 136.76,318.124 C136.573332,318.422668 136.256002,318.590666 135.808,318.628 L130.74,318.628 C130.422665,318.646667 130.161334,318.497335 129.956,318.18 C129.750666,317.862665 129.573334,317.498669 129.424,317.088 L126.82,309.808 L124.3,317.088 C124.150666,317.480002 123.982668,317.825332 123.796,318.124 C123.609332,318.422668 123.376001,318.581333 123.096,318.6 L120.436,318.628 L117.888,318.6 C117.589332,318.562666 117.328001,318.408668 117.104,318.138 C116.879999,317.867332 116.674668,317.433336 116.488,316.836 L111.168,301.044 C111.055999,300.707998 111,300.418668 111,300.176 C111,299.783998 111.107332,299.490001 111.322,299.294 C111.536668,299.097999 111.746666,299 111.952,299 L115.228,299 C115.750669,299 116.151999,299.083999 116.432,299.252 C116.712001,299.420001 116.973332,299.746664 117.216,300.232 L117.356,300.568 L120.66,309.948 L123.74,300.148 C123.833334,299.774665 124.024665,299.490001 124.314,299.294 C124.603335,299.097999 124.943998,299 125.336,299 L128.472,299 Z M150.872,304.04 L150.872,306.308 L158.768,306.308 C159.066668,306.308 159.332665,306.424666 159.566,306.658 C159.799334,306.891334 159.916,307.185332 159.916,307.54 L159.916,309.976 C159.916,310.293335 159.799334,310.577999 159.566,310.83 C159.332665,311.082001 159.066668,311.208 158.768,311.208 L150.872,311.208 L150.872,313.7 L159.16,313.7 C159.477335,313.7 159.752666,313.816665 159.986,314.05 C160.219335,314.283334 160.336,314.586665 160.336,314.96 L160.336,317.368 C160.336,317.704002 160.219335,317.997999 159.986,318.25 C159.752666,318.502001 159.477335,318.628 159.16,318.628 L145.944,318.628 C145.626665,318.628 145.351335,318.502001 145.118,318.25 C144.884666,317.997999 144.768,317.704002 144.768,317.368 L144.768,300.372 C144.768,300.017332 144.884666,299.723334 145.118,299.49 C145.351335,299.256665 145.626665,299.14 145.944,299.14 L159.16,299.14 C159.477335,299.14 159.752666,299.256665 159.986,299.49 C160.219335,299.723334 160.336,300.017332 160.336,300.372 L160.336,302.808 C160.336,303.125335 160.214668,303.409999 159.972,303.662 C159.729332,303.914001 159.458668,304.04 159.16,304.04 L150.872,304.04 Z M164.256,317.396 L164.256,300.316 C164.256,299.961332 164.367999,299.658001 164.592,299.406 C164.816001,299.153999 165.114665,299.028 165.488,299.028 L169.324,299.028 C169.660002,299.028 169.944665,299.153999 170.178,299.406 C170.411334,299.658001 170.528,299.961332 170.528,300.316 L170.528,317.396 C170.528,317.788002 170.411334,318.100665 170.178,318.334 C169.944665,318.567334 169.660002,318.684 169.324,318.684 L165.488,318.684 C165.114665,318.684 164.816001,318.567334 164.592,318.334 C164.367999,318.100665 164.256,317.788002 164.256,317.396 Z M191.08,299 C191.882671,299 192.395999,299.391996 192.62,300.176 L195.756,309.948 L199.004,300.568 L199.144,300.232 L199.144,300.26 C199.424001,299.755997 199.703999,299.420001 199.984,299.252 C200.264001,299.083999 200.665331,299 201.188,299 L204.464,299 C204.688001,299 204.902666,299.088666 205.108,299.266 C205.313334,299.443334 205.416,299.727998 205.416,300.12 C205.416,300.400001 205.350667,300.707998 205.22,301.044 L199.872,316.976 C199.722666,317.442669 199.554668,317.825332 199.368,318.124 C199.181332,318.422668 198.864002,318.590666 198.416,318.628 L193.348,318.628 C193.030665,318.646667 192.769334,318.497335 192.564,318.18 C192.358666,317.862665 192.181334,317.498669 192.032,317.088 L189.428,309.808 L186.908,317.088 C186.758666,317.480002 186.590668,317.825332 186.404,318.124 C186.217332,318.422668 185.984001,318.581333 185.704,318.6 L183.044,318.628 L180.496,318.6 C180.197332,318.562666 179.936001,318.408668 179.712,318.138 C179.487999,317.867332 179.282668,317.433336 179.096,316.836 L173.776,301.044 C173.663999,300.707998 173.608,300.418668 173.608,300.176 C173.608,299.783998 173.715332,299.490001 173.93,299.294 C174.144668,299.097999 174.354666,299 174.56,299 L177.836,299 C178.358669,299 178.759999,299.083999 179.04,299.252 C179.320001,299.420001 179.581332,299.746664 179.824,300.232 L179.964,300.568 L183.268,309.948 L186.348,300.148 C186.441334,299.774665 186.632665,299.490001 186.922,299.294 C187.211335,299.097999 187.551998,299 187.944,299 L191.08,299 Z M213.48,304.04 L213.48,306.308 L221.376,306.308 C221.674668,306.308 221.940665,306.424666 222.174,306.658 C222.407334,306.891334 222.524,307.185332 222.524,307.54 L222.524,309.976 C222.524,310.293335 222.407334,310.577999 222.174,310.83 C221.940665,311.082001 221.674668,311.208 221.376,311.208 L213.48,311.208 L213.48,313.7 L221.768,313.7 C222.085335,313.7 222.360666,313.816665 222.594,314.05 C222.827335,314.283334 222.944,314.586665 222.944,314.96 L222.944,317.368 C222.944,317.704002 222.827335,317.997999 222.594,318.25 C222.360666,318.502001 222.085335,318.628 221.768,318.628 L208.552,318.628 C208.234665,318.628 207.959335,318.502001 207.726,318.25 C207.492666,317.997999 207.376,317.704002 207.376,317.368 L207.376,300.372 C207.376,300.017332 207.492666,299.723334 207.726,299.49 C207.959335,299.256665 208.234665,299.14 208.552,299.14 L221.768,299.14 C222.085335,299.14 222.360666,299.256665 222.594,299.49 C222.827335,299.723334 222.944,300.017332 222.944,300.372 L222.944,302.808 C222.944,303.125335 222.822668,303.409999 222.58,303.662 C222.337332,303.914001 222.066668,304.04 221.768,304.04 L213.48,304.04 Z M226.864,317.396 L226.864,300.316 C226.864,299.961332 226.975999,299.658001 227.2,299.406 C227.424001,299.153999 227.722665,299.028 228.096,299.028 L231.932,299.028 C232.268002,299.028 232.552665,299.153999 232.786,299.406 C233.019335,299.658001 233.136,299.961332 233.136,300.316 L233.136,317.396 C233.136,317.788002 233.019335,318.100665 232.786,318.334 C232.552665,318.567334 232.268002,318.684 231.932,318.684 L228.096,318.684 C227.722665,318.684 227.424001,318.567334 227.2,318.334 C226.975999,318.100665 226.864,317.788002 226.864,317.396 Z M245.596,309.612 L245.568,299.868 C245.568,299.307997 245.88533,299.028 246.52,299.028 L250.188,299.028 C250.561335,299.028 250.850666,299.102666 251.056,299.252 C251.261334,299.401334 251.364,299.606665 251.364,299.868 L251.476,308.996 C251.494667,310.209339 251.825997,311.165997 252.47,311.866 C253.114003,312.566003 253.986661,312.916 255.088,312.916 C257.253344,312.916 258.336,311.684012 258.336,309.22 L258.392,299.924 C258.392,299.681332 258.508666,299.471334 258.742,299.294 C258.975335,299.116666 259.250665,299.028 259.568,299.028 L263.292,299.028 C263.646668,299.028 263.921999,299.107333 264.118,299.266 C264.314001,299.424667 264.402667,299.643999 264.384,299.924 L264.384,304.068 C264.384,306.644013 264.388667,308.24933 264.398,308.884 C264.407333,309.51867 264.412,309.854666 264.412,309.892 C264.430667,311.404008 264.174003,312.83666 263.642,314.19 C263.109997,315.54334 262.148674,316.672662 260.758,317.578 C259.367326,318.483338 257.496012,318.936 255.144,318.936 C252.997323,318.936 251.210007,318.497338 249.782,317.62 C248.353993,316.742662 247.299337,315.59934 246.618,314.19 C245.936663,312.78066 245.596,311.254675 245.596,309.612 Z M267.044,317.62 C267.044,317.395999 267.109333,317.209334 267.24,317.06 L273.596,308.436 L267.548,300.652 C267.435999,300.483999 267.38,300.297334 267.38,300.092 C267.38,299.849332 267.463999,299.625334 267.632,299.42 C267.800001,299.214666 267.995999,299.112 268.22,299.112 L273.764,299.112 C274.025335,299.112 274.258666,299.233332 274.464,299.476 L277.264,303.34 L280.12,299.476 C280.194667,299.363999 280.292666,299.275334 280.414,299.21 C280.535334,299.144666 280.670666,299.112 280.82,299.112 L286.308,299.112 C286.550668,299.112 286.760666,299.209999 286.938,299.406 C287.115334,299.602001 287.204,299.830665 287.204,300.092 C287.204,300.316001 287.138667,300.502666 287.008,300.652 L280.708,308.408 L287.344,317.06 C287.456001,317.228001 287.512,317.405332 287.512,317.592 C287.512,317.834668 287.428001,318.053999 287.26,318.25 C287.091999,318.446001 286.877335,318.544 286.616,318.544 L280.624,318.544 C280.474666,318.544 280.330001,318.497334 280.19,318.404 C280.049999,318.310666 279.933334,318.198667 279.84,318.068 L277.264,314.428 L274.744,318.068 C274.463999,318.385335 274.230668,318.544 274.044,318.544 L267.968,318.544 C267.706665,318.544 267.487334,318.450668 267.31,318.264 C267.132666,318.077332 267.044,317.862668 267.044,317.62 Z M290.032,317.396 L290.032,300.26 C290.032,299.923998 290.153332,299.634668 290.396,299.392 C290.638668,299.149332 290.927998,299.028 291.264,299.028 L298.824,299.028 C300.597342,299.028 302.263326,299.471329 303.822,300.358 C305.380674,301.244671 306.621995,302.439326 307.546,303.942 C308.470005,305.444674 308.932,307.073325 308.932,308.828 C308.932,310.582675 308.465338,312.211326 307.532,313.714 C306.598662,315.216674 305.348008,316.411329 303.78,317.298 C302.211992,318.184671 300.541342,318.628 298.768,318.628 L291.264,318.628 C290.927998,318.628 290.638668,318.506668 290.396,318.264 C290.153332,318.021332 290.032,317.732002 290.032,317.396 Z M298.88,312.608 C299.496003,312.608 300.069997,312.430668 300.602,312.076 C301.134003,311.721332 301.563332,311.231336 301.89,310.606 C302.216668,309.980664 302.38,309.29467 302.38,308.548 C302.38,307.819996 302.221335,307.148003 301.904,306.532 C301.586665,305.915997 301.162003,305.426002 300.63,305.062 C300.097997,304.697998 299.524003,304.516 298.908,304.516 L296.304,304.516 C296.173333,304.516 296.066,304.562666 295.982,304.656 C295.898,304.749334 295.856,304.870666 295.856,305.02 L295.856,312.104 C295.856,312.253334 295.898,312.374666 295.982,312.468 C296.066,312.561334 296.173333,312.608 296.304,312.608 L298.88,312.608 Z" id="WeiWei-UXD" fill="#11D2AC"></path>
    </g>
</svg>