<?xml version="1.0" encoding="UTF-8"?>
<svg width="300px" height="300px" viewBox="0 0 300 300" version="1.1" xmlns="http://www.w3.org/2000/svg" xmlns:xlink="http://www.w3.org/1999/xlink">
    <!-- Generator: Sketch 43.2 (39069) - http://www.bohemiancoding.com/sketch -->
    <title>0716Self@3x</title>
    <desc>Created with Sketch.</desc>
    <defs>
        <circle id="path-1" cx="150" cy="150" r="150"></circle>
        <path d="M0.46875,12.3925781 C0.46875,12.3925781 7.84013655,11.2644049 12.8007812,10.3925781 C17.761426,9.52075133 25.7734375,6.9453125 25.7734375,6.9453125 L40.1191406,0.916015625 C40.1191406,0.916015625 19.25,-0.836914062 8.59570312,3.34570313 C3.55859375,6.65429688 0.46875,12.3925781 0.46875,12.3925781 Z" id="path-3"></path>
        <path d="M35.3007812,6.93554687 C35.3007812,6.93554687 30.6542969,0.71875 22.8261719,0.71875 C18.7087891,0.71875 13.7375726,4.86960416 8.92382812,6.93554687 C4.11008369,9.00148959 0.171875,8.59570312 0.171875,8.59570312 C0.171875,8.59570312 6.74658799,11.5523665 17.7363281,10.6699219 C28.7260683,9.78747723 35.3007812,6.93554687 35.3007812,6.93554687 Z" id="path-5"></path>
        <rect id="path-7" x="129.036746" y="15.618382" width="5" height="5" rx="1"></rect>
        <rect id="path-8" x="0.924810282" y="17.5751897" width="5" height="5" rx="1"></rect>
        <path d="M0.501953125,17.4140625 C0.501953125,17.4140625 15.0182327,18.0660388 21.6601562,16.4342921 C23.9528808,15.8710298 31.3631837,15.7841955 37.3554688,13.7304688 C43.3477538,11.676742 62.4023438,0.189453125 62.4023438,0.189453125 C62.4023438,0.189453125 50.0030095,18.2793227 43.2871094,22.7460938 C36.5712092,27.2128648 32.3175337,31.1446425 20.6601562,27.9570313 C9.00277882,24.76942 0.501953125,17.4140625 0.501953125,17.4140625 Z" id="path-9"></path>
    </defs>
    <g id="Page-1" stroke="none" stroke-width="1" fill="none" fill-rule="evenodd">
        <g id="0716Self">
            <g id="Self-portrait" transform="translate(-1.000000, 0.000000)">
                <mask id="mask-2" fill="white">
                    <use xlink:href="#path-1"></use>
                </mask>
                <use id="Mask" fill="#E4E4E4" xlink:href="#path-1"></use>
                <g mask="url(#mask-2)">
                    <g transform="translate(-4.000000, -391.000000)">
                        <path d="M209.5,554.5 C209.5,554.5 219.125251,562.276913 220.271484,568.537109 C221.058583,572.835878 214.917541,592.909336 216.492188,608.37207 C218.066834,623.834804 226.485352,625.700195 226.485352,625.700195" id="Line" stroke="#423B31" stroke-width="1" fill="none" stroke-linecap="square"></path>
                        <path d="M202.5,569.5 C202.5,569.5 204.788086,578.273438 203.521484,583.46875 C202.254883,588.664062 196.424061,599.886811 197.561523,606.401367 C199.81124,619.286105 214.783203,623.768555 214.783203,623.768555" id="Line" stroke="#423B31" stroke-width="1" fill="none" stroke-linecap="square"></path>
                        <path d="M204.217773,571.591797 C204.217773,571.591797 202.495117,584.133789 209.048828,589.5 C215.602539,594.866211 223.5,589.5 223.5,589.5" id="Line" stroke="#423B31" stroke-width="1" fill="none" stroke-linecap="square"></path>
                        <path d="M93.1445312,603.845703 C93.1445312,603.845703 41.5019531,623.367188 30.3320313,631.726562 C19.1621094,640.085938 2.76757812,679.341797 2.76757812,679.341797 L0.21875,719.332031 L374.330078,732.992188 L305,631.726562 L231.880859,602.402344 L93.1445312,603.845703 Z" id="T-shirt" stroke="#423B31" stroke-width="1" fill="#FFFFFF" fill-rule="evenodd"></path>
                        <path d="M198.330078,579.951172 L202.240234,593.326172 L232.041016,603.947266 C232.041016,603.947266 233.762742,633.111293 198.330078,642.569336 C162.897414,652.027379 163.667969,653.978516 134.663086,643.733398 C105.658203,633.488281 92.7558594,603.947266 92.7558594,603.947266 L121.953125,595.414062 L198.330078,579.951172 Z" id="neck" stroke="#423B31" stroke-width="1" fill="#FDE4DE" fill-rule="evenodd"></path>
                        <path d="M181.25,605.080078 C181.25,605.080078 174.249283,616.332031 174.537109,625.407227 C174.824936,634.482422 178.5,645.5 178.5,645.5" id="Line" stroke="#F5CFC7" stroke-width="1" fill="none" stroke-linecap="square"></path>
                        <path d="M140.5,610.5 C140.5,610.5 152.582031,619.481445 155,629.5 C157.417969,639.518555 154.5,648.5 154.5,648.5" id="Line" stroke="#F5CFC7" stroke-width="1" fill="none" stroke-linecap="square"></path>
                        <path d="M206.5,599.5 C206.5,599.5 204.318359,608.316406 201.024414,616.952148 C197.730469,625.587891 180.5,643.5 180.5,643.5" id="Line" stroke="#F5CFC7" stroke-width="1" fill="none" stroke-linecap="square"></path>
                        <path d="M212,528 C215.071164,528 220.789062,528 220.789062,519.1875 C220.789062,517.052022 222.027325,510.424908 223.402344,506 C224.777363,501.575092 228.199219,499.921477 228.199219,495.546875 C228.199219,483.396611 219.731986,484 212,484 C204.268014,484 198,493.849736 198,506 C198,518.150264 203.566406,528 212,528 Z" id="ear" stroke="#423B31" stroke-width="1" fill="#F5CFC7" fill-rule="evenodd"></path>
                        <path d="M143.421368,615.255946 C148.09442,615.996085 152.62743,616.139732 157.776663,614.760721 C162.925895,613.38171 200.027685,588.150493 205.939634,564.844557 C213.51878,534.966241 214.820359,525.21707 214.820359,507.446535 C214.820359,458.825686 194.647507,429.923337 146.397507,429.923337 C98.1475075,429.923337 77.9746559,463.132308 77.9746559,511.753157 C77.9746559,534.010717 78.7530899,551.501097 87.1586994,568.949936 C92.1062518,583.665795 114.948307,598.572827 123.498971,606.013834 C132.049636,613.454841 138.748316,614.515808 143.421368,615.255946 Z" id="face" stroke="#423B31" stroke-width="1" fill="#FCE6E1" fill-rule="evenodd" transform="translate(146.397507, 522.865944) rotate(-9.000000) translate(-146.397507, -522.865944) "></path>
                        <path d="M109.448242,505.491211 C109.448242,505.491211 86.6083984,502.944336 83.8095703,504.217773 C81.0107422,505.491211 77.8623047,512.737305 77.8623047,512.737305 L85.0917969,509.705078 L107.999023,510.051758 L109.448242,505.491211 Z" id="eyeBrowLeft" stroke="none" fill="#4A4A4A" fill-rule="evenodd"></path>
                        <path d="M110.209961,444.044922 C110.209961,444.044922 98.5723295,449.848953 86.0380859,460.87207 C73.5038424,471.895188 61.8030328,497.583421 59.9960938,512.605469 C58.4644862,525.338539 58.5527344,548.790039 64.5400391,561.553711 C76.1416016,589.477539 96.3105469,586.344727 96.3105469,586.344727" id="Line" stroke="#423B31" stroke-width="1" fill="none" stroke-linecap="square"></path>
                        <path d="M77.5,486.5 C77.5,486.5 64.2714844,513.549805 68.0458984,534.179688 C71.8203125,554.80957 78.6162109,556.37207 78.6162109,556.37207" id="Line" stroke="#423B31" stroke-width="1" fill="none" stroke-linecap="square"></path>
                        <path d="M81.5,436.5 C81.5,436.5 58.8164063,450.989258 56.7587891,473.006836 C54.7011719,495.024414 58.6201172,501.399414 58.6201172,501.399414" id="Line" stroke="#423B31" stroke-width="1" fill="none" stroke-linecap="square"></path>
                        <path d="M145.741211,499.349609 C145.741211,499.349609 166.499826,487.264632 173.129883,485.986328 C179.75994,484.708024 188.166016,491.169922 188.166016,491.169922 L183.501953,490.829102 L173.974609,491.140625 L151.203125,501.942383 L145.741211,499.349609 Z" id="eyeBrowRight" stroke="none" fill="#4A4A4A" fill-rule="evenodd"></path>
                        <g id="rightEye" stroke="none" stroke-width="1" fill="none" fill-rule="evenodd" transform="translate(152.000000, 503.000000)">
                            <path d="M0.46875,12.3925781 C0.46875,12.3925781 9.84013655,10.2644049 14.8007812,9.39257812 C19.761426,8.52075133 25.7734375,6.9453125 25.7734375,6.9453125 L40.1191406,0.916015625 C40.1191406,0.916015625 17.4814453,-0.596679688 8.59570312,3.34570312 C3.55859375,6.65429687 0.46875,12.3925781 0.46875,12.3925781 Z" id="Path-157" stroke="#423B31" fill="#FFFFFF"></path>
                            <g id="Oval-2">
                                <mask id="mask-4" fill="white">
                                    <use xlink:href="#path-3"></use>
                                </mask>
                                <g id="Mask"></g>
                                <circle stroke="#423B31" fill="#4A4A4A" mask="url(#mask-4)" cx="18" cy="3" r="11"></circle>
                            </g>
                        </g>
                        <g id="leftEye" stroke="none" stroke-width="1" fill="none" fill-rule="evenodd" transform="translate(81.000000, 514.000000)">
                            <path d="M35.3007812,6.93554687 C35.3007812,6.93554687 30.6542969,0.71875 22.8261719,0.71875 C18.7087891,0.71875 13.7375726,4.86960416 8.92382812,6.93554687 C4.11008369,9.00148959 0.171875,8.59570312 0.171875,8.59570312 C0.171875,8.59570312 6.74658799,11.5523665 17.7363281,10.6699219 C28.7260683,9.78747723 35.3007812,6.93554687 35.3007812,6.93554687 Z" id="Path-158-Copy" stroke="#423B31" fill="#FFFFFF"></path>
                            <g id="Oval-2-Copy">
                                <mask id="mask-6" fill="white">
                                    <use xlink:href="#path-5"></use>
                                </mask>
                                <g id="Mask"></g>
                                <circle stroke="#423B31" fill="#4A4A4A" mask="url(#mask-6)" cx="20" cy="1.83436301" r="11"></circle>
                            </g>
                        </g>
                        <path d="M130.288086,529.522461 C131.813302,537.866566 132.290039,546.611328 132.290039,546.611328 C132.290039,546.611328 124.770061,554.717868 126.87793,559.494141 C128.985798,564.270413 133.199751,562.123968 137.104492,563.205078 C141.009233,564.286188 144.28125,566.988281 144.28125,566.988281 C144.28125,566.988281 149.450112,566.817629 151.089844,565.455078 C151.741823,564.91331 152.733548,561.004787 155,558.494141 C157.266452,555.983494 165.977539,557.637695 163.469727,549.741211 C160.961914,541.844727 151.375977,543.212891 151.375977,543.212891 L142.376953,515.509766 L126.87793,517.00293 C126.87793,517.00293 128.76287,521.178355 130.288086,529.522461 Z" id="nose" stroke="#423B31" stroke-width="1" fill="none"></path>
                        <g id="eye-glasses" stroke="none" stroke-width="1" fill="none" fill-rule="evenodd" transform="translate(140.337112, 518.568353) rotate(-11.000000) translate(-140.337112, -518.568353) translate(65.337112, 495.568353)">
                            <path d="M104.5,45 C117.062814,44.5766909 130,35.1502645 130,23 C130,10.8497355 124.210637,0.782420017 104.5,1 C84.7893629,1.21757998 79,10.8497355 79,23 C79,35.1502645 91.9371856,45.4233091 104.5,45 Z" id="Oval" stroke="#6F4A4E" stroke-width="2" fill-opacity="0.2" fill="#E9F2FE"></path>
                            <path d="M31.6724362,45.2091818 C45.7556973,45.2091818 56,36.1502645 56,24 C56,11.8497355 51.5636221,2.82318558 30.5,2 C9.43637787,1.17681442 5,11.8497355 5,24 C5,36.1502645 17.5891751,45.2091818 31.6724362,45.2091818 Z" id="Oval-Copy" stroke="#6F4A4E" stroke-width="2" fill-opacity="0.2" fill="#E9F2FE"></path>
                            <path d="M133.197004,17.9432518 L149.583528,1.7728523" id="Line" stroke="#6F4A4E" stroke-width="2" stroke-linecap="square"></path>
                            <g id="Rectangle" transform="translate(131.536746, 18.118382) rotate(-6.000000) translate(-131.536746, -18.118382) ">
                                <use fill="#6F444A" fill-rule="evenodd" xlink:href="#path-7"></use>
                                <rect stroke="#6F4A4E" stroke-width="1" x="129.536746" y="16.118382" width="4" height="4" rx="1"></rect>
                            </g>
                            <g id="Rectangle-Copy">
                                <use fill="#6F444A" fill-rule="evenodd" xlink:href="#path-8"></use>
                                <rect stroke="#6F4A4E" stroke-width="1" x="1.42481028" y="18.0751897" width="4" height="4" rx="1"></rect>
                            </g>
                            <path d="M57.5,22.5 C57.5,22.5 57.8307179,20.7986037 67.8640807,20.626967 C77.8974435,20.4553303 77.5,22.5 77.5,22.5" id="Line" stroke="#6F4A4E" stroke-width="3" stroke-linecap="square"></path>
                        </g>
                        <g id="Mouth" stroke="none" stroke-width="1" fill="none" fill-rule="evenodd" transform="translate(123.000000, 563.000000)">
                            <g id="Teeth">
                                <mask id="mask-10" fill="white">
                                    <use xlink:href="#path-9"></use>
                                </mask>
                                <use id="Mask" fill="#4A4A4A" xlink:href="#path-9"></use>
                                <g mask="url(#mask-10)" fill="#FFFFFF">
                                    <g transform="translate(7.000000, 1.000000)">
                                        <rect id="Rectangle-2" transform="translate(16.855469, 18.619141) rotate(-6.000000) translate(-16.855469, -18.619141) " x="12.8554688" y="13.6191406" width="8" height="10" rx="2"></rect>
                                        <path d="M6.16698066,14.6453261 C6.01801783,13.5507057 6.78951949,12.7571209 7.87690385,12.8714096 L10.6368305,13.1614896 C11.7301579,13.2764029 12.6400438,14.2669318 12.6688173,15.3624627 L12.8053586,20.5611746 C12.8342666,21.6618251 11.9664521,22.4604046 10.8599037,22.3441017 C10.8599037,22.3441017 10.6974976,22.3270321 10.3900948,22.2947227 C10.0826919,22.2624134 9.1457121,22.1639329 9.1457121,22.1639329 C8.05001856,22.0487708 7.04053558,21.0644505 6.89206237,19.9734281 L6.16698066,14.6453261 Z" id="Rectangle-2-Copy-3" transform="translate(9.477313, 17.607908) rotate(-6.000000) translate(-9.477313, -17.607908) "></path>
                                        <path d="M1.03337475,11.0410981 C1.14916144,9.93946135 2.03466931,9.45851737 3.02347799,9.97326504 L3.77869916,10.3664132 C4.76201614,10.8783021 5.58272106,12.1906431 5.61149457,13.286174 L5.74803587,18.4848859 C5.77694385,19.5855365 4.90912938,20.384116 3.80258096,20.267813 C3.80258096,20.267813 3.6401749,20.2507435 3.33277201,20.2184341 C3.02536912,20.1861248 1.66830883,18.4679678 1.66830883,18.4679678 C0.974583255,17.6302299 0.505897892,16.0597052 0.621857904,14.9564194 L1.03337475,11.0410981 Z" id="Rectangle-2-Copy-6" transform="translate(3.176489, 15.022872) rotate(-6.000000) translate(-3.176489, -15.022872) "></path>
                                        <rect id="Rectangle-2-Copy" transform="translate(24.937500, 17.522461) rotate(-9.000000) translate(-24.937500, -17.522461) " x="20.9375" y="12.5224609" width="8" height="10" rx="2"></rect>
                                        <path d="M28.1454156,12.1985067 C28.1759544,11.0951123 29.0863237,10.1253052 30.1984967,10.0307051 L32.5721453,9.82880542 C33.6754919,9.73495608 34.5773033,10.5531137 34.5863681,11.6526554 L34.6275575,16.6488195 C34.6366355,17.7499534 33.7675612,18.7705415 32.6688274,18.930936 L29.9151423,19.3329222 C28.8242876,19.4921664 27.9649755,18.7179703 27.9952704,17.6233872 L28.1454156,12.1985067 Z" id="Rectangle-2-Copy-2" transform="translate(31.311061, 14.587584) rotate(-9.000000) translate(-31.311061, -14.587584) "></path>
                                        <path d="M34.1454156,8.19850667 C34.1759544,7.09511229 35.0863237,6.12530525 36.1984967,6.03070514 L38.5721453,5.82880542 C39.6754919,5.73495608 40.5773033,6.55311371 40.5863681,7.65265537 L40.6275575,12.6488195 C40.6366355,13.7499534 39.7675612,14.7705415 38.6688274,14.930936 L35.9151423,15.3329222 C34.8242876,15.4921664 33.9649755,14.7179703 33.9952704,13.6233872 L34.1454156,8.19850667 Z" id="Rectangle-2-Copy-4" transform="translate(37.311061, 10.587584) rotate(-9.000000) translate(-37.311061, -10.587584) "></path>
                                        <path d="M39.1454156,3.19850667 C39.1759544,2.09511229 40.0863237,1.12530525 41.1984967,1.03070514 L43.5721453,0.828805424 C44.6754919,0.734956078 45.5773033,1.55311371 45.5863681,2.65265537 L45.6275575,7.64881954 C45.6366355,8.74995339 44.7675612,9.77054155 43.6688274,9.93093599 L40.9151423,10.3329222 C39.8242876,10.4921664 38.9649755,9.71797028 38.9952704,8.62338715 L39.1454156,3.19850667 Z" id="Rectangle-2-Copy-5" transform="translate(42.311061, 5.587584) rotate(-9.000000) translate(-42.311061, -5.587584) "></path>
                                    </g>
                                </g>
                            </g>
                            <path d="M1.50195312,17.4140625 C1.50195312,17.4140625 15.0182327,18.0660388 21.6601563,16.4342921 C23.9528808,15.8710298 31.3631837,15.7841955 37.3554688,13.7304688 C43.3477538,11.676742 59.4023438,2.18945312 59.4023438,2.18945312 C59.4023438,2.18945312 50.0030095,18.2793227 43.2871094,22.7460938 C36.5712092,27.2128648 32.3175337,31.1446425 20.6601562,27.9570313 C9.00277882,24.76942 1.50195312,17.4140625 1.50195312,17.4140625 Z" id="mouthBG" stroke="#423B31"></path>
                            <path d="M3.27539062,16.9931641 C3.27539062,16.9931641 19.0267371,13.3587501 21.6630859,13.0996094 C24.2994348,12.8404687 27.2783203,13.6337891 27.2783203,13.6337891 C27.2783203,13.6337891 33.0292969,10.3945313 35.5585938,9.69921875 C38.0878906,9.00390625 61.671875,0.895507812 61.671875,0.895507812 C61.671875,0.895507812 46.5136719,9.09118264 41.4580078,11.9072266 C36.4023438,14.7232705 28.40625,17.1123047 19.8535156,17.1123047 C11.3007813,17.1123047 3.27539062,16.9931641 3.27539062,16.9931641 Z" id="Upperlips" stroke="#9A6168" fill="#FB8B99"></path>
                            <path d="M0.099609375,17.6279297 C0.099609375,17.6279297 16.9492188,28.2451172 31.3803711,24.4003906 C53.0224609,17.6279297 62.6611328,0.552734375 62.6611328,0.552734375 C62.6611328,0.552734375 51.1855469,20.3173828 46.2294922,24.1748047 C42.1201172,27.5722656 36.9804688,31.0869141 27.4003906,31.0869141 C14.953125,31.0869141 0.099609375,17.6279297 0.099609375,17.6279297 Z" id="lowerlips" stroke="#9A6168" fill="#FB8B99"></path>
                        </g>
                        <path d="M76.8105469,522.144531 C76.8105469,522.144531 68.5703125,517.796875 66.0390625,503.884766 C63.5078125,489.972656 59.3977397,468.124815 68.2324219,447.583984 C77.067104,427.043154 82.4290811,417.969681 101.435547,407.943359 C111.963517,402.389628 121.915207,402.967395 131.365234,401.982422 C140.815262,400.997449 145.953301,398.20578 155,399.207031 C175.280223,401.451563 194.445312,415.990234 194.445312,415.990234 C194.445312,415.990234 209.041016,436.566406 213.810547,450.914062 C218.580078,465.261719 229.009766,476.575537 229.009766,486.177734 C229.009766,490.115836 225.258401,494.298773 221.712891,497.277344 C218.167381,500.255914 211.142578,503.884766 211.142578,503.884766 C211.142578,503.884766 201.597656,476.191695 197.40625,468.888672 C193.214844,461.585649 183.287109,452.583984 183.287109,452.583984 L150.787109,432.607422 C150.787109,432.607422 143.416016,440.210937 131.365234,442.566406 C119.314453,444.921875 120.847515,437.362835 110.775391,443.386719 C100.703267,449.410603 90.5253906,457.640625 90.5253906,457.640625 C90.5253906,457.640625 78.9628906,464.166016 76.7753906,486.177734 C74.5878906,508.189453 74.9628906,507.908203 74.9628906,507.908203 L77.5800781,524.177734 L76.8105469,522.144531 Z" id="Path-153" stroke="#423B31" stroke-width="1" fill="#4A4A4A" fill-rule="evenodd"></path>
                        <path d="M156.011719,430.367188 C156.011719,430.367188 165.108339,453.273042 171.681641,459.527344 C178.254942,465.781646 203.519531,478.496094 203.519531,478.496094 C203.519531,478.496094 183.400883,464.176385 176.289062,454.431641 C169.177242,444.686896 168.394531,430.367188 168.394531,430.367188 L156.011719,430.367188 Z" id="Path-154" stroke="none" fill="#4A4A4A" fill-rule="evenodd" transform="translate(179.765625, 454.431641) rotate(9.000000) translate(-179.765625, -454.431641) "></path>
                        <path d="M169.783203,444.257812 C169.783203,444.257812 185.455479,460.252954 190.572266,470.144531 C193.259302,475.339008 204.904297,510.695312 215.365234,523.339844 C225.826172,535.984375 225.970703,528.876953 232.251953,541 C241.091797,552.587891 240.085327,565.169922 241.091797,565.169922 C242.098266,565.169922 236.426585,543.40195 234.5625,539 C232.698415,534.59805 219.892578,525.941406 219.892578,525.941406 L207.921875,494.914062 C207.921875,494.914062 201.706917,473.167192 196.916016,463.121094 C192.125115,453.074995 180.976562,438.412109 180.976562,438.412109 L167.462891,428.591797 L169.783203,444.257812 Z" id="Path-155" stroke="none" fill="#4A4A4A" fill-rule="evenodd"></path>
                        <path d="M215.5,460.5 C215.5,460.5 229.779297,479.40625 237.626953,497.578125 C245.474609,515.75 242.5,558.5 242.5,558.5" id="Line" stroke="#423B31" stroke-width="1" fill="none" stroke-linecap="square"></path>
                        <path d="M158.87793,543.587891 C158.87793,543.587891 172.739312,542.523438 184.5,556.379883 C189.226562,565.374023 184.5,572.5 184.5,572.5" id="Line" stroke="#F5CFC7" stroke-width="1" fill="none" stroke-linecap="square"></path>
                        <path d="M126.132813,553.057617 C126.132813,553.057617 113.951172,566.518555 113.951172,575.389648 C113.951172,584.260742 127.5,589.5 127.5,589.5" id="Line" stroke="#F5CFC7" stroke-width="1" fill="none" stroke-linecap="square"></path>
                    </g>
                </g>
            </g>
        </g>
    </g>
</svg>