<?xml version="1.0" encoding="UTF-8"?>
<svg width="420px" height="420px" viewBox="0 0 420 420" version="1.1" xmlns="http://www.w3.org/2000/svg" xmlns:xlink="http://www.w3.org/1999/xlink">
    <!-- Generator: Sketch 52.1 (67048) - http://www.bohemiancoding.com/sketch -->
    <title>A6 Copy 11@3x</title>
    <desc>Created with Sketch.</desc>
    <g id="A6-Copy-11" stroke="none" stroke-width="1" fill="none" fill-rule="evenodd">
        <rect fill="#FFFFFF" x="0" y="0" width="420" height="420"></rect>
        <g id="Group" transform="translate(105.000000, 104.000000)" fill="#11D2AC" fill-rule="nonzero">
            <g id="w2">
                <polygon id="Triangle" fill-opacity="0.6" transform="translate(70.333333, 95.703704) scale(1, -1) translate(-70.333333, -95.703704) " points="70.3333333 39.4074074 140.666667 152 0 152"></polygon>
                <polygon id="Triangle" fill-opacity="0.6" transform="translate(140.666667, 95.703704) scale(1, -1) translate(-140.666667, -95.703704) " points="140.666667 39.4074074 211 152 70.3333333 152"></polygon>
                <ellipse id="Oval" cx="160.36" cy="10.5555556" rx="10.55" ry="10.5555556"></ellipse>
                <ellipse id="Oval" cx="200.45" cy="10.5555556" rx="10.55" ry="10.5555556"></ellipse>
            </g>
        </g>
        <path d="M124.312,299.372 C125.114671,299.372 125.627999,299.763996 125.852,300.548 L128.988,310.32 L132.236,300.94 L132.376,300.604 L132.376,300.632 C132.656001,300.127997 132.935999,299.792001 133.216,299.624 C133.496001,299.455999 133.897331,299.372 134.42,299.372 L137.696,299.372 C137.920001,299.372 138.134666,299.460666 138.34,299.638 C138.545334,299.815334 138.648,300.099998 138.648,300.492 C138.648,300.772001 138.582667,301.079998 138.452,301.416 L133.104,317.348 C132.954666,317.814669 132.786668,318.197332 132.6,318.496 C132.413332,318.794668 132.096002,318.962666 131.648,319 L126.58,319 C126.262665,319.018667 126.001334,318.869335 125.796,318.552 C125.590666,318.234665 125.413334,317.870669 125.264,317.46 L122.66,310.18 L120.14,317.46 C119.990666,317.852002 119.822668,318.197332 119.636,318.496 C119.449332,318.794668 119.216001,318.953333 118.936,318.972 L116.276,319 L113.728,318.972 C113.429332,318.934666 113.168001,318.780668 112.944,318.51 C112.719999,318.239332 112.514668,317.805336 112.328,317.208 L107.008,301.416 C106.895999,301.079998 106.84,300.790668 106.84,300.548 C106.84,300.155998 106.947332,299.862001 107.162,299.666 C107.376668,299.469999 107.586666,299.372 107.792,299.372 L111.068,299.372 C111.590669,299.372 111.991999,299.455999 112.272,299.624 C112.552001,299.792001 112.813332,300.118664 113.056,300.604 L113.196,300.94 L116.5,310.32 L119.58,300.52 C119.673334,300.146665 119.864665,299.862001 120.154,299.666 C120.443335,299.469999 120.783998,299.372 121.176,299.372 L124.312,299.372 Z M146.712,304.412 L146.712,306.68 L154.608,306.68 C154.906668,306.68 155.172665,306.796666 155.406,307.03 C155.639334,307.263334 155.756,307.557332 155.756,307.912 L155.756,310.348 C155.756,310.665335 155.639334,310.949999 155.406,311.202 C155.172665,311.454001 154.906668,311.58 154.608,311.58 L146.712,311.58 L146.712,314.072 L155,314.072 C155.317335,314.072 155.592666,314.188666 155.826,314.422 C156.059335,314.655334 156.176,314.958665 156.176,315.332 L156.176,317.74 C156.176,318.076002 156.059335,318.369999 155.826,318.622 C155.592666,318.874001 155.317335,319 155,319 L141.784,319 C141.466665,319 141.191335,318.874001 140.958,318.622 C140.724666,318.369999 140.608,318.076002 140.608,317.74 L140.608,300.744 C140.608,300.389332 140.724666,300.095334 140.958,299.862 C141.191335,299.628666 141.466665,299.512 141.784,299.512 L155,299.512 C155.317335,299.512 155.592666,299.628666 155.826,299.862 C156.059335,300.095334 156.176,300.389332 156.176,300.744 L156.176,303.18 C156.176,303.497335 156.054668,303.781999 155.812,304.034 C155.569332,304.286001 155.298668,304.412 155,304.412 L146.712,304.412 Z M160.096,317.768 L160.096,300.688 C160.096,300.333332 160.207999,300.030001 160.432,299.778 C160.656001,299.525999 160.954665,299.4 161.328,299.4 L165.164,299.4 C165.500002,299.4 165.784665,299.525999 166.018,299.778 C166.251334,300.030001 166.368,300.333332 166.368,300.688 L166.368,317.768 C166.368,318.160002 166.251334,318.472666 166.018,318.706 C165.784665,318.939334 165.500002,319.056 165.164,319.056 L161.328,319.056 C160.954665,319.056 160.656001,318.939334 160.432,318.706 C160.207999,318.472666 160.096,318.160002 160.096,317.768 Z M186.92,299.372 C187.722671,299.372 188.235999,299.763996 188.46,300.548 L191.596,310.32 L194.844,300.94 L194.984,300.604 L194.984,300.632 C195.264001,300.127997 195.543999,299.792001 195.824,299.624 C196.104001,299.455999 196.505331,299.372 197.028,299.372 L200.304,299.372 C200.528001,299.372 200.742666,299.460666 200.948,299.638 C201.153334,299.815334 201.256,300.099998 201.256,300.492 C201.256,300.772001 201.190667,301.079998 201.06,301.416 L195.712,317.348 C195.562666,317.814669 195.394668,318.197332 195.208,318.496 C195.021332,318.794668 194.704002,318.962666 194.256,319 L189.188,319 C188.870665,319.018667 188.609334,318.869335 188.404,318.552 C188.198666,318.234665 188.021334,317.870669 187.872,317.46 L185.268,310.18 L182.748,317.46 C182.598666,317.852002 182.430668,318.197332 182.244,318.496 C182.057332,318.794668 181.824001,318.953333 181.544,318.972 L178.884,319 L176.336,318.972 C176.037332,318.934666 175.776001,318.780668 175.552,318.51 C175.327999,318.239332 175.122668,317.805336 174.936,317.208 L169.616,301.416 C169.503999,301.079998 169.448,300.790668 169.448,300.548 C169.448,300.155998 169.555332,299.862001 169.77,299.666 C169.984668,299.469999 170.194666,299.372 170.4,299.372 L173.676,299.372 C174.198669,299.372 174.599999,299.455999 174.88,299.624 C175.160001,299.792001 175.421332,300.118664 175.664,300.604 L175.804,300.94 L179.108,310.32 L182.188,300.52 C182.281334,300.146665 182.472665,299.862001 182.762,299.666 C183.051335,299.469999 183.391998,299.372 183.784,299.372 L186.92,299.372 Z M209.32,304.412 L209.32,306.68 L217.216,306.68 C217.514668,306.68 217.780665,306.796666 218.014,307.03 C218.247334,307.263334 218.364,307.557332 218.364,307.912 L218.364,310.348 C218.364,310.665335 218.247334,310.949999 218.014,311.202 C217.780665,311.454001 217.514668,311.58 217.216,311.58 L209.32,311.58 L209.32,314.072 L217.608,314.072 C217.925335,314.072 218.200666,314.188666 218.434,314.422 C218.667335,314.655334 218.784,314.958665 218.784,315.332 L218.784,317.74 C218.784,318.076002 218.667335,318.369999 218.434,318.622 C218.200666,318.874001 217.925335,319 217.608,319 L204.392,319 C204.074665,319 203.799335,318.874001 203.566,318.622 C203.332666,318.369999 203.216,318.076002 203.216,317.74 L203.216,300.744 C203.216,300.389332 203.332666,300.095334 203.566,299.862 C203.799335,299.628666 204.074665,299.512 204.392,299.512 L217.608,299.512 C217.925335,299.512 218.200666,299.628666 218.434,299.862 C218.667335,300.095334 218.784,300.389332 218.784,300.744 L218.784,303.18 C218.784,303.497335 218.662668,303.781999 218.42,304.034 C218.177332,304.286001 217.906668,304.412 217.608,304.412 L209.32,304.412 Z M222.704,317.768 L222.704,300.688 C222.704,300.333332 222.815999,300.030001 223.04,299.778 C223.264001,299.525999 223.562665,299.4 223.936,299.4 L227.772,299.4 C228.108002,299.4 228.392665,299.525999 228.626,299.778 C228.859335,300.030001 228.976,300.333332 228.976,300.688 L228.976,317.768 C228.976,318.160002 228.859335,318.472666 228.626,318.706 C228.392665,318.939334 228.108002,319.056 227.772,319.056 L223.936,319.056 C223.562665,319.056 223.264001,318.939334 223.04,318.706 C222.815999,318.472666 222.704,318.160002 222.704,317.768 Z M241.436,309.984 L241.408,300.24 C241.408,299.679997 241.72533,299.4 242.36,299.4 L246.028,299.4 C246.401335,299.4 246.690666,299.474666 246.896,299.624 C247.101334,299.773334 247.204,299.978665 247.204,300.24 L247.316,309.368 C247.334667,310.581339 247.665997,311.537997 248.31,312.238 C248.954003,312.938003 249.826661,313.288 250.928,313.288 C253.093344,313.288 254.176,312.056012 254.176,309.592 L254.232,300.296 C254.232,300.053332 254.348665,299.843334 254.582,299.666 C254.815335,299.488666 255.090665,299.4 255.408,299.4 L259.132,299.4 C259.486668,299.4 259.761999,299.479333 259.958,299.638 C260.154001,299.796667 260.242667,300.015999 260.224,300.296 L260.224,304.44 C260.224,307.016013 260.228667,308.62133 260.238,309.256 C260.247333,309.89067 260.252,310.226666 260.252,310.264 C260.270667,311.776008 260.014003,313.20866 259.482,314.562 C258.949997,315.91534 257.988674,317.044662 256.598,317.95 C255.207326,318.855338 253.336012,319.308 250.984,319.308 C248.837323,319.308 247.050007,318.869338 245.622,317.992 C244.193993,317.114662 243.139337,315.97134 242.458,314.562 C241.776663,313.15266 241.436,311.626675 241.436,309.984 Z M262.884,317.992 C262.884,317.767999 262.949333,317.581334 263.08,317.432 L269.436,308.808 L263.388,301.024 C263.275999,300.855999 263.22,300.669334 263.22,300.464 C263.22,300.221332 263.303999,299.997334 263.472,299.792 C263.640001,299.586666 263.835999,299.484 264.06,299.484 L269.604,299.484 C269.865335,299.484 270.098666,299.605332 270.304,299.848 L273.104,303.712 L275.96,299.848 C276.034667,299.735999 276.132666,299.647334 276.254,299.582 C276.375334,299.516666 276.510666,299.484 276.66,299.484 L282.148,299.484 C282.390668,299.484 282.600666,299.581999 282.778,299.778 C282.955334,299.974001 283.044,300.202665 283.044,300.464 C283.044,300.688001 282.978667,300.874666 282.848,301.024 L276.548,308.78 L283.184,317.432 C283.296001,317.600001 283.352,317.777332 283.352,317.964 C283.352,318.206668 283.268001,318.425999 283.1,318.622 C282.931999,318.818001 282.717335,318.916 282.456,318.916 L276.464,318.916 C276.314666,318.916 276.170001,318.869334 276.03,318.776 C275.889999,318.682666 275.773334,318.570667 275.68,318.44 L273.104,314.8 L270.584,318.44 C270.303999,318.757335 270.070668,318.916 269.884,318.916 L263.808,318.916 C263.546665,318.916 263.327334,318.822668 263.15,318.636 C262.972666,318.449332 262.884,318.234668 262.884,317.992 Z M285.872,317.768 L285.872,300.632 C285.872,300.295998 285.993332,300.006668 286.236,299.764 C286.478668,299.521332 286.767998,299.4 287.104,299.4 L294.664,299.4 C296.437342,299.4 298.103326,299.843329 299.662,300.73 C301.220674,301.616671 302.461995,302.811326 303.386,304.314 C304.310005,305.816674 304.772,307.445325 304.772,309.2 C304.772,310.954675 304.305338,312.583326 303.372,314.086 C302.438662,315.588674 301.188008,316.783329 299.62,317.67 C298.051992,318.556671 296.381342,319 294.608,319 L287.104,319 C286.767998,319 286.478668,318.878668 286.236,318.636 C285.993332,318.393332 285.872,318.104002 285.872,317.768 Z M294.72,312.98 C295.336003,312.98 295.909997,312.802668 296.442,312.448 C296.974003,312.093332 297.403332,311.603336 297.73,310.978 C298.056668,310.352664 298.22,309.66667 298.22,308.92 C298.22,308.191996 298.061335,307.520003 297.744,306.904 C297.426665,306.287997 297.002003,305.798002 296.47,305.434 C295.937997,305.069998 295.364003,304.888 294.748,304.888 L292.144,304.888 C292.013333,304.888 291.906,304.934666 291.822,305.028 C291.738,305.121334 291.696,305.242666 291.696,305.392 L291.696,312.476 C291.696,312.625334 291.738,312.746666 291.822,312.84 C291.906,312.933334 292.013333,312.98 292.144,312.98 L294.72,312.98 Z" id="WeiWei-UXD" fill="#11D2AC"></path>
    </g>
</svg>