<?xml version="1.0" encoding="UTF-8"?>
<svg width="400px" height="400px" viewBox="0 0 400 400" version="1.1" xmlns="http://www.w3.org/2000/svg" xmlns:xlink="http://www.w3.org/1999/xlink">
    <!-- Generator: Sketch 49.1 (51147) - http://www.bohemiancoding.com/sketch -->
    <title>Artboard 5</title>
    <desc>Created with Sketch.</desc>
    <defs>
        <rect id="path-1" x="45" y="112" width="217" height="279"></rect>
        <rect id="path-2" x="0" y="0" width="78" height="68"></rect>
        <path d="M35.9233233,73.2362683 L44.4479135,73.2362683 C44.8480077,75.2945747 45.4055808,78.1630392 46.1206326,81.841662 C46.8356844,85.5202849 48.5356357,87.957117 51.2204864,89.1521586 L36.4156174,92.0299336 L36.7214657,83.1403524 L35.9233233,73.2362683 Z" id="path-4"></path>
    </defs>
    <g id="Artboard-5" stroke="none" stroke-width="1" fill="none" fill-rule="evenodd">
        <text id="Sign-the-contract" font-family="OpenSans, Open Sans" font-size="20" font-weight="normal" letter-spacing="-0.482353032" fill="#4A4A4A">
            <tspan x="123" y="75">Sign the contract </tspan>
        </text>
        <g id="Group" transform="translate(28.000000, 5.000000)">
            <polygon id="Triangle" fill="#A2EFFC" opacity="0.2" points="283 0 429 221.703704 137 221.703704"></polygon>
            <g id="Rectangle-3">
                <use fill="#FFFFFF" fill-rule="evenodd" xlink:href="#path-1"></use>
                <rect stroke="#4A4A4A" stroke-width="1" x="45.5" y="112.5" width="216" height="278"></rect>
            </g>
            <g id="Content" transform="translate(68.000000, 221.000000)" fill="#EBEBEB">
                <rect id="Rectangle-11" x="0" y="0" width="170" height="3"></rect>
                <rect id="Rectangle-11" x="0" y="11" width="170" height="3"></rect>
                <rect id="Rectangle-11" x="0" y="22" width="170" height="3"></rect>
                <rect id="Rectangle-11" x="0" y="33" width="170" height="3"></rect>
                <rect id="Rectangle-11" x="0" y="44" width="170" height="3"></rect>
                <rect id="Rectangle-11" x="0" y="55" width="170" height="3"></rect>
                <rect id="Rectangle-11" x="0" y="66" width="170" height="3"></rect>
                <rect id="Rectangle-11" x="0" y="77" width="170" height="3"></rect>
                <rect id="Rectangle-11" x="0" y="88" width="170" height="3"></rect>
                <rect id="Rectangle-11" x="0" y="99" width="170" height="3"></rect>
            </g>
            <g id="iconRoomie" transform="translate(120.000000, 131.000000)">
                <ellipse id="Oval" fill="#E4E4E4" cx="21.6979534" cy="39.8533539" rx="5.15685737" ry="5.48955784"></ellipse>
                <ellipse id="Oval" fill="#9B9B9B" cx="47.2434079" cy="40.6275475" rx="5.15685737" ry="5.48955784"></ellipse>
                <path d="M52.4468496,61.0689948 C53.0297605,60.4976108 53.3670787,59.8195248 53.3670787,59.0347368 C53.3670787,54.7639222 51.1307872,51.0914242 47.9263921,49.4699674 C48.8381061,48.4798115 49.4002653,47.1235646 49.4002653,45.6275475 C49.4002653,42.5957484 47.0914616,40.1379896 44.2434079,40.1379896 C41.3953543,40.1379896 39.0865506,42.5957484 39.0865506,45.6275475 C39.0865506,47.1235646 39.6487098,48.4798115 40.5604238,49.4699674 C37.3560287,51.0914242 35.1197372,54.7639222 35.1197372,59.0347368 C35.1197372,59.8195248 35.4570554,60.4976108 36.0399662,61.0689948 L30.113965,61.0689948 C30.5655094,60.547193 30.8216241,59.9443758 30.8216241,59.2605433 C30.8216241,54.9897286 28.5853326,51.3172307 25.3809376,49.6957739 C26.2926516,48.705618 26.8548108,47.3493711 26.8548108,45.8533539 C26.8548108,42.8215549 24.5460071,40.3637961 21.6979534,40.3637961 C18.8498997,40.3637961 16.541096,42.8215549 16.541096,45.8533539 C16.541096,47.3493711 17.1032552,48.705618 18.0149692,49.6957739 C14.8105741,51.3172307 12.5742827,54.9897286 12.5742827,59.2605433 C12.5742827,59.9443758 12.8303974,60.547193 13.2819417,61.0689948 L5.92350497,61.0689948 C4.81893547,61.0689948 3.92350497,60.1735643 3.92350497,59.0689948 L3.92350497,36.8594088 L2,36.8594088 C0.8954305,36.8594088 -7.10542736e-15,35.9639783 -7.10542736e-15,34.8594088 C-7.10542736e-15,34.3418526 0.200633628,33.8444482 0.559732389,33.4717384 L32.2191452,0.612331745 C32.9855344,-0.183106093 34.2516454,-0.206654655 35.0470832,0.559734559 C35.0649402,0.576939379 35.0824756,0.594474806 35.0996804,0.612331745 L66.7590932,33.4717384 C67.5254824,34.2671762 67.5019338,35.5332872 66.706496,36.2996764 C66.3337862,36.6587752 65.8363818,36.8594088 65.3188256,36.8594088 L63.923505,36.8594088 L63.923505,59.0689948 C63.923505,60.1735643 63.0280745,61.0689948 61.923505,61.0689948 L52.4468496,61.0689948 Z" id="Combined-Shape" stroke="#4A4A4A" fill="#49C89F"></path>
                <g id="Roomie" transform="translate(11.727273, 38.290323)"></g>
            </g>
            <g id="RightHandWithPen" transform="translate(170.000000, 260.000000)">
                <polygon id="Path-15" stroke="#4A4A4A" fill="#4A4A4A" points="0 33 27 43 129 98 129 110 120 110 27 56"></polygon>
                <g id="rightHand" transform="translate(7.000000, 0.000000)" fill="#FFFFFF" stroke="#4A4A4A">
                    <path d="M23,29 L20,37 C19.0441569,41.4888067 20.0441569,44.1554734 23,45 C25.9558431,45.8445266 28.6225098,44.1778599 31,40 L44,19 L31,15 L23,29 Z" id="Path-16"></path>
                    <path d="M34.3503487,35 L31.3503487,43 C30.3945056,47.4888067 31.3945056,50.1554734 34.3503487,51 C37.3061918,51.8445266 39.9728584,50.1778599 42.3503487,46 L55,25 L42.3503487,21 L34.3503487,35 Z" id="Path-16"></path>
                    <path d="M45.3503487,41 L42.3503487,49 C41.3945056,53.4888067 42.3945056,56.1554734 45.3503487,57 C48.3061918,57.8445266 50.9728584,56.1778599 53.3503487,52 L66,30.1065069 L53.3503487,27 L45.3503487,41 Z" id="Path-16"></path>
                    <path d="M4,47 C9.72085731,47.299872 14.387524,48.6332054 18,51 C21.612476,53.3667946 24.612476,58.700128 27,67 C34.9784027,73.4750315 40.6450693,77.4750315 44,79 C47.3549307,80.5249685 52.688264,80.5249685 60,79 C62.5031341,67.1351858 62.5031341,57.1351858 60,49 C57.4968659,40.8648142 50.1635326,31.8648142 38,22 C21.3333333,33.3333333 11.6666667,39 9,39 C5,39 2.27373675e-13,37 4.54747351e-13,32 C6.82023495e-13,27 11.3003332,24.3176753 19,18 C26.6996668,11.6823247 31,5 38,1 C44,-2 51,7 60,15 C65.3333333,21 70.6666667,26.6666667 76,32 C66.6666667,24 61.3333333,18.3333333 60,15 C64.6666667,11.2213542 75,15.8880208 91,29 C93.0956927,30.7813388 80,22 78,19 C90,16.3333333 99.3333333,23 106,39 L120,94 L163,136 C171.025516,141.545549 169.358849,146.545549 158,151 C146.641151,155.454451 134.974484,157.787784 123,158 L86,128 L71,115 C51.6666667,106.333333 40.3333333,101 37,99 C32,96 24,95 18,86 C14,80 9.33333333,67 4,47 Z" id="Path-14-Copy"></path>
                </g>
                <g id="Pen_lowerHalf" transform="translate(62.000000, 56.000000)">
                    <mask id="mask-3" fill="white">
                        <use xlink:href="#path-2"></use>
                    </mask>
                    <g id="Mask"></g>
                    <path d="M-62,-23 L-35,-13 L67,42 C66.8100361,46.4755074 66.1433695,49.4755074 65,51 C63.8566305,52.5244926 61.5232972,53.5244926 58,54 L-35,0 L-62,-23 Z" id="Path-15-Copy" stroke="#4A4A4A" fill="#4A4A4A" mask="url(#mask-3)"></path>
                </g>
            </g>
            <g id="Head-2" transform="translate(0.000000, 88.000000)">
                <g id="Rectangle-3" transform="translate(43.571905, 82.633101) rotate(11.000000) translate(-43.571905, -82.633101) ">
                    <use fill="#FFFFFF" fill-rule="evenodd" xlink:href="#path-4"></use>
                    <path stroke="#4A4A4A" stroke-width="1" d="M35.3814088,72.7362683 L44.8600817,72.7362683 L44.9387271,73.1408638 C45.6176078,76.6334024 45.6176078,76.6334024 46.6114462,81.7462575 C47.2972977,85.2746576 48.8999173,87.5719677 51.4238077,88.6953649 L52.872832,89.3403335 L35.8943106,92.6406237 L35.9159131,92.0127411 L36.2230814,83.1805158 L35.3814088,72.7362683 Z"></path>
                </g>
                <path d="M35.9233233,74.5477437 L44.4479135,74.5477437 C44.8480077,76.6060501 45.4055808,79.4745146 46.1206326,83.1531375 C46.8356844,86.8317603 48.5356357,89.2685924 51.2204864,90.463634 L36.4156174,93.341409 L36.7214657,84.4518278 L35.9233233,74.5477437 Z" id="Rectangle-3-Copy" fill="#FFFFFF" transform="translate(43.571905, 83.944576) rotate(11.000000) translate(-43.571905, -83.944576) "></path>
                <path d="M47.5409836,77.3770492 C65.5737705,77.3770492 71.4754098,61.2299418 71.4754098,41.3114754 C71.4754098,21.393009 64.2622951,5.24590164 47.5409836,5.24590164 C30.8196721,5.24590164 23.6065574,21.393009 23.6065574,41.3114754 C23.6065574,61.2299418 29.5081967,77.3770492 47.5409836,77.3770492 Z" id="Head" stroke="#4A4A4A" fill="#FFFFFF" transform="translate(47.540984, 41.311475) rotate(-15.000000) translate(-47.540984, -41.311475) "></path>
                <path d="M32.1311475,39.3442623 C42.7550896,36.3916778 49.9682043,33.8751371 53.7704918,31.7946402 C57.5727793,29.7141433 61.944364,25.4547277 66.8852459,19.0163934 C64.2622951,13.3333333 59.8907104,8.96174863 53.7704918,5.90163934 C44.5901639,1.31147541 29.5129255,3.34787037 20.3278689,10.4918033 C14.4262295,15.0819672 15.1800141,20.7166924 10.4918033,25.5737705 C7.12712721,29.0596407 1.02164881,29.7013657 0.655737705,31.7946402 C-0.145879371,36.3804659 12.232591,33.7034775 14.4262295,39.3442623 C15.2604948,41.489516 11.6839335,48.5245902 14.4262295,48.5245902 C18.3606557,48.5245902 24.2622951,54.6448087 32.1311475,66.8852459 L32.1311475,39.3442623 Z" id="Hair" stroke="#4A4A4A" fill="#4A4A4A"></path>
                <path d="M60.1153955,46.0562096 C64.4869802,52.2048309 66.6727726,56.1392571 66.6727726,57.8594883 C66.6727726,59.5797195 64.4869802,59.7982987 60.1153955,58.515226" id="Nose" stroke="#4A4A4A" fill="#FFFFFF" transform="translate(63.394084, 52.696834) rotate(-1.000000) translate(-63.394084, -52.696834) "></path>
            </g>
            <text id="Contract" font-family="OpenSans-Bold, Open Sans" font-size="14" font-weight="bold" letter-spacing="-0.33764711" fill="#4A4A4A">
                <tspan x="124" y="210">Contract</tspan>
            </text>
        </g>
        <text id="4" font-family="OpenSans-Bold, Open Sans" font-size="36" font-weight="bold" letter-spacing="-0.868235409" fill="#4A4A4A">
            <tspan x="190" y="43">4</tspan>
        </text>
    </g>
</svg>